<?xml version="1.0" encoding="UTF-8" standalone="no"?>
<!DOCTYPE svg PUBLIC "-//W3C//DTD SVG 1.1//EN"
 "http://www.w3.org/Graphics/SVG/1.1/DTD/svg11.dtd">
<!-- Generated by graphviz version 2.44.0 (20200408.0750)
 -->
<!-- Title: G Pages: 1 -->
<svg width="525pt" height="183pt"
 viewBox="0.00 0.00 525.00 183.00" xmlns="http://www.w3.org/2000/svg" xmlns:xlink="http://www.w3.org/1999/xlink">
<g id="graph0" class="graph" transform="scale(1 1) rotate(0) translate(4 179)">
<title>G</title>
<polygon fill="white" stroke="transparent" points="-4,4 -4,-179 521,-179 521,4 -4,4"/>
<!-- start -->
<g id="node1" class="node">
<title>start</title>
<ellipse fill="black" stroke="black" cx="0" cy="-135" rx="0" ry="0"/>
</g>
<!-- s -->
<g id="node3" class="node">
<title>s</title>
<ellipse fill="none" stroke="black" cx="66" cy="-135" rx="29" ry="29"/>
<text text-anchor="middle" x="66" y="-131.3" font-family="Times,serif" font-size="14.00">s</text>
</g>
<!-- start&#45;&gt;s -->
<g id="edge1" class="edge">
<title>start&#45;&gt;s</title>
<path fill="none" stroke="black" d="M1.05,-135C1.87,-135 13.45,-135 26.55,-135"/>
<polygon fill="black" stroke="black" points="26.7,-138.5 36.7,-135 26.7,-131.5 26.7,-138.5"/>
</g>
<!-- a -->
<g id="node2" class="node">
<title>a</title>
<ellipse fill="none" stroke="black" cx="484" cy="-142" rx="29" ry="29"/>
<ellipse fill="none" stroke="black" cx="484" cy="-142" rx="33" ry="33"/>
<text text-anchor="middle" x="484" y="-138.3" font-family="Times,serif" font-size="14.00">a</text>
</g>
<!-- s&#45;&gt;a -->
<g id="edge2" class="edge">
<title>s&#45;&gt;a</title>
<path fill="none" stroke="black" d="M94.58,-141.96C100.61,-143.21 106.99,-144.33 113,-145 254.34,-160.84 290.95,-154.08 433,-147 435.55,-146.87 438.18,-146.71 440.82,-146.52"/>
<polygon fill="black" stroke="black" points="441.35,-149.99 451.03,-145.68 440.77,-143.01 441.35,-149.99"/>
<text text-anchor="middle" x="293.5" y="-157.8" font-family="Times,serif" font-size="14.00">a∪b∪ℇ</text>
</g>
<!-- q2 -->
<g id="node4" class="node">
<title>q2</title>
<ellipse fill="none" stroke="black" cx="225" cy="-106" rx="29" ry="29"/>
<text text-anchor="start" x="219.5" y="-103.3" font-family="Times,serif" font-size="14.00">q</text>
<text text-anchor="start" x="226.5" y="-103.3" font-family="Times,serif" baseline-shift="sub" font-size="9.00">2</text>
</g>
<!-- s&#45;&gt;q2 -->
<g id="edge3" class="edge">
<title>s&#45;&gt;q2</title>
<path fill="none" stroke="black" d="M94.71,-129.88C120.19,-125.18 158.18,-118.16 186.4,-112.95"/>
<polygon fill="black" stroke="black" points="187.11,-116.37 196.31,-111.12 185.84,-109.49 187.11,-116.37"/>
<text text-anchor="middle" x="145.5" y="-129.8" font-family="Times,serif" font-size="14.00">(a∪b)(a∪b)</text>
</g>
<!-- q2&#45;&gt;a -->
<g id="edge4" class="edge">
<title>q2&#45;&gt;a</title>
<path fill="none" stroke="black" d="M253.99,-109.92C299.12,-116.24 388.21,-128.72 440.99,-136.11"/>
<polygon fill="black" stroke="black" points="440.64,-139.6 451.03,-137.52 441.62,-132.67 440.64,-139.6"/>
<text text-anchor="middle" x="362" y="-131.8" font-family="Times,serif" font-size="14.00">ℇ</text>
</g>
<!-- q3 -->
<g id="node5" class="node">
<title>q3</title>
<ellipse fill="none" stroke="black" cx="362" cy="-55" rx="29" ry="29"/>
<text text-anchor="start" x="356.5" y="-52.3" font-family="Times,serif" font-size="14.00">q</text>
<text text-anchor="start" x="363.5" y="-52.3" font-family="Times,serif" baseline-shift="sub" font-size="9.00">3</text>
</g>
<!-- q2&#45;&gt;q3 -->
<g id="edge5" class="edge">
<title>q2&#45;&gt;q3</title>
<path fill="none" stroke="black" d="M252.35,-96.05C273.16,-88.18 302.42,-77.13 325.33,-68.48"/>
<polygon fill="black" stroke="black" points="326.6,-71.74 334.72,-64.93 324.12,-65.19 326.6,-71.74"/>
<text text-anchor="middle" x="293.5" y="-92.8" font-family="Times,serif" font-size="14.00">a∪b</text>
</g>
<!-- q3&#45;&gt;a -->
<g id="edge6" class="edge">
<title>q3&#45;&gt;a</title>
<path fill="none" stroke="black" d="M389.09,-65.98C402.78,-72.33 419.47,-81.03 433,-91 440.55,-96.56 448,-103.29 454.76,-110.01"/>
<polygon fill="black" stroke="black" points="452.31,-112.51 461.79,-117.24 457.33,-107.63 452.31,-112.51"/>
<text text-anchor="middle" x="421" y="-94.8" font-family="Times,serif" font-size="14.00">ℇ</text>
</g>
<!-- q4 -->
<g id="node6" class="node">
<title>q4</title>
<ellipse fill="none" stroke="black" cx="484" cy="-29" rx="29" ry="29"/>
<text text-anchor="start" x="478.5" y="-26.3" font-family="Times,serif" font-size="14.00">q</text>
<text text-anchor="start" x="485.5" y="-26.3" font-family="Times,serif" baseline-shift="sub" font-size="9.00">4</text>
</g>
<!-- q3&#45;&gt;q4 -->
<g id="edge7" class="edge">
<title>q3&#45;&gt;q4</title>
<path fill="none" stroke="black" d="M390.53,-49.04C406.84,-45.5 427.74,-40.97 445.53,-37.12"/>
<polygon fill="black" stroke="black" points="446.57,-40.48 455.6,-34.94 445.08,-33.63 446.57,-40.48"/>
<text text-anchor="middle" x="421" y="-48.8" font-family="Times,serif" font-size="14.00">a∪b</text>
</g>
<!-- q4&#45;&gt;q4 -->
<g id="edge8" class="edge">
<title>q4&#45;&gt;q4</title>
<path fill="none" stroke="black" d="M472.45,-56.05C471.79,-66.89 475.64,-76 484,-76 489.48,-76 493.03,-72.08 494.63,-66.32"/>
<polygon fill="black" stroke="black" points="498.14,-66.32 495.55,-56.05 491.17,-65.69 498.14,-66.32"/>
<text text-anchor="middle" x="484" y="-79.8" font-family="Times,serif" font-size="14.00">a∪b</text>
</g>
</g>
</svg>
