<?xml version="1.0" encoding="UTF-8" standalone="no"?>
<!DOCTYPE svg PUBLIC "-//W3C//DTD SVG 1.1//EN"
 "http://www.w3.org/Graphics/SVG/1.1/DTD/svg11.dtd">
<!-- Generated by graphviz version 2.44.0 (20200408.0750)
 -->
<!-- Title: G Pages: 1 -->
<svg width="430pt" height="183pt"
 viewBox="0.00 0.00 430.00 183.00" xmlns="http://www.w3.org/2000/svg" xmlns:xlink="http://www.w3.org/1999/xlink">
<g id="graph0" class="graph" transform="scale(1 1) rotate(0) translate(4 179)">
<title>G</title>
<polygon fill="white" stroke="transparent" points="-4,4 -4,-179 426,-179 426,4 -4,4"/>
<!-- start -->
<g id="node1" class="node">
<title>start</title>
<ellipse fill="black" stroke="black" cx="0" cy="-86" rx="0" ry="0"/>
</g>
<!-- s -->
<g id="node3" class="node">
<title>s</title>
<ellipse fill="none" stroke="black" cx="66" cy="-86" rx="29" ry="29"/>
<text text-anchor="middle" x="66" y="-82.3" font-family="Times,serif" font-size="14.00">s</text>
</g>
<!-- start&#45;&gt;s -->
<g id="edge1" class="edge">
<title>start&#45;&gt;s</title>
<path fill="none" stroke="black" d="M1.05,-86C1.87,-86 13.45,-86 26.55,-86"/>
<polygon fill="black" stroke="black" points="26.7,-89.5 36.7,-86 26.7,-82.5 26.7,-89.5"/>
</g>
<!-- a -->
<g id="node2" class="node">
<title>a</title>
<ellipse fill="none" stroke="black" cx="389" cy="-142" rx="29" ry="29"/>
<ellipse fill="none" stroke="black" cx="389" cy="-142" rx="33" ry="33"/>
<text text-anchor="middle" x="389" y="-138.3" font-family="Times,serif" font-size="14.00">a</text>
</g>
<!-- s&#45;&gt;a -->
<g id="edge2" class="edge">
<title>s&#45;&gt;a</title>
<path fill="none" stroke="black" d="M94.65,-90.82C150.94,-100.64 279.19,-123.02 345.91,-134.66"/>
<polygon fill="black" stroke="black" points="345.62,-138.16 356.07,-136.43 346.82,-131.26 345.62,-138.16"/>
<text text-anchor="middle" x="225.5" y="-135.8" font-family="Times,serif" font-size="14.00">(a∪b)(a∪b)(a∪b)∪(a∪b)(a∪b)∪a∪b∪ℇ</text>
</g>
<!-- q4 -->
<g id="node4" class="node">
<title>q4</title>
<ellipse fill="none" stroke="black" cx="389" cy="-29" rx="29" ry="29"/>
<text text-anchor="start" x="383.5" y="-26.3" font-family="Times,serif" font-size="14.00">q</text>
<text text-anchor="start" x="390.5" y="-26.3" font-family="Times,serif" baseline-shift="sub" font-size="9.00">4</text>
</g>
<!-- s&#45;&gt;q4 -->
<g id="edge3" class="edge">
<title>s&#45;&gt;q4</title>
<path fill="none" stroke="black" d="M94.66,-79.06C100.69,-77.64 107.05,-76.21 113,-75 197.28,-57.9 297.02,-42.38 350.18,-34.48"/>
<polygon fill="black" stroke="black" points="350.79,-37.93 360.17,-33.01 349.77,-31 350.79,-37.93"/>
<text text-anchor="middle" x="225.5" y="-78.8" font-family="Times,serif" font-size="14.00">(a∪b)(a∪b)(a∪b)(a∪b)</text>
</g>
<!-- q4&#45;&gt;q4 -->
<g id="edge4" class="edge">
<title>q4&#45;&gt;q4</title>
<path fill="none" stroke="black" d="M364.44,-44.89C351.7,-59.81 359.89,-76 389,-76 412.42,-76 422.3,-65.52 418.63,-53.65"/>
<polygon fill="black" stroke="black" points="421.6,-51.79 413.56,-44.89 415.54,-55.3 421.6,-51.79"/>
<text text-anchor="middle" x="389" y="-79.8" font-family="Times,serif" font-size="14.00">a∪b</text>
</g>
</g>
</svg>
