<?xml version="1.0" encoding="UTF-8" standalone="no"?>
<!DOCTYPE svg PUBLIC "-//W3C//DTD SVG 1.1//EN"
 "http://www.w3.org/Graphics/SVG/1.1/DTD/svg11.dtd">
<!-- Generated by graphviz version 2.44.0 (20200408.0750)
 -->
<!-- Title: G Pages: 1 -->
<svg width="579pt" height="103pt"
 viewBox="0.00 0.00 579.00 103.00" xmlns="http://www.w3.org/2000/svg" xmlns:xlink="http://www.w3.org/1999/xlink">
<g id="graph0" class="graph" transform="scale(1 1) rotate(0) translate(4 99)">
<title>G</title>
<polygon fill="white" stroke="transparent" points="-4,4 -4,-99 575,-99 575,4 -4,4"/>
<!-- start -->
<g id="node1" class="node">
<title>start</title>
<ellipse fill="black" stroke="black" cx="0" cy="-33" rx="0" ry="0"/>
</g>
<!-- s -->
<g id="node2" class="node">
<title>s</title>
<ellipse fill="none" stroke="black" cx="70" cy="-33" rx="29" ry="29"/>
<ellipse fill="none" stroke="black" cx="70" cy="-33" rx="33" ry="33"/>
<text text-anchor="middle" x="70" y="-29.3" font-family="Times,serif" font-size="14.00">s</text>
</g>
<!-- start&#45;&gt;s -->
<g id="edge1" class="edge">
<title>start&#45;&gt;s</title>
<path fill="none" stroke="black" d="M1.05,-33C1.89,-33 13.34,-33 26.61,-33"/>
<polygon fill="black" stroke="black" points="26.97,-36.5 36.97,-33 26.97,-29.5 26.97,-36.5"/>
</g>
<!-- q1 -->
<g id="node3" class="node">
<title>q1</title>
<ellipse fill="none" stroke="black" cx="189" cy="-33" rx="29" ry="29"/>
<ellipse fill="none" stroke="black" cx="189" cy="-33" rx="33" ry="33"/>
<text text-anchor="start" x="183.5" y="-30.3" font-family="Times,serif" font-size="14.00">q</text>
<text text-anchor="start" x="190.5" y="-30.3" font-family="Times,serif" baseline-shift="sub" font-size="9.00">1</text>
</g>
<!-- s&#45;&gt;q1 -->
<g id="edge2" class="edge">
<title>s&#45;&gt;q1</title>
<path fill="none" stroke="black" d="M103.28,-33C116.32,-33 131.56,-33 145.49,-33"/>
<polygon fill="black" stroke="black" points="145.82,-36.5 155.82,-33 145.82,-29.5 145.82,-36.5"/>
<text text-anchor="middle" x="129.5" y="-36.8" font-family="Times,serif" font-size="14.00">a,b</text>
</g>
<!-- q2 -->
<g id="node4" class="node">
<title>q2</title>
<ellipse fill="none" stroke="black" cx="308" cy="-33" rx="29" ry="29"/>
<ellipse fill="none" stroke="black" cx="308" cy="-33" rx="33" ry="33"/>
<text text-anchor="start" x="302.5" y="-30.3" font-family="Times,serif" font-size="14.00">q</text>
<text text-anchor="start" x="309.5" y="-30.3" font-family="Times,serif" baseline-shift="sub" font-size="9.00">2</text>
</g>
<!-- q1&#45;&gt;q2 -->
<g id="edge3" class="edge">
<title>q1&#45;&gt;q2</title>
<path fill="none" stroke="black" d="M222.28,-33C235.32,-33 250.56,-33 264.49,-33"/>
<polygon fill="black" stroke="black" points="264.82,-36.5 274.82,-33 264.82,-29.5 264.82,-36.5"/>
<text text-anchor="middle" x="248.5" y="-36.8" font-family="Times,serif" font-size="14.00">a,b</text>
</g>
<!-- q3 -->
<g id="node5" class="node">
<title>q3</title>
<ellipse fill="none" stroke="black" cx="427" cy="-33" rx="29" ry="29"/>
<ellipse fill="none" stroke="black" cx="427" cy="-33" rx="33" ry="33"/>
<text text-anchor="start" x="421.5" y="-30.3" font-family="Times,serif" font-size="14.00">q</text>
<text text-anchor="start" x="428.5" y="-30.3" font-family="Times,serif" baseline-shift="sub" font-size="9.00">3</text>
</g>
<!-- q2&#45;&gt;q3 -->
<g id="edge4" class="edge">
<title>q2&#45;&gt;q3</title>
<path fill="none" stroke="black" d="M341.28,-33C354.32,-33 369.56,-33 383.49,-33"/>
<polygon fill="black" stroke="black" points="383.82,-36.5 393.82,-33 383.82,-29.5 383.82,-36.5"/>
<text text-anchor="middle" x="367.5" y="-36.8" font-family="Times,serif" font-size="14.00">a,b</text>
</g>
<!-- q4 -->
<g id="node6" class="node">
<title>q4</title>
<ellipse fill="none" stroke="black" cx="542" cy="-33" rx="29" ry="29"/>
<text text-anchor="start" x="536.5" y="-30.3" font-family="Times,serif" font-size="14.00">q</text>
<text text-anchor="start" x="543.5" y="-30.3" font-family="Times,serif" baseline-shift="sub" font-size="9.00">4</text>
</g>
<!-- q3&#45;&gt;q4 -->
<g id="edge5" class="edge">
<title>q3&#45;&gt;q4</title>
<path fill="none" stroke="black" d="M460.08,-33C473.29,-33 488.7,-33 502.51,-33"/>
<polygon fill="black" stroke="black" points="502.69,-36.5 512.69,-33 502.69,-29.5 502.69,-36.5"/>
<text text-anchor="middle" x="486.5" y="-36.8" font-family="Times,serif" font-size="14.00">a,b</text>
</g>
<!-- q4&#45;&gt;q4 -->
<g id="edge6" class="edge">
<title>q4&#45;&gt;q4</title>
<path fill="none" stroke="black" d="M531.91,-60.52C531.47,-71.16 534.83,-80 542,-80 546.71,-80 549.77,-76.19 551.2,-70.57"/>
<polygon fill="black" stroke="black" points="554.69,-70.79 552.09,-60.52 547.72,-70.17 554.69,-70.79"/>
<text text-anchor="middle" x="542" y="-83.8" font-family="Times,serif" font-size="14.00">a,b</text>
</g>
</g>
</svg>
