<?xml version="1.0" encoding="UTF-8" standalone="no"?>
<!DOCTYPE svg PUBLIC "-//W3C//DTD SVG 1.1//EN"
 "http://www.w3.org/Graphics/SVG/1.1/DTD/svg11.dtd">
<!-- Generated by graphviz version 2.44.0 (20200408.0750)
 -->
<!-- Title: G Pages: 1 -->
<svg width="583pt" height="211pt"
 viewBox="0.00 0.00 583.00 211.00" xmlns="http://www.w3.org/2000/svg" xmlns:xlink="http://www.w3.org/1999/xlink">
<g id="graph0" class="graph" transform="scale(1 1) rotate(0) translate(4 207)">
<title>G</title>
<polygon fill="white" stroke="transparent" points="-4,4 -4,-207 579,-207 579,4 -4,4"/>
<!-- start -->
<g id="node1" class="node">
<title>start</title>
<ellipse fill="black" stroke="black" cx="0" cy="-160" rx="0" ry="0"/>
</g>
<!-- s -->
<g id="node3" class="node">
<title>s</title>
<ellipse fill="none" stroke="black" cx="66" cy="-160" rx="29" ry="29"/>
<text text-anchor="middle" x="66" y="-156.3" font-family="Times,serif" font-size="14.00">s</text>
</g>
<!-- start&#45;&gt;s -->
<g id="edge1" class="edge">
<title>start&#45;&gt;s</title>
<path fill="none" stroke="black" d="M1.05,-160C1.87,-160 13.45,-160 26.55,-160"/>
<polygon fill="black" stroke="black" points="26.7,-163.5 36.7,-160 26.7,-156.5 26.7,-163.5"/>
</g>
<!-- a -->
<g id="node2" class="node">
<title>a</title>
<ellipse fill="none" stroke="black" cx="542" cy="-142" rx="29" ry="29"/>
<ellipse fill="none" stroke="black" cx="542" cy="-142" rx="33" ry="33"/>
<text text-anchor="middle" x="542" y="-138.3" font-family="Times,serif" font-size="14.00">a</text>
</g>
<!-- s&#45;&gt;a -->
<g id="edge2" class="edge">
<title>s&#45;&gt;a</title>
<path fill="none" stroke="black" d="M93.29,-170.11C116.52,-178.13 151.51,-188 183,-188 183,-188 183,-188 421,-188 450.41,-188 481.36,-175.8 504.45,-163.97"/>
<polygon fill="black" stroke="black" points="506.35,-166.92 513.53,-159.13 503.06,-160.74 506.35,-166.92"/>
<text text-anchor="middle" x="302" y="-191.8" font-family="Times,serif" font-size="14.00">ℇ</text>
</g>
<!-- q1 -->
<g id="node4" class="node">
<title>q1</title>
<ellipse fill="none" stroke="black" cx="184" cy="-131" rx="29" ry="29"/>
<text text-anchor="start" x="178.5" y="-128.3" font-family="Times,serif" font-size="14.00">q</text>
<text text-anchor="start" x="185.5" y="-128.3" font-family="Times,serif" baseline-shift="sub" font-size="9.00">1</text>
</g>
<!-- s&#45;&gt;q1 -->
<g id="edge3" class="edge">
<title>s&#45;&gt;q1</title>
<path fill="none" stroke="black" d="M94.2,-153.2C109.5,-149.37 128.84,-144.54 145.56,-140.36"/>
<polygon fill="black" stroke="black" points="146.72,-143.68 155.57,-137.86 145.02,-136.89 146.72,-143.68"/>
<text text-anchor="middle" x="125" y="-151.8" font-family="Times,serif" font-size="14.00">a∪b</text>
</g>
<!-- q1&#45;&gt;a -->
<g id="edge4" class="edge">
<title>q1&#45;&gt;a</title>
<path fill="none" stroke="black" d="M213.23,-131.87C275.54,-133.8 425.11,-138.42 498.68,-140.69"/>
<polygon fill="black" stroke="black" points="498.86,-144.2 508.96,-141.01 499.08,-137.2 498.86,-144.2"/>
<text text-anchor="middle" x="361" y="-139.8" font-family="Times,serif" font-size="14.00">ℇ</text>
</g>
<!-- q2 -->
<g id="node5" class="node">
<title>q2</title>
<ellipse fill="none" stroke="black" cx="302" cy="-85" rx="29" ry="29"/>
<text text-anchor="start" x="296.5" y="-82.3" font-family="Times,serif" font-size="14.00">q</text>
<text text-anchor="start" x="303.5" y="-82.3" font-family="Times,serif" baseline-shift="sub" font-size="9.00">2</text>
</g>
<!-- q1&#45;&gt;q2 -->
<g id="edge5" class="edge">
<title>q1&#45;&gt;q2</title>
<path fill="none" stroke="black" d="M211.32,-120.56C227.34,-114.21 248.01,-106.01 265.46,-99.09"/>
<polygon fill="black" stroke="black" points="266.78,-102.34 274.78,-95.4 264.2,-95.83 266.78,-102.34"/>
<text text-anchor="middle" x="243" y="-116.8" font-family="Times,serif" font-size="14.00">a∪b</text>
</g>
<!-- q2&#45;&gt;a -->
<g id="edge6" class="edge">
<title>q2&#45;&gt;a</title>
<path fill="none" stroke="black" d="M330.93,-89.37C360.47,-94.22 408.34,-102.73 449,-113 466.21,-117.35 484.94,-123.07 500.98,-128.28"/>
<polygon fill="black" stroke="black" points="499.99,-131.64 510.59,-131.44 502.18,-124.99 499.99,-131.64"/>
<text text-anchor="middle" x="420" y="-116.8" font-family="Times,serif" font-size="14.00">ℇ</text>
</g>
<!-- q3 -->
<g id="node6" class="node">
<title>q3</title>
<ellipse fill="none" stroke="black" cx="420" cy="-34" rx="29" ry="29"/>
<text text-anchor="start" x="414.5" y="-31.3" font-family="Times,serif" font-size="14.00">q</text>
<text text-anchor="start" x="421.5" y="-31.3" font-family="Times,serif" baseline-shift="sub" font-size="9.00">3</text>
</g>
<!-- q2&#45;&gt;q3 -->
<g id="edge7" class="edge">
<title>q2&#45;&gt;q3</title>
<path fill="none" stroke="black" d="M328.74,-73.68C344.85,-66.6 365.82,-57.38 383.5,-49.61"/>
<polygon fill="black" stroke="black" points="385.18,-52.69 392.93,-45.46 382.36,-46.28 385.18,-52.69"/>
<text text-anchor="middle" x="361" y="-68.8" font-family="Times,serif" font-size="14.00">a∪b</text>
</g>
<!-- q3&#45;&gt;a -->
<g id="edge8" class="edge">
<title>q3&#45;&gt;a</title>
<path fill="none" stroke="black" d="M447.44,-43.46C461.55,-49.47 478.53,-58.32 491,-70 502.35,-80.63 500.27,-87.13 509,-100 510.85,-102.73 512.82,-105.53 514.82,-108.31"/>
<polygon fill="black" stroke="black" points="512.16,-110.59 520.91,-116.56 517.79,-106.44 512.16,-110.59"/>
<text text-anchor="middle" x="479" y="-73.8" font-family="Times,serif" font-size="14.00">ℇ</text>
</g>
<!-- q4 -->
<g id="node7" class="node">
<title>q4</title>
<ellipse fill="none" stroke="black" cx="542" cy="-29" rx="29" ry="29"/>
<text text-anchor="start" x="536.5" y="-26.3" font-family="Times,serif" font-size="14.00">q</text>
<text text-anchor="start" x="543.5" y="-26.3" font-family="Times,serif" baseline-shift="sub" font-size="9.00">4</text>
</g>
<!-- q3&#45;&gt;q4 -->
<g id="edge9" class="edge">
<title>q3&#45;&gt;q4</title>
<path fill="none" stroke="black" d="M449.22,-32.76C455.1,-32.51 461.25,-32.24 467,-32 478.61,-31.51 491.24,-31 502.72,-30.53"/>
<polygon fill="black" stroke="black" points="503.04,-34.02 512.89,-30.12 502.75,-27.03 503.04,-34.02"/>
<text text-anchor="middle" x="479" y="-35.8" font-family="Times,serif" font-size="14.00">a∪b</text>
</g>
<!-- q4&#45;&gt;q4 -->
<g id="edge10" class="edge">
<title>q4&#45;&gt;q4</title>
<path fill="none" stroke="black" d="M530.45,-56.05C529.79,-66.89 533.64,-76 542,-76 547.48,-76 551.03,-72.08 552.63,-66.32"/>
<polygon fill="black" stroke="black" points="556.14,-66.32 553.55,-56.05 549.17,-65.69 556.14,-66.32"/>
<text text-anchor="middle" x="542" y="-79.8" font-family="Times,serif" font-size="14.00">a∪b</text>
</g>
</g>
</svg>
