<?xml version="1.0" encoding="UTF-8" standalone="no"?>
<!DOCTYPE svg PUBLIC "-//W3C//DTD SVG 1.1//EN"
 "http://www.w3.org/Graphics/SVG/1.1/DTD/svg11.dtd">
<!-- Generated by graphviz version 2.44.0 (20200408.0750)
 -->
<!-- Title: G Pages: 1 -->
<svg width="480pt" height="183pt"
 viewBox="0.00 0.00 480.00 183.00" xmlns="http://www.w3.org/2000/svg" xmlns:xlink="http://www.w3.org/1999/xlink">
<g id="graph0" class="graph" transform="scale(1 1) rotate(0) translate(4 179)">
<title>G</title>
<polygon fill="white" stroke="transparent" points="-4,4 -4,-179 476,-179 476,4 -4,4"/>
<!-- start -->
<g id="node1" class="node">
<title>start</title>
<ellipse fill="black" stroke="black" cx="0" cy="-110" rx="0" ry="0"/>
</g>
<!-- s -->
<g id="node3" class="node">
<title>s</title>
<ellipse fill="none" stroke="black" cx="66" cy="-110" rx="29" ry="29"/>
<text text-anchor="middle" x="66" y="-106.3" font-family="Times,serif" font-size="14.00">s</text>
</g>
<!-- start&#45;&gt;s -->
<g id="edge1" class="edge">
<title>start&#45;&gt;s</title>
<path fill="none" stroke="black" d="M1.05,-110C1.87,-110 13.45,-110 26.55,-110"/>
<polygon fill="black" stroke="black" points="26.7,-113.5 36.7,-110 26.7,-106.5 26.7,-113.5"/>
</g>
<!-- a -->
<g id="node2" class="node">
<title>a</title>
<ellipse fill="none" stroke="black" cx="439" cy="-142" rx="29" ry="29"/>
<ellipse fill="none" stroke="black" cx="439" cy="-142" rx="33" ry="33"/>
<text text-anchor="middle" x="439" y="-138.3" font-family="Times,serif" font-size="14.00">a</text>
</g>
<!-- s&#45;&gt;a -->
<g id="edge2" class="edge">
<title>s&#45;&gt;a</title>
<path fill="none" stroke="black" d="M94.09,-117.29C100.27,-118.72 106.83,-120.07 113,-121 213.68,-136.18 333.54,-140.39 395.77,-141.56"/>
<polygon fill="black" stroke="black" points="395.92,-145.06 405.98,-141.73 396.04,-138.06 395.92,-145.06"/>
<text text-anchor="middle" x="287" y="-143.8" font-family="Times,serif" font-size="14.00">(a∪b)(a∪b)∪a∪b∪ℇ</text>
</g>
<!-- q3 -->
<g id="node4" class="node">
<title>q3</title>
<ellipse fill="none" stroke="black" cx="287" cy="-77" rx="29" ry="29"/>
<text text-anchor="start" x="281.5" y="-74.3" font-family="Times,serif" font-size="14.00">q</text>
<text text-anchor="start" x="288.5" y="-74.3" font-family="Times,serif" baseline-shift="sub" font-size="9.00">3</text>
</g>
<!-- s&#45;&gt;q3 -->
<g id="edge3" class="edge">
<title>s&#45;&gt;q3</title>
<path fill="none" stroke="black" d="M94.74,-105.82C133.63,-99.96 204.49,-89.28 248.19,-82.7"/>
<polygon fill="black" stroke="black" points="248.78,-86.15 258.14,-81.2 247.73,-79.23 248.78,-86.15"/>
<text text-anchor="middle" x="161.5" y="-105.8" font-family="Times,serif" font-size="14.00">(a∪b)(a∪b)(a∪b)</text>
</g>
<!-- q3&#45;&gt;a -->
<g id="edge4" class="edge">
<title>q3&#45;&gt;a</title>
<path fill="none" stroke="black" d="M314.84,-85.21C335.28,-91.8 363.91,-101.79 388,-113 392.6,-115.14 397.34,-117.57 401.97,-120.09"/>
<polygon fill="black" stroke="black" points="400.27,-123.14 410.71,-124.98 403.7,-117.04 400.27,-123.14"/>
<text text-anchor="middle" x="376" y="-116.8" font-family="Times,serif" font-size="14.00">ℇ</text>
</g>
<!-- q4 -->
<g id="node5" class="node">
<title>q4</title>
<ellipse fill="none" stroke="black" cx="439" cy="-29" rx="29" ry="29"/>
<text text-anchor="start" x="433.5" y="-26.3" font-family="Times,serif" font-size="14.00">q</text>
<text text-anchor="start" x="440.5" y="-26.3" font-family="Times,serif" baseline-shift="sub" font-size="9.00">4</text>
</g>
<!-- q3&#45;&gt;q4 -->
<g id="edge5" class="edge">
<title>q3&#45;&gt;q4</title>
<path fill="none" stroke="black" d="M314.82,-68.42C338.95,-60.7 374.63,-49.28 401.39,-40.72"/>
<polygon fill="black" stroke="black" points="402.71,-43.97 411.16,-37.59 400.57,-37.3 402.71,-43.97"/>
<text text-anchor="middle" x="376" y="-55.8" font-family="Times,serif" font-size="14.00">a∪b</text>
</g>
<!-- q4&#45;&gt;q4 -->
<g id="edge6" class="edge">
<title>q4&#45;&gt;q4</title>
<path fill="none" stroke="black" d="M427.45,-56.05C426.79,-66.89 430.64,-76 439,-76 444.48,-76 448.03,-72.08 449.63,-66.32"/>
<polygon fill="black" stroke="black" points="453.14,-66.32 450.55,-56.05 446.17,-65.69 453.14,-66.32"/>
<text text-anchor="middle" x="439" y="-79.8" font-family="Times,serif" font-size="14.00">a∪b</text>
</g>
</g>
</svg>
