<?xml version="1.0" encoding="UTF-8" standalone="no"?>
<!DOCTYPE svg PUBLIC "-//W3C//DTD SVG 1.1//EN"
 "http://www.w3.org/Graphics/SVG/1.1/DTD/svg11.dtd">
<!-- Generated by graphviz version 2.44.0 (20200408.0750)
 -->
<!-- Title: G Pages: 1 -->
<svg width="600pt" height="427pt"
 viewBox="0.00 0.00 600.00 427.00" xmlns="http://www.w3.org/2000/svg" xmlns:xlink="http://www.w3.org/1999/xlink">
<g id="graph0" class="graph" transform="scale(1 1) rotate(0) translate(4 423)">
<title>G</title>
<polygon fill="white" stroke="transparent" points="-4,4 -4,-423 596,-423 596,4 -4,4"/>
<!-- ∅ -->
<g id="node1" class="node">
<title>∅</title>
<ellipse fill="none" stroke="black" cx="262" cy="-357" rx="29" ry="29"/>
<text text-anchor="middle" x="262" y="-353.3" font-family="Times,serif" font-size="14.00">∅</text>
</g>
<!-- ∅&#45;&gt;∅ -->
<g id="edge1" class="edge">
<title>∅&#45;&gt;∅</title>
<path fill="none" stroke="black" d="M250.82,-384.05C250.19,-394.89 253.91,-404 262,-404 267.31,-404 270.74,-400.08 272.29,-394.32"/>
<polygon fill="black" stroke="black" points="275.8,-394.31 273.18,-384.05 268.83,-393.71 275.8,-394.31"/>
<text text-anchor="middle" x="262" y="-407.8" font-family="Times,serif" font-size="14.00">0,1</text>
</g>
<!-- q0 -->
<g id="node2" class="node">
<title>q0</title>
<ellipse fill="none" stroke="black" cx="142" cy="-197" rx="29" ry="29"/>
<text text-anchor="start" x="135" y="-194.3" font-family="Times,serif" font-size="14.00">q</text>
<text text-anchor="start" x="142" y="-194.3" font-family="Times,serif" baseline-shift="sub" font-size="14.00">0</text>
</g>
<!-- q1q2 -->
<g id="node7" class="node">
<title>q1q2</title>
<ellipse fill="none" stroke="black" cx="262" cy="-178" rx="29" ry="29"/>
<ellipse fill="none" stroke="black" cx="262" cy="-178" rx="33" ry="33"/>
<text text-anchor="start" x="248" y="-175.3" font-family="Times,serif" font-size="14.00">q</text>
<text text-anchor="start" x="255" y="-175.3" font-family="Times,serif" baseline-shift="sub" font-size="14.00">1</text>
<text text-anchor="start" x="262" y="-175.3" font-family="Times,serif" font-size="14.00">q</text>
<text text-anchor="start" x="269" y="-175.3" font-family="Times,serif" baseline-shift="sub" font-size="14.00">2</text>
</g>
<!-- q0&#45;&gt;q1q2 -->
<g id="edge2" class="edge">
<title>q0&#45;&gt;q1q2</title>
<path fill="none" stroke="black" d="M170.67,-192.55C185.08,-190.22 203.02,-187.34 219.1,-184.75"/>
<polygon fill="black" stroke="black" points="220.02,-188.14 229.34,-183.1 218.91,-181.23 220.02,-188.14"/>
<text text-anchor="middle" x="202" y="-192.8" font-family="Times,serif" font-size="14.00">0,1</text>
</g>
<!-- q1 -->
<g id="node3" class="node">
<title>q1</title>
<ellipse fill="none" stroke="black" cx="142" cy="-277" rx="29" ry="29"/>
<ellipse fill="none" stroke="black" cx="142" cy="-277" rx="33" ry="33"/>
<text text-anchor="start" x="135" y="-274.3" font-family="Times,serif" font-size="14.00">q</text>
<text text-anchor="start" x="142" y="-274.3" font-family="Times,serif" baseline-shift="sub" font-size="14.00">1</text>
</g>
<!-- q0q2 -->
<g id="node6" class="node">
<title>q0q2</title>
<ellipse fill="none" stroke="black" cx="378" cy="-216" rx="29" ry="29"/>
<text text-anchor="start" x="364" y="-213.3" font-family="Times,serif" font-size="14.00">q</text>
<text text-anchor="start" x="371" y="-213.3" font-family="Times,serif" baseline-shift="sub" font-size="14.00">0</text>
<text text-anchor="start" x="378" y="-213.3" font-family="Times,serif" font-size="14.00">q</text>
<text text-anchor="start" x="385" y="-213.3" font-family="Times,serif" baseline-shift="sub" font-size="14.00">2</text>
</g>
<!-- q1&#45;&gt;q0q2 -->
<g id="edge3" class="edge">
<title>q1&#45;&gt;q0q2</title>
<path fill="none" stroke="black" d="M174.99,-274.45C206.13,-271.39 254.55,-265.08 295,-253 311.33,-248.12 328.63,-240.68 343.11,-233.75"/>
<polygon fill="black" stroke="black" points="344.75,-236.85 352.19,-229.3 341.67,-230.56 344.75,-236.85"/>
<text text-anchor="middle" x="262" y="-270.8" font-family="Times,serif" font-size="14.00">0</text>
</g>
<!-- q1&#45;&gt;q1q2 -->
<g id="edge4" class="edge">
<title>q1&#45;&gt;q1q2</title>
<path fill="none" stroke="black" d="M167.74,-256.25C185.36,-241.46 209.22,-221.44 228.4,-205.35"/>
<polygon fill="black" stroke="black" points="230.88,-207.84 236.3,-198.73 226.39,-202.47 230.88,-207.84"/>
<text text-anchor="middle" x="202" y="-236.8" font-family="Times,serif" font-size="14.00">1</text>
</g>
<!-- q2 -->
<g id="node4" class="node">
<title>q2</title>
<ellipse fill="none" stroke="black" cx="142" cy="-357" rx="29" ry="29"/>
<text text-anchor="start" x="135" y="-354.3" font-family="Times,serif" font-size="14.00">q</text>
<text text-anchor="start" x="142" y="-354.3" font-family="Times,serif" baseline-shift="sub" font-size="14.00">2</text>
</g>
<!-- q2&#45;&gt;∅ -->
<g id="edge5" class="edge">
<title>q2&#45;&gt;∅</title>
<path fill="none" stroke="black" d="M171.26,-357C186.73,-357 206.12,-357 222.91,-357"/>
<polygon fill="black" stroke="black" points="222.97,-360.5 232.97,-357 222.97,-353.5 222.97,-360.5"/>
<text text-anchor="middle" x="202" y="-360.8" font-family="Times,serif" font-size="14.00">0</text>
</g>
<!-- q2&#45;&gt;q1q2 -->
<g id="edge6" class="edge">
<title>q2&#45;&gt;q1q2</title>
<path fill="none" stroke="black" d="M161.86,-335.75C166.33,-330.41 170.97,-324.6 175,-319 199.26,-285.29 223.59,-244.6 240.15,-215.61"/>
<polygon fill="black" stroke="black" points="243.36,-217.06 245.25,-206.63 237.27,-213.6 243.36,-217.06"/>
<text text-anchor="middle" x="202" y="-292.8" font-family="Times,serif" font-size="14.00">1</text>
</g>
<!-- q0q1 -->
<g id="node5" class="node">
<title>q0q1</title>
<ellipse fill="none" stroke="black" cx="33" cy="-102" rx="29" ry="29"/>
<ellipse fill="none" stroke="black" cx="33" cy="-102" rx="33" ry="33"/>
<text text-anchor="start" x="19" y="-99.3" font-family="Times,serif" font-size="14.00">q</text>
<text text-anchor="start" x="26" y="-99.3" font-family="Times,serif" baseline-shift="sub" font-size="14.00">0</text>
<text text-anchor="start" x="33" y="-99.3" font-family="Times,serif" font-size="14.00">q</text>
<text text-anchor="start" x="40" y="-99.3" font-family="Times,serif" baseline-shift="sub" font-size="14.00">1</text>
</g>
<!-- q0q1&#45;&gt;q1q2 -->
<g id="edge7" class="edge">
<title>q0q1&#45;&gt;q1q2</title>
<path fill="none" stroke="black" d="M65.05,-110.41C93.79,-118.39 137.58,-131.06 175,-144 190.56,-149.38 207.45,-155.91 222.11,-161.8"/>
<polygon fill="black" stroke="black" points="220.81,-165.04 231.39,-165.56 223.44,-158.56 220.81,-165.04"/>
<text text-anchor="middle" x="142" y="-147.8" font-family="Times,serif" font-size="14.00">1</text>
</g>
<!-- q0q1q2 -->
<g id="node9" class="node">
<title>q0q1q2</title>
<ellipse fill="none" stroke="black" cx="142" cy="-33" rx="29" ry="29"/>
<ellipse fill="none" stroke="black" cx="142" cy="-33" rx="33" ry="33"/>
<text text-anchor="start" x="121" y="-30.3" font-family="Times,serif" font-size="14.00">q</text>
<text text-anchor="start" x="128" y="-30.3" font-family="Times,serif" baseline-shift="sub" font-size="14.00">0</text>
<text text-anchor="start" x="135" y="-30.3" font-family="Times,serif" font-size="14.00">q</text>
<text text-anchor="start" x="142" y="-30.3" font-family="Times,serif" baseline-shift="sub" font-size="14.00">1</text>
<text text-anchor="start" x="149" y="-30.3" font-family="Times,serif" font-size="14.00">q</text>
<text text-anchor="start" x="156" y="-30.3" font-family="Times,serif" baseline-shift="sub" font-size="14.00">2</text>
</g>
<!-- q0q1&#45;&gt;q0q1q2 -->
<g id="edge8" class="edge">
<title>q0q1&#45;&gt;q0q1q2</title>
<path fill="none" stroke="black" d="M61.28,-84.41C74.61,-75.81 90.83,-65.35 105.15,-56.12"/>
<polygon fill="black" stroke="black" points="107.27,-58.92 113.77,-50.56 103.47,-53.04 107.27,-58.92"/>
<text text-anchor="middle" x="87.5" y="-73.8" font-family="Times,serif" font-size="14.00">0</text>
</g>
<!-- q0q2&#45;&gt;q1q2 -->
<g id="edge9" class="edge">
<title>q0q2&#45;&gt;q1q2</title>
<path fill="none" stroke="black" d="M357.31,-195.4C349.77,-188.88 340.64,-182.48 331,-179 322.86,-176.06 313.8,-174.73 305.02,-174.32"/>
<polygon fill="black" stroke="black" points="304.95,-170.81 294.92,-174.22 304.88,-177.81 304.95,-170.81"/>
<text text-anchor="middle" x="322" y="-182.8" font-family="Times,serif" font-size="14.00">0,1</text>
</g>
<!-- q1q2&#45;&gt;q0q2 -->
<g id="edge10" class="edge">
<title>q1q2&#45;&gt;q0q2</title>
<path fill="none" stroke="black" d="M293.55,-188.18C308.05,-193.02 325.48,-198.83 340.66,-203.89"/>
<polygon fill="black" stroke="black" points="339.66,-207.24 350.25,-207.08 341.87,-200.6 339.66,-207.24"/>
<text text-anchor="middle" x="322" y="-204.8" font-family="Times,serif" font-size="14.00">0</text>
</g>
<!-- q1q2&#45;&gt;q1q2 -->
<g id="edge11" class="edge">
<title>q1q2&#45;&gt;q1q2</title>
<path fill="none" stroke="black" d="M250.76,-209.12C250.58,-220.1 254.32,-229 262,-229 267.04,-229 270.38,-225.17 272.04,-219.43"/>
<polygon fill="black" stroke="black" points="275.56,-219.46 273.24,-209.12 268.6,-218.65 275.56,-219.46"/>
<text text-anchor="middle" x="262" y="-232.8" font-family="Times,serif" font-size="14.00">1</text>
</g>
<!-- start -->
<g id="node8" class="node">
<title>start</title>
<ellipse fill="black" stroke="black" cx="33" cy="-197" rx="0" ry="0"/>
</g>
<!-- start&#45;&gt;q0 -->
<g id="edge12" class="edge">
<title>start&#45;&gt;q0</title>
<path fill="none" stroke="black" d="M34.08,-197C35.99,-197 72.71,-197 102.6,-197"/>
<polygon fill="black" stroke="black" points="102.81,-200.5 112.81,-197 102.81,-193.5 102.81,-200.5"/>
</g>
<!-- q0q1q2&#45;&gt;q1q2 -->
<g id="edge13" class="edge">
<title>q0q1q2&#45;&gt;q1q2</title>
<path fill="none" stroke="black" d="M165.93,-55.9C179.55,-69.92 196.87,-88.47 211,-106 220.22,-117.44 229.6,-130.49 237.71,-142.32"/>
<polygon fill="black" stroke="black" points="234.86,-144.35 243.36,-150.67 240.65,-140.43 234.86,-144.35"/>
<text text-anchor="middle" x="202" y="-109.8" font-family="Times,serif" font-size="14.00">1</text>
</g>
<!-- q0q1q2&#45;&gt;q0q1q2 -->
<g id="edge14" class="edge">
<title>q0q1q2&#45;&gt;q0q1q2</title>
<path fill="none" stroke="black" d="M131.88,-64.63C131.82,-75.37 135.2,-84 142,-84 146.46,-84 149.45,-80.28 150.96,-74.69"/>
<polygon fill="black" stroke="black" points="154.46,-74.96 152.12,-64.63 147.5,-74.16 154.46,-74.96"/>
<text text-anchor="middle" x="142" y="-87.8" font-family="Times,serif" font-size="14.00">0</text>
</g>
<!-- Legend -->
<g id="node10" class="node">
<title>Legend</title>
<polygon fill="none" stroke="black" points="425.5,-316 425.5,-341 592.5,-341 592.5,-316 425.5,-316"/>
<text text-anchor="start" x="456.5" y="-325.8" font-family="Times,serif" font-style="italic" font-size="14.00">Transition function</text>
<polygon fill="none" stroke="black" points="425.5,-291 425.5,-316 480.5,-316 480.5,-291 425.5,-291"/>
<text text-anchor="start" x="449" y="-299.8" font-family="Times,serif" font-size="14.00">δ</text>
<polygon fill="none" stroke="black" points="480.5,-291 480.5,-316 532.5,-316 532.5,-291 480.5,-291"/>
<text text-anchor="start" x="503" y="-300.8" font-family="Times,serif" font-weight="bold" font-size="14.00">0</text>
<polygon fill="none" stroke="black" points="532.5,-291 532.5,-316 570.5,-316 570.5,-291 532.5,-291"/>
<text text-anchor="start" x="548" y="-300.8" font-family="Times,serif" font-weight="bold" font-size="14.00">1</text>
<polygon fill="none" stroke="black" points="570.5,-291 570.5,-316 592.5,-316 592.5,-291 570.5,-291"/>
<text text-anchor="start" x="576.5" y="-300.8" font-family="Times,serif" font-weight="bold" font-size="14.00">ℇ</text>
<polygon fill="none" stroke="black" points="425.5,-266 425.5,-291 480.5,-291 480.5,-266 425.5,-266"/>
<text text-anchor="start" x="447" y="-275.8" font-family="Times,serif" font-weight="bold" font-size="14.00">∅</text>
<polygon fill="none" stroke="black" points="480.5,-266 480.5,-291 532.5,-291 532.5,-266 480.5,-266"/>
<text text-anchor="start" x="500.5" y="-274.8" font-family="Times,serif" font-size="14.00">∅</text>
<polygon fill="none" stroke="black" points="532.5,-266 532.5,-291 570.5,-291 570.5,-266 532.5,-266"/>
<text text-anchor="start" x="545.5" y="-274.8" font-family="Times,serif" font-size="14.00">∅</text>
<polygon fill="none" stroke="black" points="570.5,-266 570.5,-291 592.5,-291 592.5,-266 570.5,-266"/>
<text text-anchor="start" x="575.5" y="-274.8" font-family="Times,serif" font-size="14.00">∅</text>
<polygon fill="none" stroke="black" points="425.5,-241 425.5,-266 480.5,-266 480.5,-241 425.5,-241"/>
<text text-anchor="start" x="445.5" y="-250.8" font-family="Times,serif" font-weight="bold" font-size="14.00">q</text>
<text text-anchor="start" x="453.5" y="-250.8" font-family="Times,serif" font-weight="bold" baseline-shift="sub" font-size="14.00">0</text>
<polygon fill="none" stroke="black" points="480.5,-241 480.5,-266 532.5,-266 532.5,-241 480.5,-241"/>
<text text-anchor="start" x="492.5" y="-250.8" font-family="Times,serif" font-size="14.00">q</text>
<text text-anchor="start" x="499.5" y="-250.8" font-family="Times,serif" baseline-shift="sub" font-size="14.00">1</text>
<text text-anchor="start" x="506.5" y="-250.8" font-family="Times,serif" font-size="14.00">q</text>
<text text-anchor="start" x="513.5" y="-250.8" font-family="Times,serif" baseline-shift="sub" font-size="14.00">2</text>
<polygon fill="none" stroke="black" points="532.5,-241 532.5,-266 570.5,-266 570.5,-241 532.5,-241"/>
<text text-anchor="start" x="537.5" y="-250.8" font-family="Times,serif" font-size="14.00">q</text>
<text text-anchor="start" x="544.5" y="-250.8" font-family="Times,serif" baseline-shift="sub" font-size="14.00">1</text>
<text text-anchor="start" x="551.5" y="-250.8" font-family="Times,serif" font-size="14.00">q</text>
<text text-anchor="start" x="558.5" y="-250.8" font-family="Times,serif" baseline-shift="sub" font-size="14.00">2</text>
<polygon fill="none" stroke="black" points="570.5,-241 570.5,-266 592.5,-266 592.5,-241 570.5,-241"/>
<text text-anchor="start" x="575.5" y="-249.8" font-family="Times,serif" font-size="14.00">∅</text>
<polygon fill="none" stroke="black" points="425.5,-216 425.5,-241 480.5,-241 480.5,-216 425.5,-216"/>
<text text-anchor="start" x="445.5" y="-225.8" font-family="Times,serif" font-weight="bold" font-size="14.00">q</text>
<text text-anchor="start" x="453.5" y="-225.8" font-family="Times,serif" font-weight="bold" baseline-shift="sub" font-size="14.00">1</text>
<polygon fill="none" stroke="black" points="480.5,-216 480.5,-241 532.5,-241 532.5,-216 480.5,-216"/>
<text text-anchor="start" x="492.5" y="-225.8" font-family="Times,serif" font-size="14.00">q</text>
<text text-anchor="start" x="499.5" y="-225.8" font-family="Times,serif" baseline-shift="sub" font-size="14.00">0</text>
<text text-anchor="start" x="506.5" y="-225.8" font-family="Times,serif" font-size="14.00">q</text>
<text text-anchor="start" x="513.5" y="-225.8" font-family="Times,serif" baseline-shift="sub" font-size="14.00">2</text>
<polygon fill="none" stroke="black" points="532.5,-216 532.5,-241 570.5,-241 570.5,-216 532.5,-216"/>
<text text-anchor="start" x="537.5" y="-225.8" font-family="Times,serif" font-size="14.00">q</text>
<text text-anchor="start" x="544.5" y="-225.8" font-family="Times,serif" baseline-shift="sub" font-size="14.00">1</text>
<text text-anchor="start" x="551.5" y="-225.8" font-family="Times,serif" font-size="14.00">q</text>
<text text-anchor="start" x="558.5" y="-225.8" font-family="Times,serif" baseline-shift="sub" font-size="14.00">2</text>
<polygon fill="none" stroke="black" points="570.5,-216 570.5,-241 592.5,-241 592.5,-216 570.5,-216"/>
<text text-anchor="start" x="575.5" y="-224.8" font-family="Times,serif" font-size="14.00">∅</text>
<polygon fill="none" stroke="black" points="425.5,-191 425.5,-216 480.5,-216 480.5,-191 425.5,-191"/>
<text text-anchor="start" x="445.5" y="-200.8" font-family="Times,serif" font-weight="bold" font-size="14.00">q</text>
<text text-anchor="start" x="453.5" y="-200.8" font-family="Times,serif" font-weight="bold" baseline-shift="sub" font-size="14.00">2</text>
<polygon fill="none" stroke="black" points="480.5,-191 480.5,-216 532.5,-216 532.5,-191 480.5,-191"/>
<text text-anchor="start" x="500.5" y="-199.8" font-family="Times,serif" font-size="14.00">∅</text>
<polygon fill="none" stroke="black" points="532.5,-191 532.5,-216 570.5,-216 570.5,-191 532.5,-191"/>
<text text-anchor="start" x="537.5" y="-200.8" font-family="Times,serif" font-size="14.00">q</text>
<text text-anchor="start" x="544.5" y="-200.8" font-family="Times,serif" baseline-shift="sub" font-size="14.00">1</text>
<text text-anchor="start" x="551.5" y="-200.8" font-family="Times,serif" font-size="14.00">q</text>
<text text-anchor="start" x="558.5" y="-200.8" font-family="Times,serif" baseline-shift="sub" font-size="14.00">2</text>
<polygon fill="none" stroke="black" points="570.5,-191 570.5,-216 592.5,-216 592.5,-191 570.5,-191"/>
<text text-anchor="start" x="575.5" y="-199.8" font-family="Times,serif" font-size="14.00">∅</text>
<polygon fill="none" stroke="black" points="425.5,-166 425.5,-191 480.5,-191 480.5,-166 425.5,-166"/>
<text text-anchor="start" x="438" y="-175.8" font-family="Times,serif" font-weight="bold" font-size="14.00">q</text>
<text text-anchor="start" x="446" y="-175.8" font-family="Times,serif" font-weight="bold" baseline-shift="sub" font-size="14.00">0</text>
<text text-anchor="start" x="453" y="-175.8" font-family="Times,serif" font-weight="bold" font-size="14.00">q</text>
<text text-anchor="start" x="461" y="-175.8" font-family="Times,serif" font-weight="bold" baseline-shift="sub" font-size="14.00">1</text>
<polygon fill="none" stroke="black" points="480.5,-166 480.5,-191 532.5,-191 532.5,-166 480.5,-166"/>
<text text-anchor="start" x="485.5" y="-175.8" font-family="Times,serif" font-size="14.00">q</text>
<text text-anchor="start" x="492.5" y="-175.8" font-family="Times,serif" baseline-shift="sub" font-size="14.00">0</text>
<text text-anchor="start" x="499.5" y="-175.8" font-family="Times,serif" font-size="14.00">q</text>
<text text-anchor="start" x="506.5" y="-175.8" font-family="Times,serif" baseline-shift="sub" font-size="14.00">1</text>
<text text-anchor="start" x="513.5" y="-175.8" font-family="Times,serif" font-size="14.00">q</text>
<text text-anchor="start" x="520.5" y="-175.8" font-family="Times,serif" baseline-shift="sub" font-size="14.00">2</text>
<polygon fill="none" stroke="black" points="532.5,-166 532.5,-191 570.5,-191 570.5,-166 532.5,-166"/>
<text text-anchor="start" x="537.5" y="-175.8" font-family="Times,serif" font-size="14.00">q</text>
<text text-anchor="start" x="544.5" y="-175.8" font-family="Times,serif" baseline-shift="sub" font-size="14.00">1</text>
<text text-anchor="start" x="551.5" y="-175.8" font-family="Times,serif" font-size="14.00">q</text>
<text text-anchor="start" x="558.5" y="-175.8" font-family="Times,serif" baseline-shift="sub" font-size="14.00">2</text>
<polygon fill="none" stroke="black" points="570.5,-166 570.5,-191 592.5,-191 592.5,-166 570.5,-166"/>
<text text-anchor="start" x="575.5" y="-174.8" font-family="Times,serif" font-size="14.00">∅</text>
<polygon fill="none" stroke="black" points="425.5,-141 425.5,-166 480.5,-166 480.5,-141 425.5,-141"/>
<text text-anchor="start" x="438" y="-150.8" font-family="Times,serif" font-weight="bold" font-size="14.00">q</text>
<text text-anchor="start" x="446" y="-150.8" font-family="Times,serif" font-weight="bold" baseline-shift="sub" font-size="14.00">0</text>
<text text-anchor="start" x="453" y="-150.8" font-family="Times,serif" font-weight="bold" font-size="14.00">q</text>
<text text-anchor="start" x="461" y="-150.8" font-family="Times,serif" font-weight="bold" baseline-shift="sub" font-size="14.00">2</text>
<polygon fill="none" stroke="black" points="480.5,-141 480.5,-166 532.5,-166 532.5,-141 480.5,-141"/>
<text text-anchor="start" x="492.5" y="-150.8" font-family="Times,serif" font-size="14.00">q</text>
<text text-anchor="start" x="499.5" y="-150.8" font-family="Times,serif" baseline-shift="sub" font-size="14.00">1</text>
<text text-anchor="start" x="506.5" y="-150.8" font-family="Times,serif" font-size="14.00">q</text>
<text text-anchor="start" x="513.5" y="-150.8" font-family="Times,serif" baseline-shift="sub" font-size="14.00">2</text>
<polygon fill="none" stroke="black" points="532.5,-141 532.5,-166 570.5,-166 570.5,-141 532.5,-141"/>
<text text-anchor="start" x="537.5" y="-150.8" font-family="Times,serif" font-size="14.00">q</text>
<text text-anchor="start" x="544.5" y="-150.8" font-family="Times,serif" baseline-shift="sub" font-size="14.00">1</text>
<text text-anchor="start" x="551.5" y="-150.8" font-family="Times,serif" font-size="14.00">q</text>
<text text-anchor="start" x="558.5" y="-150.8" font-family="Times,serif" baseline-shift="sub" font-size="14.00">2</text>
<polygon fill="none" stroke="black" points="570.5,-141 570.5,-166 592.5,-166 592.5,-141 570.5,-141"/>
<text text-anchor="start" x="575.5" y="-149.8" font-family="Times,serif" font-size="14.00">∅</text>
<polygon fill="none" stroke="black" points="425.5,-116 425.5,-141 480.5,-141 480.5,-116 425.5,-116"/>
<text text-anchor="start" x="438" y="-125.8" font-family="Times,serif" font-weight="bold" font-size="14.00">q</text>
<text text-anchor="start" x="446" y="-125.8" font-family="Times,serif" font-weight="bold" baseline-shift="sub" font-size="14.00">1</text>
<text text-anchor="start" x="453" y="-125.8" font-family="Times,serif" font-weight="bold" font-size="14.00">q</text>
<text text-anchor="start" x="461" y="-125.8" font-family="Times,serif" font-weight="bold" baseline-shift="sub" font-size="14.00">2</text>
<polygon fill="none" stroke="black" points="480.5,-116 480.5,-141 532.5,-141 532.5,-116 480.5,-116"/>
<text text-anchor="start" x="492.5" y="-125.8" font-family="Times,serif" font-size="14.00">q</text>
<text text-anchor="start" x="499.5" y="-125.8" font-family="Times,serif" baseline-shift="sub" font-size="14.00">0</text>
<text text-anchor="start" x="506.5" y="-125.8" font-family="Times,serif" font-size="14.00">q</text>
<text text-anchor="start" x="513.5" y="-125.8" font-family="Times,serif" baseline-shift="sub" font-size="14.00">2</text>
<polygon fill="none" stroke="black" points="532.5,-116 532.5,-141 570.5,-141 570.5,-116 532.5,-116"/>
<text text-anchor="start" x="537.5" y="-125.8" font-family="Times,serif" font-size="14.00">q</text>
<text text-anchor="start" x="544.5" y="-125.8" font-family="Times,serif" baseline-shift="sub" font-size="14.00">1</text>
<text text-anchor="start" x="551.5" y="-125.8" font-family="Times,serif" font-size="14.00">q</text>
<text text-anchor="start" x="558.5" y="-125.8" font-family="Times,serif" baseline-shift="sub" font-size="14.00">2</text>
<polygon fill="none" stroke="black" points="570.5,-116 570.5,-141 592.5,-141 592.5,-116 570.5,-116"/>
<text text-anchor="start" x="575.5" y="-124.8" font-family="Times,serif" font-size="14.00">∅</text>
<polygon fill="none" stroke="black" points="425.5,-91 425.5,-116 480.5,-116 480.5,-91 425.5,-91"/>
<text text-anchor="start" x="430.5" y="-100.8" font-family="Times,serif" font-weight="bold" font-size="14.00">q</text>
<text text-anchor="start" x="438.5" y="-100.8" font-family="Times,serif" font-weight="bold" baseline-shift="sub" font-size="14.00">0</text>
<text text-anchor="start" x="445.5" y="-100.8" font-family="Times,serif" font-weight="bold" font-size="14.00">q</text>
<text text-anchor="start" x="453.5" y="-100.8" font-family="Times,serif" font-weight="bold" baseline-shift="sub" font-size="14.00">1</text>
<text text-anchor="start" x="460.5" y="-100.8" font-family="Times,serif" font-weight="bold" font-size="14.00">q</text>
<text text-anchor="start" x="468.5" y="-100.8" font-family="Times,serif" font-weight="bold" baseline-shift="sub" font-size="14.00">2</text>
<polygon fill="none" stroke="black" points="480.5,-91 480.5,-116 532.5,-116 532.5,-91 480.5,-91"/>
<text text-anchor="start" x="485.5" y="-100.8" font-family="Times,serif" font-size="14.00">q</text>
<text text-anchor="start" x="492.5" y="-100.8" font-family="Times,serif" baseline-shift="sub" font-size="14.00">0</text>
<text text-anchor="start" x="499.5" y="-100.8" font-family="Times,serif" font-size="14.00">q</text>
<text text-anchor="start" x="506.5" y="-100.8" font-family="Times,serif" baseline-shift="sub" font-size="14.00">1</text>
<text text-anchor="start" x="513.5" y="-100.8" font-family="Times,serif" font-size="14.00">q</text>
<text text-anchor="start" x="520.5" y="-100.8" font-family="Times,serif" baseline-shift="sub" font-size="14.00">2</text>
<polygon fill="none" stroke="black" points="532.5,-91 532.5,-116 570.5,-116 570.5,-91 532.5,-91"/>
<text text-anchor="start" x="537.5" y="-100.8" font-family="Times,serif" font-size="14.00">q</text>
<text text-anchor="start" x="544.5" y="-100.8" font-family="Times,serif" baseline-shift="sub" font-size="14.00">1</text>
<text text-anchor="start" x="551.5" y="-100.8" font-family="Times,serif" font-size="14.00">q</text>
<text text-anchor="start" x="558.5" y="-100.8" font-family="Times,serif" baseline-shift="sub" font-size="14.00">2</text>
<polygon fill="none" stroke="black" points="570.5,-91 570.5,-116 592.5,-116 592.5,-91 570.5,-91"/>
<text text-anchor="start" x="575.5" y="-99.8" font-family="Times,serif" font-size="14.00">∅</text>
</g>
</g>
</svg>
