<?xml version="1.0" encoding="UTF-8" standalone="no"?>
<!DOCTYPE svg PUBLIC "-//W3C//DTD SVG 1.1//EN"
 "http://www.w3.org/Graphics/SVG/1.1/DTD/svg11.dtd">
<!-- Generated by graphviz version 2.44.0 (20200408.0750)
 -->
<!-- Title: G Pages: 1 -->
<svg width="437pt" height="149pt"
 viewBox="0.00 0.00 437.00 149.00" xmlns="http://www.w3.org/2000/svg" xmlns:xlink="http://www.w3.org/1999/xlink">
<g id="graph0" class="graph" transform="scale(1 1) rotate(0) translate(4 145)">
<title>G</title>
<polygon fill="white" stroke="transparent" points="-4,4 -4,-145 433,-145 433,4 -4,4"/>
<!-- e -->
<g id="node1" class="node">
<title>e</title>
<ellipse fill="none" stroke="black" cx="396" cy="-80" rx="29" ry="29"/>
<ellipse fill="none" stroke="black" cx="396" cy="-80" rx="33" ry="33"/>
<text text-anchor="middle" x="396" y="-76.3" font-family="Times,serif" font-size="14.00">e</text>
</g>
<!-- s -->
<g id="node2" class="node">
<title>s</title>
<ellipse fill="none" stroke="black" cx="66" cy="-29" rx="29" ry="29"/>
<text text-anchor="middle" x="66" y="-25.3" font-family="Times,serif" font-size="14.00">s</text>
</g>
<!-- q2 -->
<g id="node3" class="node">
<title>q2</title>
<ellipse fill="none" stroke="black" cx="167" cy="-79" rx="29" ry="29"/>
<text text-anchor="start" x="161.5" y="-76.3" font-family="Times,serif" font-size="14.00">q</text>
<text text-anchor="start" x="168.5" y="-76.3" font-family="Times,serif" baseline-shift="sub" font-size="9.00">2</text>
</g>
<!-- s&#45;&gt;q2 -->
<g id="edge1" class="edge">
<title>s&#45;&gt;q2</title>
<path fill="none" stroke="black" d="M92.24,-41.75C104.22,-47.8 118.73,-55.13 131.7,-61.68"/>
<polygon fill="black" stroke="black" points="130.3,-64.89 140.81,-66.28 133.46,-58.64 130.3,-64.89"/>
<text text-anchor="middle" x="116.5" y="-58.8" font-family="Times,serif" font-size="14.00">a</text>
</g>
<!-- q3 -->
<g id="node4" class="node">
<title>q3</title>
<ellipse fill="none" stroke="black" cx="289" cy="-31" rx="29" ry="29"/>
<text text-anchor="start" x="283.5" y="-28.3" font-family="Times,serif" font-size="14.00">q</text>
<text text-anchor="start" x="290.5" y="-28.3" font-family="Times,serif" baseline-shift="sub" font-size="9.00">3</text>
</g>
<!-- s&#45;&gt;q3 -->
<g id="edge2" class="edge">
<title>s&#45;&gt;q3</title>
<path fill="none" stroke="black" d="M94.98,-27.54C108.05,-26.94 123.82,-26.3 138,-26 163.77,-25.46 170.23,-25.3 196,-26 213.58,-26.48 233.02,-27.47 249.49,-28.44"/>
<polygon fill="black" stroke="black" points="249.64,-31.96 259.83,-29.07 250.06,-24.97 249.64,-31.96"/>
<text text-anchor="middle" x="167" y="-29.8" font-family="Times,serif" font-size="14.00">b</text>
</g>
<!-- q2&#45;&gt;e -->
<g id="edge3" class="edge">
<title>q2&#45;&gt;e</title>
<path fill="none" stroke="black" d="M195.04,-87.62C213.2,-92.94 237.78,-99.26 260,-102 285.58,-105.15 292.47,-105.58 318,-102 330.26,-100.28 343.31,-97.1 355.12,-93.67"/>
<polygon fill="black" stroke="black" points="356.14,-97.02 364.7,-90.77 354.11,-90.32 356.14,-97.02"/>
<text text-anchor="middle" x="289" y="-107.8" font-family="Times,serif" font-size="14.00">ℇ</text>
</g>
<!-- q2&#45;&gt;q2 -->
<g id="edge4" class="edge">
<title>q2&#45;&gt;q2</title>
<path fill="none" stroke="black" d="M157.66,-106.52C157.25,-117.16 160.36,-126 167,-126 171.36,-126 174.2,-122.19 175.52,-116.57"/>
<polygon fill="black" stroke="black" points="179.01,-116.77 176.34,-106.52 172.03,-116.2 179.01,-116.77"/>
<text text-anchor="middle" x="167" y="-129.8" font-family="Times,serif" font-size="14.00">aa⋃b</text>
</g>
<!-- q2&#45;&gt;q3 -->
<g id="edge5" class="edge">
<title>q2&#45;&gt;q3</title>
<path fill="none" stroke="black" d="M195.83,-75.1C210.04,-72.49 227.37,-68.35 242,-62 247.08,-59.8 252.2,-57.02 257.08,-54.03"/>
<polygon fill="black" stroke="black" points="259.08,-56.91 265.56,-48.52 255.27,-51.04 259.08,-56.91"/>
<text text-anchor="middle" x="228" y="-74.8" font-family="Times,serif" font-size="14.00">ab</text>
</g>
<!-- q3&#45;&gt;e -->
<g id="edge6" class="edge">
<title>q3&#45;&gt;e</title>
<path fill="none" stroke="black" d="M315.69,-42.99C328.02,-48.74 343.05,-55.76 356.7,-62.12"/>
<polygon fill="black" stroke="black" points="355.33,-65.35 365.87,-66.41 358.29,-59.01 355.33,-65.35"/>
<text text-anchor="middle" x="340.5" y="-58.8" font-family="Times,serif" font-size="14.00">ℇ</text>
</g>
<!-- q3&#45;&gt;q2 -->
<g id="edge7" class="edge">
<title>q3&#45;&gt;q2</title>
<path fill="none" stroke="black" d="M260,-32.23C245.75,-33.66 228.43,-36.69 214,-43 208.02,-45.61 202.15,-49.19 196.7,-53.07"/>
<polygon fill="black" stroke="black" points="194.33,-50.47 188.53,-59.34 198.6,-56.03 194.33,-50.47"/>
<text text-anchor="middle" x="228" y="-46.8" font-family="Times,serif" font-size="14.00">ba⋃a</text>
</g>
<!-- q3&#45;&gt;q3 -->
<g id="edge8" class="edge">
<title>q3&#45;&gt;q3</title>
<path fill="none" stroke="black" d="M279.66,-58.52C279.25,-69.16 282.36,-78 289,-78 293.36,-78 296.2,-74.19 297.52,-68.57"/>
<polygon fill="black" stroke="black" points="301.01,-68.77 298.34,-58.52 294.03,-68.2 301.01,-68.77"/>
<text text-anchor="middle" x="289" y="-81.8" font-family="Times,serif" font-size="14.00">bb</text>
</g>
<!-- start -->
<g id="node5" class="node">
<title>start</title>
<ellipse fill="black" stroke="black" cx="0" cy="-29" rx="0" ry="0"/>
</g>
<!-- start&#45;&gt;s -->
<g id="edge9" class="edge">
<title>start&#45;&gt;s</title>
<path fill="none" stroke="black" d="M1.05,-29C1.87,-29 13.45,-29 26.55,-29"/>
<polygon fill="black" stroke="black" points="26.7,-32.5 36.7,-29 26.7,-25.5 26.7,-32.5"/>
</g>
</g>
</svg>
