<?xml version="1.0" encoding="UTF-8" standalone="no"?>
<!DOCTYPE svg PUBLIC "-//W3C//DTD SVG 1.1//EN"
 "http://www.w3.org/Graphics/SVG/1.1/DTD/svg11.dtd">
<!-- Generated by graphviz version 2.44.0 (20200408.0750)
 -->
<!-- Title: G Pages: 1 -->
<svg width="448pt" height="288pt"
 viewBox="0.00 0.00 448.00 287.50" xmlns="http://www.w3.org/2000/svg" xmlns:xlink="http://www.w3.org/1999/xlink">
<g id="graph0" class="graph" transform="scale(1 1) rotate(0) translate(4 283.5)">
<title>G</title>
<polygon fill="white" stroke="transparent" points="-4,4 -4,-283.5 444,-283.5 444,4 -4,4"/>
<!-- ∅ -->
<g id="node1" class="node">
<title>∅</title>
<ellipse fill="none" stroke="black" cx="134" cy="-217.5" rx="29" ry="29"/>
<text text-anchor="middle" x="134" y="-213.8" font-family="Times,serif" font-size="14.00">∅</text>
</g>
<!-- ∅&#45;&gt;∅ -->
<g id="edge1" class="edge">
<title>∅&#45;&gt;∅</title>
<path fill="none" stroke="black" d="M123.91,-245.02C123.47,-255.66 126.83,-264.5 134,-264.5 138.71,-264.5 141.77,-260.69 143.2,-255.07"/>
<polygon fill="black" stroke="black" points="146.69,-255.29 144.09,-245.02 139.72,-254.67 146.69,-255.29"/>
<text text-anchor="middle" x="134" y="-268.3" font-family="Times,serif" font-size="14.00">a,b</text>
</g>
<!-- q0 -->
<g id="node2" class="node">
<title>q0</title>
<ellipse fill="none" stroke="black" cx="134" cy="-137.5" rx="29" ry="29"/>
<ellipse fill="none" stroke="black" cx="134" cy="-137.5" rx="33" ry="33"/>
<text text-anchor="start" x="128.5" y="-134.8" font-family="Times,serif" font-size="14.00">q</text>
<text text-anchor="start" x="135.5" y="-134.8" font-family="Times,serif" baseline-shift="sub" font-size="9.00">0</text>
</g>
<!-- q1 -->
<g id="node3" class="node">
<title>q1</title>
<ellipse fill="none" stroke="black" cx="29" cy="-176.5" rx="29" ry="29"/>
<text text-anchor="start" x="23.5" y="-173.8" font-family="Times,serif" font-size="14.00">q</text>
<text text-anchor="start" x="30.5" y="-173.8" font-family="Times,serif" baseline-shift="sub" font-size="9.00">1</text>
</g>
<!-- q0&#45;&gt;q1 -->
<g id="edge2" class="edge">
<title>q0&#45;&gt;q1</title>
<path fill="none" stroke="black" d="M100.94,-135.07C92.61,-135.39 83.8,-136.6 76,-139.5 69.55,-141.9 63.31,-145.59 57.63,-149.73"/>
<polygon fill="black" stroke="black" points="55.37,-147.05 49.73,-156.01 59.73,-152.52 55.37,-147.05"/>
<text text-anchor="middle" x="79.5" y="-143.3" font-family="Times,serif" font-size="14.00">b</text>
</g>
<!-- q0q1 -->
<g id="node4" class="node">
<title>q0q1</title>
<ellipse fill="none" stroke="black" cx="243" cy="-137.5" rx="29" ry="29"/>
<ellipse fill="none" stroke="black" cx="243" cy="-137.5" rx="33" ry="33"/>
<text text-anchor="start" x="232" y="-134.8" font-family="Times,serif" font-size="14.00">q</text>
<text text-anchor="start" x="239" y="-134.8" font-family="Times,serif" baseline-shift="sub" font-size="9.00">0</text>
<text text-anchor="start" x="243" y="-134.8" font-family="Times,serif" font-size="14.00">q</text>
<text text-anchor="start" x="250" y="-134.8" font-family="Times,serif" baseline-shift="sub" font-size="9.00">1</text>
</g>
<!-- q0&#45;&gt;q0q1 -->
<g id="edge3" class="edge">
<title>q0&#45;&gt;q0q1</title>
<path fill="none" stroke="black" d="M167.1,-137.5C177.37,-137.5 188.89,-137.5 199.76,-137.5"/>
<polygon fill="black" stroke="black" points="199.92,-141 209.92,-137.5 199.92,-134 199.92,-141"/>
<text text-anchor="middle" x="188.5" y="-141.3" font-family="Times,serif" font-size="14.00">a</text>
</g>
<!-- q1&#45;&gt;∅ -->
<g id="edge4" class="edge">
<title>q1&#45;&gt;∅</title>
<path fill="none" stroke="black" d="M56.26,-186.95C68.73,-191.92 83.82,-197.92 97.31,-203.29"/>
<polygon fill="black" stroke="black" points="96.2,-206.62 106.79,-207.07 98.79,-200.12 96.2,-206.62"/>
<text text-anchor="middle" x="79.5" y="-200.3" font-family="Times,serif" font-size="14.00">a</text>
</g>
<!-- q1&#45;&gt;q0 -->
<g id="edge5" class="edge">
<title>q1&#45;&gt;q0</title>
<path fill="none" stroke="black" d="M56.26,-166.56C67.45,-162.32 80.76,-157.28 93.12,-152.6"/>
<polygon fill="black" stroke="black" points="94.66,-155.76 102.78,-148.94 92.18,-149.21 94.66,-155.76"/>
<text text-anchor="middle" x="79.5" y="-161.3" font-family="Times,serif" font-size="14.00">b</text>
</g>
<!-- q0q1&#45;&gt;q0q1 -->
<g id="edge6" class="edge">
<title>q0q1&#45;&gt;q0q1</title>
<path fill="none" stroke="black" d="M232.88,-169.13C232.82,-179.87 236.2,-188.5 243,-188.5 247.46,-188.5 250.45,-184.78 251.96,-179.19"/>
<polygon fill="black" stroke="black" points="255.46,-179.46 253.12,-169.13 248.5,-178.66 255.46,-179.46"/>
<text text-anchor="middle" x="243" y="-192.3" font-family="Times,serif" font-size="14.00">a,b</text>
</g>
<!-- start -->
<g id="node5" class="node">
<title>start</title>
<ellipse fill="black" stroke="black" cx="29" cy="-105.5" rx="0" ry="0"/>
</g>
<!-- start&#45;&gt;q0 -->
<g id="edge7" class="edge">
<title>start&#45;&gt;q0</title>
<path fill="none" stroke="black" d="M30.09,-105.52C31.85,-105.92 60.47,-112.48 83,-119.5 86.32,-120.53 89.74,-121.65 93.16,-122.81"/>
<polygon fill="black" stroke="black" points="92.14,-126.16 102.74,-126.13 94.43,-119.54 92.14,-126.16"/>
</g>
<!-- Legend -->
<g id="node6" class="node">
<title>Legend</title>
<polygon fill="none" stroke="black" points="294,-249.5 294,-274.5 440,-274.5 440,-249.5 294,-249.5"/>
<text text-anchor="start" x="318.5" y="-259.3" font-family="Times,serif" font-weight="bold" font-size="14.00">NFA1→DFA→S</text>
<polygon fill="none" stroke="black" points="294,-224.5 294,-249.5 440,-249.5 440,-224.5 294,-224.5"/>
<text text-anchor="start" x="350" y="-234.3" font-family="Times,serif" font-weight="bold" font-style="italic" font-size="14.00">States</text>
<polygon fill="none" stroke="black" points="294,-199.5 294,-224.5 440,-224.5 440,-199.5 294,-199.5"/>
<text text-anchor="start" x="320.5" y="-209.3" font-family="Times,serif" font-size="14.00">{∅, q</text>
<text text-anchor="start" x="353.5" y="-209.3" font-family="Times,serif" baseline-shift="sub" font-size="9.00">0</text>
<text text-anchor="start" x="357.5" y="-209.3" font-family="Times,serif" font-size="14.00">, q</text>
<text text-anchor="start" x="372.5" y="-209.3" font-family="Times,serif" baseline-shift="sub" font-size="9.00">1</text>
<text text-anchor="start" x="376.5" y="-209.3" font-family="Times,serif" font-size="14.00">, q</text>
<text text-anchor="start" x="391.5" y="-209.3" font-family="Times,serif" baseline-shift="sub" font-size="9.00">0</text>
<text text-anchor="start" x="395.5" y="-209.3" font-family="Times,serif" font-size="14.00">q</text>
<text text-anchor="start" x="402.5" y="-209.3" font-family="Times,serif" baseline-shift="sub" font-size="9.00">1</text>
<text text-anchor="start" x="406.5" y="-209.3" font-family="Times,serif" font-size="14.00">}</text>
<polygon fill="none" stroke="black" points="294,-174.5 294,-199.5 440,-199.5 440,-174.5 294,-174.5"/>
<text text-anchor="start" x="312" y="-184.3" font-family="Times,serif" font-weight="bold" font-style="italic" font-size="14.00">Transition function</text>
<polygon fill="none" stroke="black" points="294,-149.5 294,-174.5 341,-174.5 341,-149.5 294,-149.5"/>
<text text-anchor="start" x="313.5" y="-158.3" font-family="Times,serif" font-size="14.00">δ</text>
<polygon fill="none" stroke="black" points="341,-149.5 341,-174.5 379,-174.5 379,-149.5 341,-149.5"/>
<text text-anchor="start" x="356.5" y="-159.3" font-family="Times,serif" font-weight="bold" font-size="14.00">a</text>
<polygon fill="none" stroke="black" points="379,-149.5 379,-174.5 414,-174.5 414,-149.5 379,-149.5"/>
<text text-anchor="start" x="392.5" y="-159.3" font-family="Times,serif" font-weight="bold" font-size="14.00">b</text>
<polygon fill="none" stroke="black" points="414,-149.5 414,-174.5 440,-174.5 440,-149.5 414,-149.5"/>
<text text-anchor="start" x="422" y="-159.3" font-family="Times,serif" font-weight="bold" font-size="14.00">ℇ</text>
<polygon fill="none" stroke="black" points="294,-124.5 294,-149.5 341,-149.5 341,-124.5 294,-124.5"/>
<text text-anchor="start" x="311.5" y="-134.3" font-family="Times,serif" font-weight="bold" font-size="14.00">∅</text>
<polygon fill="none" stroke="black" points="341,-124.5 341,-149.5 379,-149.5 379,-124.5 341,-124.5"/>
<text text-anchor="start" x="354" y="-133.3" font-family="Times,serif" font-size="14.00">∅</text>
<polygon fill="none" stroke="black" points="379,-124.5 379,-149.5 414,-149.5 414,-124.5 379,-124.5"/>
<text text-anchor="start" x="390.5" y="-133.3" font-family="Times,serif" font-size="14.00">∅</text>
<polygon fill="none" stroke="black" points="414,-124.5 414,-149.5 440,-149.5 440,-124.5 414,-124.5"/>
<text text-anchor="start" x="421" y="-133.3" font-family="Times,serif" font-size="14.00">∅</text>
<polygon fill="none" stroke="black" points="294,-99.5 294,-124.5 341,-124.5 341,-99.5 294,-99.5"/>
<text text-anchor="start" x="311.5" y="-109.3" font-family="Times,serif" font-weight="bold" font-size="14.00">q</text>
<text text-anchor="start" x="319.5" y="-109.3" font-family="Times,serif" font-weight="bold" baseline-shift="sub" font-size="9.00">0</text>
<polygon fill="none" stroke="black" points="341,-99.5 341,-124.5 379,-124.5 379,-99.5 341,-99.5"/>
<text text-anchor="start" x="349" y="-109.3" font-family="Times,serif" font-size="14.00">q</text>
<text text-anchor="start" x="356" y="-109.3" font-family="Times,serif" baseline-shift="sub" font-size="9.00">0</text>
<text text-anchor="start" x="360" y="-109.3" font-family="Times,serif" font-size="14.00">q</text>
<text text-anchor="start" x="367" y="-109.3" font-family="Times,serif" baseline-shift="sub" font-size="9.00">1</text>
<polygon fill="none" stroke="black" points="379,-99.5 379,-124.5 414,-124.5 414,-99.5 379,-99.5"/>
<text text-anchor="start" x="391" y="-109.3" font-family="Times,serif" font-size="14.00">q</text>
<text text-anchor="start" x="398" y="-109.3" font-family="Times,serif" baseline-shift="sub" font-size="9.00">1</text>
<polygon fill="none" stroke="black" points="414,-99.5 414,-124.5 440,-124.5 440,-99.5 414,-99.5"/>
<text text-anchor="start" x="421" y="-108.3" font-family="Times,serif" font-size="14.00">∅</text>
<polygon fill="none" stroke="black" points="294,-74.5 294,-99.5 341,-99.5 341,-74.5 294,-74.5"/>
<text text-anchor="start" x="311.5" y="-84.3" font-family="Times,serif" font-weight="bold" font-size="14.00">q</text>
<text text-anchor="start" x="319.5" y="-84.3" font-family="Times,serif" font-weight="bold" baseline-shift="sub" font-size="9.00">1</text>
<polygon fill="none" stroke="black" points="341,-74.5 341,-99.5 379,-99.5 379,-74.5 341,-74.5"/>
<text text-anchor="start" x="354" y="-83.3" font-family="Times,serif" font-size="14.00">∅</text>
<polygon fill="none" stroke="black" points="379,-74.5 379,-99.5 414,-99.5 414,-74.5 379,-74.5"/>
<text text-anchor="start" x="391" y="-84.3" font-family="Times,serif" font-size="14.00">q</text>
<text text-anchor="start" x="398" y="-84.3" font-family="Times,serif" baseline-shift="sub" font-size="9.00">0</text>
<polygon fill="none" stroke="black" points="414,-74.5 414,-99.5 440,-99.5 440,-74.5 414,-74.5"/>
<text text-anchor="start" x="421" y="-83.3" font-family="Times,serif" font-size="14.00">∅</text>
<polygon fill="none" stroke="black" points="294,-49.5 294,-74.5 341,-74.5 341,-49.5 294,-49.5"/>
<text text-anchor="start" x="305.5" y="-59.3" font-family="Times,serif" font-weight="bold" font-size="14.00">q</text>
<text text-anchor="start" x="313.5" y="-59.3" font-family="Times,serif" font-weight="bold" baseline-shift="sub" font-size="9.00">0</text>
<text text-anchor="start" x="317.5" y="-59.3" font-family="Times,serif" font-weight="bold" font-size="14.00">q</text>
<text text-anchor="start" x="325.5" y="-59.3" font-family="Times,serif" font-weight="bold" baseline-shift="sub" font-size="9.00">1</text>
<polygon fill="none" stroke="black" points="341,-49.5 341,-74.5 379,-74.5 379,-49.5 341,-49.5"/>
<text text-anchor="start" x="349" y="-59.3" font-family="Times,serif" font-size="14.00">q</text>
<text text-anchor="start" x="356" y="-59.3" font-family="Times,serif" baseline-shift="sub" font-size="9.00">0</text>
<text text-anchor="start" x="360" y="-59.3" font-family="Times,serif" font-size="14.00">q</text>
<text text-anchor="start" x="367" y="-59.3" font-family="Times,serif" baseline-shift="sub" font-size="9.00">1</text>
<polygon fill="none" stroke="black" points="379,-49.5 379,-74.5 414,-74.5 414,-49.5 379,-49.5"/>
<text text-anchor="start" x="385.5" y="-59.3" font-family="Times,serif" font-size="14.00">q</text>
<text text-anchor="start" x="392.5" y="-59.3" font-family="Times,serif" baseline-shift="sub" font-size="9.00">0</text>
<text text-anchor="start" x="396.5" y="-59.3" font-family="Times,serif" font-size="14.00">q</text>
<text text-anchor="start" x="403.5" y="-59.3" font-family="Times,serif" baseline-shift="sub" font-size="9.00">1</text>
<polygon fill="none" stroke="black" points="414,-49.5 414,-74.5 440,-74.5 440,-49.5 414,-49.5"/>
<text text-anchor="start" x="421" y="-58.3" font-family="Times,serif" font-size="14.00">∅</text>
<polygon fill="none" stroke="black" points="294,-24.5 294,-49.5 440,-49.5 440,-24.5 294,-24.5"/>
<text text-anchor="start" x="329" y="-34.3" font-family="Times,serif" font-weight="bold" font-style="italic" font-size="14.00">Start state: </text>
<text text-anchor="start" x="394" y="-34.3" font-family="Times,serif" font-size="14.00">q</text>
<text text-anchor="start" x="401" y="-34.3" font-family="Times,serif" baseline-shift="sub" font-size="9.00">0</text>
<polygon fill="none" stroke="black" points="294,0.5 294,-24.5 440,-24.5 440,0.5 294,0.5"/>
<text text-anchor="start" x="299" y="-9.3" font-family="Times,serif" font-weight="bold" font-style="italic" font-size="14.00">Accept states: </text>
<text text-anchor="start" x="380" y="-9.3" font-family="Times,serif" font-size="14.00">{q</text>
<text text-anchor="start" x="394" y="-9.3" font-family="Times,serif" baseline-shift="sub" font-size="9.00">0</text>
<text text-anchor="start" x="398" y="-9.3" font-family="Times,serif" font-size="14.00">q</text>
<text text-anchor="start" x="405" y="-9.3" font-family="Times,serif" baseline-shift="sub" font-size="9.00">1</text>
<text text-anchor="start" x="409" y="-9.3" font-family="Times,serif" font-size="14.00">, q</text>
<text text-anchor="start" x="424" y="-9.3" font-family="Times,serif" baseline-shift="sub" font-size="9.00">0</text>
<text text-anchor="start" x="428" y="-9.3" font-family="Times,serif" font-size="14.00">}</text>
</g>
</g>
</svg>
