<?xml version="1.0" encoding="UTF-8" standalone="no"?>
<!DOCTYPE svg PUBLIC "-//W3C//DTD SVG 1.1//EN"
 "http://www.w3.org/Graphics/SVG/1.1/DTD/svg11.dtd">
<!-- Generated by graphviz version 2.44.0 (20200408.0750)
 -->
<!-- Title: G Pages: 1 -->
<svg width="328pt" height="103pt"
 viewBox="0.00 0.00 328.00 103.00" xmlns="http://www.w3.org/2000/svg" xmlns:xlink="http://www.w3.org/1999/xlink">
<g id="graph0" class="graph" transform="scale(1 1) rotate(0) translate(4 99)">
<title>G</title>
<polygon fill="white" stroke="transparent" points="-4,4 -4,-99 324,-99 324,4 -4,4"/>
<!-- start -->
<g id="node1" class="node">
<title>start</title>
<ellipse fill="black" stroke="black" cx="0" cy="-33" rx="0" ry="0"/>
</g>
<!-- S -->
<g id="node2" class="node">
<title>S</title>
<ellipse fill="none" stroke="black" cx="66" cy="-33" rx="29" ry="29"/>
<text text-anchor="middle" x="66" y="-29.3" font-family="Times,serif" font-size="14.00">S</text>
</g>
<!-- start&#45;&gt;S -->
<g id="edge1" class="edge">
<title>start&#45;&gt;S</title>
<path fill="none" stroke="black" d="M1.05,-33C1.87,-33 13.45,-33 26.55,-33"/>
<polygon fill="black" stroke="black" points="26.7,-36.5 36.7,-33 26.7,-29.5 26.7,-36.5"/>
</g>
<!-- q2 -->
<g id="node4" class="node">
<title>q2</title>
<ellipse fill="none" stroke="black" cx="180" cy="-33" rx="29" ry="29"/>
<text text-anchor="start" x="174.5" y="-30.3" font-family="Times,serif" font-size="14.00">q</text>
<text text-anchor="start" x="181.5" y="-30.3" font-family="Times,serif" baseline-shift="sub" font-size="9.00">2</text>
</g>
<!-- S&#45;&gt;q2 -->
<g id="edge2" class="edge">
<title>S&#45;&gt;q2</title>
<path fill="none" stroke="black" d="M95.26,-33C108.92,-33 125.53,-33 140.35,-33"/>
<polygon fill="black" stroke="black" points="140.75,-36.5 150.75,-33 140.75,-29.5 140.75,-36.5"/>
<text text-anchor="middle" x="123" y="-36.8" font-family="Times,serif" font-size="14.00">a*b</text>
</g>
<!-- a -->
<g id="node3" class="node">
<title>a</title>
<ellipse fill="none" stroke="black" cx="287" cy="-33" rx="29" ry="29"/>
<ellipse fill="none" stroke="black" cx="287" cy="-33" rx="33" ry="33"/>
<text text-anchor="middle" x="287" y="-29.3" font-family="Times,serif" font-size="14.00">a</text>
</g>
<!-- q2&#45;&gt;a -->
<g id="edge3" class="edge">
<title>q2&#45;&gt;a</title>
<path fill="none" stroke="black" d="M209.14,-33C219.65,-33 231.83,-33 243.36,-33"/>
<polygon fill="black" stroke="black" points="243.7,-36.5 253.7,-33 243.7,-29.5 243.7,-36.5"/>
<text text-anchor="middle" x="231.5" y="-36.8" font-family="Times,serif" font-size="14.00">ℇ</text>
</g>
<!-- q2&#45;&gt;q2 -->
<g id="edge4" class="edge">
<title>q2&#45;&gt;q2</title>
<path fill="none" stroke="black" d="M170.66,-60.52C170.25,-71.16 173.36,-80 180,-80 184.36,-80 187.2,-76.19 188.52,-70.57"/>
<polygon fill="black" stroke="black" points="192.01,-70.77 189.34,-60.52 185.03,-70.2 192.01,-70.77"/>
<text text-anchor="middle" x="180" y="-83.8" font-family="Times,serif" font-size="14.00">a∪b</text>
</g>
</g>
</svg>
