<?xml version="1.0" encoding="UTF-8" standalone="no"?>
<!DOCTYPE svg PUBLIC "-//W3C//DTD SVG 1.1//EN"
 "http://www.w3.org/Graphics/SVG/1.1/DTD/svg11.dtd">
<!-- Generated by graphviz version 2.44.0 (20200408.0750)
 -->
<!-- Title: G Pages: 1 -->
<svg width="321pt" height="170pt"
 viewBox="0.00 0.00 321.00 170.18" xmlns="http://www.w3.org/2000/svg" xmlns:xlink="http://www.w3.org/1999/xlink">
<g id="graph0" class="graph" transform="scale(1 1) rotate(0) translate(4 166.18)">
<title>G</title>
<polygon fill="white" stroke="transparent" points="-4,4 -4,-166.18 317,-166.18 317,4 -4,4"/>
<!-- q1 -->
<g id="node1" class="node">
<title>q1</title>
<ellipse fill="none" stroke="black" cx="66" cy="-64.18" rx="29" ry="29"/>
<text text-anchor="start" x="60.5" y="-61.48" font-family="Times,serif" font-size="14.00">q</text>
<text text-anchor="start" x="67.5" y="-61.48" font-family="Times,serif" baseline-shift="sub" font-size="9.00">1</text>
</g>
<!-- q2 -->
<g id="node2" class="node">
<title>q2</title>
<ellipse fill="none" stroke="black" cx="280" cy="-64.18" rx="29" ry="29"/>
<ellipse fill="none" stroke="black" cx="280" cy="-64.18" rx="33" ry="33"/>
<text text-anchor="start" x="274.5" y="-61.48" font-family="Times,serif" font-size="14.00">q</text>
<text text-anchor="start" x="281.5" y="-61.48" font-family="Times,serif" baseline-shift="sub" font-size="9.00">2</text>
</g>
<!-- q1&#45;&gt;q2 -->
<g id="edge1" class="edge">
<title>q1&#45;&gt;q2</title>
<path fill="none" stroke="black" d="M82,-88.46C94.51,-106.21 114.12,-128.91 138,-139.18 164.94,-150.78 176.9,-150.41 204,-139.18 223.99,-130.9 241.43,-114.42 254.45,-99.01"/>
<polygon fill="black" stroke="black" points="257.28,-101.08 260.85,-91.1 251.84,-96.68 257.28,-101.08"/>
<text text-anchor="middle" x="171" y="-150.98" font-family="Times,serif" font-size="14.00">a</text>
</g>
<!-- q3 -->
<g id="node3" class="node">
<title>q3</title>
<ellipse fill="none" stroke="black" cx="171" cy="-64.18" rx="29" ry="29"/>
<ellipse fill="none" stroke="black" cx="171" cy="-64.18" rx="33" ry="33"/>
<text text-anchor="start" x="165.5" y="-61.48" font-family="Times,serif" font-size="14.00">q</text>
<text text-anchor="start" x="172.5" y="-61.48" font-family="Times,serif" baseline-shift="sub" font-size="9.00">3</text>
</g>
<!-- q1&#45;&gt;q3 -->
<g id="edge2" class="edge">
<title>q1&#45;&gt;q3</title>
<path fill="none" stroke="black" d="M95.15,-64.18C105.17,-64.18 116.68,-64.18 127.63,-64.18"/>
<polygon fill="black" stroke="black" points="127.89,-67.68 137.89,-64.18 127.89,-60.68 127.89,-67.68"/>
<text text-anchor="middle" x="116.5" y="-67.98" font-family="Times,serif" font-size="14.00">b</text>
</g>
<!-- q2&#45;&gt;q1 -->
<g id="edge3" class="edge">
<title>q2&#45;&gt;q1</title>
<path fill="none" stroke="black" d="M256.38,-40.7C242.59,-28.12 223.84,-13.87 204,-7.18 176.2,2.18 165.67,2.55 138,-7.18 121.49,-12.99 105.97,-24.44 93.69,-35.57"/>
<polygon fill="black" stroke="black" points="90.94,-33.34 86.1,-42.77 95.76,-38.42 90.94,-33.34"/>
<text text-anchor="middle" x="171" y="-10.98" font-family="Times,serif" font-size="14.00">a</text>
</g>
<!-- q2&#45;&gt;q2 -->
<g id="edge4" class="edge">
<title>q2&#45;&gt;q2</title>
<path fill="none" stroke="black" d="M269.88,-95.81C269.82,-106.55 273.2,-115.18 280,-115.18 284.46,-115.18 287.45,-111.47 288.96,-105.87"/>
<polygon fill="black" stroke="black" points="292.46,-106.15 290.12,-95.81 285.5,-105.34 292.46,-106.15"/>
<text text-anchor="middle" x="280" y="-118.98" font-family="Times,serif" font-size="14.00">b</text>
</g>
<!-- q3&#45;&gt;q2 -->
<g id="edge5" class="edge">
<title>q3&#45;&gt;q2</title>
<path fill="none" stroke="black" d="M204.1,-64.18C214.37,-64.18 225.89,-64.18 236.76,-64.18"/>
<polygon fill="black" stroke="black" points="236.92,-67.68 246.92,-64.18 236.92,-60.68 236.92,-67.68"/>
<text text-anchor="middle" x="225.5" y="-67.98" font-family="Times,serif" font-size="14.00">a</text>
</g>
<!-- q3&#45;&gt;q3 -->
<g id="edge6" class="edge">
<title>q3&#45;&gt;q3</title>
<path fill="none" stroke="black" d="M160.88,-95.81C160.82,-106.55 164.2,-115.18 171,-115.18 175.46,-115.18 178.45,-111.47 179.96,-105.87"/>
<polygon fill="black" stroke="black" points="183.46,-106.15 181.12,-95.81 176.5,-105.34 183.46,-106.15"/>
<text text-anchor="middle" x="171" y="-118.98" font-family="Times,serif" font-size="14.00">b</text>
</g>
<!-- start -->
<g id="node4" class="node">
<title>start</title>
<ellipse fill="black" stroke="black" cx="0" cy="-64.18" rx="0" ry="0"/>
</g>
<!-- start&#45;&gt;q1 -->
<g id="edge7" class="edge">
<title>start&#45;&gt;q1</title>
<path fill="none" stroke="black" d="M1.05,-64.18C1.87,-64.18 13.45,-64.18 26.55,-64.18"/>
<polygon fill="black" stroke="black" points="26.7,-67.68 36.7,-64.18 26.7,-60.68 26.7,-67.68"/>
</g>
</g>
</svg>
