<?xml version="1.0" encoding="UTF-8" standalone="no"?>
<!DOCTYPE svg PUBLIC "-//W3C//DTD SVG 1.1//EN"
 "http://www.w3.org/Graphics/SVG/1.1/DTD/svg11.dtd">
<!-- Generated by graphviz version 2.44.0 (20200408.0750)
 -->
<!-- Title: G Pages: 1 -->
<svg width="590pt" height="74pt"
 viewBox="0.00 0.00 590.00 74.00" xmlns="http://www.w3.org/2000/svg" xmlns:xlink="http://www.w3.org/1999/xlink">
<g id="graph0" class="graph" transform="scale(1 1) rotate(0) translate(4 70)">
<title>G</title>
<polygon fill="white" stroke="transparent" points="-4,4 -4,-70 586,-70 586,4 -4,4"/>
<!-- e -->
<g id="node1" class="node">
<title>e</title>
<ellipse fill="none" stroke="black" cx="549" cy="-33" rx="29" ry="29"/>
<ellipse fill="none" stroke="black" cx="549" cy="-33" rx="33" ry="33"/>
<text text-anchor="middle" x="549" y="-29.3" font-family="Times,serif" font-size="14.00">e</text>
</g>
<!-- s -->
<g id="node2" class="node">
<title>s</title>
<ellipse fill="none" stroke="black" cx="66" cy="-33" rx="29" ry="29"/>
<text text-anchor="middle" x="66" y="-29.3" font-family="Times,serif" font-size="14.00">s</text>
</g>
<!-- s&#45;&gt;e -->
<g id="edge1" class="edge">
<title>s&#45;&gt;e</title>
<path fill="none" stroke="black" d="M95.29,-33C176.23,-33 409.08,-33 505.45,-33"/>
<polygon fill="black" stroke="black" points="505.7,-36.5 515.7,-33 505.7,-29.5 505.7,-36.5"/>
<text text-anchor="middle" x="305.5" y="-36.8" font-family="Times,serif" font-size="14.00">(a(aa⋃b)*ab⋃b)((ba⋃a)(aa⋃b)*ab⋃bb)*((ba⋃a)(aa⋃b)*Uℇ)⋃a(aa⋃b)*</text>
</g>
<!-- start -->
<g id="node3" class="node">
<title>start</title>
<ellipse fill="black" stroke="black" cx="0" cy="-33" rx="0" ry="0"/>
</g>
<!-- start&#45;&gt;s -->
<g id="edge2" class="edge">
<title>start&#45;&gt;s</title>
<path fill="none" stroke="black" d="M1.05,-33C1.87,-33 13.45,-33 26.55,-33"/>
<polygon fill="black" stroke="black" points="26.7,-36.5 36.7,-33 26.7,-29.5 26.7,-36.5"/>
</g>
</g>
</svg>
