<?xml version="1.0" encoding="UTF-8" standalone="no"?>
<!DOCTYPE svg PUBLIC "-//W3C//DTD SVG 1.1//EN"
 "http://www.w3.org/Graphics/SVG/1.1/DTD/svg11.dtd">
<!-- Generated by graphviz version 2.44.0 (20200408.0750)
 -->
<!-- Title: G Pages: 1 -->
<svg width="420pt" height="209pt"
 viewBox="0.00 0.00 420.00 209.00" xmlns="http://www.w3.org/2000/svg" xmlns:xlink="http://www.w3.org/1999/xlink">
<g id="graph0" class="graph" transform="scale(1 1) rotate(0) translate(4 205)">
<title>G</title>
<polygon fill="white" stroke="transparent" points="-4,4 -4,-205 416,-205 416,4 -4,4"/>
<!-- e -->
<g id="node1" class="node">
<title>e</title>
<ellipse fill="none" stroke="black" cx="379" cy="-33" rx="29" ry="29"/>
<ellipse fill="none" stroke="black" cx="379" cy="-33" rx="33" ry="33"/>
<text text-anchor="middle" x="379" y="-29.3" font-family="Times,serif" font-size="14.00">e</text>
</g>
<!-- s -->
<g id="node2" class="node">
<title>s</title>
<ellipse fill="none" stroke="black" cx="66" cy="-172" rx="29" ry="29"/>
<text text-anchor="middle" x="66" y="-168.3" font-family="Times,serif" font-size="14.00">s</text>
</g>
<!-- q1 -->
<g id="node3" class="node">
<title>q1</title>
<ellipse fill="none" stroke="black" cx="169" cy="-134" rx="29" ry="29"/>
<text text-anchor="start" x="163.5" y="-131.3" font-family="Times,serif" font-size="14.00">q</text>
<text text-anchor="start" x="170.5" y="-131.3" font-family="Times,serif" baseline-shift="sub" font-size="9.00">1</text>
</g>
<!-- s&#45;&gt;q1 -->
<g id="edge1" class="edge">
<title>s&#45;&gt;q1</title>
<path fill="none" stroke="black" d="M93.27,-162.12C105.1,-157.66 119.26,-152.34 132.05,-147.53"/>
<polygon fill="black" stroke="black" points="133.38,-150.76 141.51,-143.97 130.92,-144.21 133.38,-150.76"/>
<text text-anchor="middle" x="117.5" y="-157.8" font-family="Times,serif" font-size="14.00">ℇ</text>
</g>
<!-- q2 -->
<g id="node4" class="node">
<title>q2</title>
<ellipse fill="none" stroke="black" cx="66" cy="-63" rx="29" ry="29"/>
<text text-anchor="start" x="60.5" y="-60.3" font-family="Times,serif" font-size="14.00">q</text>
<text text-anchor="start" x="67.5" y="-60.3" font-family="Times,serif" baseline-shift="sub" font-size="9.00">2</text>
</g>
<!-- q1&#45;&gt;q2 -->
<g id="edge2" class="edge">
<title>q1&#45;&gt;q2</title>
<path fill="none" stroke="black" d="M141.08,-125.91C131.75,-122.42 121.5,-117.8 113,-112 105.21,-106.69 97.76,-99.85 91.21,-92.98"/>
<polygon fill="black" stroke="black" points="93.79,-90.62 84.47,-85.58 88.61,-95.33 93.79,-90.62"/>
<text text-anchor="middle" x="117.5" y="-121.8" font-family="Times,serif" font-size="14.00">a</text>
</g>
<!-- q3 -->
<g id="node5" class="node">
<title>q3</title>
<ellipse fill="none" stroke="black" cx="272" cy="-85" rx="29" ry="29"/>
<text text-anchor="start" x="266.5" y="-82.3" font-family="Times,serif" font-size="14.00">q</text>
<text text-anchor="start" x="273.5" y="-82.3" font-family="Times,serif" baseline-shift="sub" font-size="9.00">3</text>
</g>
<!-- q1&#45;&gt;q3 -->
<g id="edge3" class="edge">
<title>q1&#45;&gt;q3</title>
<path fill="none" stroke="black" d="M196.37,-124.38C205.56,-120.79 215.86,-116.48 225,-112 229.34,-109.87 233.83,-107.49 238.22,-105.04"/>
<polygon fill="black" stroke="black" points="240.09,-108 247.02,-99.99 236.61,-101.93 240.09,-108"/>
<text text-anchor="middle" x="220.5" y="-120.8" font-family="Times,serif" font-size="14.00">b</text>
</g>
<!-- q2&#45;&gt;e -->
<g id="edge4" class="edge">
<title>q2&#45;&gt;e</title>
<path fill="none" stroke="black" d="M95.15,-60.28C149.96,-55 271.29,-43.29 335.78,-37.07"/>
<polygon fill="black" stroke="black" points="336.38,-40.53 346,-36.09 335.71,-33.56 336.38,-40.53"/>
<text text-anchor="middle" x="220.5" y="-52.8" font-family="Times,serif" font-size="14.00">ℇ</text>
</g>
<!-- q2&#45;&gt;q1 -->
<g id="edge5" class="edge">
<title>q2&#45;&gt;q1</title>
<path fill="none" stroke="black" d="M92.36,-75.28C101.94,-80.31 112.75,-86.49 122,-93 128.13,-97.32 134.36,-102.35 140.16,-107.38"/>
<polygon fill="black" stroke="black" points="137.98,-110.12 147.77,-114.16 142.64,-104.89 137.98,-110.12"/>
<text text-anchor="middle" x="117.5" y="-96.8" font-family="Times,serif" font-size="14.00">a</text>
</g>
<!-- q2&#45;&gt;q2 -->
<g id="edge6" class="edge">
<title>q2&#45;&gt;q2</title>
<path fill="none" stroke="black" d="M57.39,-90.99C57.11,-101.42 59.98,-110 66,-110 69.86,-110 72.42,-106.48 73.69,-101.2"/>
<polygon fill="black" stroke="black" points="77.2,-101.26 74.61,-90.99 70.23,-100.63 77.2,-101.26"/>
<text text-anchor="middle" x="66" y="-113.8" font-family="Times,serif" font-size="14.00">b</text>
</g>
<!-- q3&#45;&gt;e -->
<g id="edge7" class="edge">
<title>q3&#45;&gt;e</title>
<path fill="none" stroke="black" d="M298.42,-72.41C310.84,-66.26 326.06,-58.72 339.84,-51.9"/>
<polygon fill="black" stroke="black" points="341.7,-54.88 349.11,-47.31 338.59,-48.61 341.7,-54.88"/>
<text text-anchor="middle" x="323.5" y="-66.8" font-family="Times,serif" font-size="14.00">ℇ</text>
</g>
<!-- q3&#45;&gt;q1 -->
<g id="edge8" class="edge">
<title>q3&#45;&gt;q1</title>
<path fill="none" stroke="black" d="M242.96,-85.92C234.02,-87.03 224.31,-89.13 216,-93 209.2,-96.17 202.67,-100.68 196.78,-105.56"/>
<polygon fill="black" stroke="black" points="194.31,-103.08 189.17,-112.34 198.97,-108.3 194.31,-103.08"/>
<text text-anchor="middle" x="220.5" y="-96.8" font-family="Times,serif" font-size="14.00">b</text>
</g>
<!-- q3&#45;&gt;q2 -->
<g id="edge9" class="edge">
<title>q3&#45;&gt;q2</title>
<path fill="none" stroke="black" d="M243.07,-81.99C207.32,-78.13 145.21,-71.43 105.12,-67.11"/>
<polygon fill="black" stroke="black" points="105.26,-63.61 94.94,-66.01 104.5,-70.57 105.26,-63.61"/>
<text text-anchor="middle" x="169" y="-80.8" font-family="Times,serif" font-size="14.00">a</text>
</g>
<!-- start -->
<g id="node6" class="node">
<title>start</title>
<ellipse fill="black" stroke="black" cx="0" cy="-172" rx="0" ry="0"/>
</g>
<!-- start&#45;&gt;s -->
<g id="edge10" class="edge">
<title>start&#45;&gt;s</title>
<path fill="none" stroke="black" d="M1.05,-172C1.87,-172 13.45,-172 26.55,-172"/>
<polygon fill="black" stroke="black" points="26.7,-175.5 36.7,-172 26.7,-168.5 26.7,-175.5"/>
</g>
</g>
</svg>
