<?xml version="1.0" encoding="UTF-8" standalone="no"?>
<!DOCTYPE svg PUBLIC "-//W3C//DTD SVG 1.1//EN"
 "http://www.w3.org/Graphics/SVG/1.1/DTD/svg11.dtd">
<!-- Generated by graphviz version 2.44.0 (20200408.0750)
 -->
<!-- Title: G Pages: 1 -->
<svg width="360pt" height="233pt"
 viewBox="0.00 0.00 360.00 233.00" xmlns="http://www.w3.org/2000/svg" xmlns:xlink="http://www.w3.org/1999/xlink">
<g id="graph0" class="graph" transform="scale(1 1) rotate(0) translate(4 229)">
<title>G</title>
<polygon fill="white" stroke="transparent" points="-4,4 -4,-229 356,-229 356,4 -4,4"/>
<!-- q0 -->
<g id="node1" class="node">
<title>q0</title>
<ellipse fill="none" stroke="black" cx="70" cy="-112.5" rx="29" ry="29"/>
<ellipse fill="none" stroke="black" cx="70" cy="-112.5" rx="33" ry="33"/>
<text text-anchor="start" x="64.5" y="-109.8" font-family="Times,serif" font-size="14.00">q</text>
<text text-anchor="start" x="71.5" y="-109.8" font-family="Times,serif" baseline-shift="sub" font-size="9.00">0</text>
</g>
<!-- q0&#45;&gt;q0 -->
<g id="edge1" class="edge">
<title>q0&#45;&gt;q0</title>
<path fill="none" stroke="black" d="M60.62,-144.38C60.62,-155 63.75,-163.5 70,-163.5 74.1,-163.5 76.86,-159.84 78.27,-154.32"/>
<polygon fill="black" stroke="black" points="81.75,-154.7 79.38,-144.38 74.79,-153.93 81.75,-154.7"/>
<text text-anchor="middle" x="70" y="-167.3" font-family="Times,serif" font-size="14.00">a</text>
</g>
<!-- q1 -->
<g id="node2" class="node">
<title>q1</title>
<ellipse fill="none" stroke="black" cx="185" cy="-112.5" rx="29" ry="29"/>
<text text-anchor="start" x="179.5" y="-109.8" font-family="Times,serif" font-size="14.00">q</text>
<text text-anchor="start" x="186.5" y="-109.8" font-family="Times,serif" baseline-shift="sub" font-size="9.00">1</text>
</g>
<!-- q0&#45;&gt;q1 -->
<g id="edge2" class="edge">
<title>q0&#45;&gt;q1</title>
<path fill="none" stroke="black" d="M103.08,-112.5C116.29,-112.5 131.7,-112.5 145.51,-112.5"/>
<polygon fill="black" stroke="black" points="145.69,-116 155.69,-112.5 145.69,-109 145.69,-116"/>
<text text-anchor="middle" x="129.5" y="-116.3" font-family="Times,serif" font-size="14.00">a,b</text>
</g>
<!-- q1&#45;&gt;q0 -->
<g id="edge3" class="edge">
<title>q1&#45;&gt;q0</title>
<path fill="none" stroke="black" d="M158.77,-100.01C152.17,-97.32 144.95,-94.88 138,-93.5 128.68,-91.65 118.77,-92.73 109.51,-95.11"/>
<polygon fill="black" stroke="black" points="108.29,-91.82 99.77,-98.12 110.36,-98.51 108.29,-91.82"/>
<text text-anchor="middle" x="129.5" y="-97.3" font-family="Times,serif" font-size="14.00">b</text>
</g>
<!-- start -->
<g id="node3" class="node">
<title>start</title>
<ellipse fill="black" stroke="black" cx="0" cy="-112.5" rx="0" ry="0"/>
</g>
<!-- start&#45;&gt;q0 -->
<g id="edge4" class="edge">
<title>start&#45;&gt;q0</title>
<path fill="none" stroke="black" d="M1.05,-112.5C1.89,-112.5 13.34,-112.5 26.61,-112.5"/>
<polygon fill="black" stroke="black" points="26.97,-116 36.97,-112.5 26.97,-109 26.97,-116"/>
</g>
<!-- Legend -->
<g id="node4" class="node">
<title>Legend</title>
<polygon fill="none" stroke="black" points="232,-199.5 232,-224.5 352,-224.5 352,-199.5 232,-199.5"/>
<text text-anchor="start" x="274.5" y="-209.3" font-family="Times,serif" font-weight="bold" font-size="14.00">NFA1</text>
<polygon fill="none" stroke="black" points="232,-174.5 232,-199.5 352,-199.5 352,-174.5 232,-174.5"/>
<text text-anchor="start" x="275" y="-184.3" font-family="Times,serif" font-weight="bold" font-style="italic" font-size="14.00">States</text>
<polygon fill="none" stroke="black" points="232,-149.5 232,-174.5 352,-174.5 352,-149.5 232,-149.5"/>
<text text-anchor="start" x="270" y="-159.3" font-family="Times,serif" font-size="14.00">{q</text>
<text text-anchor="start" x="284" y="-159.3" font-family="Times,serif" baseline-shift="sub" font-size="9.00">0</text>
<text text-anchor="start" x="288" y="-159.3" font-family="Times,serif" font-size="14.00">, q</text>
<text text-anchor="start" x="303" y="-159.3" font-family="Times,serif" baseline-shift="sub" font-size="9.00">1</text>
<text text-anchor="start" x="307" y="-159.3" font-family="Times,serif" font-size="14.00">}</text>
<polygon fill="none" stroke="black" points="232,-124.5 232,-149.5 352,-149.5 352,-124.5 232,-124.5"/>
<text text-anchor="start" x="237" y="-134.3" font-family="Times,serif" font-weight="bold" font-style="italic" font-size="14.00">Transition function</text>
<polygon fill="none" stroke="black" points="232,-99.5 232,-124.5 254,-124.5 254,-99.5 232,-99.5"/>
<text text-anchor="start" x="239" y="-108.3" font-family="Times,serif" font-size="14.00">δ</text>
<polygon fill="none" stroke="black" points="254,-99.5 254,-124.5 308,-124.5 308,-99.5 254,-99.5"/>
<text text-anchor="start" x="277.5" y="-109.3" font-family="Times,serif" font-weight="bold" font-size="14.00">a</text>
<polygon fill="none" stroke="black" points="308,-99.5 308,-124.5 329,-124.5 329,-99.5 308,-99.5"/>
<text text-anchor="start" x="314.5" y="-109.3" font-family="Times,serif" font-weight="bold" font-size="14.00">b</text>
<polygon fill="none" stroke="black" points="329,-99.5 329,-124.5 352,-124.5 352,-99.5 329,-99.5"/>
<text text-anchor="start" x="335.5" y="-109.3" font-family="Times,serif" font-weight="bold" font-size="14.00">ℇ</text>
<polygon fill="none" stroke="black" points="232,-74.5 232,-99.5 254,-99.5 254,-74.5 232,-74.5"/>
<text text-anchor="start" x="237" y="-84.3" font-family="Times,serif" font-weight="bold" font-size="14.00">q</text>
<text text-anchor="start" x="245" y="-84.3" font-family="Times,serif" font-weight="bold" baseline-shift="sub" font-size="9.00">0</text>
<polygon fill="none" stroke="black" points="254,-74.5 254,-99.5 308,-99.5 308,-74.5 254,-74.5"/>
<text text-anchor="start" x="259" y="-84.3" font-family="Times,serif" font-size="14.00">{q</text>
<text text-anchor="start" x="273" y="-84.3" font-family="Times,serif" baseline-shift="sub" font-size="9.00">0</text>
<text text-anchor="start" x="277" y="-84.3" font-family="Times,serif" font-size="14.00">, q</text>
<text text-anchor="start" x="292" y="-84.3" font-family="Times,serif" baseline-shift="sub" font-size="9.00">1</text>
<text text-anchor="start" x="296" y="-84.3" font-family="Times,serif" font-size="14.00">}</text>
<polygon fill="none" stroke="black" points="308,-74.5 308,-99.5 329,-99.5 329,-74.5 308,-74.5"/>
<text text-anchor="start" x="313" y="-84.3" font-family="Times,serif" font-size="14.00">q</text>
<text text-anchor="start" x="320" y="-84.3" font-family="Times,serif" baseline-shift="sub" font-size="9.00">1</text>
<polygon fill="none" stroke="black" points="329,-74.5 329,-99.5 352,-99.5 352,-74.5 329,-74.5"/>
<text text-anchor="start" x="334.5" y="-83.3" font-family="Times,serif" font-size="14.00">∅</text>
<polygon fill="none" stroke="black" points="232,-49.5 232,-74.5 254,-74.5 254,-49.5 232,-49.5"/>
<text text-anchor="start" x="237" y="-59.3" font-family="Times,serif" font-weight="bold" font-size="14.00">q</text>
<text text-anchor="start" x="245" y="-59.3" font-family="Times,serif" font-weight="bold" baseline-shift="sub" font-size="9.00">1</text>
<polygon fill="none" stroke="black" points="254,-49.5 254,-74.5 308,-74.5 308,-49.5 254,-49.5"/>
<text text-anchor="start" x="275" y="-58.3" font-family="Times,serif" font-size="14.00">∅</text>
<polygon fill="none" stroke="black" points="308,-49.5 308,-74.5 329,-74.5 329,-49.5 308,-49.5"/>
<text text-anchor="start" x="313" y="-59.3" font-family="Times,serif" font-size="14.00">q</text>
<text text-anchor="start" x="320" y="-59.3" font-family="Times,serif" baseline-shift="sub" font-size="9.00">0</text>
<polygon fill="none" stroke="black" points="329,-49.5 329,-74.5 352,-74.5 352,-49.5 329,-49.5"/>
<text text-anchor="start" x="334.5" y="-58.3" font-family="Times,serif" font-size="14.00">∅</text>
<polygon fill="none" stroke="black" points="232,-24.5 232,-49.5 352,-49.5 352,-24.5 232,-24.5"/>
<text text-anchor="start" x="254" y="-34.3" font-family="Times,serif" font-weight="bold" font-style="italic" font-size="14.00">Start state: </text>
<text text-anchor="start" x="319" y="-34.3" font-family="Times,serif" font-size="14.00">q</text>
<text text-anchor="start" x="326" y="-34.3" font-family="Times,serif" baseline-shift="sub" font-size="9.00">0</text>
<polygon fill="none" stroke="black" points="232,0.5 232,-24.5 352,-24.5 352,0.5 232,0.5"/>
<text text-anchor="start" x="246" y="-9.3" font-family="Times,serif" font-weight="bold" font-style="italic" font-size="14.00">Accept states: </text>
<text text-anchor="start" x="327" y="-9.3" font-family="Times,serif" font-size="14.00">q</text>
<text text-anchor="start" x="334" y="-9.3" font-family="Times,serif" baseline-shift="sub" font-size="9.00">0</text>
</g>
</g>
</svg>
