<?xml version="1.0" encoding="UTF-8" standalone="no"?>
<!DOCTYPE svg PUBLIC "-//W3C//DTD SVG 1.1//EN"
 "http://www.w3.org/Graphics/SVG/1.1/DTD/svg11.dtd">
<!-- Generated by graphviz version 2.44.0 (20200408.0750)
 -->
<!-- Title: G Pages: 1 -->
<svg width="476pt" height="124pt"
 viewBox="0.00 0.00 476.00 124.00" xmlns="http://www.w3.org/2000/svg" xmlns:xlink="http://www.w3.org/1999/xlink">
<g id="graph0" class="graph" transform="scale(1 1) rotate(0) translate(4 120)">
<title>G</title>
<polygon fill="white" stroke="transparent" points="-4,4 -4,-120 472,-120 472,4 -4,4"/>
<!-- e -->
<g id="node1" class="node">
<title>e</title>
<ellipse fill="none" stroke="black" cx="435" cy="-78" rx="29" ry="29"/>
<ellipse fill="none" stroke="black" cx="435" cy="-78" rx="33" ry="33"/>
<text text-anchor="middle" x="435" y="-74.3" font-family="Times,serif" font-size="14.00">e</text>
</g>
<!-- s -->
<g id="node2" class="node">
<title>s</title>
<ellipse fill="none" stroke="black" cx="66" cy="-78" rx="29" ry="29"/>
<text text-anchor="middle" x="66" y="-74.3" font-family="Times,serif" font-size="14.00">s</text>
</g>
<!-- s&#45;&gt;e -->
<g id="edge1" class="edge">
<title>s&#45;&gt;e</title>
<path fill="none" stroke="black" d="M94.54,-83.52C123.23,-88.96 169.55,-96.91 210,-100 273.8,-104.88 347.63,-94.52 392.55,-86.41"/>
<polygon fill="black" stroke="black" points="393.31,-89.83 402.51,-84.57 392.04,-82.95 393.31,-89.83"/>
<text text-anchor="middle" x="239" y="-104.8" font-family="Times,serif" font-size="14.00">a(aa⋃b)*</text>
</g>
<!-- q3 -->
<g id="node3" class="node">
<title>q3</title>
<ellipse fill="none" stroke="black" cx="239" cy="-29" rx="29" ry="29"/>
<text text-anchor="start" x="233.5" y="-26.3" font-family="Times,serif" font-size="14.00">q</text>
<text text-anchor="start" x="240.5" y="-26.3" font-family="Times,serif" baseline-shift="sub" font-size="9.00">3</text>
</g>
<!-- s&#45;&gt;q3 -->
<g id="edge2" class="edge">
<title>s&#45;&gt;q3</title>
<path fill="none" stroke="black" d="M94.1,-70.24C122.99,-61.96 168.92,-48.79 201.11,-39.57"/>
<polygon fill="black" stroke="black" points="202.38,-42.85 211.03,-36.73 200.45,-36.12 202.38,-42.85"/>
<text text-anchor="middle" x="152.5" y="-67.8" font-family="Times,serif" font-size="14.00">a(aa⋃b)*ab⋃b</text>
</g>
<!-- q3&#45;&gt;e -->
<g id="edge3" class="edge">
<title>q3&#45;&gt;e</title>
<path fill="none" stroke="black" d="M267.38,-35.92C300.03,-44.16 354.93,-58.03 392.73,-67.58"/>
<polygon fill="black" stroke="black" points="392.35,-71.09 402.91,-70.15 394.07,-64.3 392.35,-71.09"/>
<text text-anchor="middle" x="335" y="-68.8" font-family="Times,serif" font-size="14.00">(ba⋃a)(aa⋃b)*⋃ℇ</text>
</g>
<!-- q3&#45;&gt;q3 -->
<g id="edge4" class="edge">
<title>q3&#45;&gt;q3</title>
<path fill="none" stroke="black" d="M223.27,-53.66C221.33,-65.53 226.57,-76 239,-76 247.55,-76 252.69,-71.05 254.45,-64.1"/>
<polygon fill="black" stroke="black" points="257.96,-63.76 254.73,-53.66 250.96,-63.57 257.96,-63.76"/>
<text text-anchor="middle" x="239" y="-79.8" font-family="Times,serif" font-size="14.00">(ba⋃a)(aa⋃b)*ab⋃bb</text>
</g>
<!-- start -->
<g id="node4" class="node">
<title>start</title>
<ellipse fill="black" stroke="black" cx="0" cy="-78" rx="0" ry="0"/>
</g>
<!-- start&#45;&gt;s -->
<g id="edge5" class="edge">
<title>start&#45;&gt;s</title>
<path fill="none" stroke="black" d="M1.05,-78C1.87,-78 13.45,-78 26.55,-78"/>
<polygon fill="black" stroke="black" points="26.7,-81.5 36.7,-78 26.7,-74.5 26.7,-81.5"/>
</g>
</g>
</svg>
