<?xml version="1.0" encoding="UTF-8" standalone="no"?>
<!DOCTYPE svg PUBLIC "-//W3C//DTD SVG 1.1//EN"
 "http://www.w3.org/Graphics/SVG/1.1/DTD/svg11.dtd">
<!-- Generated by graphviz version 2.44.0 (20200408.0750)
 -->
<!-- Title: G Pages: 1 -->
<svg width="264pt" height="74pt"
 viewBox="0.00 0.00 264.00 74.00" xmlns="http://www.w3.org/2000/svg" xmlns:xlink="http://www.w3.org/1999/xlink">
<g id="graph0" class="graph" transform="scale(1 1) rotate(0) translate(4 70)">
<title>G</title>
<polygon fill="white" stroke="transparent" points="-4,4 -4,-70 260,-70 260,4 -4,4"/>
<!-- start -->
<g id="node1" class="node">
<title>start</title>
<ellipse fill="black" stroke="black" cx="0" cy="-33" rx="0" ry="0"/>
</g>
<!-- S -->
<g id="node2" class="node">
<title>S</title>
<ellipse fill="none" stroke="black" cx="66" cy="-33" rx="29" ry="29"/>
<text text-anchor="middle" x="66" y="-29.3" font-family="Times,serif" font-size="14.00">S</text>
</g>
<!-- start&#45;&gt;S -->
<g id="edge1" class="edge">
<title>start&#45;&gt;S</title>
<path fill="none" stroke="black" d="M1.05,-33C1.87,-33 13.45,-33 26.55,-33"/>
<polygon fill="black" stroke="black" points="26.7,-36.5 36.7,-33 26.7,-29.5 26.7,-36.5"/>
</g>
<!-- a -->
<g id="node3" class="node">
<title>a</title>
<ellipse fill="none" stroke="black" cx="223" cy="-33" rx="29" ry="29"/>
<ellipse fill="none" stroke="black" cx="223" cy="-33" rx="33" ry="33"/>
<text text-anchor="middle" x="223" y="-29.3" font-family="Times,serif" font-size="14.00">a</text>
</g>
<!-- S&#45;&gt;a -->
<g id="edge2" class="edge">
<title>S&#45;&gt;a</title>
<path fill="none" stroke="black" d="M95.07,-33C118.64,-33 152.67,-33 179.56,-33"/>
<polygon fill="black" stroke="black" points="179.86,-36.5 189.86,-33 179.86,-29.5 179.86,-36.5"/>
<text text-anchor="middle" x="142.5" y="-36.8" font-family="Times,serif" font-size="14.00">a*b(a∪b)*</text>
</g>
</g>
</svg>
