<?xml version="1.0" encoding="UTF-8" standalone="no"?>
<!DOCTYPE svg PUBLIC "-//W3C//DTD SVG 1.1//EN"
 "http://www.w3.org/Graphics/SVG/1.1/DTD/svg11.dtd">
<!-- Generated by graphviz version 2.44.0 (20200408.0750)
 -->
<!-- Title: G Pages: 1 -->
<svg width="212pt" height="107pt"
 viewBox="0.00 0.00 212.00 107.00" xmlns="http://www.w3.org/2000/svg" xmlns:xlink="http://www.w3.org/1999/xlink">
<g id="graph0" class="graph" transform="scale(1 1) rotate(0) translate(4 103)">
<title>G</title>
<polygon fill="white" stroke="transparent" points="-4,4 -4,-103 208,-103 208,4 -4,4"/>
<!-- start -->
<g id="node1" class="node">
<title>start</title>
<ellipse fill="black" stroke="black" cx="0" cy="-33" rx="0" ry="0"/>
</g>
<!-- q1 -->
<g id="node2" class="node">
<title>q1</title>
<ellipse fill="none" stroke="black" cx="66" cy="-33" rx="29" ry="29"/>
<text text-anchor="start" x="60.5" y="-30.3" font-family="Times,serif" font-size="14.00">q</text>
<text text-anchor="start" x="67.5" y="-30.3" font-family="Times,serif" baseline-shift="sub" font-size="9.00">1</text>
</g>
<!-- start&#45;&gt;q1 -->
<g id="edge1" class="edge">
<title>start&#45;&gt;q1</title>
<path fill="none" stroke="black" d="M1.05,-33C1.87,-33 13.45,-33 26.55,-33"/>
<polygon fill="black" stroke="black" points="26.7,-36.5 36.7,-33 26.7,-29.5 26.7,-36.5"/>
</g>
<!-- q1&#45;&gt;q1 -->
<g id="edge2" class="edge">
<title>q1&#45;&gt;q1</title>
<path fill="none" stroke="black" d="M57.39,-60.99C57.11,-71.42 59.98,-80 66,-80 69.86,-80 72.42,-76.48 73.69,-71.2"/>
<polygon fill="black" stroke="black" points="77.2,-71.26 74.61,-60.99 70.23,-70.63 77.2,-71.26"/>
<text text-anchor="middle" x="66" y="-83.8" font-family="Times,serif" font-size="14.00">a</text>
</g>
<!-- q2 -->
<g id="node3" class="node">
<title>q2</title>
<ellipse fill="none" stroke="black" cx="171" cy="-33" rx="29" ry="29"/>
<ellipse fill="none" stroke="black" cx="171" cy="-33" rx="33" ry="33"/>
<text text-anchor="start" x="165.5" y="-30.3" font-family="Times,serif" font-size="14.00">q</text>
<text text-anchor="start" x="172.5" y="-30.3" font-family="Times,serif" baseline-shift="sub" font-size="9.00">2</text>
</g>
<!-- q1&#45;&gt;q2 -->
<g id="edge3" class="edge">
<title>q1&#45;&gt;q2</title>
<path fill="none" stroke="black" d="M95.15,-33C105.17,-33 116.68,-33 127.63,-33"/>
<polygon fill="black" stroke="black" points="127.89,-36.5 137.89,-33 127.89,-29.5 127.89,-36.5"/>
<text text-anchor="middle" x="116.5" y="-36.8" font-family="Times,serif" font-size="14.00">b</text>
</g>
<!-- q2&#45;&gt;q2 -->
<g id="edge4" class="edge">
<title>q2&#45;&gt;q2</title>
<path fill="none" stroke="black" d="M160.88,-64.63C160.82,-75.37 164.2,-84 171,-84 175.46,-84 178.45,-80.28 179.96,-74.69"/>
<polygon fill="black" stroke="black" points="183.46,-74.96 181.12,-64.63 176.5,-74.16 183.46,-74.96"/>
<text text-anchor="middle" x="171" y="-87.8" font-family="Times,serif" font-size="14.00">a,b</text>
</g>
</g>
</svg>
