<?xml version="1.0" encoding="UTF-8" standalone="no"?>
<!DOCTYPE svg PUBLIC "-//W3C//DTD SVG 1.1//EN"
 "http://www.w3.org/Graphics/SVG/1.1/DTD/svg11.dtd">
<!-- Generated by graphviz version 2.44.0 (20200408.0750)
 -->
<!-- Title: G Pages: 1 -->
<svg width="331pt" height="170pt"
 viewBox="0.00 0.00 331.00 169.93" xmlns="http://www.w3.org/2000/svg" xmlns:xlink="http://www.w3.org/1999/xlink">
<g id="graph0" class="graph" transform="scale(1 1) rotate(0) translate(4 165.93)">
<title>G</title>
<polygon fill="white" stroke="transparent" points="-4,4 -4,-165.93 327,-165.93 327,4 -4,4"/>
<!-- start -->
<g id="node1" class="node">
<title>start</title>
<ellipse fill="black" stroke="black" cx="0" cy="-63.93" rx="0" ry="0"/>
</g>
<!-- q1 -->
<g id="node2" class="node">
<title>q1</title>
<ellipse fill="none" stroke="black" cx="66" cy="-63.93" rx="29" ry="29"/>
<text text-anchor="start" x="60.5" y="-61.23" font-family="Times,serif" font-size="14.00">q</text>
<text text-anchor="start" x="67.5" y="-61.23" font-family="Times,serif" baseline-shift="sub" font-size="9.00">1</text>
</g>
<!-- start&#45;&gt;q1 -->
<g id="edge1" class="edge">
<title>start&#45;&gt;q1</title>
<path fill="none" stroke="black" d="M1.05,-63.93C1.87,-63.93 13.45,-63.93 26.55,-63.93"/>
<polygon fill="black" stroke="black" points="26.7,-67.43 36.7,-63.93 26.7,-60.43 26.7,-67.43"/>
</g>
<!-- q2 -->
<g id="node3" class="node">
<title>q2</title>
<ellipse fill="none" stroke="black" cx="290" cy="-63.93" rx="29" ry="29"/>
<ellipse fill="none" stroke="black" cx="290" cy="-63.93" rx="33" ry="33"/>
<text text-anchor="start" x="284.5" y="-61.23" font-family="Times,serif" font-size="14.00">q</text>
<text text-anchor="start" x="291.5" y="-61.23" font-family="Times,serif" baseline-shift="sub" font-size="9.00">2</text>
</g>
<!-- q1&#45;&gt;q2 -->
<g id="edge2" class="edge">
<title>q1&#45;&gt;q2</title>
<path fill="none" stroke="black" d="M82,-88.2C94.51,-105.95 114.12,-128.65 138,-138.93 164.94,-150.52 176.56,-149.3 204,-138.93 226.46,-130.43 246.83,-112.99 261.99,-97.07"/>
<polygon fill="black" stroke="black" points="264.82,-99.16 269,-89.42 259.66,-94.43 264.82,-99.16"/>
<text text-anchor="middle" x="171" y="-150.73" font-family="Times,serif" font-size="14.00">a</text>
</g>
<!-- q3 -->
<g id="node4" class="node">
<title>q3</title>
<ellipse fill="none" stroke="black" cx="171" cy="-63.93" rx="29" ry="29"/>
<ellipse fill="none" stroke="black" cx="171" cy="-63.93" rx="33" ry="33"/>
<text text-anchor="start" x="165.5" y="-61.23" font-family="Times,serif" font-size="14.00">q</text>
<text text-anchor="start" x="172.5" y="-61.23" font-family="Times,serif" baseline-shift="sub" font-size="9.00">3</text>
</g>
<!-- q1&#45;&gt;q3 -->
<g id="edge3" class="edge">
<title>q1&#45;&gt;q3</title>
<path fill="none" stroke="black" d="M95.15,-63.93C105.17,-63.93 116.68,-63.93 127.63,-63.93"/>
<polygon fill="black" stroke="black" points="127.89,-67.43 137.89,-63.93 127.89,-60.43 127.89,-67.43"/>
<text text-anchor="middle" x="116.5" y="-67.73" font-family="Times,serif" font-size="14.00">b</text>
</g>
<!-- q2&#45;&gt;q1 -->
<g id="edge4" class="edge">
<title>q2&#45;&gt;q1</title>
<path fill="none" stroke="black" d="M265.01,-42.15C249,-29.15 226.78,-13.86 204,-6.93 175.94,1.61 165.67,2.81 138,-6.93 121.49,-12.74 105.97,-24.18 93.69,-35.31"/>
<polygon fill="black" stroke="black" points="90.94,-33.09 86.1,-42.51 95.76,-38.16 90.94,-33.09"/>
<text text-anchor="middle" x="171" y="-10.73" font-family="Times,serif" font-size="14.00">a</text>
</g>
<!-- q2&#45;&gt;q2 -->
<g id="edge5" class="edge">
<title>q2&#45;&gt;q2</title>
<path fill="none" stroke="black" d="M279.13,-95.3C279.01,-106.16 282.64,-114.93 290,-114.93 294.83,-114.93 298.05,-111.15 299.67,-105.49"/>
<polygon fill="black" stroke="black" points="303.17,-105.64 300.87,-95.3 296.22,-104.82 303.17,-105.64"/>
<text text-anchor="middle" x="290" y="-118.73" font-family="Times,serif" font-size="14.00">b</text>
</g>
<!-- q3&#45;&gt;q2 -->
<g id="edge6" class="edge">
<title>q3&#45;&gt;q2</title>
<path fill="none" stroke="black" d="M204.28,-63.93C217.32,-63.93 232.56,-63.93 246.49,-63.93"/>
<polygon fill="black" stroke="black" points="246.82,-67.43 256.82,-63.93 246.82,-60.43 246.82,-67.43"/>
<text text-anchor="middle" x="230.5" y="-67.73" font-family="Times,serif" font-size="14.00">a,b</text>
</g>
<!-- q3&#45;&gt;q3 -->
<g id="edge7" class="edge">
<title>q3&#45;&gt;q3</title>
<path fill="none" stroke="black" d="M160.88,-95.55C160.82,-106.29 164.2,-114.93 171,-114.93 175.46,-114.93 178.45,-111.21 179.96,-105.62"/>
<polygon fill="black" stroke="black" points="183.46,-105.89 181.12,-95.55 176.5,-105.09 183.46,-105.89"/>
<text text-anchor="middle" x="171" y="-118.73" font-family="Times,serif" font-size="14.00">b</text>
</g>
</g>
</svg>
