<?xml version="1.0" encoding="UTF-8" standalone="no"?>
<!DOCTYPE svg PUBLIC "-//W3C//DTD SVG 1.1//EN"
 "http://www.w3.org/Graphics/SVG/1.1/DTD/svg11.dtd">
<!-- Generated by graphviz version 2.44.0 (20200408.0750)
 -->
<!-- Title: G Pages: 1 -->
<svg width="737pt" height="338pt"
 viewBox="0.00 0.00 737.00 337.50" xmlns="http://www.w3.org/2000/svg" xmlns:xlink="http://www.w3.org/1999/xlink">
<g id="graph0" class="graph" transform="scale(1 1) rotate(0) translate(4 333.5)">
<title>G</title>
<polygon fill="white" stroke="transparent" points="-4,4 -4,-333.5 733,-333.5 733,4 -4,4"/>
<!-- ∅ -->
<g id="node1" class="node">
<title>∅</title>
<ellipse fill="none" stroke="black" cx="352" cy="-224.5" rx="29" ry="29"/>
<text text-anchor="middle" x="352" y="-220.8" font-family="Times,serif" font-size="14.00">∅</text>
</g>
<!-- ∅&#45;&gt;∅ -->
<g id="edge1" class="edge">
<title>∅&#45;&gt;∅</title>
<path fill="none" stroke="black" d="M341.91,-252.02C341.47,-262.66 344.83,-271.5 352,-271.5 356.71,-271.5 359.77,-267.69 361.2,-262.07"/>
<polygon fill="black" stroke="black" points="364.69,-262.29 362.09,-252.02 357.72,-261.67 364.69,-262.29"/>
<text text-anchor="middle" x="352" y="-275.3" font-family="Times,serif" font-size="14.00">0,1</text>
</g>
<!-- q1 -->
<g id="node2" class="node">
<title>q1</title>
<ellipse fill="none" stroke="black" cx="134" cy="-231.5" rx="29" ry="29"/>
<ellipse fill="none" stroke="black" cx="134" cy="-231.5" rx="33" ry="33"/>
<text text-anchor="start" x="128.5" y="-228.8" font-family="Times,serif" font-size="14.00">q</text>
<text text-anchor="start" x="135.5" y="-228.8" font-family="Times,serif" baseline-shift="sub" font-size="9.00">1</text>
</g>
<!-- q1&#45;&gt;∅ -->
<g id="edge2" class="edge">
<title>q1&#45;&gt;∅</title>
<path fill="none" stroke="black" d="M167.34,-230.45C206.2,-229.19 271.34,-227.08 312.69,-225.74"/>
<polygon fill="black" stroke="black" points="313.04,-229.23 322.92,-225.41 312.81,-222.24 313.04,-229.23"/>
<text text-anchor="middle" x="243" y="-232.3" font-family="Times,serif" font-size="14.00">1</text>
</g>
<!-- q0q1 -->
<g id="node4" class="node">
<title>q0q1</title>
<ellipse fill="none" stroke="black" cx="243" cy="-162.5" rx="29" ry="29"/>
<ellipse fill="none" stroke="black" cx="243" cy="-162.5" rx="33" ry="33"/>
<text text-anchor="start" x="232" y="-159.8" font-family="Times,serif" font-size="14.00">q</text>
<text text-anchor="start" x="239" y="-159.8" font-family="Times,serif" baseline-shift="sub" font-size="9.00">0</text>
<text text-anchor="start" x="243" y="-159.8" font-family="Times,serif" font-size="14.00">q</text>
<text text-anchor="start" x="250" y="-159.8" font-family="Times,serif" baseline-shift="sub" font-size="9.00">1</text>
</g>
<!-- q1&#45;&gt;q0q1 -->
<g id="edge3" class="edge">
<title>q1&#45;&gt;q0q1</title>
<path fill="none" stroke="black" d="M162.28,-213.91C175.61,-205.31 191.83,-194.85 206.15,-185.62"/>
<polygon fill="black" stroke="black" points="208.27,-188.42 214.77,-180.06 204.47,-182.54 208.27,-188.42"/>
<text text-anchor="middle" x="188.5" y="-203.3" font-family="Times,serif" font-size="14.00">0</text>
</g>
<!-- q2 -->
<g id="node3" class="node">
<title>q2</title>
<ellipse fill="none" stroke="black" cx="29" cy="-273.5" rx="29" ry="29"/>
<text text-anchor="start" x="23.5" y="-270.8" font-family="Times,serif" font-size="14.00">q</text>
<text text-anchor="start" x="30.5" y="-270.8" font-family="Times,serif" baseline-shift="sub" font-size="9.00">2</text>
</g>
<!-- q2&#45;&gt;q1 -->
<g id="edge4" class="edge">
<title>q2&#45;&gt;q1</title>
<path fill="none" stroke="black" d="M56.26,-262.79C67.66,-258.14 81.25,-252.6 93.8,-247.48"/>
<polygon fill="black" stroke="black" points="95.21,-250.69 103.15,-243.67 92.57,-244.21 95.21,-250.69"/>
<text text-anchor="middle" x="79.5" y="-257.3" font-family="Times,serif" font-size="14.00">0</text>
</g>
<!-- q1q2 -->
<g id="node5" class="node">
<title>q1q2</title>
<ellipse fill="none" stroke="black" cx="461" cy="-162.5" rx="29" ry="29"/>
<ellipse fill="none" stroke="black" cx="461" cy="-162.5" rx="33" ry="33"/>
<text text-anchor="start" x="450" y="-159.8" font-family="Times,serif" font-size="14.00">q</text>
<text text-anchor="start" x="457" y="-159.8" font-family="Times,serif" baseline-shift="sub" font-size="9.00">1</text>
<text text-anchor="start" x="461" y="-159.8" font-family="Times,serif" font-size="14.00">q</text>
<text text-anchor="start" x="468" y="-159.8" font-family="Times,serif" baseline-shift="sub" font-size="9.00">2</text>
</g>
<!-- q2&#45;&gt;q1q2 -->
<g id="edge5" class="edge">
<title>q2&#45;&gt;q1q2</title>
<path fill="none" stroke="black" d="M53.91,-289C74.14,-300.61 104.32,-314.5 133,-314.5 133,-314.5 133,-314.5 353,-314.5 407,-314.5 436.13,-249.55 449.82,-204.56"/>
<polygon fill="black" stroke="black" points="453.25,-205.31 452.67,-194.74 446.52,-203.37 453.25,-205.31"/>
<text text-anchor="middle" x="243" y="-318.3" font-family="Times,serif" font-size="14.00">1</text>
</g>
<!-- q0q1&#45;&gt;∅ -->
<g id="edge6" class="edge">
<title>q0q1&#45;&gt;∅</title>
<path fill="none" stroke="black" d="M271.83,-178.63C285.88,-186.77 303.03,-196.7 317.77,-205.24"/>
<polygon fill="black" stroke="black" points="316.18,-208.37 326.58,-210.35 319.69,-202.31 316.18,-208.37"/>
<text text-anchor="middle" x="297.5" y="-199.3" font-family="Times,serif" font-size="14.00">1</text>
</g>
<!-- q0q1q2 -->
<g id="node7" class="node">
<title>q0q1q2</title>
<ellipse fill="none" stroke="black" cx="352" cy="-60.5" rx="29" ry="29"/>
<ellipse fill="none" stroke="black" cx="352" cy="-60.5" rx="33" ry="33"/>
<text text-anchor="start" x="335.5" y="-57.8" font-family="Times,serif" font-size="14.00">q</text>
<text text-anchor="start" x="342.5" y="-57.8" font-family="Times,serif" baseline-shift="sub" font-size="9.00">0</text>
<text text-anchor="start" x="346.5" y="-57.8" font-family="Times,serif" font-size="14.00">q</text>
<text text-anchor="start" x="353.5" y="-57.8" font-family="Times,serif" baseline-shift="sub" font-size="9.00">1</text>
<text text-anchor="start" x="357.5" y="-57.8" font-family="Times,serif" font-size="14.00">q</text>
<text text-anchor="start" x="364.5" y="-57.8" font-family="Times,serif" baseline-shift="sub" font-size="9.00">2</text>
</g>
<!-- q0q1&#45;&gt;q0q1q2 -->
<g id="edge7" class="edge">
<title>q0q1&#45;&gt;q0q1q2</title>
<path fill="none" stroke="black" d="M267.48,-140.12C282.95,-125.37 303.37,-105.9 320.15,-89.91"/>
<polygon fill="black" stroke="black" points="322.75,-92.27 327.57,-82.83 317.92,-87.2 322.75,-92.27"/>
<text text-anchor="middle" x="297.5" y="-119.3" font-family="Times,serif" font-size="14.00">0</text>
</g>
<!-- q1q2&#45;&gt;q0q1 -->
<g id="edge8" class="edge">
<title>q1q2&#45;&gt;q0q1</title>
<path fill="none" stroke="black" d="M427.79,-162.5C390.21,-162.5 327.91,-162.5 286.41,-162.5"/>
<polygon fill="black" stroke="black" points="286.34,-159 276.34,-162.5 286.34,-166 286.34,-159"/>
<text text-anchor="middle" x="352" y="-166.3" font-family="Times,serif" font-size="14.00">0</text>
</g>
<!-- q1q2&#45;&gt;q1q2 -->
<g id="edge9" class="edge">
<title>q1q2&#45;&gt;q1q2</title>
<path fill="none" stroke="black" d="M450.88,-194.13C450.82,-204.87 454.2,-213.5 461,-213.5 465.46,-213.5 468.45,-209.78 469.96,-204.19"/>
<polygon fill="black" stroke="black" points="473.46,-204.46 471.12,-194.13 466.5,-203.66 473.46,-204.46"/>
<text text-anchor="middle" x="461" y="-217.3" font-family="Times,serif" font-size="14.00">1</text>
</g>
<!-- start -->
<g id="node6" class="node">
<title>start</title>
<ellipse fill="black" stroke="black" cx="134" cy="-162.5" rx="0" ry="0"/>
</g>
<!-- start&#45;&gt;q0q1 -->
<g id="edge10" class="edge">
<title>start&#45;&gt;q0q1</title>
<path fill="none" stroke="black" d="M135.08,-162.5C136.91,-162.5 170.72,-162.5 199.84,-162.5"/>
<polygon fill="black" stroke="black" points="199.88,-166 209.88,-162.5 199.88,-159 199.88,-166"/>
</g>
<!-- q0q1q2&#45;&gt;q1q2 -->
<g id="edge11" class="edge">
<title>q0q1q2&#45;&gt;q1q2</title>
<path fill="none" stroke="black" d="M376.48,-82.88C391.95,-97.63 412.37,-117.1 429.15,-133.09"/>
<polygon fill="black" stroke="black" points="426.92,-135.8 436.57,-140.17 431.75,-130.73 426.92,-135.8"/>
<text text-anchor="middle" x="406.5" y="-119.3" font-family="Times,serif" font-size="14.00">1</text>
</g>
<!-- q0q1q2&#45;&gt;q0q1q2 -->
<g id="edge12" class="edge">
<title>q0q1q2&#45;&gt;q0q1q2</title>
<path fill="none" stroke="black" d="M341.88,-92.13C341.82,-102.87 345.2,-111.5 352,-111.5 356.46,-111.5 359.45,-107.78 360.96,-102.19"/>
<polygon fill="black" stroke="black" points="364.46,-102.46 362.12,-92.13 357.5,-101.66 364.46,-102.46"/>
<text text-anchor="middle" x="352" y="-115.3" font-family="Times,serif" font-size="14.00">0</text>
</g>
<!-- Legend -->
<g id="node8" class="node">
<title>Legend</title>
<polygon fill="none" stroke="black" points="512.5,-299.5 512.5,-324.5 729.5,-324.5 729.5,-299.5 512.5,-299.5"/>
<text text-anchor="start" x="572.5" y="-309.3" font-family="Times,serif" font-weight="bold" font-size="14.00">NFA2→DFA→S</text>
<polygon fill="none" stroke="black" points="512.5,-274.5 512.5,-299.5 729.5,-299.5 729.5,-274.5 512.5,-274.5"/>
<text text-anchor="start" x="604" y="-284.3" font-family="Times,serif" font-weight="bold" font-style="italic" font-size="14.00">States</text>
<polygon fill="none" stroke="black" points="512.5,-249.5 512.5,-274.5 729.5,-274.5 729.5,-249.5 512.5,-249.5"/>
<text text-anchor="start" x="539" y="-259.3" font-family="Times,serif" font-size="14.00">{∅, q</text>
<text text-anchor="start" x="572" y="-259.3" font-family="Times,serif" baseline-shift="sub" font-size="9.00">1</text>
<text text-anchor="start" x="576" y="-259.3" font-family="Times,serif" font-size="14.00">, q</text>
<text text-anchor="start" x="591" y="-259.3" font-family="Times,serif" baseline-shift="sub" font-size="9.00">2</text>
<text text-anchor="start" x="595" y="-259.3" font-family="Times,serif" font-size="14.00">, q</text>
<text text-anchor="start" x="610" y="-259.3" font-family="Times,serif" baseline-shift="sub" font-size="9.00">0</text>
<text text-anchor="start" x="614" y="-259.3" font-family="Times,serif" font-size="14.00">q</text>
<text text-anchor="start" x="621" y="-259.3" font-family="Times,serif" baseline-shift="sub" font-size="9.00">1</text>
<text text-anchor="start" x="625" y="-259.3" font-family="Times,serif" font-size="14.00">, q</text>
<text text-anchor="start" x="640" y="-259.3" font-family="Times,serif" baseline-shift="sub" font-size="9.00">1</text>
<text text-anchor="start" x="644" y="-259.3" font-family="Times,serif" font-size="14.00">q</text>
<text text-anchor="start" x="651" y="-259.3" font-family="Times,serif" baseline-shift="sub" font-size="9.00">2</text>
<text text-anchor="start" x="655" y="-259.3" font-family="Times,serif" font-size="14.00">, q</text>
<text text-anchor="start" x="670" y="-259.3" font-family="Times,serif" baseline-shift="sub" font-size="9.00">0</text>
<text text-anchor="start" x="674" y="-259.3" font-family="Times,serif" font-size="14.00">q</text>
<text text-anchor="start" x="681" y="-259.3" font-family="Times,serif" baseline-shift="sub" font-size="9.00">1</text>
<text text-anchor="start" x="685" y="-259.3" font-family="Times,serif" font-size="14.00">q</text>
<text text-anchor="start" x="692" y="-259.3" font-family="Times,serif" baseline-shift="sub" font-size="9.00">2</text>
<text text-anchor="start" x="696" y="-259.3" font-family="Times,serif" font-size="14.00">}</text>
<polygon fill="none" stroke="black" points="512.5,-224.5 512.5,-249.5 729.5,-249.5 729.5,-224.5 512.5,-224.5"/>
<text text-anchor="start" x="566" y="-234.3" font-family="Times,serif" font-weight="bold" font-style="italic" font-size="14.00">Transition function</text>
<polygon fill="none" stroke="black" points="512.5,-199.5 512.5,-224.5 595.5,-224.5 595.5,-199.5 512.5,-199.5"/>
<text text-anchor="start" x="550" y="-208.3" font-family="Times,serif" font-size="14.00">δ</text>
<polygon fill="none" stroke="black" points="595.5,-199.5 595.5,-224.5 656.5,-224.5 656.5,-199.5 595.5,-199.5"/>
<text text-anchor="start" x="622.5" y="-209.3" font-family="Times,serif" font-weight="bold" font-size="14.00">0</text>
<polygon fill="none" stroke="black" points="656.5,-199.5 656.5,-224.5 697.5,-224.5 697.5,-199.5 656.5,-199.5"/>
<text text-anchor="start" x="673.5" y="-209.3" font-family="Times,serif" font-weight="bold" font-size="14.00">1</text>
<polygon fill="none" stroke="black" points="697.5,-199.5 697.5,-224.5 729.5,-224.5 729.5,-199.5 697.5,-199.5"/>
<text text-anchor="start" x="708.5" y="-209.3" font-family="Times,serif" font-weight="bold" font-size="14.00">ℇ</text>
<polygon fill="none" stroke="black" points="512.5,-174.5 512.5,-199.5 595.5,-199.5 595.5,-174.5 512.5,-174.5"/>
<text text-anchor="start" x="548" y="-184.3" font-family="Times,serif" font-weight="bold" font-size="14.00">∅</text>
<polygon fill="none" stroke="black" points="595.5,-174.5 595.5,-199.5 656.5,-199.5 656.5,-174.5 595.5,-174.5"/>
<text text-anchor="start" x="620" y="-183.3" font-family="Times,serif" font-size="14.00">∅</text>
<polygon fill="none" stroke="black" points="656.5,-174.5 656.5,-199.5 697.5,-199.5 697.5,-174.5 656.5,-174.5"/>
<text text-anchor="start" x="671" y="-183.3" font-family="Times,serif" font-size="14.00">∅</text>
<polygon fill="none" stroke="black" points="697.5,-174.5 697.5,-199.5 729.5,-199.5 729.5,-174.5 697.5,-174.5"/>
<text text-anchor="start" x="707.5" y="-183.3" font-family="Times,serif" font-size="14.00">∅</text>
<polygon fill="none" stroke="black" points="512.5,-149.5 512.5,-174.5 595.5,-174.5 595.5,-149.5 512.5,-149.5"/>
<text text-anchor="start" x="548" y="-159.3" font-family="Times,serif" font-weight="bold" font-size="14.00">q</text>
<text text-anchor="start" x="556" y="-159.3" font-family="Times,serif" font-weight="bold" baseline-shift="sub" font-size="9.00">1</text>
<polygon fill="none" stroke="black" points="595.5,-149.5 595.5,-174.5 656.5,-174.5 656.5,-149.5 595.5,-149.5"/>
<text text-anchor="start" x="615" y="-159.3" font-family="Times,serif" font-size="14.00">q</text>
<text text-anchor="start" x="622" y="-159.3" font-family="Times,serif" baseline-shift="sub" font-size="9.00">0</text>
<text text-anchor="start" x="626" y="-159.3" font-family="Times,serif" font-size="14.00">q</text>
<text text-anchor="start" x="633" y="-159.3" font-family="Times,serif" baseline-shift="sub" font-size="9.00">1</text>
<polygon fill="none" stroke="black" points="656.5,-149.5 656.5,-174.5 697.5,-174.5 697.5,-149.5 656.5,-149.5"/>
<text text-anchor="start" x="671" y="-158.3" font-family="Times,serif" font-size="14.00">∅</text>
<polygon fill="none" stroke="black" points="697.5,-149.5 697.5,-174.5 729.5,-174.5 729.5,-149.5 697.5,-149.5"/>
<text text-anchor="start" x="707.5" y="-158.3" font-family="Times,serif" font-size="14.00">∅</text>
<polygon fill="none" stroke="black" points="512.5,-124.5 512.5,-149.5 595.5,-149.5 595.5,-124.5 512.5,-124.5"/>
<text text-anchor="start" x="548" y="-134.3" font-family="Times,serif" font-weight="bold" font-size="14.00">q</text>
<text text-anchor="start" x="556" y="-134.3" font-family="Times,serif" font-weight="bold" baseline-shift="sub" font-size="9.00">2</text>
<polygon fill="none" stroke="black" points="595.5,-124.5 595.5,-149.5 656.5,-149.5 656.5,-124.5 595.5,-124.5"/>
<text text-anchor="start" x="620.5" y="-134.3" font-family="Times,serif" font-size="14.00">q</text>
<text text-anchor="start" x="627.5" y="-134.3" font-family="Times,serif" baseline-shift="sub" font-size="9.00">1</text>
<polygon fill="none" stroke="black" points="656.5,-124.5 656.5,-149.5 697.5,-149.5 697.5,-124.5 656.5,-124.5"/>
<text text-anchor="start" x="666" y="-134.3" font-family="Times,serif" font-size="14.00">q</text>
<text text-anchor="start" x="673" y="-134.3" font-family="Times,serif" baseline-shift="sub" font-size="9.00">1</text>
<text text-anchor="start" x="677" y="-134.3" font-family="Times,serif" font-size="14.00">q</text>
<text text-anchor="start" x="684" y="-134.3" font-family="Times,serif" baseline-shift="sub" font-size="9.00">2</text>
<polygon fill="none" stroke="black" points="697.5,-124.5 697.5,-149.5 729.5,-149.5 729.5,-124.5 697.5,-124.5"/>
<text text-anchor="start" x="707.5" y="-133.3" font-family="Times,serif" font-size="14.00">∅</text>
<polygon fill="none" stroke="black" points="512.5,-99.5 512.5,-124.5 595.5,-124.5 595.5,-99.5 512.5,-99.5"/>
<text text-anchor="start" x="542" y="-109.3" font-family="Times,serif" font-weight="bold" font-size="14.00">q</text>
<text text-anchor="start" x="550" y="-109.3" font-family="Times,serif" font-weight="bold" baseline-shift="sub" font-size="9.00">0</text>
<text text-anchor="start" x="554" y="-109.3" font-family="Times,serif" font-weight="bold" font-size="14.00">q</text>
<text text-anchor="start" x="562" y="-109.3" font-family="Times,serif" font-weight="bold" baseline-shift="sub" font-size="9.00">1</text>
<polygon fill="none" stroke="black" points="595.5,-99.5 595.5,-124.5 656.5,-124.5 656.5,-99.5 595.5,-99.5"/>
<text text-anchor="start" x="609.5" y="-109.3" font-family="Times,serif" font-size="14.00">q</text>
<text text-anchor="start" x="616.5" y="-109.3" font-family="Times,serif" baseline-shift="sub" font-size="9.00">0</text>
<text text-anchor="start" x="620.5" y="-109.3" font-family="Times,serif" font-size="14.00">q</text>
<text text-anchor="start" x="627.5" y="-109.3" font-family="Times,serif" baseline-shift="sub" font-size="9.00">1</text>
<text text-anchor="start" x="631.5" y="-109.3" font-family="Times,serif" font-size="14.00">q</text>
<text text-anchor="start" x="638.5" y="-109.3" font-family="Times,serif" baseline-shift="sub" font-size="9.00">2</text>
<polygon fill="none" stroke="black" points="656.5,-99.5 656.5,-124.5 697.5,-124.5 697.5,-99.5 656.5,-99.5"/>
<text text-anchor="start" x="671" y="-108.3" font-family="Times,serif" font-size="14.00">∅</text>
<polygon fill="none" stroke="black" points="697.5,-99.5 697.5,-124.5 729.5,-124.5 729.5,-99.5 697.5,-99.5"/>
<text text-anchor="start" x="707.5" y="-108.3" font-family="Times,serif" font-size="14.00">∅</text>
<polygon fill="none" stroke="black" points="512.5,-74.5 512.5,-99.5 595.5,-99.5 595.5,-74.5 512.5,-74.5"/>
<text text-anchor="start" x="542" y="-84.3" font-family="Times,serif" font-weight="bold" font-size="14.00">q</text>
<text text-anchor="start" x="550" y="-84.3" font-family="Times,serif" font-weight="bold" baseline-shift="sub" font-size="9.00">1</text>
<text text-anchor="start" x="554" y="-84.3" font-family="Times,serif" font-weight="bold" font-size="14.00">q</text>
<text text-anchor="start" x="562" y="-84.3" font-family="Times,serif" font-weight="bold" baseline-shift="sub" font-size="9.00">2</text>
<polygon fill="none" stroke="black" points="595.5,-74.5 595.5,-99.5 656.5,-99.5 656.5,-74.5 595.5,-74.5"/>
<text text-anchor="start" x="615" y="-84.3" font-family="Times,serif" font-size="14.00">q</text>
<text text-anchor="start" x="622" y="-84.3" font-family="Times,serif" baseline-shift="sub" font-size="9.00">0</text>
<text text-anchor="start" x="626" y="-84.3" font-family="Times,serif" font-size="14.00">q</text>
<text text-anchor="start" x="633" y="-84.3" font-family="Times,serif" baseline-shift="sub" font-size="9.00">1</text>
<polygon fill="none" stroke="black" points="656.5,-74.5 656.5,-99.5 697.5,-99.5 697.5,-74.5 656.5,-74.5"/>
<text text-anchor="start" x="666" y="-84.3" font-family="Times,serif" font-size="14.00">q</text>
<text text-anchor="start" x="673" y="-84.3" font-family="Times,serif" baseline-shift="sub" font-size="9.00">1</text>
<text text-anchor="start" x="677" y="-84.3" font-family="Times,serif" font-size="14.00">q</text>
<text text-anchor="start" x="684" y="-84.3" font-family="Times,serif" baseline-shift="sub" font-size="9.00">2</text>
<polygon fill="none" stroke="black" points="697.5,-74.5 697.5,-99.5 729.5,-99.5 729.5,-74.5 697.5,-74.5"/>
<text text-anchor="start" x="707.5" y="-83.3" font-family="Times,serif" font-size="14.00">∅</text>
<polygon fill="none" stroke="black" points="512.5,-49.5 512.5,-74.5 595.5,-74.5 595.5,-49.5 512.5,-49.5"/>
<text text-anchor="start" x="536" y="-59.3" font-family="Times,serif" font-weight="bold" font-size="14.00">q</text>
<text text-anchor="start" x="544" y="-59.3" font-family="Times,serif" font-weight="bold" baseline-shift="sub" font-size="9.00">0</text>
<text text-anchor="start" x="548" y="-59.3" font-family="Times,serif" font-weight="bold" font-size="14.00">q</text>
<text text-anchor="start" x="556" y="-59.3" font-family="Times,serif" font-weight="bold" baseline-shift="sub" font-size="9.00">1</text>
<text text-anchor="start" x="560" y="-59.3" font-family="Times,serif" font-weight="bold" font-size="14.00">q</text>
<text text-anchor="start" x="568" y="-59.3" font-family="Times,serif" font-weight="bold" baseline-shift="sub" font-size="9.00">2</text>
<polygon fill="none" stroke="black" points="595.5,-49.5 595.5,-74.5 656.5,-74.5 656.5,-49.5 595.5,-49.5"/>
<text text-anchor="start" x="609.5" y="-59.3" font-family="Times,serif" font-size="14.00">q</text>
<text text-anchor="start" x="616.5" y="-59.3" font-family="Times,serif" baseline-shift="sub" font-size="9.00">0</text>
<text text-anchor="start" x="620.5" y="-59.3" font-family="Times,serif" font-size="14.00">q</text>
<text text-anchor="start" x="627.5" y="-59.3" font-family="Times,serif" baseline-shift="sub" font-size="9.00">1</text>
<text text-anchor="start" x="631.5" y="-59.3" font-family="Times,serif" font-size="14.00">q</text>
<text text-anchor="start" x="638.5" y="-59.3" font-family="Times,serif" baseline-shift="sub" font-size="9.00">2</text>
<polygon fill="none" stroke="black" points="656.5,-49.5 656.5,-74.5 697.5,-74.5 697.5,-49.5 656.5,-49.5"/>
<text text-anchor="start" x="666" y="-59.3" font-family="Times,serif" font-size="14.00">q</text>
<text text-anchor="start" x="673" y="-59.3" font-family="Times,serif" baseline-shift="sub" font-size="9.00">1</text>
<text text-anchor="start" x="677" y="-59.3" font-family="Times,serif" font-size="14.00">q</text>
<text text-anchor="start" x="684" y="-59.3" font-family="Times,serif" baseline-shift="sub" font-size="9.00">2</text>
<polygon fill="none" stroke="black" points="697.5,-49.5 697.5,-74.5 729.5,-74.5 729.5,-49.5 697.5,-49.5"/>
<text text-anchor="start" x="707.5" y="-58.3" font-family="Times,serif" font-size="14.00">∅</text>
<polygon fill="none" stroke="black" points="512.5,-24.5 512.5,-49.5 729.5,-49.5 729.5,-24.5 512.5,-24.5"/>
<text text-anchor="start" x="577.5" y="-34.3" font-family="Times,serif" font-weight="bold" font-style="italic" font-size="14.00">Start state: </text>
<text text-anchor="start" x="642.5" y="-34.3" font-family="Times,serif" font-size="14.00">q</text>
<text text-anchor="start" x="649.5" y="-34.3" font-family="Times,serif" baseline-shift="sub" font-size="9.00">0</text>
<text text-anchor="start" x="653.5" y="-34.3" font-family="Times,serif" font-size="14.00">q</text>
<text text-anchor="start" x="660.5" y="-34.3" font-family="Times,serif" baseline-shift="sub" font-size="9.00">1</text>
<polygon fill="none" stroke="black" points="512.5,0.5 512.5,-24.5 729.5,-24.5 729.5,0.5 512.5,0.5"/>
<text text-anchor="start" x="517.5" y="-9.3" font-family="Times,serif" font-weight="bold" font-style="italic" font-size="14.00">Accept states: </text>
<text text-anchor="start" x="598.5" y="-9.3" font-family="Times,serif" font-size="14.00">{q</text>
<text text-anchor="start" x="612.5" y="-9.3" font-family="Times,serif" baseline-shift="sub" font-size="9.00">1</text>
<text text-anchor="start" x="616.5" y="-9.3" font-family="Times,serif" font-size="14.00">, q</text>
<text text-anchor="start" x="631.5" y="-9.3" font-family="Times,serif" baseline-shift="sub" font-size="9.00">1</text>
<text text-anchor="start" x="635.5" y="-9.3" font-family="Times,serif" font-size="14.00">q</text>
<text text-anchor="start" x="642.5" y="-9.3" font-family="Times,serif" baseline-shift="sub" font-size="9.00">2</text>
<text text-anchor="start" x="646.5" y="-9.3" font-family="Times,serif" font-size="14.00">, q</text>
<text text-anchor="start" x="661.5" y="-9.3" font-family="Times,serif" baseline-shift="sub" font-size="9.00">0</text>
<text text-anchor="start" x="665.5" y="-9.3" font-family="Times,serif" font-size="14.00">q</text>
<text text-anchor="start" x="672.5" y="-9.3" font-family="Times,serif" baseline-shift="sub" font-size="9.00">1</text>
<text text-anchor="start" x="676.5" y="-9.3" font-family="Times,serif" font-size="14.00">, q</text>
<text text-anchor="start" x="691.5" y="-9.3" font-family="Times,serif" baseline-shift="sub" font-size="9.00">0</text>
<text text-anchor="start" x="695.5" y="-9.3" font-family="Times,serif" font-size="14.00">q</text>
<text text-anchor="start" x="702.5" y="-9.3" font-family="Times,serif" baseline-shift="sub" font-size="9.00">1</text>
<text text-anchor="start" x="706.5" y="-9.3" font-family="Times,serif" font-size="14.00">q</text>
<text text-anchor="start" x="713.5" y="-9.3" font-family="Times,serif" baseline-shift="sub" font-size="9.00">2</text>
<text text-anchor="start" x="717.5" y="-9.3" font-family="Times,serif" font-size="14.00">}</text>
</g>
</g>
</svg>
