<?xml version="1.0" encoding="UTF-8" standalone="no"?>
<!DOCTYPE svg PUBLIC "-//W3C//DTD SVG 1.1//EN"
 "http://www.w3.org/Graphics/SVG/1.1/DTD/svg11.dtd">
<!-- Generated by graphviz version 2.44.0 (20200408.0750)
 -->
<!-- Title: G Pages: 1 -->
<svg width="545pt" height="371pt"
 viewBox="0.00 0.00 545.00 370.50" xmlns="http://www.w3.org/2000/svg" xmlns:xlink="http://www.w3.org/1999/xlink">
<g id="graph0" class="graph" transform="scale(1 1) rotate(0) translate(4 366.5)">
<title>G</title>
<polygon fill="white" stroke="transparent" points="-4,4 -4,-366.5 541,-366.5 541,4 -4,4"/>
<!-- ∅ -->
<g id="node1" class="node">
<title>∅</title>
<ellipse fill="none" stroke="black" cx="179" cy="-300.5" rx="29" ry="29"/>
<text text-anchor="middle" x="179" y="-296.8" font-family="Times,serif" font-size="14.00">∅</text>
</g>
<!-- ∅&#45;&gt;∅ -->
<g id="edge1" class="edge">
<title>∅&#45;&gt;∅</title>
<path fill="none" stroke="black" d="M168.91,-328.02C168.47,-338.66 171.83,-347.5 179,-347.5 183.71,-347.5 186.77,-343.69 188.2,-338.07"/>
<polygon fill="black" stroke="black" points="191.69,-338.29 189.09,-328.02 184.72,-337.67 191.69,-338.29"/>
<text text-anchor="middle" x="179" y="-351.3" font-family="Times,serif" font-size="14.00">a,b</text>
</g>
<!-- q0q1 -->
<g id="node2" class="node">
<title>q0q1</title>
<ellipse fill="none" stroke="black" cx="70" cy="-187.5" rx="29" ry="29"/>
<ellipse fill="none" stroke="black" cx="70" cy="-187.5" rx="33" ry="33"/>
<text text-anchor="start" x="59" y="-184.8" font-family="Times,serif" font-size="14.00">q</text>
<text text-anchor="start" x="66" y="-184.8" font-family="Times,serif" baseline-shift="sub" font-size="9.00">0</text>
<text text-anchor="start" x="70" y="-184.8" font-family="Times,serif" font-size="14.00">q</text>
<text text-anchor="start" x="77" y="-184.8" font-family="Times,serif" baseline-shift="sub" font-size="9.00">1</text>
</g>
<!-- q0q1&#45;&gt;∅ -->
<g id="edge2" class="edge">
<title>q0q1&#45;&gt;∅</title>
<path fill="none" stroke="black" d="M93.43,-211.19C110.27,-228.97 133.39,-253.39 151.2,-272.2"/>
<polygon fill="black" stroke="black" points="149.06,-275.02 158.47,-279.88 154.14,-270.21 149.06,-275.02"/>
<text text-anchor="middle" x="124.5" y="-250.3" font-family="Times,serif" font-size="14.00">b</text>
</g>
<!-- q0q1q2 -->
<g id="node5" class="node">
<title>q0q1q2</title>
<ellipse fill="none" stroke="black" cx="179" cy="-187.5" rx="29" ry="29"/>
<ellipse fill="none" stroke="black" cx="179" cy="-187.5" rx="33" ry="33"/>
<text text-anchor="start" x="162.5" y="-184.8" font-family="Times,serif" font-size="14.00">q</text>
<text text-anchor="start" x="169.5" y="-184.8" font-family="Times,serif" baseline-shift="sub" font-size="9.00">0</text>
<text text-anchor="start" x="173.5" y="-184.8" font-family="Times,serif" font-size="14.00">q</text>
<text text-anchor="start" x="180.5" y="-184.8" font-family="Times,serif" baseline-shift="sub" font-size="9.00">1</text>
<text text-anchor="start" x="184.5" y="-184.8" font-family="Times,serif" font-size="14.00">q</text>
<text text-anchor="start" x="191.5" y="-184.8" font-family="Times,serif" baseline-shift="sub" font-size="9.00">2</text>
</g>
<!-- q0q1&#45;&gt;q0q1q2 -->
<g id="edge3" class="edge">
<title>q0q1&#45;&gt;q0q1q2</title>
<path fill="none" stroke="black" d="M103.1,-187.5C113.37,-187.5 124.89,-187.5 135.76,-187.5"/>
<polygon fill="black" stroke="black" points="135.92,-191 145.92,-187.5 135.92,-184 135.92,-191"/>
<text text-anchor="middle" x="124.5" y="-191.3" font-family="Times,serif" font-size="14.00">a</text>
</g>
<!-- q1q2 -->
<g id="node3" class="node">
<title>q1q2</title>
<ellipse fill="none" stroke="black" cx="288" cy="-137.5" rx="29" ry="29"/>
<ellipse fill="none" stroke="black" cx="288" cy="-137.5" rx="33" ry="33"/>
<text text-anchor="start" x="277" y="-134.8" font-family="Times,serif" font-size="14.00">q</text>
<text text-anchor="start" x="284" y="-134.8" font-family="Times,serif" baseline-shift="sub" font-size="9.00">1</text>
<text text-anchor="start" x="288" y="-134.8" font-family="Times,serif" font-size="14.00">q</text>
<text text-anchor="start" x="295" y="-134.8" font-family="Times,serif" baseline-shift="sub" font-size="9.00">2</text>
</g>
<!-- q1q2&#45;&gt;q0q1 -->
<g id="edge4" class="edge">
<title>q1q2&#45;&gt;q0q1</title>
<path fill="none" stroke="black" d="M255.85,-129.54C226.67,-123.56 182.23,-118.29 146,-130.5 129.57,-136.03 113.89,-146.76 101.15,-157.42"/>
<polygon fill="black" stroke="black" points="98.84,-154.79 93.62,-164.01 103.45,-160.06 98.84,-154.79"/>
<text text-anchor="middle" x="179" y="-134.3" font-family="Times,serif" font-size="14.00">a</text>
</g>
<!-- q1q2&#45;&gt;q1q2 -->
<g id="edge5" class="edge">
<title>q1q2&#45;&gt;q1q2</title>
<path fill="none" stroke="black" d="M277.88,-169.13C277.82,-179.87 281.2,-188.5 288,-188.5 292.46,-188.5 295.45,-184.78 296.96,-179.19"/>
<polygon fill="black" stroke="black" points="300.46,-179.46 298.12,-169.13 293.5,-178.66 300.46,-179.46"/>
<text text-anchor="middle" x="288" y="-192.3" font-family="Times,serif" font-size="14.00">b</text>
</g>
<!-- start -->
<g id="node4" class="node">
<title>start</title>
<ellipse fill="black" stroke="black" cx="0" cy="-187.5" rx="0" ry="0"/>
</g>
<!-- start&#45;&gt;q0q1 -->
<g id="edge6" class="edge">
<title>start&#45;&gt;q0q1</title>
<path fill="none" stroke="black" d="M1.05,-187.5C1.89,-187.5 13.34,-187.5 26.61,-187.5"/>
<polygon fill="black" stroke="black" points="26.97,-191 36.97,-187.5 26.97,-184 26.97,-191"/>
</g>
<!-- q0q1q2&#45;&gt;q1q2 -->
<g id="edge7" class="edge">
<title>q0q1q2&#45;&gt;q1q2</title>
<path fill="none" stroke="black" d="M209.24,-173.84C221.39,-168.16 235.65,-161.49 248.63,-155.43"/>
<polygon fill="black" stroke="black" points="250.22,-158.55 257.8,-151.15 247.26,-152.21 250.22,-158.55"/>
<text text-anchor="middle" x="233.5" y="-167.3" font-family="Times,serif" font-size="14.00">b</text>
</g>
<!-- q0q1q2&#45;&gt;q0q1q2 -->
<g id="edge8" class="edge">
<title>q0q1q2&#45;&gt;q0q1q2</title>
<path fill="none" stroke="black" d="M168.88,-219.13C168.82,-229.87 172.2,-238.5 179,-238.5 183.46,-238.5 186.45,-234.78 187.96,-229.19"/>
<polygon fill="black" stroke="black" points="191.46,-229.46 189.12,-219.13 184.5,-228.66 191.46,-229.46"/>
<text text-anchor="middle" x="179" y="-242.3" font-family="Times,serif" font-size="14.00">a</text>
</g>
<!-- Legend -->
<g id="node6" class="node">
<title>Legend</title>
<polygon fill="none" stroke="black" points="339,-249.5 339,-274.5 537,-274.5 537,-249.5 339,-249.5"/>
<text text-anchor="start" x="368.5" y="-259.3" font-family="Times,serif" font-weight="bold" font-size="14.00">NFA2→DFA→S→S→S</text>
<polygon fill="none" stroke="black" points="339,-224.5 339,-249.5 537,-249.5 537,-224.5 339,-224.5"/>
<text text-anchor="start" x="421" y="-234.3" font-family="Times,serif" font-weight="bold" font-style="italic" font-size="14.00">States</text>
<polygon fill="none" stroke="black" points="339,-199.5 339,-224.5 537,-224.5 537,-199.5 339,-199.5"/>
<text text-anchor="start" x="375" y="-209.3" font-family="Times,serif" font-size="14.00">{∅, q</text>
<text text-anchor="start" x="408" y="-209.3" font-family="Times,serif" baseline-shift="sub" font-size="9.00">0</text>
<text text-anchor="start" x="412" y="-209.3" font-family="Times,serif" font-size="14.00">q</text>
<text text-anchor="start" x="419" y="-209.3" font-family="Times,serif" baseline-shift="sub" font-size="9.00">1</text>
<text text-anchor="start" x="423" y="-209.3" font-family="Times,serif" font-size="14.00">, q</text>
<text text-anchor="start" x="438" y="-209.3" font-family="Times,serif" baseline-shift="sub" font-size="9.00">1</text>
<text text-anchor="start" x="442" y="-209.3" font-family="Times,serif" font-size="14.00">q</text>
<text text-anchor="start" x="449" y="-209.3" font-family="Times,serif" baseline-shift="sub" font-size="9.00">2</text>
<text text-anchor="start" x="453" y="-209.3" font-family="Times,serif" font-size="14.00">, q</text>
<text text-anchor="start" x="468" y="-209.3" font-family="Times,serif" baseline-shift="sub" font-size="9.00">0</text>
<text text-anchor="start" x="472" y="-209.3" font-family="Times,serif" font-size="14.00">q</text>
<text text-anchor="start" x="479" y="-209.3" font-family="Times,serif" baseline-shift="sub" font-size="9.00">1</text>
<text text-anchor="start" x="483" y="-209.3" font-family="Times,serif" font-size="14.00">q</text>
<text text-anchor="start" x="490" y="-209.3" font-family="Times,serif" baseline-shift="sub" font-size="9.00">2</text>
<text text-anchor="start" x="494" y="-209.3" font-family="Times,serif" font-size="14.00">}</text>
<polygon fill="none" stroke="black" points="339,-174.5 339,-199.5 537,-199.5 537,-174.5 339,-174.5"/>
<text text-anchor="start" x="383" y="-184.3" font-family="Times,serif" font-weight="bold" font-style="italic" font-size="14.00">Transition function</text>
<polygon fill="none" stroke="black" points="339,-149.5 339,-174.5 412,-174.5 412,-149.5 339,-149.5"/>
<text text-anchor="start" x="371.5" y="-158.3" font-family="Times,serif" font-size="14.00">δ</text>
<polygon fill="none" stroke="black" points="412,-149.5 412,-174.5 469,-174.5 469,-149.5 412,-149.5"/>
<text text-anchor="start" x="437" y="-159.3" font-family="Times,serif" font-weight="bold" font-size="14.00">a</text>
<polygon fill="none" stroke="black" points="469,-149.5 469,-174.5 508,-174.5 508,-149.5 469,-149.5"/>
<text text-anchor="start" x="484.5" y="-159.3" font-family="Times,serif" font-weight="bold" font-size="14.00">b</text>
<polygon fill="none" stroke="black" points="508,-149.5 508,-174.5 537,-174.5 537,-149.5 508,-149.5"/>
<text text-anchor="start" x="517.5" y="-159.3" font-family="Times,serif" font-weight="bold" font-size="14.00">ℇ</text>
<polygon fill="none" stroke="black" points="339,-124.5 339,-149.5 412,-149.5 412,-124.5 339,-124.5"/>
<text text-anchor="start" x="369.5" y="-134.3" font-family="Times,serif" font-weight="bold" font-size="14.00">∅</text>
<polygon fill="none" stroke="black" points="412,-124.5 412,-149.5 469,-149.5 469,-124.5 412,-124.5"/>
<text text-anchor="start" x="434.5" y="-133.3" font-family="Times,serif" font-size="14.00">∅</text>
<polygon fill="none" stroke="black" points="469,-124.5 469,-149.5 508,-149.5 508,-124.5 469,-124.5"/>
<text text-anchor="start" x="482.5" y="-133.3" font-family="Times,serif" font-size="14.00">∅</text>
<polygon fill="none" stroke="black" points="508,-124.5 508,-149.5 537,-149.5 537,-124.5 508,-124.5"/>
<text text-anchor="start" x="516.5" y="-133.3" font-family="Times,serif" font-size="14.00">∅</text>
<polygon fill="none" stroke="black" points="339,-99.5 339,-124.5 412,-124.5 412,-99.5 339,-99.5"/>
<text text-anchor="start" x="363.5" y="-109.3" font-family="Times,serif" font-weight="bold" font-size="14.00">q</text>
<text text-anchor="start" x="371.5" y="-109.3" font-family="Times,serif" font-weight="bold" baseline-shift="sub" font-size="9.00">0</text>
<text text-anchor="start" x="375.5" y="-109.3" font-family="Times,serif" font-weight="bold" font-size="14.00">q</text>
<text text-anchor="start" x="383.5" y="-109.3" font-family="Times,serif" font-weight="bold" baseline-shift="sub" font-size="9.00">1</text>
<polygon fill="none" stroke="black" points="412,-99.5 412,-124.5 469,-124.5 469,-99.5 412,-99.5"/>
<text text-anchor="start" x="424" y="-109.3" font-family="Times,serif" font-size="14.00">q</text>
<text text-anchor="start" x="431" y="-109.3" font-family="Times,serif" baseline-shift="sub" font-size="9.00">0</text>
<text text-anchor="start" x="435" y="-109.3" font-family="Times,serif" font-size="14.00">q</text>
<text text-anchor="start" x="442" y="-109.3" font-family="Times,serif" baseline-shift="sub" font-size="9.00">1</text>
<text text-anchor="start" x="446" y="-109.3" font-family="Times,serif" font-size="14.00">q</text>
<text text-anchor="start" x="453" y="-109.3" font-family="Times,serif" baseline-shift="sub" font-size="9.00">2</text>
<polygon fill="none" stroke="black" points="469,-99.5 469,-124.5 508,-124.5 508,-99.5 469,-99.5"/>
<text text-anchor="start" x="482.5" y="-108.3" font-family="Times,serif" font-size="14.00">∅</text>
<polygon fill="none" stroke="black" points="508,-99.5 508,-124.5 537,-124.5 537,-99.5 508,-99.5"/>
<text text-anchor="start" x="516.5" y="-108.3" font-family="Times,serif" font-size="14.00">∅</text>
<polygon fill="none" stroke="black" points="339,-74.5 339,-99.5 412,-99.5 412,-74.5 339,-74.5"/>
<text text-anchor="start" x="363.5" y="-84.3" font-family="Times,serif" font-weight="bold" font-size="14.00">q</text>
<text text-anchor="start" x="371.5" y="-84.3" font-family="Times,serif" font-weight="bold" baseline-shift="sub" font-size="9.00">1</text>
<text text-anchor="start" x="375.5" y="-84.3" font-family="Times,serif" font-weight="bold" font-size="14.00">q</text>
<text text-anchor="start" x="383.5" y="-84.3" font-family="Times,serif" font-weight="bold" baseline-shift="sub" font-size="9.00">2</text>
<polygon fill="none" stroke="black" points="412,-74.5 412,-99.5 469,-99.5 469,-74.5 412,-74.5"/>
<text text-anchor="start" x="429.5" y="-84.3" font-family="Times,serif" font-size="14.00">q</text>
<text text-anchor="start" x="436.5" y="-84.3" font-family="Times,serif" baseline-shift="sub" font-size="9.00">0</text>
<text text-anchor="start" x="440.5" y="-84.3" font-family="Times,serif" font-size="14.00">q</text>
<text text-anchor="start" x="447.5" y="-84.3" font-family="Times,serif" baseline-shift="sub" font-size="9.00">1</text>
<polygon fill="none" stroke="black" points="469,-74.5 469,-99.5 508,-99.5 508,-74.5 469,-74.5"/>
<text text-anchor="start" x="477.5" y="-84.3" font-family="Times,serif" font-size="14.00">q</text>
<text text-anchor="start" x="484.5" y="-84.3" font-family="Times,serif" baseline-shift="sub" font-size="9.00">1</text>
<text text-anchor="start" x="488.5" y="-84.3" font-family="Times,serif" font-size="14.00">q</text>
<text text-anchor="start" x="495.5" y="-84.3" font-family="Times,serif" baseline-shift="sub" font-size="9.00">2</text>
<polygon fill="none" stroke="black" points="508,-74.5 508,-99.5 537,-99.5 537,-74.5 508,-74.5"/>
<text text-anchor="start" x="516.5" y="-83.3" font-family="Times,serif" font-size="14.00">∅</text>
<polygon fill="none" stroke="black" points="339,-49.5 339,-74.5 412,-74.5 412,-49.5 339,-49.5"/>
<text text-anchor="start" x="357.5" y="-59.3" font-family="Times,serif" font-weight="bold" font-size="14.00">q</text>
<text text-anchor="start" x="365.5" y="-59.3" font-family="Times,serif" font-weight="bold" baseline-shift="sub" font-size="9.00">0</text>
<text text-anchor="start" x="369.5" y="-59.3" font-family="Times,serif" font-weight="bold" font-size="14.00">q</text>
<text text-anchor="start" x="377.5" y="-59.3" font-family="Times,serif" font-weight="bold" baseline-shift="sub" font-size="9.00">1</text>
<text text-anchor="start" x="381.5" y="-59.3" font-family="Times,serif" font-weight="bold" font-size="14.00">q</text>
<text text-anchor="start" x="389.5" y="-59.3" font-family="Times,serif" font-weight="bold" baseline-shift="sub" font-size="9.00">2</text>
<polygon fill="none" stroke="black" points="412,-49.5 412,-74.5 469,-74.5 469,-49.5 412,-49.5"/>
<text text-anchor="start" x="424" y="-59.3" font-family="Times,serif" font-size="14.00">q</text>
<text text-anchor="start" x="431" y="-59.3" font-family="Times,serif" baseline-shift="sub" font-size="9.00">0</text>
<text text-anchor="start" x="435" y="-59.3" font-family="Times,serif" font-size="14.00">q</text>
<text text-anchor="start" x="442" y="-59.3" font-family="Times,serif" baseline-shift="sub" font-size="9.00">1</text>
<text text-anchor="start" x="446" y="-59.3" font-family="Times,serif" font-size="14.00">q</text>
<text text-anchor="start" x="453" y="-59.3" font-family="Times,serif" baseline-shift="sub" font-size="9.00">2</text>
<polygon fill="none" stroke="black" points="469,-49.5 469,-74.5 508,-74.5 508,-49.5 469,-49.5"/>
<text text-anchor="start" x="477.5" y="-59.3" font-family="Times,serif" font-size="14.00">q</text>
<text text-anchor="start" x="484.5" y="-59.3" font-family="Times,serif" baseline-shift="sub" font-size="9.00">1</text>
<text text-anchor="start" x="488.5" y="-59.3" font-family="Times,serif" font-size="14.00">q</text>
<text text-anchor="start" x="495.5" y="-59.3" font-family="Times,serif" baseline-shift="sub" font-size="9.00">2</text>
<polygon fill="none" stroke="black" points="508,-49.5 508,-74.5 537,-74.5 537,-49.5 508,-49.5"/>
<text text-anchor="start" x="516.5" y="-58.3" font-family="Times,serif" font-size="14.00">∅</text>
<polygon fill="none" stroke="black" points="339,-24.5 339,-49.5 537,-49.5 537,-24.5 339,-24.5"/>
<text text-anchor="start" x="394.5" y="-34.3" font-family="Times,serif" font-weight="bold" font-style="italic" font-size="14.00">Start state: </text>
<text text-anchor="start" x="459.5" y="-34.3" font-family="Times,serif" font-size="14.00">q</text>
<text text-anchor="start" x="466.5" y="-34.3" font-family="Times,serif" baseline-shift="sub" font-size="9.00">0</text>
<text text-anchor="start" x="470.5" y="-34.3" font-family="Times,serif" font-size="14.00">q</text>
<text text-anchor="start" x="477.5" y="-34.3" font-family="Times,serif" baseline-shift="sub" font-size="9.00">1</text>
<polygon fill="none" stroke="black" points="339,0.5 339,-24.5 537,-24.5 537,0.5 339,0.5"/>
<text text-anchor="start" x="344" y="-9.3" font-family="Times,serif" font-weight="bold" font-style="italic" font-size="14.00">Accept states: </text>
<text text-anchor="start" x="425" y="-9.3" font-family="Times,serif" font-size="14.00">{q</text>
<text text-anchor="start" x="439" y="-9.3" font-family="Times,serif" baseline-shift="sub" font-size="9.00">1</text>
<text text-anchor="start" x="443" y="-9.3" font-family="Times,serif" font-size="14.00">q</text>
<text text-anchor="start" x="450" y="-9.3" font-family="Times,serif" baseline-shift="sub" font-size="9.00">2</text>
<text text-anchor="start" x="454" y="-9.3" font-family="Times,serif" font-size="14.00">, q</text>
<text text-anchor="start" x="469" y="-9.3" font-family="Times,serif" baseline-shift="sub" font-size="9.00">0</text>
<text text-anchor="start" x="473" y="-9.3" font-family="Times,serif" font-size="14.00">q</text>
<text text-anchor="start" x="480" y="-9.3" font-family="Times,serif" baseline-shift="sub" font-size="9.00">1</text>
<text text-anchor="start" x="484" y="-9.3" font-family="Times,serif" font-size="14.00">, q</text>
<text text-anchor="start" x="499" y="-9.3" font-family="Times,serif" baseline-shift="sub" font-size="9.00">0</text>
<text text-anchor="start" x="503" y="-9.3" font-family="Times,serif" font-size="14.00">q</text>
<text text-anchor="start" x="510" y="-9.3" font-family="Times,serif" baseline-shift="sub" font-size="9.00">1</text>
<text text-anchor="start" x="514" y="-9.3" font-family="Times,serif" font-size="14.00">q</text>
<text text-anchor="start" x="521" y="-9.3" font-family="Times,serif" baseline-shift="sub" font-size="9.00">2</text>
<text text-anchor="start" x="525" y="-9.3" font-family="Times,serif" font-size="14.00">}</text>
</g>
</g>
</svg>
