<?xml version="1.0" encoding="UTF-8" standalone="no"?>
<!DOCTYPE svg PUBLIC "-//W3C//DTD SVG 1.1//EN"
 "http://www.w3.org/Graphics/SVG/1.1/DTD/svg11.dtd">
<!-- Generated by graphviz version 2.44.0 (20200408.0750)
 -->
<!-- Title: G Pages: 1 -->
<svg width="636pt" height="383pt"
 viewBox="0.00 0.00 636.00 383.00" xmlns="http://www.w3.org/2000/svg" xmlns:xlink="http://www.w3.org/1999/xlink">
<g id="graph0" class="graph" transform="scale(1 1) rotate(0) translate(4 379)">
<title>G</title>
<polygon fill="white" stroke="transparent" points="-4,4 -4,-379 632,-379 632,4 -4,4"/>
<!-- ∅ -->
<g id="node1" class="node">
<title>∅</title>
<ellipse fill="none" stroke="black" cx="251" cy="-313" rx="29" ry="29"/>
<text text-anchor="middle" x="251" y="-309.3" font-family="Times,serif" font-size="14.00">∅</text>
</g>
<!-- ∅&#45;&gt;∅ -->
<g id="edge1" class="edge">
<title>∅&#45;&gt;∅</title>
<path fill="none" stroke="black" d="M240.91,-340.52C240.47,-351.16 243.83,-360 251,-360 255.71,-360 258.77,-356.19 260.2,-350.57"/>
<polygon fill="black" stroke="black" points="263.69,-350.79 261.09,-340.52 256.72,-350.17 263.69,-350.79"/>
<text text-anchor="middle" x="251" y="-363.8" font-family="Times,serif" font-size="14.00">0,1</text>
</g>
<!-- q1 -->
<g id="node2" class="node">
<title>q1</title>
<ellipse fill="none" stroke="black" cx="33" cy="-287" rx="29" ry="29"/>
<ellipse fill="none" stroke="black" cx="33" cy="-287" rx="33" ry="33"/>
<text text-anchor="start" x="27.5" y="-284.3" font-family="Times,serif" font-size="14.00">q</text>
<text text-anchor="start" x="34.5" y="-284.3" font-family="Times,serif" baseline-shift="sub" font-size="9.00">1</text>
</g>
<!-- q1&#45;&gt;∅ -->
<g id="edge2" class="edge">
<title>q1&#45;&gt;∅</title>
<path fill="none" stroke="black" d="M65.87,-290.84C104.82,-295.52 170.64,-303.45 212.13,-308.44"/>
<polygon fill="black" stroke="black" points="211.77,-311.92 222.12,-309.64 212.61,-304.97 211.77,-311.92"/>
<text text-anchor="middle" x="142" y="-306.8" font-family="Times,serif" font-size="14.00">1</text>
</g>
<!-- q0q1 -->
<g id="node3" class="node">
<title>q0q1</title>
<ellipse fill="none" stroke="black" cx="142" cy="-227" rx="29" ry="29"/>
<ellipse fill="none" stroke="black" cx="142" cy="-227" rx="33" ry="33"/>
<text text-anchor="start" x="131" y="-224.3" font-family="Times,serif" font-size="14.00">q</text>
<text text-anchor="start" x="138" y="-224.3" font-family="Times,serif" baseline-shift="sub" font-size="9.00">0</text>
<text text-anchor="start" x="142" y="-224.3" font-family="Times,serif" font-size="14.00">q</text>
<text text-anchor="start" x="149" y="-224.3" font-family="Times,serif" baseline-shift="sub" font-size="9.00">1</text>
</g>
<!-- q1&#45;&gt;q0q1 -->
<g id="edge3" class="edge">
<title>q1&#45;&gt;q0q1</title>
<path fill="none" stroke="black" d="M62.11,-271.24C74.91,-264.06 90.24,-255.47 103.96,-247.77"/>
<polygon fill="black" stroke="black" points="105.69,-250.81 112.7,-242.87 102.27,-244.71 105.69,-250.81"/>
<text text-anchor="middle" x="87.5" y="-261.8" font-family="Times,serif" font-size="14.00">0</text>
</g>
<!-- q0q1&#45;&gt;∅ -->
<g id="edge4" class="edge">
<title>q0q1&#45;&gt;∅</title>
<path fill="none" stroke="black" d="M168.36,-247.38C183.72,-259.73 203.42,-275.56 219.62,-288.58"/>
<polygon fill="black" stroke="black" points="217.74,-291.56 227.73,-295.1 222.13,-286.11 217.74,-291.56"/>
<text text-anchor="middle" x="196.5" y="-275.8" font-family="Times,serif" font-size="14.00">1</text>
</g>
<!-- q0q1q2 -->
<g id="node6" class="node">
<title>q0q1q2</title>
<ellipse fill="none" stroke="black" cx="251" cy="-200" rx="29" ry="29"/>
<ellipse fill="none" stroke="black" cx="251" cy="-200" rx="33" ry="33"/>
<text text-anchor="start" x="234.5" y="-197.3" font-family="Times,serif" font-size="14.00">q</text>
<text text-anchor="start" x="241.5" y="-197.3" font-family="Times,serif" baseline-shift="sub" font-size="9.00">0</text>
<text text-anchor="start" x="245.5" y="-197.3" font-family="Times,serif" font-size="14.00">q</text>
<text text-anchor="start" x="252.5" y="-197.3" font-family="Times,serif" baseline-shift="sub" font-size="9.00">1</text>
<text text-anchor="start" x="256.5" y="-197.3" font-family="Times,serif" font-size="14.00">q</text>
<text text-anchor="start" x="263.5" y="-197.3" font-family="Times,serif" baseline-shift="sub" font-size="9.00">2</text>
</g>
<!-- q0q1&#45;&gt;q0q1q2 -->
<g id="edge5" class="edge">
<title>q0q1&#45;&gt;q0q1q2</title>
<path fill="none" stroke="black" d="M174.24,-219.12C185.11,-216.37 197.49,-213.25 209.03,-210.34"/>
<polygon fill="black" stroke="black" points="210.07,-213.69 218.91,-207.85 208.36,-206.9 210.07,-213.69"/>
<text text-anchor="middle" x="196.5" y="-217.8" font-family="Times,serif" font-size="14.00">0</text>
</g>
<!-- q1q2 -->
<g id="node4" class="node">
<title>q1q2</title>
<ellipse fill="none" stroke="black" cx="360" cy="-150" rx="29" ry="29"/>
<ellipse fill="none" stroke="black" cx="360" cy="-150" rx="33" ry="33"/>
<text text-anchor="start" x="349" y="-147.3" font-family="Times,serif" font-size="14.00">q</text>
<text text-anchor="start" x="356" y="-147.3" font-family="Times,serif" baseline-shift="sub" font-size="9.00">1</text>
<text text-anchor="start" x="360" y="-147.3" font-family="Times,serif" font-size="14.00">q</text>
<text text-anchor="start" x="367" y="-147.3" font-family="Times,serif" baseline-shift="sub" font-size="9.00">2</text>
</g>
<!-- q1q2&#45;&gt;q0q1 -->
<g id="edge6" class="edge">
<title>q1q2&#45;&gt;q0q1</title>
<path fill="none" stroke="black" d="M328.09,-140.68C298.48,-133.51 253.23,-127.23 218,-143 196.23,-152.75 178.17,-172.29 165.23,-190.07"/>
<polygon fill="black" stroke="black" points="162.13,-188.4 159.3,-198.61 167.88,-192.4 162.13,-188.4"/>
<text text-anchor="middle" x="251" y="-146.8" font-family="Times,serif" font-size="14.00">0</text>
</g>
<!-- q1q2&#45;&gt;q1q2 -->
<g id="edge7" class="edge">
<title>q1q2&#45;&gt;q1q2</title>
<path fill="none" stroke="black" d="M349.88,-181.63C349.82,-192.37 353.2,-201 360,-201 364.46,-201 367.45,-197.28 368.96,-191.69"/>
<polygon fill="black" stroke="black" points="372.46,-191.96 370.12,-181.63 365.5,-191.16 372.46,-191.96"/>
<text text-anchor="middle" x="360" y="-204.8" font-family="Times,serif" font-size="14.00">1</text>
</g>
<!-- start -->
<g id="node5" class="node">
<title>start</title>
<ellipse fill="black" stroke="black" cx="33" cy="-227" rx="0" ry="0"/>
</g>
<!-- start&#45;&gt;q0q1 -->
<g id="edge8" class="edge">
<title>start&#45;&gt;q0q1</title>
<path fill="none" stroke="black" d="M34.08,-227C35.91,-227 69.72,-227 98.84,-227"/>
<polygon fill="black" stroke="black" points="98.88,-230.5 108.88,-227 98.88,-223.5 98.88,-230.5"/>
</g>
<!-- q0q1q2&#45;&gt;q1q2 -->
<g id="edge9" class="edge">
<title>q0q1q2&#45;&gt;q1q2</title>
<path fill="none" stroke="black" d="M281.24,-186.34C293.39,-180.66 307.65,-173.99 320.63,-167.93"/>
<polygon fill="black" stroke="black" points="322.22,-171.05 329.8,-163.65 319.26,-164.71 322.22,-171.05"/>
<text text-anchor="middle" x="305.5" y="-179.8" font-family="Times,serif" font-size="14.00">1</text>
</g>
<!-- q0q1q2&#45;&gt;q0q1q2 -->
<g id="edge10" class="edge">
<title>q0q1q2&#45;&gt;q0q1q2</title>
<path fill="none" stroke="black" d="M240.88,-231.63C240.82,-242.37 244.2,-251 251,-251 255.46,-251 258.45,-247.28 259.96,-241.69"/>
<polygon fill="black" stroke="black" points="263.46,-241.96 261.12,-231.63 256.5,-241.16 263.46,-241.96"/>
<text text-anchor="middle" x="251" y="-254.8" font-family="Times,serif" font-size="14.00">0</text>
</g>
<!-- Legend -->
<g id="node7" class="node">
<title>Legend</title>
<polygon fill="none" stroke="black" points="411.5,-275 411.5,-300 628.5,-300 628.5,-275 411.5,-275"/>
<text text-anchor="start" x="461" y="-284.8" font-family="Times,serif" font-weight="bold" font-size="14.00">NFA2→DFA→S→S</text>
<polygon fill="none" stroke="black" points="411.5,-250 411.5,-275 628.5,-275 628.5,-250 411.5,-250"/>
<text text-anchor="start" x="503" y="-259.8" font-family="Times,serif" font-weight="bold" font-style="italic" font-size="14.00">States</text>
<polygon fill="none" stroke="black" points="411.5,-225 411.5,-250 628.5,-250 628.5,-225 411.5,-225"/>
<text text-anchor="start" x="447.5" y="-234.8" font-family="Times,serif" font-size="14.00">{∅, q</text>
<text text-anchor="start" x="480.5" y="-234.8" font-family="Times,serif" baseline-shift="sub" font-size="9.00">1</text>
<text text-anchor="start" x="484.5" y="-234.8" font-family="Times,serif" font-size="14.00">, q</text>
<text text-anchor="start" x="499.5" y="-234.8" font-family="Times,serif" baseline-shift="sub" font-size="9.00">0</text>
<text text-anchor="start" x="503.5" y="-234.8" font-family="Times,serif" font-size="14.00">q</text>
<text text-anchor="start" x="510.5" y="-234.8" font-family="Times,serif" baseline-shift="sub" font-size="9.00">1</text>
<text text-anchor="start" x="514.5" y="-234.8" font-family="Times,serif" font-size="14.00">, q</text>
<text text-anchor="start" x="529.5" y="-234.8" font-family="Times,serif" baseline-shift="sub" font-size="9.00">1</text>
<text text-anchor="start" x="533.5" y="-234.8" font-family="Times,serif" font-size="14.00">q</text>
<text text-anchor="start" x="540.5" y="-234.8" font-family="Times,serif" baseline-shift="sub" font-size="9.00">2</text>
<text text-anchor="start" x="544.5" y="-234.8" font-family="Times,serif" font-size="14.00">, q</text>
<text text-anchor="start" x="559.5" y="-234.8" font-family="Times,serif" baseline-shift="sub" font-size="9.00">0</text>
<text text-anchor="start" x="563.5" y="-234.8" font-family="Times,serif" font-size="14.00">q</text>
<text text-anchor="start" x="570.5" y="-234.8" font-family="Times,serif" baseline-shift="sub" font-size="9.00">1</text>
<text text-anchor="start" x="574.5" y="-234.8" font-family="Times,serif" font-size="14.00">q</text>
<text text-anchor="start" x="581.5" y="-234.8" font-family="Times,serif" baseline-shift="sub" font-size="9.00">2</text>
<text text-anchor="start" x="585.5" y="-234.8" font-family="Times,serif" font-size="14.00">}</text>
<polygon fill="none" stroke="black" points="411.5,-200 411.5,-225 628.5,-225 628.5,-200 411.5,-200"/>
<text text-anchor="start" x="465" y="-209.8" font-family="Times,serif" font-weight="bold" font-style="italic" font-size="14.00">Transition function</text>
<polygon fill="none" stroke="black" points="411.5,-175 411.5,-200 494.5,-200 494.5,-175 411.5,-175"/>
<text text-anchor="start" x="449" y="-183.8" font-family="Times,serif" font-size="14.00">δ</text>
<polygon fill="none" stroke="black" points="494.5,-175 494.5,-200 555.5,-200 555.5,-175 494.5,-175"/>
<text text-anchor="start" x="521.5" y="-184.8" font-family="Times,serif" font-weight="bold" font-size="14.00">0</text>
<polygon fill="none" stroke="black" points="555.5,-175 555.5,-200 596.5,-200 596.5,-175 555.5,-175"/>
<text text-anchor="start" x="572.5" y="-184.8" font-family="Times,serif" font-weight="bold" font-size="14.00">1</text>
<polygon fill="none" stroke="black" points="596.5,-175 596.5,-200 628.5,-200 628.5,-175 596.5,-175"/>
<text text-anchor="start" x="607.5" y="-184.8" font-family="Times,serif" font-weight="bold" font-size="14.00">ℇ</text>
<polygon fill="none" stroke="black" points="411.5,-150 411.5,-175 494.5,-175 494.5,-150 411.5,-150"/>
<text text-anchor="start" x="447" y="-159.8" font-family="Times,serif" font-weight="bold" font-size="14.00">∅</text>
<polygon fill="none" stroke="black" points="494.5,-150 494.5,-175 555.5,-175 555.5,-150 494.5,-150"/>
<text text-anchor="start" x="519" y="-158.8" font-family="Times,serif" font-size="14.00">∅</text>
<polygon fill="none" stroke="black" points="555.5,-150 555.5,-175 596.5,-175 596.5,-150 555.5,-150"/>
<text text-anchor="start" x="570" y="-158.8" font-family="Times,serif" font-size="14.00">∅</text>
<polygon fill="none" stroke="black" points="596.5,-150 596.5,-175 628.5,-175 628.5,-150 596.5,-150"/>
<text text-anchor="start" x="606.5" y="-158.8" font-family="Times,serif" font-size="14.00">∅</text>
<polygon fill="none" stroke="black" points="411.5,-125 411.5,-150 494.5,-150 494.5,-125 411.5,-125"/>
<text text-anchor="start" x="447" y="-134.8" font-family="Times,serif" font-weight="bold" font-size="14.00">q</text>
<text text-anchor="start" x="455" y="-134.8" font-family="Times,serif" font-weight="bold" baseline-shift="sub" font-size="9.00">1</text>
<polygon fill="none" stroke="black" points="494.5,-125 494.5,-150 555.5,-150 555.5,-125 494.5,-125"/>
<text text-anchor="start" x="514" y="-134.8" font-family="Times,serif" font-size="14.00">q</text>
<text text-anchor="start" x="521" y="-134.8" font-family="Times,serif" baseline-shift="sub" font-size="9.00">0</text>
<text text-anchor="start" x="525" y="-134.8" font-family="Times,serif" font-size="14.00">q</text>
<text text-anchor="start" x="532" y="-134.8" font-family="Times,serif" baseline-shift="sub" font-size="9.00">1</text>
<polygon fill="none" stroke="black" points="555.5,-125 555.5,-150 596.5,-150 596.5,-125 555.5,-125"/>
<text text-anchor="start" x="570" y="-133.8" font-family="Times,serif" font-size="14.00">∅</text>
<polygon fill="none" stroke="black" points="596.5,-125 596.5,-150 628.5,-150 628.5,-125 596.5,-125"/>
<text text-anchor="start" x="606.5" y="-133.8" font-family="Times,serif" font-size="14.00">∅</text>
<polygon fill="none" stroke="black" points="411.5,-100 411.5,-125 494.5,-125 494.5,-100 411.5,-100"/>
<text text-anchor="start" x="441" y="-109.8" font-family="Times,serif" font-weight="bold" font-size="14.00">q</text>
<text text-anchor="start" x="449" y="-109.8" font-family="Times,serif" font-weight="bold" baseline-shift="sub" font-size="9.00">0</text>
<text text-anchor="start" x="453" y="-109.8" font-family="Times,serif" font-weight="bold" font-size="14.00">q</text>
<text text-anchor="start" x="461" y="-109.8" font-family="Times,serif" font-weight="bold" baseline-shift="sub" font-size="9.00">1</text>
<polygon fill="none" stroke="black" points="494.5,-100 494.5,-125 555.5,-125 555.5,-100 494.5,-100"/>
<text text-anchor="start" x="508.5" y="-109.8" font-family="Times,serif" font-size="14.00">q</text>
<text text-anchor="start" x="515.5" y="-109.8" font-family="Times,serif" baseline-shift="sub" font-size="9.00">0</text>
<text text-anchor="start" x="519.5" y="-109.8" font-family="Times,serif" font-size="14.00">q</text>
<text text-anchor="start" x="526.5" y="-109.8" font-family="Times,serif" baseline-shift="sub" font-size="9.00">1</text>
<text text-anchor="start" x="530.5" y="-109.8" font-family="Times,serif" font-size="14.00">q</text>
<text text-anchor="start" x="537.5" y="-109.8" font-family="Times,serif" baseline-shift="sub" font-size="9.00">2</text>
<polygon fill="none" stroke="black" points="555.5,-100 555.5,-125 596.5,-125 596.5,-100 555.5,-100"/>
<text text-anchor="start" x="570" y="-108.8" font-family="Times,serif" font-size="14.00">∅</text>
<polygon fill="none" stroke="black" points="596.5,-100 596.5,-125 628.5,-125 628.5,-100 596.5,-100"/>
<text text-anchor="start" x="606.5" y="-108.8" font-family="Times,serif" font-size="14.00">∅</text>
<polygon fill="none" stroke="black" points="411.5,-75 411.5,-100 494.5,-100 494.5,-75 411.5,-75"/>
<text text-anchor="start" x="441" y="-84.8" font-family="Times,serif" font-weight="bold" font-size="14.00">q</text>
<text text-anchor="start" x="449" y="-84.8" font-family="Times,serif" font-weight="bold" baseline-shift="sub" font-size="9.00">1</text>
<text text-anchor="start" x="453" y="-84.8" font-family="Times,serif" font-weight="bold" font-size="14.00">q</text>
<text text-anchor="start" x="461" y="-84.8" font-family="Times,serif" font-weight="bold" baseline-shift="sub" font-size="9.00">2</text>
<polygon fill="none" stroke="black" points="494.5,-75 494.5,-100 555.5,-100 555.5,-75 494.5,-75"/>
<text text-anchor="start" x="514" y="-84.8" font-family="Times,serif" font-size="14.00">q</text>
<text text-anchor="start" x="521" y="-84.8" font-family="Times,serif" baseline-shift="sub" font-size="9.00">0</text>
<text text-anchor="start" x="525" y="-84.8" font-family="Times,serif" font-size="14.00">q</text>
<text text-anchor="start" x="532" y="-84.8" font-family="Times,serif" baseline-shift="sub" font-size="9.00">1</text>
<polygon fill="none" stroke="black" points="555.5,-75 555.5,-100 596.5,-100 596.5,-75 555.5,-75"/>
<text text-anchor="start" x="565" y="-84.8" font-family="Times,serif" font-size="14.00">q</text>
<text text-anchor="start" x="572" y="-84.8" font-family="Times,serif" baseline-shift="sub" font-size="9.00">1</text>
<text text-anchor="start" x="576" y="-84.8" font-family="Times,serif" font-size="14.00">q</text>
<text text-anchor="start" x="583" y="-84.8" font-family="Times,serif" baseline-shift="sub" font-size="9.00">2</text>
<polygon fill="none" stroke="black" points="596.5,-75 596.5,-100 628.5,-100 628.5,-75 596.5,-75"/>
<text text-anchor="start" x="606.5" y="-83.8" font-family="Times,serif" font-size="14.00">∅</text>
<polygon fill="none" stroke="black" points="411.5,-50 411.5,-75 494.5,-75 494.5,-50 411.5,-50"/>
<text text-anchor="start" x="435" y="-59.8" font-family="Times,serif" font-weight="bold" font-size="14.00">q</text>
<text text-anchor="start" x="443" y="-59.8" font-family="Times,serif" font-weight="bold" baseline-shift="sub" font-size="9.00">0</text>
<text text-anchor="start" x="447" y="-59.8" font-family="Times,serif" font-weight="bold" font-size="14.00">q</text>
<text text-anchor="start" x="455" y="-59.8" font-family="Times,serif" font-weight="bold" baseline-shift="sub" font-size="9.00">1</text>
<text text-anchor="start" x="459" y="-59.8" font-family="Times,serif" font-weight="bold" font-size="14.00">q</text>
<text text-anchor="start" x="467" y="-59.8" font-family="Times,serif" font-weight="bold" baseline-shift="sub" font-size="9.00">2</text>
<polygon fill="none" stroke="black" points="494.5,-50 494.5,-75 555.5,-75 555.5,-50 494.5,-50"/>
<text text-anchor="start" x="508.5" y="-59.8" font-family="Times,serif" font-size="14.00">q</text>
<text text-anchor="start" x="515.5" y="-59.8" font-family="Times,serif" baseline-shift="sub" font-size="9.00">0</text>
<text text-anchor="start" x="519.5" y="-59.8" font-family="Times,serif" font-size="14.00">q</text>
<text text-anchor="start" x="526.5" y="-59.8" font-family="Times,serif" baseline-shift="sub" font-size="9.00">1</text>
<text text-anchor="start" x="530.5" y="-59.8" font-family="Times,serif" font-size="14.00">q</text>
<text text-anchor="start" x="537.5" y="-59.8" font-family="Times,serif" baseline-shift="sub" font-size="9.00">2</text>
<polygon fill="none" stroke="black" points="555.5,-50 555.5,-75 596.5,-75 596.5,-50 555.5,-50"/>
<text text-anchor="start" x="565" y="-59.8" font-family="Times,serif" font-size="14.00">q</text>
<text text-anchor="start" x="572" y="-59.8" font-family="Times,serif" baseline-shift="sub" font-size="9.00">1</text>
<text text-anchor="start" x="576" y="-59.8" font-family="Times,serif" font-size="14.00">q</text>
<text text-anchor="start" x="583" y="-59.8" font-family="Times,serif" baseline-shift="sub" font-size="9.00">2</text>
<polygon fill="none" stroke="black" points="596.5,-50 596.5,-75 628.5,-75 628.5,-50 596.5,-50"/>
<text text-anchor="start" x="606.5" y="-58.8" font-family="Times,serif" font-size="14.00">∅</text>
<polygon fill="none" stroke="black" points="411.5,-25 411.5,-50 628.5,-50 628.5,-25 411.5,-25"/>
<text text-anchor="start" x="476.5" y="-34.8" font-family="Times,serif" font-weight="bold" font-style="italic" font-size="14.00">Start state: </text>
<text text-anchor="start" x="541.5" y="-34.8" font-family="Times,serif" font-size="14.00">q</text>
<text text-anchor="start" x="548.5" y="-34.8" font-family="Times,serif" baseline-shift="sub" font-size="9.00">0</text>
<text text-anchor="start" x="552.5" y="-34.8" font-family="Times,serif" font-size="14.00">q</text>
<text text-anchor="start" x="559.5" y="-34.8" font-family="Times,serif" baseline-shift="sub" font-size="9.00">1</text>
<polygon fill="none" stroke="black" points="411.5,0 411.5,-25 628.5,-25 628.5,0 411.5,0"/>
<text text-anchor="start" x="416.5" y="-9.8" font-family="Times,serif" font-weight="bold" font-style="italic" font-size="14.00">Accept states: </text>
<text text-anchor="start" x="497.5" y="-9.8" font-family="Times,serif" font-size="14.00">{q</text>
<text text-anchor="start" x="511.5" y="-9.8" font-family="Times,serif" baseline-shift="sub" font-size="9.00">1</text>
<text text-anchor="start" x="515.5" y="-9.8" font-family="Times,serif" font-size="14.00">, q</text>
<text text-anchor="start" x="530.5" y="-9.8" font-family="Times,serif" baseline-shift="sub" font-size="9.00">1</text>
<text text-anchor="start" x="534.5" y="-9.8" font-family="Times,serif" font-size="14.00">q</text>
<text text-anchor="start" x="541.5" y="-9.8" font-family="Times,serif" baseline-shift="sub" font-size="9.00">2</text>
<text text-anchor="start" x="545.5" y="-9.8" font-family="Times,serif" font-size="14.00">, q</text>
<text text-anchor="start" x="560.5" y="-9.8" font-family="Times,serif" baseline-shift="sub" font-size="9.00">0</text>
<text text-anchor="start" x="564.5" y="-9.8" font-family="Times,serif" font-size="14.00">q</text>
<text text-anchor="start" x="571.5" y="-9.8" font-family="Times,serif" baseline-shift="sub" font-size="9.00">1</text>
<text text-anchor="start" x="575.5" y="-9.8" font-family="Times,serif" font-size="14.00">, q</text>
<text text-anchor="start" x="590.5" y="-9.8" font-family="Times,serif" baseline-shift="sub" font-size="9.00">0</text>
<text text-anchor="start" x="594.5" y="-9.8" font-family="Times,serif" font-size="14.00">q</text>
<text text-anchor="start" x="601.5" y="-9.8" font-family="Times,serif" baseline-shift="sub" font-size="9.00">1</text>
<text text-anchor="start" x="605.5" y="-9.8" font-family="Times,serif" font-size="14.00">q</text>
<text text-anchor="start" x="612.5" y="-9.8" font-family="Times,serif" baseline-shift="sub" font-size="9.00">2</text>
<text text-anchor="start" x="616.5" y="-9.8" font-family="Times,serif" font-size="14.00">}</text>
</g>
</g>
</svg>
