<?xml version="1.0" encoding="UTF-8" standalone="no"?>
<!DOCTYPE svg PUBLIC "-//W3C//DTD SVG 1.1//EN"
 "http://www.w3.org/Graphics/SVG/1.1/DTD/svg11.dtd">
<!-- Generated by graphviz version 2.44.0 (20200408.0750)
 -->
<!-- Title: G Pages: 1 -->
<svg width="462pt" height="258pt"
 viewBox="0.00 0.00 462.00 258.00" xmlns="http://www.w3.org/2000/svg" xmlns:xlink="http://www.w3.org/1999/xlink">
<g id="graph0" class="graph" transform="scale(1 1) rotate(0) translate(4 254)">
<title>G</title>
<polygon fill="white" stroke="transparent" points="-4,4 -4,-254 458,-254 458,4 -4,4"/>
<!-- q0 -->
<g id="node1" class="node">
<title>q0</title>
<ellipse fill="none" stroke="black" cx="66" cy="-125" rx="29" ry="29"/>
<text text-anchor="start" x="60.5" y="-122.3" font-family="Times,serif" font-size="14.00">q</text>
<text text-anchor="start" x="67.5" y="-122.3" font-family="Times,serif" baseline-shift="sub" font-size="9.00">0</text>
</g>
<!-- q1 -->
<g id="node2" class="node">
<title>q1</title>
<ellipse fill="none" stroke="black" cx="283" cy="-125" rx="29" ry="29"/>
<ellipse fill="none" stroke="black" cx="283" cy="-125" rx="33" ry="33"/>
<text text-anchor="start" x="277.5" y="-122.3" font-family="Times,serif" font-size="14.00">q</text>
<text text-anchor="start" x="284.5" y="-122.3" font-family="Times,serif" baseline-shift="sub" font-size="9.00">1</text>
</g>
<!-- q0&#45;&gt;q1 -->
<g id="edge1" class="edge">
<title>q0&#45;&gt;q1</title>
<path fill="none" stroke="black" d="M82.83,-148.71C95.51,-165.42 114.97,-186.46 138,-196 161.82,-205.86 171.74,-204.72 196,-196 217.92,-188.12 238.23,-171.97 253.61,-157.05"/>
<polygon fill="black" stroke="black" points="256.17,-159.43 260.74,-149.87 251.21,-154.5 256.17,-159.43"/>
<text text-anchor="middle" x="167" y="-205.8" font-family="Times,serif" font-size="14.00">ℇ</text>
</g>
<!-- q2 -->
<g id="node3" class="node">
<title>q2</title>
<ellipse fill="none" stroke="black" cx="167" cy="-125" rx="29" ry="29"/>
<text text-anchor="start" x="161.5" y="-122.3" font-family="Times,serif" font-size="14.00">q</text>
<text text-anchor="start" x="168.5" y="-122.3" font-family="Times,serif" baseline-shift="sub" font-size="9.00">2</text>
</g>
<!-- q0&#45;&gt;q2 -->
<g id="edge2" class="edge">
<title>q0&#45;&gt;q2</title>
<path fill="none" stroke="black" d="M95.1,-125C105.24,-125 116.86,-125 127.72,-125"/>
<polygon fill="black" stroke="black" points="127.83,-128.5 137.83,-125 127.83,-121.5 127.83,-128.5"/>
<text text-anchor="middle" x="116.5" y="-128.8" font-family="Times,serif" font-size="14.00">0</text>
</g>
<!-- q1&#45;&gt;q0 -->
<g id="edge3" class="edge">
<title>q1&#45;&gt;q0</title>
<path fill="none" stroke="black" d="M257.06,-104.46C240.78,-92.42 218.44,-78.36 196,-72 171.2,-64.97 162.46,-63.88 138,-72 122.07,-77.29 106.83,-87.7 94.57,-97.9"/>
<polygon fill="black" stroke="black" points="92.22,-95.31 86.97,-104.52 96.81,-100.59 92.22,-95.31"/>
<text text-anchor="middle" x="167" y="-75.8" font-family="Times,serif" font-size="14.00">0</text>
</g>
<!-- q2&#45;&gt;q1 -->
<g id="edge4" class="edge">
<title>q2&#45;&gt;q1</title>
<path fill="none" stroke="black" d="M196.18,-125C209.23,-125 225.02,-125 239.48,-125"/>
<polygon fill="black" stroke="black" points="239.71,-128.5 249.71,-125 239.71,-121.5 239.71,-128.5"/>
<text text-anchor="middle" x="223" y="-128.8" font-family="Times,serif" font-size="14.00">0,1</text>
</g>
<!-- q2&#45;&gt;q2 -->
<g id="edge5" class="edge">
<title>q2&#45;&gt;q2</title>
<path fill="none" stroke="black" d="M157.66,-152.52C157.25,-163.16 160.36,-172 167,-172 171.36,-172 174.2,-168.19 175.52,-162.57"/>
<polygon fill="black" stroke="black" points="179.01,-162.77 176.34,-152.52 172.03,-162.2 179.01,-162.77"/>
<text text-anchor="middle" x="167" y="-175.8" font-family="Times,serif" font-size="14.00">1</text>
</g>
<!-- start -->
<g id="node4" class="node">
<title>start</title>
<ellipse fill="black" stroke="black" cx="0" cy="-125" rx="0" ry="0"/>
</g>
<!-- start&#45;&gt;q0 -->
<g id="edge6" class="edge">
<title>start&#45;&gt;q0</title>
<path fill="none" stroke="black" d="M1.05,-125C1.87,-125 13.45,-125 26.55,-125"/>
<polygon fill="black" stroke="black" points="26.7,-128.5 36.7,-125 26.7,-121.5 26.7,-128.5"/>
</g>
<!-- Legend -->
<g id="node5" class="node">
<title>Legend</title>
<polygon fill="none" stroke="black" points="334,-225 334,-250 454,-250 454,-225 334,-225"/>
<text text-anchor="start" x="376.5" y="-234.8" font-family="Times,serif" font-weight="bold" font-size="14.00">NFA2</text>
<polygon fill="none" stroke="black" points="334,-200 334,-225 454,-225 454,-200 334,-200"/>
<text text-anchor="start" x="377" y="-209.8" font-family="Times,serif" font-weight="bold" font-style="italic" font-size="14.00">States</text>
<polygon fill="none" stroke="black" points="334,-175 334,-200 454,-200 454,-175 334,-175"/>
<text text-anchor="start" x="362.5" y="-184.8" font-family="Times,serif" font-size="14.00">{q</text>
<text text-anchor="start" x="376.5" y="-184.8" font-family="Times,serif" baseline-shift="sub" font-size="9.00">0</text>
<text text-anchor="start" x="380.5" y="-184.8" font-family="Times,serif" font-size="14.00">, q</text>
<text text-anchor="start" x="395.5" y="-184.8" font-family="Times,serif" baseline-shift="sub" font-size="9.00">1</text>
<text text-anchor="start" x="399.5" y="-184.8" font-family="Times,serif" font-size="14.00">, q</text>
<text text-anchor="start" x="414.5" y="-184.8" font-family="Times,serif" baseline-shift="sub" font-size="9.00">2</text>
<text text-anchor="start" x="418.5" y="-184.8" font-family="Times,serif" font-size="14.00">}</text>
<polygon fill="none" stroke="black" points="334,-150 334,-175 454,-175 454,-150 334,-150"/>
<text text-anchor="start" x="339" y="-159.8" font-family="Times,serif" font-weight="bold" font-style="italic" font-size="14.00">Transition function</text>
<polygon fill="none" stroke="black" points="334,-125 334,-150 356,-150 356,-125 334,-125"/>
<text text-anchor="start" x="341" y="-133.8" font-family="Times,serif" font-size="14.00">δ</text>
<polygon fill="none" stroke="black" points="356,-125 356,-150 377,-150 377,-125 356,-125"/>
<text text-anchor="start" x="363" y="-134.8" font-family="Times,serif" font-weight="bold" font-size="14.00">0</text>
<polygon fill="none" stroke="black" points="377,-125 377,-150 431,-150 431,-125 377,-125"/>
<text text-anchor="start" x="400.5" y="-134.8" font-family="Times,serif" font-weight="bold" font-size="14.00">1</text>
<polygon fill="none" stroke="black" points="431,-125 431,-150 454,-150 454,-125 431,-125"/>
<text text-anchor="start" x="437.5" y="-134.8" font-family="Times,serif" font-weight="bold" font-size="14.00">ℇ</text>
<polygon fill="none" stroke="black" points="334,-100 334,-125 356,-125 356,-100 334,-100"/>
<text text-anchor="start" x="339" y="-109.8" font-family="Times,serif" font-weight="bold" font-size="14.00">q</text>
<text text-anchor="start" x="347" y="-109.8" font-family="Times,serif" font-weight="bold" baseline-shift="sub" font-size="9.00">0</text>
<polygon fill="none" stroke="black" points="356,-100 356,-125 377,-125 377,-100 356,-100"/>
<text text-anchor="start" x="361" y="-109.8" font-family="Times,serif" font-size="14.00">q</text>
<text text-anchor="start" x="368" y="-109.8" font-family="Times,serif" baseline-shift="sub" font-size="9.00">2</text>
<polygon fill="none" stroke="black" points="377,-100 377,-125 431,-125 431,-100 377,-100"/>
<text text-anchor="start" x="398" y="-108.8" font-family="Times,serif" font-size="14.00">∅</text>
<polygon fill="none" stroke="black" points="431,-100 431,-125 454,-125 454,-100 431,-100"/>
<text text-anchor="start" x="437" y="-109.8" font-family="Times,serif" font-size="14.00">q</text>
<text text-anchor="start" x="444" y="-109.8" font-family="Times,serif" baseline-shift="sub" font-size="9.00">1</text>
<polygon fill="none" stroke="black" points="334,-75 334,-100 356,-100 356,-75 334,-75"/>
<text text-anchor="start" x="339" y="-84.8" font-family="Times,serif" font-weight="bold" font-size="14.00">q</text>
<text text-anchor="start" x="347" y="-84.8" font-family="Times,serif" font-weight="bold" baseline-shift="sub" font-size="9.00">1</text>
<polygon fill="none" stroke="black" points="356,-75 356,-100 377,-100 377,-75 356,-75"/>
<text text-anchor="start" x="361" y="-84.8" font-family="Times,serif" font-size="14.00">q</text>
<text text-anchor="start" x="368" y="-84.8" font-family="Times,serif" baseline-shift="sub" font-size="9.00">0</text>
<polygon fill="none" stroke="black" points="377,-75 377,-100 431,-100 431,-75 377,-75"/>
<text text-anchor="start" x="398" y="-83.8" font-family="Times,serif" font-size="14.00">∅</text>
<polygon fill="none" stroke="black" points="431,-75 431,-100 454,-100 454,-75 431,-75"/>
<text text-anchor="start" x="436.5" y="-83.8" font-family="Times,serif" font-size="14.00">∅</text>
<polygon fill="none" stroke="black" points="334,-50 334,-75 356,-75 356,-50 334,-50"/>
<text text-anchor="start" x="339" y="-59.8" font-family="Times,serif" font-weight="bold" font-size="14.00">q</text>
<text text-anchor="start" x="347" y="-59.8" font-family="Times,serif" font-weight="bold" baseline-shift="sub" font-size="9.00">2</text>
<polygon fill="none" stroke="black" points="356,-50 356,-75 377,-75 377,-50 356,-50"/>
<text text-anchor="start" x="361" y="-59.8" font-family="Times,serif" font-size="14.00">q</text>
<text text-anchor="start" x="368" y="-59.8" font-family="Times,serif" baseline-shift="sub" font-size="9.00">1</text>
<polygon fill="none" stroke="black" points="377,-50 377,-75 431,-75 431,-50 377,-50"/>
<text text-anchor="start" x="382" y="-59.8" font-family="Times,serif" font-size="14.00">{q</text>
<text text-anchor="start" x="396" y="-59.8" font-family="Times,serif" baseline-shift="sub" font-size="9.00">1</text>
<text text-anchor="start" x="400" y="-59.8" font-family="Times,serif" font-size="14.00">, q</text>
<text text-anchor="start" x="415" y="-59.8" font-family="Times,serif" baseline-shift="sub" font-size="9.00">2</text>
<text text-anchor="start" x="419" y="-59.8" font-family="Times,serif" font-size="14.00">}</text>
<polygon fill="none" stroke="black" points="431,-50 431,-75 454,-75 454,-50 431,-50"/>
<text text-anchor="start" x="436.5" y="-58.8" font-family="Times,serif" font-size="14.00">∅</text>
<polygon fill="none" stroke="black" points="334,-25 334,-50 454,-50 454,-25 334,-25"/>
<text text-anchor="start" x="356" y="-34.8" font-family="Times,serif" font-weight="bold" font-style="italic" font-size="14.00">Start state: </text>
<text text-anchor="start" x="421" y="-34.8" font-family="Times,serif" font-size="14.00">q</text>
<text text-anchor="start" x="428" y="-34.8" font-family="Times,serif" baseline-shift="sub" font-size="9.00">0</text>
<polygon fill="none" stroke="black" points="334,0 334,-25 454,-25 454,0 334,0"/>
<text text-anchor="start" x="348" y="-9.8" font-family="Times,serif" font-weight="bold" font-style="italic" font-size="14.00">Accept states: </text>
<text text-anchor="start" x="429" y="-9.8" font-family="Times,serif" font-size="14.00">q</text>
<text text-anchor="start" x="436" y="-9.8" font-family="Times,serif" baseline-shift="sub" font-size="9.00">1</text>
</g>
</g>
</svg>
