<?xml version="1.0" encoding="UTF-8" standalone="no"?>
<!DOCTYPE svg PUBLIC "-//W3C//DTD SVG 1.1//EN"
 "http://www.w3.org/Graphics/SVG/1.1/DTD/svg11.dtd">
<!-- Generated by graphviz version 2.44.0 (20200408.0750)
 -->
<!-- Title: G Pages: 1 -->
<svg width="906pt" height="432pt"
 viewBox="0.00 0.00 906.00 431.50" xmlns="http://www.w3.org/2000/svg" xmlns:xlink="http://www.w3.org/1999/xlink">
<g id="graph0" class="graph" transform="scale(1 1) rotate(0) translate(4 427.5)">
<title>G</title>
<polygon fill="white" stroke="transparent" points="-4,4 -4,-427.5 902,-427.5 902,4 -4,4"/>
<!-- ∅ -->
<g id="node1" class="node">
<title>∅</title>
<ellipse fill="none" stroke="black" cx="461" cy="-30" rx="29" ry="29"/>
<text text-anchor="middle" x="461" y="-26.3" font-family="Times,serif" font-size="14.00">∅</text>
</g>
<!-- ∅&#45;&gt;∅ -->
<g id="edge1" class="edge">
<title>∅&#45;&gt;∅</title>
<path fill="none" stroke="black" d="M450.91,-57.52C450.47,-68.16 453.83,-77 461,-77 465.71,-77 468.77,-73.19 470.2,-67.57"/>
<polygon fill="black" stroke="black" points="473.69,-67.79 471.09,-57.52 466.72,-67.17 473.69,-67.79"/>
<text text-anchor="middle" x="461" y="-80.8" font-family="Times,serif" font-size="14.00">0,1</text>
</g>
<!-- q0 -->
<g id="node2" class="node">
<title>q0</title>
<ellipse fill="none" stroke="black" cx="33" cy="-33" rx="29" ry="29"/>
<ellipse fill="none" stroke="black" cx="33" cy="-33" rx="33" ry="33"/>
<text text-anchor="start" x="27.5" y="-30.3" font-family="Times,serif" font-size="14.00">q</text>
<text text-anchor="start" x="34.5" y="-30.3" font-family="Times,serif" baseline-shift="sub" font-size="9.00">0</text>
</g>
<!-- q0&#45;&gt;∅ -->
<g id="edge2" class="edge">
<title>q0&#45;&gt;∅</title>
<path fill="none" stroke="black" d="M65.36,-25.56C85.67,-21.38 112.75,-17 137,-17 137,-17 137,-17 353,-17 376.21,-17 402.05,-20.05 422.52,-23.2"/>
<polygon fill="black" stroke="black" points="421.97,-26.65 432.4,-24.79 423.08,-19.74 421.97,-26.65"/>
<text text-anchor="middle" x="243" y="-20.8" font-family="Times,serif" font-size="14.00">1</text>
</g>
<!-- q2 -->
<g id="node4" class="node">
<title>q2</title>
<ellipse fill="none" stroke="black" cx="138" cy="-83" rx="29" ry="29"/>
<text text-anchor="start" x="132.5" y="-80.3" font-family="Times,serif" font-size="14.00">q</text>
<text text-anchor="start" x="139.5" y="-80.3" font-family="Times,serif" baseline-shift="sub" font-size="9.00">2</text>
</g>
<!-- q0&#45;&gt;q2 -->
<g id="edge3" class="edge">
<title>q0&#45;&gt;q2</title>
<path fill="none" stroke="black" d="M62.97,-47.06C75.22,-53.01 89.6,-59.99 102.41,-66.21"/>
<polygon fill="black" stroke="black" points="100.88,-69.36 111.41,-70.58 103.94,-63.06 100.88,-69.36"/>
<text text-anchor="middle" x="87.5" y="-63.8" font-family="Times,serif" font-size="14.00">0</text>
</g>
<!-- q1 -->
<g id="node3" class="node">
<title>q1</title>
<ellipse fill="none" stroke="black" cx="243" cy="-83" rx="29" ry="29"/>
<ellipse fill="none" stroke="black" cx="243" cy="-83" rx="33" ry="33"/>
<text text-anchor="start" x="237.5" y="-80.3" font-family="Times,serif" font-size="14.00">q</text>
<text text-anchor="start" x="244.5" y="-80.3" font-family="Times,serif" baseline-shift="sub" font-size="9.00">1</text>
</g>
<!-- q1&#45;&gt;∅ -->
<g id="edge4" class="edge">
<title>q1&#45;&gt;∅</title>
<path fill="none" stroke="black" d="M275.41,-75.29C314.54,-65.69 381.3,-49.31 422.91,-39.1"/>
<polygon fill="black" stroke="black" points="423.78,-42.49 432.66,-36.71 422.11,-35.69 423.78,-42.49"/>
<text text-anchor="middle" x="352" y="-68.8" font-family="Times,serif" font-size="14.00">1</text>
</g>
<!-- q0q1 -->
<g id="node5" class="node">
<title>q0q1</title>
<ellipse fill="none" stroke="black" cx="352" cy="-129" rx="29" ry="29"/>
<ellipse fill="none" stroke="black" cx="352" cy="-129" rx="33" ry="33"/>
<text text-anchor="start" x="341" y="-126.3" font-family="Times,serif" font-size="14.00">q</text>
<text text-anchor="start" x="348" y="-126.3" font-family="Times,serif" baseline-shift="sub" font-size="9.00">0</text>
<text text-anchor="start" x="352" y="-126.3" font-family="Times,serif" font-size="14.00">q</text>
<text text-anchor="start" x="359" y="-126.3" font-family="Times,serif" baseline-shift="sub" font-size="9.00">1</text>
</g>
<!-- q1&#45;&gt;q0q1 -->
<g id="edge5" class="edge">
<title>q1&#45;&gt;q0q1</title>
<path fill="none" stroke="black" d="M273.52,-95.69C285.35,-100.78 299.15,-106.71 311.81,-112.15"/>
<polygon fill="black" stroke="black" points="310.63,-115.46 321.2,-116.19 313.4,-109.03 310.63,-115.46"/>
<text text-anchor="middle" x="297.5" y="-111.8" font-family="Times,serif" font-size="14.00">0</text>
</g>
<!-- q2&#45;&gt;q1 -->
<g id="edge6" class="edge">
<title>q2&#45;&gt;q1</title>
<path fill="none" stroke="black" d="M167.15,-83C177.17,-83 188.68,-83 199.63,-83"/>
<polygon fill="black" stroke="black" points="199.89,-86.5 209.89,-83 199.89,-79.5 199.89,-86.5"/>
<text text-anchor="middle" x="188.5" y="-86.8" font-family="Times,serif" font-size="14.00">0</text>
</g>
<!-- q1q2 -->
<g id="node7" class="node">
<title>q1q2</title>
<ellipse fill="none" stroke="black" cx="581" cy="-236" rx="29" ry="29"/>
<ellipse fill="none" stroke="black" cx="581" cy="-236" rx="33" ry="33"/>
<text text-anchor="start" x="570" y="-233.3" font-family="Times,serif" font-size="14.00">q</text>
<text text-anchor="start" x="577" y="-233.3" font-family="Times,serif" baseline-shift="sub" font-size="9.00">1</text>
<text text-anchor="start" x="581" y="-233.3" font-family="Times,serif" font-size="14.00">q</text>
<text text-anchor="start" x="588" y="-233.3" font-family="Times,serif" baseline-shift="sub" font-size="9.00">2</text>
</g>
<!-- q2&#45;&gt;q1q2 -->
<g id="edge7" class="edge">
<title>q2&#45;&gt;q1q2</title>
<path fill="none" stroke="black" d="M142.97,-111.77C153.87,-184.87 187.14,-372 242,-372 242,-372 242,-372 462,-372 513.22,-372 547.22,-316.28 565.05,-276.17"/>
<polygon fill="black" stroke="black" points="568.32,-277.43 569.03,-266.86 561.88,-274.68 568.32,-277.43"/>
<text text-anchor="middle" x="352" y="-375.8" font-family="Times,serif" font-size="14.00">1</text>
</g>
<!-- q0q1&#45;&gt;∅ -->
<g id="edge8" class="edge">
<title>q0q1&#45;&gt;∅</title>
<path fill="none" stroke="black" d="M376.75,-107.03C392.98,-92.01 414.57,-72.04 431.69,-56.19"/>
<polygon fill="black" stroke="black" points="434.25,-58.6 439.21,-49.23 429.49,-53.46 434.25,-58.6"/>
<text text-anchor="middle" x="406.5" y="-86.8" font-family="Times,serif" font-size="14.00">1</text>
</g>
<!-- q0q1q2 -->
<g id="node9" class="node">
<title>q0q1q2</title>
<ellipse fill="none" stroke="black" cx="461" cy="-278" rx="29" ry="29"/>
<ellipse fill="none" stroke="black" cx="461" cy="-278" rx="33" ry="33"/>
<text text-anchor="start" x="444.5" y="-275.3" font-family="Times,serif" font-size="14.00">q</text>
<text text-anchor="start" x="451.5" y="-275.3" font-family="Times,serif" baseline-shift="sub" font-size="9.00">0</text>
<text text-anchor="start" x="455.5" y="-275.3" font-family="Times,serif" font-size="14.00">q</text>
<text text-anchor="start" x="462.5" y="-275.3" font-family="Times,serif" baseline-shift="sub" font-size="9.00">1</text>
<text text-anchor="start" x="466.5" y="-275.3" font-family="Times,serif" font-size="14.00">q</text>
<text text-anchor="start" x="473.5" y="-275.3" font-family="Times,serif" baseline-shift="sub" font-size="9.00">2</text>
</g>
<!-- q0q1&#45;&gt;q0q1q2 -->
<g id="edge9" class="edge">
<title>q0q1&#45;&gt;q0q1q2</title>
<path fill="none" stroke="black" d="M371.51,-156.03C386.51,-177.79 408.32,-209.08 428,-236 429.95,-238.66 431.98,-241.41 434.04,-244.16"/>
<polygon fill="black" stroke="black" points="431.39,-246.47 440.21,-252.36 436.99,-242.26 431.39,-246.47"/>
<text text-anchor="middle" x="406.5" y="-212.8" font-family="Times,serif" font-size="14.00">0</text>
</g>
<!-- q0q2 -->
<g id="node6" class="node">
<title>q0q2</title>
<ellipse fill="none" stroke="black" cx="461" cy="-194" rx="29" ry="29"/>
<ellipse fill="none" stroke="black" cx="461" cy="-194" rx="33" ry="33"/>
<text text-anchor="start" x="450" y="-191.3" font-family="Times,serif" font-size="14.00">q</text>
<text text-anchor="start" x="457" y="-191.3" font-family="Times,serif" baseline-shift="sub" font-size="9.00">0</text>
<text text-anchor="start" x="461" y="-191.3" font-family="Times,serif" font-size="14.00">q</text>
<text text-anchor="start" x="468" y="-191.3" font-family="Times,serif" baseline-shift="sub" font-size="9.00">2</text>
</g>
<!-- q0q2&#45;&gt;q1q2 -->
<g id="edge10" class="edge">
<title>q0q2&#45;&gt;q1q2</title>
<path fill="none" stroke="black" d="M492.39,-204.82C506.98,-210.01 524.65,-216.3 540.29,-221.86"/>
<polygon fill="black" stroke="black" points="539.12,-225.16 549.72,-225.22 541.47,-218.57 539.12,-225.16"/>
<text text-anchor="middle" x="521" y="-220.8" font-family="Times,serif" font-size="14.00">0,1</text>
</g>
<!-- q1q2&#45;&gt;q0q1 -->
<g id="edge11" class="edge">
<title>q1q2&#45;&gt;q0q1</title>
<path fill="none" stroke="black" d="M564.04,-207.34C549.24,-183.87 524.86,-152.14 494,-137 463.32,-121.95 424.25,-120.91 395.02,-123.1"/>
<polygon fill="black" stroke="black" points="394.38,-119.64 384.73,-124.03 395.01,-126.61 394.38,-119.64"/>
<text text-anchor="middle" x="461" y="-140.8" font-family="Times,serif" font-size="14.00">0</text>
</g>
<!-- q1q2&#45;&gt;q1q2 -->
<g id="edge12" class="edge">
<title>q1q2&#45;&gt;q1q2</title>
<path fill="none" stroke="black" d="M569.76,-267.12C569.58,-278.1 573.32,-287 581,-287 586.04,-287 589.38,-283.17 591.04,-277.43"/>
<polygon fill="black" stroke="black" points="594.56,-277.46 592.24,-267.12 587.6,-276.65 594.56,-277.46"/>
<text text-anchor="middle" x="581" y="-290.8" font-family="Times,serif" font-size="14.00">1</text>
</g>
<!-- start -->
<g id="node8" class="node">
<title>start</title>
<ellipse fill="black" stroke="black" cx="243" cy="-134" rx="0" ry="0"/>
</g>
<!-- start&#45;&gt;q0q1 -->
<g id="edge13" class="edge">
<title>start&#45;&gt;q0q1</title>
<path fill="none" stroke="black" d="M244.08,-134C245.91,-133.91 279.72,-132.33 308.84,-130.97"/>
<polygon fill="black" stroke="black" points="309.06,-134.46 318.88,-130.5 308.73,-127.47 309.06,-134.46"/>
</g>
<!-- q0q1q2&#45;&gt;q1q2 -->
<g id="edge14" class="edge">
<title>q0q1q2&#45;&gt;q1q2</title>
<path fill="none" stroke="black" d="M492.39,-267.18C506.98,-261.99 524.65,-255.7 540.29,-250.14"/>
<polygon fill="black" stroke="black" points="541.47,-253.43 549.72,-246.78 539.12,-246.84 541.47,-253.43"/>
<text text-anchor="middle" x="521" y="-262.8" font-family="Times,serif" font-size="14.00">1</text>
</g>
<!-- q0q1q2&#45;&gt;q0q1q2 -->
<g id="edge15" class="edge">
<title>q0q1q2&#45;&gt;q0q1q2</title>
<path fill="none" stroke="black" d="M450.88,-309.63C450.82,-320.37 454.2,-329 461,-329 465.46,-329 468.45,-325.28 469.96,-319.69"/>
<polygon fill="black" stroke="black" points="473.46,-319.96 471.12,-309.63 466.5,-319.16 473.46,-319.96"/>
<text text-anchor="middle" x="461" y="-332.8" font-family="Times,serif" font-size="14.00">0</text>
</g>
<!-- Legend -->
<g id="node10" class="node">
<title>Legend</title>
<polygon fill="none" stroke="black" points="632,-398 632,-423 898,-423 898,-398 632,-398"/>
<text text-anchor="start" x="727" y="-407.8" font-family="Times,serif" font-weight="bold" font-size="14.00">NFA2→DFA</text>
<polygon fill="none" stroke="black" points="632,-373 632,-398 898,-398 898,-373 632,-373"/>
<text text-anchor="start" x="748" y="-382.8" font-family="Times,serif" font-weight="bold" font-style="italic" font-size="14.00">States</text>
<polygon fill="none" stroke="black" points="632,-348 632,-373 898,-373 898,-348 632,-348"/>
<text text-anchor="start" x="658.5" y="-357.8" font-family="Times,serif" font-size="14.00">{∅, q</text>
<text text-anchor="start" x="691.5" y="-357.8" font-family="Times,serif" baseline-shift="sub" font-size="9.00">0</text>
<text text-anchor="start" x="695.5" y="-357.8" font-family="Times,serif" font-size="14.00">, q</text>
<text text-anchor="start" x="710.5" y="-357.8" font-family="Times,serif" baseline-shift="sub" font-size="9.00">1</text>
<text text-anchor="start" x="714.5" y="-357.8" font-family="Times,serif" font-size="14.00">, q</text>
<text text-anchor="start" x="729.5" y="-357.8" font-family="Times,serif" baseline-shift="sub" font-size="9.00">2</text>
<text text-anchor="start" x="733.5" y="-357.8" font-family="Times,serif" font-size="14.00">, q</text>
<text text-anchor="start" x="748.5" y="-357.8" font-family="Times,serif" baseline-shift="sub" font-size="9.00">0</text>
<text text-anchor="start" x="752.5" y="-357.8" font-family="Times,serif" font-size="14.00">q</text>
<text text-anchor="start" x="759.5" y="-357.8" font-family="Times,serif" baseline-shift="sub" font-size="9.00">1</text>
<text text-anchor="start" x="763.5" y="-357.8" font-family="Times,serif" font-size="14.00">, q</text>
<text text-anchor="start" x="778.5" y="-357.8" font-family="Times,serif" baseline-shift="sub" font-size="9.00">0</text>
<text text-anchor="start" x="782.5" y="-357.8" font-family="Times,serif" font-size="14.00">q</text>
<text text-anchor="start" x="789.5" y="-357.8" font-family="Times,serif" baseline-shift="sub" font-size="9.00">2</text>
<text text-anchor="start" x="793.5" y="-357.8" font-family="Times,serif" font-size="14.00">, q</text>
<text text-anchor="start" x="808.5" y="-357.8" font-family="Times,serif" baseline-shift="sub" font-size="9.00">1</text>
<text text-anchor="start" x="812.5" y="-357.8" font-family="Times,serif" font-size="14.00">q</text>
<text text-anchor="start" x="819.5" y="-357.8" font-family="Times,serif" baseline-shift="sub" font-size="9.00">2</text>
<text text-anchor="start" x="823.5" y="-357.8" font-family="Times,serif" font-size="14.00">, q</text>
<text text-anchor="start" x="838.5" y="-357.8" font-family="Times,serif" baseline-shift="sub" font-size="9.00">0</text>
<text text-anchor="start" x="842.5" y="-357.8" font-family="Times,serif" font-size="14.00">q</text>
<text text-anchor="start" x="849.5" y="-357.8" font-family="Times,serif" baseline-shift="sub" font-size="9.00">1</text>
<text text-anchor="start" x="853.5" y="-357.8" font-family="Times,serif" font-size="14.00">q</text>
<text text-anchor="start" x="860.5" y="-357.8" font-family="Times,serif" baseline-shift="sub" font-size="9.00">2</text>
<text text-anchor="start" x="864.5" y="-357.8" font-family="Times,serif" font-size="14.00">}</text>
<polygon fill="none" stroke="black" points="632,-323 632,-348 898,-348 898,-323 632,-323"/>
<text text-anchor="start" x="710" y="-332.8" font-family="Times,serif" font-weight="bold" font-style="italic" font-size="14.00">Transition function</text>
<polygon fill="none" stroke="black" points="632,-298 632,-323 739,-323 739,-298 632,-298"/>
<text text-anchor="start" x="681.5" y="-306.8" font-family="Times,serif" font-size="14.00">δ</text>
<polygon fill="none" stroke="black" points="739,-298 739,-323 813,-323 813,-298 739,-298"/>
<text text-anchor="start" x="772.5" y="-307.8" font-family="Times,serif" font-weight="bold" font-size="14.00">0</text>
<polygon fill="none" stroke="black" points="813,-298 813,-323 860,-323 860,-298 813,-298"/>
<text text-anchor="start" x="833" y="-307.8" font-family="Times,serif" font-weight="bold" font-size="14.00">1</text>
<polygon fill="none" stroke="black" points="860,-298 860,-323 898,-323 898,-298 860,-298"/>
<text text-anchor="start" x="874" y="-307.8" font-family="Times,serif" font-weight="bold" font-size="14.00">ℇ</text>
<polygon fill="none" stroke="black" points="632,-273 632,-298 739,-298 739,-273 632,-273"/>
<text text-anchor="start" x="679.5" y="-282.8" font-family="Times,serif" font-weight="bold" font-size="14.00">∅</text>
<polygon fill="none" stroke="black" points="739,-273 739,-298 813,-298 813,-273 739,-273"/>
<text text-anchor="start" x="770" y="-281.8" font-family="Times,serif" font-size="14.00">∅</text>
<polygon fill="none" stroke="black" points="813,-273 813,-298 860,-298 860,-273 813,-273"/>
<text text-anchor="start" x="830.5" y="-281.8" font-family="Times,serif" font-size="14.00">∅</text>
<polygon fill="none" stroke="black" points="860,-273 860,-298 898,-298 898,-273 860,-273"/>
<text text-anchor="start" x="873" y="-281.8" font-family="Times,serif" font-size="14.00">∅</text>
<polygon fill="none" stroke="black" points="632,-248 632,-273 739,-273 739,-248 632,-248"/>
<text text-anchor="start" x="679.5" y="-257.8" font-family="Times,serif" font-weight="bold" font-size="14.00">q</text>
<text text-anchor="start" x="687.5" y="-257.8" font-family="Times,serif" font-weight="bold" baseline-shift="sub" font-size="9.00">0</text>
<polygon fill="none" stroke="black" points="739,-248 739,-273 813,-273 813,-248 739,-248"/>
<text text-anchor="start" x="770.5" y="-257.8" font-family="Times,serif" font-size="14.00">q</text>
<text text-anchor="start" x="777.5" y="-257.8" font-family="Times,serif" baseline-shift="sub" font-size="9.00">2</text>
<polygon fill="none" stroke="black" points="813,-248 813,-273 860,-273 860,-248 813,-248"/>
<text text-anchor="start" x="830.5" y="-256.8" font-family="Times,serif" font-size="14.00">∅</text>
<polygon fill="none" stroke="black" points="860,-248 860,-273 898,-273 898,-248 860,-248"/>
<text text-anchor="start" x="873" y="-256.8" font-family="Times,serif" font-size="14.00">∅</text>
<polygon fill="none" stroke="black" points="632,-223 632,-248 739,-248 739,-223 632,-223"/>
<text text-anchor="start" x="679.5" y="-232.8" font-family="Times,serif" font-weight="bold" font-size="14.00">q</text>
<text text-anchor="start" x="687.5" y="-232.8" font-family="Times,serif" font-weight="bold" baseline-shift="sub" font-size="9.00">1</text>
<polygon fill="none" stroke="black" points="739,-223 739,-248 813,-248 813,-223 739,-223"/>
<text text-anchor="start" x="765" y="-232.8" font-family="Times,serif" font-size="14.00">q</text>
<text text-anchor="start" x="772" y="-232.8" font-family="Times,serif" baseline-shift="sub" font-size="9.00">0</text>
<text text-anchor="start" x="776" y="-232.8" font-family="Times,serif" font-size="14.00">q</text>
<text text-anchor="start" x="783" y="-232.8" font-family="Times,serif" baseline-shift="sub" font-size="9.00">1</text>
<polygon fill="none" stroke="black" points="813,-223 813,-248 860,-248 860,-223 813,-223"/>
<text text-anchor="start" x="830.5" y="-231.8" font-family="Times,serif" font-size="14.00">∅</text>
<polygon fill="none" stroke="black" points="860,-223 860,-248 898,-248 898,-223 860,-223"/>
<text text-anchor="start" x="873" y="-231.8" font-family="Times,serif" font-size="14.00">∅</text>
<polygon fill="none" stroke="black" points="632,-198 632,-223 739,-223 739,-198 632,-198"/>
<text text-anchor="start" x="679.5" y="-207.8" font-family="Times,serif" font-weight="bold" font-size="14.00">q</text>
<text text-anchor="start" x="687.5" y="-207.8" font-family="Times,serif" font-weight="bold" baseline-shift="sub" font-size="9.00">2</text>
<polygon fill="none" stroke="black" points="739,-198 739,-223 813,-223 813,-198 739,-198"/>
<text text-anchor="start" x="770.5" y="-207.8" font-family="Times,serif" font-size="14.00">q</text>
<text text-anchor="start" x="777.5" y="-207.8" font-family="Times,serif" baseline-shift="sub" font-size="9.00">1</text>
<polygon fill="none" stroke="black" points="813,-198 813,-223 860,-223 860,-198 813,-198"/>
<text text-anchor="start" x="825.5" y="-207.8" font-family="Times,serif" font-size="14.00">q</text>
<text text-anchor="start" x="832.5" y="-207.8" font-family="Times,serif" baseline-shift="sub" font-size="9.00">1</text>
<text text-anchor="start" x="836.5" y="-207.8" font-family="Times,serif" font-size="14.00">q</text>
<text text-anchor="start" x="843.5" y="-207.8" font-family="Times,serif" baseline-shift="sub" font-size="9.00">2</text>
<polygon fill="none" stroke="black" points="860,-198 860,-223 898,-223 898,-198 860,-198"/>
<text text-anchor="start" x="873" y="-206.8" font-family="Times,serif" font-size="14.00">∅</text>
<polygon fill="none" stroke="black" points="632,-173 632,-198 739,-198 739,-173 632,-173"/>
<text text-anchor="start" x="673.5" y="-182.8" font-family="Times,serif" font-weight="bold" font-size="14.00">q</text>
<text text-anchor="start" x="681.5" y="-182.8" font-family="Times,serif" font-weight="bold" baseline-shift="sub" font-size="9.00">0</text>
<text text-anchor="start" x="685.5" y="-182.8" font-family="Times,serif" font-weight="bold" font-size="14.00">q</text>
<text text-anchor="start" x="693.5" y="-182.8" font-family="Times,serif" font-weight="bold" baseline-shift="sub" font-size="9.00">1</text>
<polygon fill="none" stroke="black" points="739,-173 739,-198 813,-198 813,-173 739,-173"/>
<text text-anchor="start" x="759.5" y="-182.8" font-family="Times,serif" font-size="14.00">q</text>
<text text-anchor="start" x="766.5" y="-182.8" font-family="Times,serif" baseline-shift="sub" font-size="9.00">0</text>
<text text-anchor="start" x="770.5" y="-182.8" font-family="Times,serif" font-size="14.00">q</text>
<text text-anchor="start" x="777.5" y="-182.8" font-family="Times,serif" baseline-shift="sub" font-size="9.00">1</text>
<text text-anchor="start" x="781.5" y="-182.8" font-family="Times,serif" font-size="14.00">q</text>
<text text-anchor="start" x="788.5" y="-182.8" font-family="Times,serif" baseline-shift="sub" font-size="9.00">2</text>
<polygon fill="none" stroke="black" points="813,-173 813,-198 860,-198 860,-173 813,-173"/>
<text text-anchor="start" x="830.5" y="-181.8" font-family="Times,serif" font-size="14.00">∅</text>
<polygon fill="none" stroke="black" points="860,-173 860,-198 898,-198 898,-173 860,-173"/>
<text text-anchor="start" x="873" y="-181.8" font-family="Times,serif" font-size="14.00">∅</text>
<polygon fill="none" stroke="black" points="632,-148 632,-173 739,-173 739,-148 632,-148"/>
<text text-anchor="start" x="673.5" y="-157.8" font-family="Times,serif" font-weight="bold" font-size="14.00">q</text>
<text text-anchor="start" x="681.5" y="-157.8" font-family="Times,serif" font-weight="bold" baseline-shift="sub" font-size="9.00">0</text>
<text text-anchor="start" x="685.5" y="-157.8" font-family="Times,serif" font-weight="bold" font-size="14.00">q</text>
<text text-anchor="start" x="693.5" y="-157.8" font-family="Times,serif" font-weight="bold" baseline-shift="sub" font-size="9.00">2</text>
<polygon fill="none" stroke="black" points="739,-148 739,-173 813,-173 813,-148 739,-148"/>
<text text-anchor="start" x="765" y="-157.8" font-family="Times,serif" font-size="14.00">q</text>
<text text-anchor="start" x="772" y="-157.8" font-family="Times,serif" baseline-shift="sub" font-size="9.00">1</text>
<text text-anchor="start" x="776" y="-157.8" font-family="Times,serif" font-size="14.00">q</text>
<text text-anchor="start" x="783" y="-157.8" font-family="Times,serif" baseline-shift="sub" font-size="9.00">2</text>
<polygon fill="none" stroke="black" points="813,-148 813,-173 860,-173 860,-148 813,-148"/>
<text text-anchor="start" x="825.5" y="-157.8" font-family="Times,serif" font-size="14.00">q</text>
<text text-anchor="start" x="832.5" y="-157.8" font-family="Times,serif" baseline-shift="sub" font-size="9.00">1</text>
<text text-anchor="start" x="836.5" y="-157.8" font-family="Times,serif" font-size="14.00">q</text>
<text text-anchor="start" x="843.5" y="-157.8" font-family="Times,serif" baseline-shift="sub" font-size="9.00">2</text>
<polygon fill="none" stroke="black" points="860,-148 860,-173 898,-173 898,-148 860,-148"/>
<text text-anchor="start" x="873" y="-156.8" font-family="Times,serif" font-size="14.00">∅</text>
<polygon fill="none" stroke="black" points="632,-123 632,-148 739,-148 739,-123 632,-123"/>
<text text-anchor="start" x="673.5" y="-132.8" font-family="Times,serif" font-weight="bold" font-size="14.00">q</text>
<text text-anchor="start" x="681.5" y="-132.8" font-family="Times,serif" font-weight="bold" baseline-shift="sub" font-size="9.00">1</text>
<text text-anchor="start" x="685.5" y="-132.8" font-family="Times,serif" font-weight="bold" font-size="14.00">q</text>
<text text-anchor="start" x="693.5" y="-132.8" font-family="Times,serif" font-weight="bold" baseline-shift="sub" font-size="9.00">2</text>
<polygon fill="none" stroke="black" points="739,-123 739,-148 813,-148 813,-123 739,-123"/>
<text text-anchor="start" x="765" y="-132.8" font-family="Times,serif" font-size="14.00">q</text>
<text text-anchor="start" x="772" y="-132.8" font-family="Times,serif" baseline-shift="sub" font-size="9.00">0</text>
<text text-anchor="start" x="776" y="-132.8" font-family="Times,serif" font-size="14.00">q</text>
<text text-anchor="start" x="783" y="-132.8" font-family="Times,serif" baseline-shift="sub" font-size="9.00">1</text>
<polygon fill="none" stroke="black" points="813,-123 813,-148 860,-148 860,-123 813,-123"/>
<text text-anchor="start" x="825.5" y="-132.8" font-family="Times,serif" font-size="14.00">q</text>
<text text-anchor="start" x="832.5" y="-132.8" font-family="Times,serif" baseline-shift="sub" font-size="9.00">1</text>
<text text-anchor="start" x="836.5" y="-132.8" font-family="Times,serif" font-size="14.00">q</text>
<text text-anchor="start" x="843.5" y="-132.8" font-family="Times,serif" baseline-shift="sub" font-size="9.00">2</text>
<polygon fill="none" stroke="black" points="860,-123 860,-148 898,-148 898,-123 860,-123"/>
<text text-anchor="start" x="873" y="-131.8" font-family="Times,serif" font-size="14.00">∅</text>
<polygon fill="none" stroke="black" points="632,-98 632,-123 739,-123 739,-98 632,-98"/>
<text text-anchor="start" x="667.5" y="-107.8" font-family="Times,serif" font-weight="bold" font-size="14.00">q</text>
<text text-anchor="start" x="675.5" y="-107.8" font-family="Times,serif" font-weight="bold" baseline-shift="sub" font-size="9.00">0</text>
<text text-anchor="start" x="679.5" y="-107.8" font-family="Times,serif" font-weight="bold" font-size="14.00">q</text>
<text text-anchor="start" x="687.5" y="-107.8" font-family="Times,serif" font-weight="bold" baseline-shift="sub" font-size="9.00">1</text>
<text text-anchor="start" x="691.5" y="-107.8" font-family="Times,serif" font-weight="bold" font-size="14.00">q</text>
<text text-anchor="start" x="699.5" y="-107.8" font-family="Times,serif" font-weight="bold" baseline-shift="sub" font-size="9.00">2</text>
<polygon fill="none" stroke="black" points="739,-98 739,-123 813,-123 813,-98 739,-98"/>
<text text-anchor="start" x="759.5" y="-107.8" font-family="Times,serif" font-size="14.00">q</text>
<text text-anchor="start" x="766.5" y="-107.8" font-family="Times,serif" baseline-shift="sub" font-size="9.00">0</text>
<text text-anchor="start" x="770.5" y="-107.8" font-family="Times,serif" font-size="14.00">q</text>
<text text-anchor="start" x="777.5" y="-107.8" font-family="Times,serif" baseline-shift="sub" font-size="9.00">1</text>
<text text-anchor="start" x="781.5" y="-107.8" font-family="Times,serif" font-size="14.00">q</text>
<text text-anchor="start" x="788.5" y="-107.8" font-family="Times,serif" baseline-shift="sub" font-size="9.00">2</text>
<polygon fill="none" stroke="black" points="813,-98 813,-123 860,-123 860,-98 813,-98"/>
<text text-anchor="start" x="825.5" y="-107.8" font-family="Times,serif" font-size="14.00">q</text>
<text text-anchor="start" x="832.5" y="-107.8" font-family="Times,serif" baseline-shift="sub" font-size="9.00">1</text>
<text text-anchor="start" x="836.5" y="-107.8" font-family="Times,serif" font-size="14.00">q</text>
<text text-anchor="start" x="843.5" y="-107.8" font-family="Times,serif" baseline-shift="sub" font-size="9.00">2</text>
<polygon fill="none" stroke="black" points="860,-98 860,-123 898,-123 898,-98 860,-98"/>
<text text-anchor="start" x="873" y="-106.8" font-family="Times,serif" font-size="14.00">∅</text>
<polygon fill="none" stroke="black" points="632,-73 632,-98 898,-98 898,-73 632,-73"/>
<text text-anchor="start" x="721.5" y="-82.8" font-family="Times,serif" font-weight="bold" font-style="italic" font-size="14.00">Start state: </text>
<text text-anchor="start" x="786.5" y="-82.8" font-family="Times,serif" font-size="14.00">q</text>
<text text-anchor="start" x="793.5" y="-82.8" font-family="Times,serif" baseline-shift="sub" font-size="9.00">0</text>
<text text-anchor="start" x="797.5" y="-82.8" font-family="Times,serif" font-size="14.00">q</text>
<text text-anchor="start" x="804.5" y="-82.8" font-family="Times,serif" baseline-shift="sub" font-size="9.00">1</text>
<polygon fill="none" stroke="black" points="632,-48 632,-73 898,-73 898,-48 632,-48"/>
<text text-anchor="start" x="637" y="-57.8" font-family="Times,serif" font-weight="bold" font-style="italic" font-size="14.00">Accept states: </text>
<text text-anchor="start" x="718" y="-57.8" font-family="Times,serif" font-size="14.00">{q</text>
<text text-anchor="start" x="732" y="-57.8" font-family="Times,serif" baseline-shift="sub" font-size="9.00">0</text>
<text text-anchor="start" x="736" y="-57.8" font-family="Times,serif" font-size="14.00">, q</text>
<text text-anchor="start" x="751" y="-57.8" font-family="Times,serif" baseline-shift="sub" font-size="9.00">1</text>
<text text-anchor="start" x="755" y="-57.8" font-family="Times,serif" font-size="14.00">, q</text>
<text text-anchor="start" x="770" y="-57.8" font-family="Times,serif" baseline-shift="sub" font-size="9.00">0</text>
<text text-anchor="start" x="774" y="-57.8" font-family="Times,serif" font-size="14.00">q</text>
<text text-anchor="start" x="781" y="-57.8" font-family="Times,serif" baseline-shift="sub" font-size="9.00">1</text>
<text text-anchor="start" x="785" y="-57.8" font-family="Times,serif" font-size="14.00">, q</text>
<text text-anchor="start" x="800" y="-57.8" font-family="Times,serif" baseline-shift="sub" font-size="9.00">0</text>
<text text-anchor="start" x="804" y="-57.8" font-family="Times,serif" font-size="14.00">q</text>
<text text-anchor="start" x="811" y="-57.8" font-family="Times,serif" baseline-shift="sub" font-size="9.00">2</text>
<text text-anchor="start" x="815" y="-57.8" font-family="Times,serif" font-size="14.00">, q</text>
<text text-anchor="start" x="830" y="-57.8" font-family="Times,serif" baseline-shift="sub" font-size="9.00">1</text>
<text text-anchor="start" x="834" y="-57.8" font-family="Times,serif" font-size="14.00">q</text>
<text text-anchor="start" x="841" y="-57.8" font-family="Times,serif" baseline-shift="sub" font-size="9.00">2</text>
<text text-anchor="start" x="845" y="-57.8" font-family="Times,serif" font-size="14.00">, q</text>
<text text-anchor="start" x="860" y="-57.8" font-family="Times,serif" baseline-shift="sub" font-size="9.00">0</text>
<text text-anchor="start" x="864" y="-57.8" font-family="Times,serif" font-size="14.00">q</text>
<text text-anchor="start" x="871" y="-57.8" font-family="Times,serif" baseline-shift="sub" font-size="9.00">1</text>
<text text-anchor="start" x="875" y="-57.8" font-family="Times,serif" font-size="14.00">q</text>
<text text-anchor="start" x="882" y="-57.8" font-family="Times,serif" baseline-shift="sub" font-size="9.00">2</text>
<text text-anchor="start" x="886" y="-57.8" font-family="Times,serif" font-size="14.00">}</text>
</g>
</g>
</svg>
