<?xml version="1.0" encoding="UTF-8" standalone="no"?>
<!DOCTYPE svg PUBLIC "-//W3C//DTD SVG 1.1//EN"
 "http://www.w3.org/Graphics/SVG/1.1/DTD/svg11.dtd">
<!-- Generated by graphviz version 2.44.0 (20200408.0750)
 -->
<!-- Title: G Pages: 1 -->
<svg width="461pt" height="258pt"
 viewBox="0.00 0.00 461.00 258.00" xmlns="http://www.w3.org/2000/svg" xmlns:xlink="http://www.w3.org/1999/xlink">
<g id="graph0" class="graph" transform="scale(1 1) rotate(0) translate(4 254)">
<title>G</title>
<polygon fill="white" stroke="transparent" points="-4,4 -4,-254 457,-254 457,4 -4,4"/>
<!-- q0 -->
<g id="node1" class="node">
<title>q0</title>
<ellipse fill="none" stroke="black" cx="66" cy="-125" rx="29" ry="29"/>
<text text-anchor="start" x="60.5" y="-122.3" font-family="Times,serif" font-size="14.00">q</text>
<text text-anchor="start" x="67.5" y="-122.3" font-family="Times,serif" baseline-shift="sub" font-size="9.00">0</text>
</g>
<!-- q1 -->
<g id="node2" class="node">
<title>q1</title>
<ellipse fill="none" stroke="black" cx="282" cy="-125" rx="29" ry="29"/>
<ellipse fill="none" stroke="black" cx="282" cy="-125" rx="33" ry="33"/>
<text text-anchor="start" x="276.5" y="-122.3" font-family="Times,serif" font-size="14.00">q</text>
<text text-anchor="start" x="283.5" y="-122.3" font-family="Times,serif" baseline-shift="sub" font-size="9.00">1</text>
</g>
<!-- q0&#45;&gt;q1 -->
<g id="edge1" class="edge">
<title>q0&#45;&gt;q1</title>
<path fill="none" stroke="black" d="M82.83,-148.71C95.51,-165.42 114.97,-186.46 138,-196 161.82,-205.86 171.77,-204.79 196,-196 217.75,-188.11 237.83,-171.96 253,-157.05"/>
<polygon fill="black" stroke="black" points="255.54,-159.46 260.05,-149.87 250.54,-154.56 255.54,-159.46"/>
<text text-anchor="middle" x="167" y="-206.8" font-family="Times,serif" font-size="14.00">ℇ</text>
</g>
<!-- q2 -->
<g id="node3" class="node">
<title>q2</title>
<ellipse fill="none" stroke="black" cx="167" cy="-125" rx="29" ry="29"/>
<text text-anchor="start" x="161.5" y="-122.3" font-family="Times,serif" font-size="14.00">q</text>
<text text-anchor="start" x="168.5" y="-122.3" font-family="Times,serif" baseline-shift="sub" font-size="9.00">2</text>
</g>
<!-- q0&#45;&gt;q2 -->
<g id="edge2" class="edge">
<title>q0&#45;&gt;q2</title>
<path fill="none" stroke="black" d="M95.1,-125C105.24,-125 116.86,-125 127.72,-125"/>
<polygon fill="black" stroke="black" points="127.83,-128.5 137.83,-125 127.83,-121.5 127.83,-128.5"/>
<text text-anchor="middle" x="116.5" y="-128.8" font-family="Times,serif" font-size="14.00">a</text>
</g>
<!-- q1&#45;&gt;q0 -->
<g id="edge3" class="edge">
<title>q1&#45;&gt;q0</title>
<path fill="none" stroke="black" d="M256.03,-104.19C239.98,-92.21 218.07,-78.32 196,-72 171.22,-64.91 162.46,-63.88 138,-72 122.07,-77.29 106.83,-87.7 94.57,-97.9"/>
<polygon fill="black" stroke="black" points="92.22,-95.31 86.97,-104.52 96.81,-100.59 92.22,-95.31"/>
<text text-anchor="middle" x="167" y="-75.8" font-family="Times,serif" font-size="14.00">a</text>
</g>
<!-- q2&#45;&gt;q1 -->
<g id="edge4" class="edge">
<title>q2&#45;&gt;q1</title>
<path fill="none" stroke="black" d="M196.22,-125C209.06,-125 224.52,-125 238.7,-125"/>
<polygon fill="black" stroke="black" points="238.74,-128.5 248.74,-125 238.74,-121.5 238.74,-128.5"/>
<text text-anchor="middle" x="222.5" y="-128.8" font-family="Times,serif" font-size="14.00">a,b</text>
</g>
<!-- q2&#45;&gt;q2 -->
<g id="edge5" class="edge">
<title>q2&#45;&gt;q2</title>
<path fill="none" stroke="black" d="M157.66,-152.52C157.25,-163.16 160.36,-172 167,-172 171.36,-172 174.2,-168.19 175.52,-162.57"/>
<polygon fill="black" stroke="black" points="179.01,-162.77 176.34,-152.52 172.03,-162.2 179.01,-162.77"/>
<text text-anchor="middle" x="167" y="-175.8" font-family="Times,serif" font-size="14.00">b</text>
</g>
<!-- start -->
<g id="node4" class="node">
<title>start</title>
<ellipse fill="black" stroke="black" cx="0" cy="-125" rx="0" ry="0"/>
</g>
<!-- start&#45;&gt;q0 -->
<g id="edge6" class="edge">
<title>start&#45;&gt;q0</title>
<path fill="none" stroke="black" d="M1.05,-125C1.87,-125 13.45,-125 26.55,-125"/>
<polygon fill="black" stroke="black" points="26.7,-128.5 36.7,-125 26.7,-121.5 26.7,-128.5"/>
</g>
<!-- Legend -->
<g id="node5" class="node">
<title>Legend</title>
<polygon fill="none" stroke="black" points="333,-225 333,-250 453,-250 453,-225 333,-225"/>
<text text-anchor="start" x="375.5" y="-234.8" font-family="Times,serif" font-weight="bold" font-size="14.00">NFA2</text>
<polygon fill="none" stroke="black" points="333,-200 333,-225 453,-225 453,-200 333,-200"/>
<text text-anchor="start" x="376" y="-209.8" font-family="Times,serif" font-weight="bold" font-style="italic" font-size="14.00">States</text>
<polygon fill="none" stroke="black" points="333,-175 333,-200 453,-200 453,-175 333,-175"/>
<text text-anchor="start" x="361.5" y="-184.8" font-family="Times,serif" font-size="14.00">{q</text>
<text text-anchor="start" x="375.5" y="-184.8" font-family="Times,serif" baseline-shift="sub" font-size="9.00">0</text>
<text text-anchor="start" x="379.5" y="-184.8" font-family="Times,serif" font-size="14.00">, q</text>
<text text-anchor="start" x="394.5" y="-184.8" font-family="Times,serif" baseline-shift="sub" font-size="9.00">1</text>
<text text-anchor="start" x="398.5" y="-184.8" font-family="Times,serif" font-size="14.00">, q</text>
<text text-anchor="start" x="413.5" y="-184.8" font-family="Times,serif" baseline-shift="sub" font-size="9.00">2</text>
<text text-anchor="start" x="417.5" y="-184.8" font-family="Times,serif" font-size="14.00">}</text>
<polygon fill="none" stroke="black" points="333,-150 333,-175 453,-175 453,-150 333,-150"/>
<text text-anchor="start" x="338" y="-159.8" font-family="Times,serif" font-weight="bold" font-style="italic" font-size="14.00">Transition function</text>
<polygon fill="none" stroke="black" points="333,-125 333,-150 355,-150 355,-125 333,-125"/>
<text text-anchor="start" x="340" y="-133.8" font-family="Times,serif" font-size="14.00">δ</text>
<polygon fill="none" stroke="black" points="355,-125 355,-150 376,-150 376,-125 355,-125"/>
<text text-anchor="start" x="362" y="-134.8" font-family="Times,serif" font-weight="bold" font-size="14.00">a</text>
<polygon fill="none" stroke="black" points="376,-125 376,-150 430,-150 430,-125 376,-125"/>
<text text-anchor="start" x="399" y="-134.8" font-family="Times,serif" font-weight="bold" font-size="14.00">b</text>
<polygon fill="none" stroke="black" points="430,-125 430,-150 453,-150 453,-125 430,-125"/>
<text text-anchor="start" x="436.5" y="-134.8" font-family="Times,serif" font-weight="bold" font-size="14.00">ℇ</text>
<polygon fill="none" stroke="black" points="333,-100 333,-125 355,-125 355,-100 333,-100"/>
<text text-anchor="start" x="338" y="-109.8" font-family="Times,serif" font-weight="bold" font-size="14.00">q</text>
<text text-anchor="start" x="346" y="-109.8" font-family="Times,serif" font-weight="bold" baseline-shift="sub" font-size="9.00">0</text>
<polygon fill="none" stroke="black" points="355,-100 355,-125 376,-125 376,-100 355,-100"/>
<text text-anchor="start" x="360" y="-109.8" font-family="Times,serif" font-size="14.00">q</text>
<text text-anchor="start" x="367" y="-109.8" font-family="Times,serif" baseline-shift="sub" font-size="9.00">2</text>
<polygon fill="none" stroke="black" points="376,-100 376,-125 430,-125 430,-100 376,-100"/>
<text text-anchor="start" x="397" y="-108.8" font-family="Times,serif" font-size="14.00">∅</text>
<polygon fill="none" stroke="black" points="430,-100 430,-125 453,-125 453,-100 430,-100"/>
<text text-anchor="start" x="436" y="-109.8" font-family="Times,serif" font-size="14.00">q</text>
<text text-anchor="start" x="443" y="-109.8" font-family="Times,serif" baseline-shift="sub" font-size="9.00">1</text>
<polygon fill="none" stroke="black" points="333,-75 333,-100 355,-100 355,-75 333,-75"/>
<text text-anchor="start" x="338" y="-84.8" font-family="Times,serif" font-weight="bold" font-size="14.00">q</text>
<text text-anchor="start" x="346" y="-84.8" font-family="Times,serif" font-weight="bold" baseline-shift="sub" font-size="9.00">1</text>
<polygon fill="none" stroke="black" points="355,-75 355,-100 376,-100 376,-75 355,-75"/>
<text text-anchor="start" x="360" y="-84.8" font-family="Times,serif" font-size="14.00">q</text>
<text text-anchor="start" x="367" y="-84.8" font-family="Times,serif" baseline-shift="sub" font-size="9.00">0</text>
<polygon fill="none" stroke="black" points="376,-75 376,-100 430,-100 430,-75 376,-75"/>
<text text-anchor="start" x="397" y="-83.8" font-family="Times,serif" font-size="14.00">∅</text>
<polygon fill="none" stroke="black" points="430,-75 430,-100 453,-100 453,-75 430,-75"/>
<text text-anchor="start" x="435.5" y="-83.8" font-family="Times,serif" font-size="14.00">∅</text>
<polygon fill="none" stroke="black" points="333,-50 333,-75 355,-75 355,-50 333,-50"/>
<text text-anchor="start" x="338" y="-59.8" font-family="Times,serif" font-weight="bold" font-size="14.00">q</text>
<text text-anchor="start" x="346" y="-59.8" font-family="Times,serif" font-weight="bold" baseline-shift="sub" font-size="9.00">2</text>
<polygon fill="none" stroke="black" points="355,-50 355,-75 376,-75 376,-50 355,-50"/>
<text text-anchor="start" x="360" y="-59.8" font-family="Times,serif" font-size="14.00">q</text>
<text text-anchor="start" x="367" y="-59.8" font-family="Times,serif" baseline-shift="sub" font-size="9.00">1</text>
<polygon fill="none" stroke="black" points="376,-50 376,-75 430,-75 430,-50 376,-50"/>
<text text-anchor="start" x="381" y="-59.8" font-family="Times,serif" font-size="14.00">{q</text>
<text text-anchor="start" x="395" y="-59.8" font-family="Times,serif" baseline-shift="sub" font-size="9.00">1</text>
<text text-anchor="start" x="399" y="-59.8" font-family="Times,serif" font-size="14.00">, q</text>
<text text-anchor="start" x="414" y="-59.8" font-family="Times,serif" baseline-shift="sub" font-size="9.00">2</text>
<text text-anchor="start" x="418" y="-59.8" font-family="Times,serif" font-size="14.00">}</text>
<polygon fill="none" stroke="black" points="430,-50 430,-75 453,-75 453,-50 430,-50"/>
<text text-anchor="start" x="435.5" y="-58.8" font-family="Times,serif" font-size="14.00">∅</text>
<polygon fill="none" stroke="black" points="333,-25 333,-50 453,-50 453,-25 333,-25"/>
<text text-anchor="start" x="355" y="-34.8" font-family="Times,serif" font-weight="bold" font-style="italic" font-size="14.00">Start state: </text>
<text text-anchor="start" x="420" y="-34.8" font-family="Times,serif" font-size="14.00">q</text>
<text text-anchor="start" x="427" y="-34.8" font-family="Times,serif" baseline-shift="sub" font-size="9.00">0</text>
<polygon fill="none" stroke="black" points="333,0 333,-25 453,-25 453,0 333,0"/>
<text text-anchor="start" x="347" y="-9.8" font-family="Times,serif" font-weight="bold" font-style="italic" font-size="14.00">Accept states: </text>
<text text-anchor="start" x="428" y="-9.8" font-family="Times,serif" font-size="14.00">q</text>
<text text-anchor="start" x="435" y="-9.8" font-family="Times,serif" baseline-shift="sub" font-size="9.00">1</text>
</g>
</g>
</svg>
