<?xml version="1.0" encoding="UTF-8" standalone="no"?>
<!DOCTYPE svg PUBLIC "-//W3C//DTD SVG 1.1//EN"
 "http://www.w3.org/Graphics/SVG/1.1/DTD/svg11.dtd">
<!-- Generated by graphviz version 2.44.0 (20200408.0750)
 -->
<!-- Title: G Pages: 1 -->
<svg width="854pt" height="425pt"
 viewBox="0.00 0.00 854.00 424.50" xmlns="http://www.w3.org/2000/svg" xmlns:xlink="http://www.w3.org/1999/xlink">
<g id="graph0" class="graph" transform="scale(1 1) rotate(0) translate(4 420.5)">
<title>G</title>
<polygon fill="white" stroke="transparent" points="-4,4 -4,-420.5 850,-420.5 850,4 -4,4"/>
<!-- ∅ -->
<g id="node1" class="node">
<title>∅</title>
<ellipse fill="none" stroke="black" cx="453" cy="-29" rx="29" ry="29"/>
<text text-anchor="middle" x="453" y="-25.3" font-family="Times,serif" font-size="14.00">∅</text>
</g>
<!-- ∅&#45;&gt;∅ -->
<g id="edge1" class="edge">
<title>∅&#45;&gt;∅</title>
<path fill="none" stroke="black" d="M442.91,-56.52C442.47,-67.16 445.83,-76 453,-76 457.71,-76 460.77,-72.19 462.2,-66.57"/>
<polygon fill="black" stroke="black" points="465.69,-66.79 463.09,-56.52 458.72,-66.17 465.69,-66.79"/>
<text text-anchor="middle" x="453" y="-79.8" font-family="Times,serif" font-size="14.00">a,b</text>
</g>
<!-- q0 -->
<g id="node2" class="node">
<title>q0</title>
<ellipse fill="none" stroke="black" cx="29" cy="-32" rx="29" ry="29"/>
<text text-anchor="start" x="23.5" y="-29.3" font-family="Times,serif" font-size="14.00">q</text>
<text text-anchor="start" x="30.5" y="-29.3" font-family="Times,serif" baseline-shift="sub" font-size="9.00">0</text>
</g>
<!-- q0&#45;&gt;∅ -->
<g id="edge2" class="edge">
<title>q0&#45;&gt;∅</title>
<path fill="none" stroke="black" d="M57.55,-25.12C77.3,-20.79 104.63,-16 129,-16 129,-16 129,-16 345,-16 368.21,-16 394.05,-19.05 414.52,-22.2"/>
<polygon fill="black" stroke="black" points="413.97,-25.65 424.4,-23.79 415.08,-18.74 413.97,-25.65"/>
<text text-anchor="middle" x="235" y="-19.8" font-family="Times,serif" font-size="14.00">b</text>
</g>
<!-- q2 -->
<g id="node4" class="node">
<title>q2</title>
<ellipse fill="none" stroke="black" cx="130" cy="-82" rx="29" ry="29"/>
<text text-anchor="start" x="124.5" y="-79.3" font-family="Times,serif" font-size="14.00">q</text>
<text text-anchor="start" x="131.5" y="-79.3" font-family="Times,serif" baseline-shift="sub" font-size="9.00">2</text>
</g>
<!-- q0&#45;&gt;q2 -->
<g id="edge3" class="edge">
<title>q0&#45;&gt;q2</title>
<path fill="none" stroke="black" d="M55.24,-44.75C67.22,-50.8 81.73,-58.13 94.7,-64.68"/>
<polygon fill="black" stroke="black" points="93.3,-67.89 103.81,-69.28 96.46,-61.64 93.3,-67.89"/>
<text text-anchor="middle" x="79.5" y="-62.8" font-family="Times,serif" font-size="14.00">a</text>
</g>
<!-- q1 -->
<g id="node3" class="node">
<title>q1</title>
<ellipse fill="none" stroke="black" cx="235" cy="-82" rx="29" ry="29"/>
<ellipse fill="none" stroke="black" cx="235" cy="-82" rx="33" ry="33"/>
<text text-anchor="start" x="229.5" y="-79.3" font-family="Times,serif" font-size="14.00">q</text>
<text text-anchor="start" x="236.5" y="-79.3" font-family="Times,serif" baseline-shift="sub" font-size="9.00">1</text>
</g>
<!-- q1&#45;&gt;∅ -->
<g id="edge4" class="edge">
<title>q1&#45;&gt;∅</title>
<path fill="none" stroke="black" d="M267.41,-74.29C306.54,-64.69 373.3,-48.31 414.91,-38.1"/>
<polygon fill="black" stroke="black" points="415.78,-41.49 424.66,-35.71 414.11,-34.69 415.78,-41.49"/>
<text text-anchor="middle" x="344" y="-67.8" font-family="Times,serif" font-size="14.00">b</text>
</g>
<!-- q0q1 -->
<g id="node5" class="node">
<title>q0q1</title>
<ellipse fill="none" stroke="black" cx="344" cy="-128" rx="29" ry="29"/>
<ellipse fill="none" stroke="black" cx="344" cy="-128" rx="33" ry="33"/>
<text text-anchor="start" x="333" y="-125.3" font-family="Times,serif" font-size="14.00">q</text>
<text text-anchor="start" x="340" y="-125.3" font-family="Times,serif" baseline-shift="sub" font-size="9.00">0</text>
<text text-anchor="start" x="344" y="-125.3" font-family="Times,serif" font-size="14.00">q</text>
<text text-anchor="start" x="351" y="-125.3" font-family="Times,serif" baseline-shift="sub" font-size="9.00">1</text>
</g>
<!-- q1&#45;&gt;q0q1 -->
<g id="edge5" class="edge">
<title>q1&#45;&gt;q0q1</title>
<path fill="none" stroke="black" d="M265.52,-94.69C277.35,-99.78 291.15,-105.71 303.81,-111.15"/>
<polygon fill="black" stroke="black" points="302.63,-114.46 313.2,-115.19 305.4,-108.03 302.63,-114.46"/>
<text text-anchor="middle" x="289.5" y="-110.8" font-family="Times,serif" font-size="14.00">a</text>
</g>
<!-- q2&#45;&gt;q1 -->
<g id="edge6" class="edge">
<title>q2&#45;&gt;q1</title>
<path fill="none" stroke="black" d="M159.15,-82C169.17,-82 180.68,-82 191.63,-82"/>
<polygon fill="black" stroke="black" points="191.89,-85.5 201.89,-82 191.89,-78.5 191.89,-85.5"/>
<text text-anchor="middle" x="180.5" y="-85.8" font-family="Times,serif" font-size="14.00">a</text>
</g>
<!-- q1q2 -->
<g id="node7" class="node">
<title>q1q2</title>
<ellipse fill="none" stroke="black" cx="572" cy="-229" rx="29" ry="29"/>
<ellipse fill="none" stroke="black" cx="572" cy="-229" rx="33" ry="33"/>
<text text-anchor="start" x="561" y="-226.3" font-family="Times,serif" font-size="14.00">q</text>
<text text-anchor="start" x="568" y="-226.3" font-family="Times,serif" baseline-shift="sub" font-size="9.00">1</text>
<text text-anchor="start" x="572" y="-226.3" font-family="Times,serif" font-size="14.00">q</text>
<text text-anchor="start" x="579" y="-226.3" font-family="Times,serif" baseline-shift="sub" font-size="9.00">2</text>
</g>
<!-- q2&#45;&gt;q1q2 -->
<g id="edge7" class="edge">
<title>q2&#45;&gt;q1q2</title>
<path fill="none" stroke="black" d="M135.25,-110.75C146.65,-182.37 180.68,-363 234,-363 234,-363 234,-363 454,-363 504.25,-363 537.89,-308.87 555.73,-269.41"/>
<polygon fill="black" stroke="black" points="559.16,-270.31 559.93,-259.74 552.74,-267.52 559.16,-270.31"/>
<text text-anchor="middle" x="344" y="-366.8" font-family="Times,serif" font-size="14.00">b</text>
</g>
<!-- q0q1&#45;&gt;∅ -->
<g id="edge8" class="edge">
<title>q0q1&#45;&gt;∅</title>
<path fill="none" stroke="black" d="M368.75,-106.03C384.98,-91.01 406.57,-71.04 423.69,-55.19"/>
<polygon fill="black" stroke="black" points="426.25,-57.6 431.21,-48.23 421.49,-52.46 426.25,-57.6"/>
<text text-anchor="middle" x="398.5" y="-85.8" font-family="Times,serif" font-size="14.00">b</text>
</g>
<!-- q0q1q2 -->
<g id="node9" class="node">
<title>q0q1q2</title>
<ellipse fill="none" stroke="black" cx="453" cy="-269" rx="29" ry="29"/>
<ellipse fill="none" stroke="black" cx="453" cy="-269" rx="33" ry="33"/>
<text text-anchor="start" x="436.5" y="-266.3" font-family="Times,serif" font-size="14.00">q</text>
<text text-anchor="start" x="443.5" y="-266.3" font-family="Times,serif" baseline-shift="sub" font-size="9.00">0</text>
<text text-anchor="start" x="447.5" y="-266.3" font-family="Times,serif" font-size="14.00">q</text>
<text text-anchor="start" x="454.5" y="-266.3" font-family="Times,serif" baseline-shift="sub" font-size="9.00">1</text>
<text text-anchor="start" x="458.5" y="-266.3" font-family="Times,serif" font-size="14.00">q</text>
<text text-anchor="start" x="465.5" y="-266.3" font-family="Times,serif" baseline-shift="sub" font-size="9.00">2</text>
</g>
<!-- q0q1&#45;&gt;q0q1q2 -->
<g id="edge9" class="edge">
<title>q0q1&#45;&gt;q0q1q2</title>
<path fill="none" stroke="black" d="M364.72,-154.07C379.83,-174.04 401.22,-202.28 420,-227 422,-229.63 424.06,-232.35 426.14,-235.08"/>
<polygon fill="black" stroke="black" points="423.52,-237.41 432.36,-243.24 429.09,-233.17 423.52,-237.41"/>
<text text-anchor="middle" x="398.5" y="-205.8" font-family="Times,serif" font-size="14.00">a</text>
</g>
<!-- q0q2 -->
<g id="node6" class="node">
<title>q0q2</title>
<ellipse fill="none" stroke="black" cx="453" cy="-189" rx="29" ry="29"/>
<text text-anchor="start" x="442" y="-186.3" font-family="Times,serif" font-size="14.00">q</text>
<text text-anchor="start" x="449" y="-186.3" font-family="Times,serif" baseline-shift="sub" font-size="9.00">0</text>
<text text-anchor="start" x="453" y="-186.3" font-family="Times,serif" font-size="14.00">q</text>
<text text-anchor="start" x="460" y="-186.3" font-family="Times,serif" baseline-shift="sub" font-size="9.00">2</text>
</g>
<!-- q0q2&#45;&gt;q1q2 -->
<g id="edge10" class="edge">
<title>q0q2&#45;&gt;q1q2</title>
<path fill="none" stroke="black" d="M480.55,-198.08C495.43,-203.16 514.29,-209.61 530.93,-215.3"/>
<polygon fill="black" stroke="black" points="529.83,-218.62 540.42,-218.55 532.09,-212 529.83,-218.62"/>
<text text-anchor="middle" x="512.5" y="-214.8" font-family="Times,serif" font-size="14.00">a,b</text>
</g>
<!-- q1q2&#45;&gt;q0q1 -->
<g id="edge11" class="edge">
<title>q1q2&#45;&gt;q0q1</title>
<path fill="none" stroke="black" d="M553.99,-200.73C539.08,-178.8 515.24,-149.89 486,-136 455.23,-121.38 416.33,-120.28 387.18,-122.32"/>
<polygon fill="black" stroke="black" points="386.59,-118.86 376.92,-123.2 387.18,-125.83 386.59,-118.86"/>
<text text-anchor="middle" x="453" y="-139.8" font-family="Times,serif" font-size="14.00">a</text>
</g>
<!-- q1q2&#45;&gt;q1q2 -->
<g id="edge12" class="edge">
<title>q1q2&#45;&gt;q1q2</title>
<path fill="none" stroke="black" d="M561.13,-260.38C561.01,-271.23 564.64,-280 572,-280 576.83,-280 580.05,-276.22 581.67,-270.56"/>
<polygon fill="black" stroke="black" points="585.17,-270.72 582.87,-260.38 578.22,-269.89 585.17,-270.72"/>
<text text-anchor="middle" x="572" y="-283.8" font-family="Times,serif" font-size="14.00">b</text>
</g>
<!-- start -->
<g id="node8" class="node">
<title>start</title>
<ellipse fill="black" stroke="black" cx="235" cy="-133" rx="0" ry="0"/>
</g>
<!-- start&#45;&gt;q0q1 -->
<g id="edge13" class="edge">
<title>start&#45;&gt;q0q1</title>
<path fill="none" stroke="black" d="M236.08,-133C237.91,-132.91 271.72,-131.33 300.84,-129.97"/>
<polygon fill="black" stroke="black" points="301.06,-133.46 310.88,-129.5 300.73,-126.47 301.06,-133.46"/>
</g>
<!-- q0q1q2&#45;&gt;q1q2 -->
<g id="edge14" class="edge">
<title>q0q1q2&#45;&gt;q1q2</title>
<path fill="none" stroke="black" d="M484.43,-258.59C498.54,-253.77 515.5,-247.97 530.66,-242.79"/>
<polygon fill="black" stroke="black" points="531.98,-246.04 540.31,-239.49 529.72,-239.42 531.98,-246.04"/>
<text text-anchor="middle" x="512.5" y="-254.8" font-family="Times,serif" font-size="14.00">b</text>
</g>
<!-- q0q1q2&#45;&gt;q0q1q2 -->
<g id="edge15" class="edge">
<title>q0q1q2&#45;&gt;q0q1q2</title>
<path fill="none" stroke="black" d="M442.88,-300.63C442.82,-311.37 446.2,-320 453,-320 457.46,-320 460.45,-316.28 461.96,-310.69"/>
<polygon fill="black" stroke="black" points="465.46,-310.96 463.12,-300.63 458.5,-310.16 465.46,-310.96"/>
<text text-anchor="middle" x="453" y="-323.8" font-family="Times,serif" font-size="14.00">a</text>
</g>
<!-- Legend -->
<g id="node10" class="node">
<title>Legend</title>
<polygon fill="none" stroke="black" points="623.5,-391 623.5,-416 846.5,-416 846.5,-391 623.5,-391"/>
<text text-anchor="start" x="697" y="-400.8" font-family="Times,serif" font-weight="bold" font-size="14.00">NFA2→DFA</text>
<polygon fill="none" stroke="black" points="623.5,-366 623.5,-391 846.5,-391 846.5,-366 623.5,-366"/>
<text text-anchor="start" x="718" y="-375.8" font-family="Times,serif" font-weight="bold" font-style="italic" font-size="14.00">States</text>
<polygon fill="none" stroke="black" points="623.5,-341 623.5,-366 846.5,-366 846.5,-341 623.5,-341"/>
<text text-anchor="start" x="628.5" y="-350.8" font-family="Times,serif" font-size="14.00">{∅, q</text>
<text text-anchor="start" x="661.5" y="-350.8" font-family="Times,serif" baseline-shift="sub" font-size="9.00">0</text>
<text text-anchor="start" x="665.5" y="-350.8" font-family="Times,serif" font-size="14.00">, q</text>
<text text-anchor="start" x="680.5" y="-350.8" font-family="Times,serif" baseline-shift="sub" font-size="9.00">1</text>
<text text-anchor="start" x="684.5" y="-350.8" font-family="Times,serif" font-size="14.00">, q</text>
<text text-anchor="start" x="699.5" y="-350.8" font-family="Times,serif" baseline-shift="sub" font-size="9.00">2</text>
<text text-anchor="start" x="703.5" y="-350.8" font-family="Times,serif" font-size="14.00">, q</text>
<text text-anchor="start" x="718.5" y="-350.8" font-family="Times,serif" baseline-shift="sub" font-size="9.00">0</text>
<text text-anchor="start" x="722.5" y="-350.8" font-family="Times,serif" font-size="14.00">q</text>
<text text-anchor="start" x="729.5" y="-350.8" font-family="Times,serif" baseline-shift="sub" font-size="9.00">1</text>
<text text-anchor="start" x="733.5" y="-350.8" font-family="Times,serif" font-size="14.00">, q</text>
<text text-anchor="start" x="748.5" y="-350.8" font-family="Times,serif" baseline-shift="sub" font-size="9.00">0</text>
<text text-anchor="start" x="752.5" y="-350.8" font-family="Times,serif" font-size="14.00">q</text>
<text text-anchor="start" x="759.5" y="-350.8" font-family="Times,serif" baseline-shift="sub" font-size="9.00">2</text>
<text text-anchor="start" x="763.5" y="-350.8" font-family="Times,serif" font-size="14.00">, q</text>
<text text-anchor="start" x="778.5" y="-350.8" font-family="Times,serif" baseline-shift="sub" font-size="9.00">1</text>
<text text-anchor="start" x="782.5" y="-350.8" font-family="Times,serif" font-size="14.00">q</text>
<text text-anchor="start" x="789.5" y="-350.8" font-family="Times,serif" baseline-shift="sub" font-size="9.00">2</text>
<text text-anchor="start" x="793.5" y="-350.8" font-family="Times,serif" font-size="14.00">, q</text>
<text text-anchor="start" x="808.5" y="-350.8" font-family="Times,serif" baseline-shift="sub" font-size="9.00">0</text>
<text text-anchor="start" x="812.5" y="-350.8" font-family="Times,serif" font-size="14.00">q</text>
<text text-anchor="start" x="819.5" y="-350.8" font-family="Times,serif" baseline-shift="sub" font-size="9.00">1</text>
<text text-anchor="start" x="823.5" y="-350.8" font-family="Times,serif" font-size="14.00">q</text>
<text text-anchor="start" x="830.5" y="-350.8" font-family="Times,serif" baseline-shift="sub" font-size="9.00">2</text>
<text text-anchor="start" x="834.5" y="-350.8" font-family="Times,serif" font-size="14.00">}</text>
<polygon fill="none" stroke="black" points="623.5,-316 623.5,-341 846.5,-341 846.5,-316 623.5,-316"/>
<text text-anchor="start" x="680" y="-325.8" font-family="Times,serif" font-weight="bold" font-style="italic" font-size="14.00">Transition function</text>
<polygon fill="none" stroke="black" points="623.5,-291 623.5,-316 709.5,-316 709.5,-291 623.5,-291"/>
<text text-anchor="start" x="662.5" y="-299.8" font-family="Times,serif" font-size="14.00">δ</text>
<polygon fill="none" stroke="black" points="709.5,-291 709.5,-316 772.5,-316 772.5,-291 709.5,-291"/>
<text text-anchor="start" x="737.5" y="-300.8" font-family="Times,serif" font-weight="bold" font-size="14.00">a</text>
<polygon fill="none" stroke="black" points="772.5,-291 772.5,-316 814.5,-316 814.5,-291 772.5,-291"/>
<text text-anchor="start" x="789.5" y="-300.8" font-family="Times,serif" font-weight="bold" font-size="14.00">b</text>
<polygon fill="none" stroke="black" points="814.5,-291 814.5,-316 846.5,-316 846.5,-291 814.5,-291"/>
<text text-anchor="start" x="825.5" y="-300.8" font-family="Times,serif" font-weight="bold" font-size="14.00">ℇ</text>
<polygon fill="none" stroke="black" points="623.5,-266 623.5,-291 709.5,-291 709.5,-266 623.5,-266"/>
<text text-anchor="start" x="660.5" y="-275.8" font-family="Times,serif" font-weight="bold" font-size="14.00">∅</text>
<polygon fill="none" stroke="black" points="709.5,-266 709.5,-291 772.5,-291 772.5,-266 709.5,-266"/>
<text text-anchor="start" x="735" y="-274.8" font-family="Times,serif" font-size="14.00">∅</text>
<polygon fill="none" stroke="black" points="772.5,-266 772.5,-291 814.5,-291 814.5,-266 772.5,-266"/>
<text text-anchor="start" x="787.5" y="-274.8" font-family="Times,serif" font-size="14.00">∅</text>
<polygon fill="none" stroke="black" points="814.5,-266 814.5,-291 846.5,-291 846.5,-266 814.5,-266"/>
<text text-anchor="start" x="824.5" y="-274.8" font-family="Times,serif" font-size="14.00">∅</text>
<polygon fill="none" stroke="black" points="623.5,-241 623.5,-266 709.5,-266 709.5,-241 623.5,-241"/>
<text text-anchor="start" x="660.5" y="-250.8" font-family="Times,serif" font-weight="bold" font-size="14.00">q</text>
<text text-anchor="start" x="668.5" y="-250.8" font-family="Times,serif" font-weight="bold" baseline-shift="sub" font-size="9.00">0</text>
<polygon fill="none" stroke="black" points="709.5,-241 709.5,-266 772.5,-266 772.5,-241 709.5,-241"/>
<text text-anchor="start" x="735.5" y="-250.8" font-family="Times,serif" font-size="14.00">q</text>
<text text-anchor="start" x="742.5" y="-250.8" font-family="Times,serif" baseline-shift="sub" font-size="9.00">2</text>
<polygon fill="none" stroke="black" points="772.5,-241 772.5,-266 814.5,-266 814.5,-241 772.5,-241"/>
<text text-anchor="start" x="787.5" y="-249.8" font-family="Times,serif" font-size="14.00">∅</text>
<polygon fill="none" stroke="black" points="814.5,-241 814.5,-266 846.5,-266 846.5,-241 814.5,-241"/>
<text text-anchor="start" x="824.5" y="-249.8" font-family="Times,serif" font-size="14.00">∅</text>
<polygon fill="none" stroke="black" points="623.5,-216 623.5,-241 709.5,-241 709.5,-216 623.5,-216"/>
<text text-anchor="start" x="660.5" y="-225.8" font-family="Times,serif" font-weight="bold" font-size="14.00">q</text>
<text text-anchor="start" x="668.5" y="-225.8" font-family="Times,serif" font-weight="bold" baseline-shift="sub" font-size="9.00">1</text>
<polygon fill="none" stroke="black" points="709.5,-216 709.5,-241 772.5,-241 772.5,-216 709.5,-216"/>
<text text-anchor="start" x="730" y="-225.8" font-family="Times,serif" font-size="14.00">q</text>
<text text-anchor="start" x="737" y="-225.8" font-family="Times,serif" baseline-shift="sub" font-size="9.00">0</text>
<text text-anchor="start" x="741" y="-225.8" font-family="Times,serif" font-size="14.00">q</text>
<text text-anchor="start" x="748" y="-225.8" font-family="Times,serif" baseline-shift="sub" font-size="9.00">1</text>
<polygon fill="none" stroke="black" points="772.5,-216 772.5,-241 814.5,-241 814.5,-216 772.5,-216"/>
<text text-anchor="start" x="787.5" y="-224.8" font-family="Times,serif" font-size="14.00">∅</text>
<polygon fill="none" stroke="black" points="814.5,-216 814.5,-241 846.5,-241 846.5,-216 814.5,-216"/>
<text text-anchor="start" x="824.5" y="-224.8" font-family="Times,serif" font-size="14.00">∅</text>
<polygon fill="none" stroke="black" points="623.5,-191 623.5,-216 709.5,-216 709.5,-191 623.5,-191"/>
<text text-anchor="start" x="660.5" y="-200.8" font-family="Times,serif" font-weight="bold" font-size="14.00">q</text>
<text text-anchor="start" x="668.5" y="-200.8" font-family="Times,serif" font-weight="bold" baseline-shift="sub" font-size="9.00">2</text>
<polygon fill="none" stroke="black" points="709.5,-191 709.5,-216 772.5,-216 772.5,-191 709.5,-191"/>
<text text-anchor="start" x="735.5" y="-200.8" font-family="Times,serif" font-size="14.00">q</text>
<text text-anchor="start" x="742.5" y="-200.8" font-family="Times,serif" baseline-shift="sub" font-size="9.00">1</text>
<polygon fill="none" stroke="black" points="772.5,-191 772.5,-216 814.5,-216 814.5,-191 772.5,-191"/>
<text text-anchor="start" x="782.5" y="-200.8" font-family="Times,serif" font-size="14.00">q</text>
<text text-anchor="start" x="789.5" y="-200.8" font-family="Times,serif" baseline-shift="sub" font-size="9.00">1</text>
<text text-anchor="start" x="793.5" y="-200.8" font-family="Times,serif" font-size="14.00">q</text>
<text text-anchor="start" x="800.5" y="-200.8" font-family="Times,serif" baseline-shift="sub" font-size="9.00">2</text>
<polygon fill="none" stroke="black" points="814.5,-191 814.5,-216 846.5,-216 846.5,-191 814.5,-191"/>
<text text-anchor="start" x="824.5" y="-199.8" font-family="Times,serif" font-size="14.00">∅</text>
<polygon fill="none" stroke="black" points="623.5,-166 623.5,-191 709.5,-191 709.5,-166 623.5,-166"/>
<text text-anchor="start" x="654.5" y="-175.8" font-family="Times,serif" font-weight="bold" font-size="14.00">q</text>
<text text-anchor="start" x="662.5" y="-175.8" font-family="Times,serif" font-weight="bold" baseline-shift="sub" font-size="9.00">0</text>
<text text-anchor="start" x="666.5" y="-175.8" font-family="Times,serif" font-weight="bold" font-size="14.00">q</text>
<text text-anchor="start" x="674.5" y="-175.8" font-family="Times,serif" font-weight="bold" baseline-shift="sub" font-size="9.00">1</text>
<polygon fill="none" stroke="black" points="709.5,-166 709.5,-191 772.5,-191 772.5,-166 709.5,-166"/>
<text text-anchor="start" x="724.5" y="-175.8" font-family="Times,serif" font-size="14.00">q</text>
<text text-anchor="start" x="731.5" y="-175.8" font-family="Times,serif" baseline-shift="sub" font-size="9.00">0</text>
<text text-anchor="start" x="735.5" y="-175.8" font-family="Times,serif" font-size="14.00">q</text>
<text text-anchor="start" x="742.5" y="-175.8" font-family="Times,serif" baseline-shift="sub" font-size="9.00">1</text>
<text text-anchor="start" x="746.5" y="-175.8" font-family="Times,serif" font-size="14.00">q</text>
<text text-anchor="start" x="753.5" y="-175.8" font-family="Times,serif" baseline-shift="sub" font-size="9.00">2</text>
<polygon fill="none" stroke="black" points="772.5,-166 772.5,-191 814.5,-191 814.5,-166 772.5,-166"/>
<text text-anchor="start" x="787.5" y="-174.8" font-family="Times,serif" font-size="14.00">∅</text>
<polygon fill="none" stroke="black" points="814.5,-166 814.5,-191 846.5,-191 846.5,-166 814.5,-166"/>
<text text-anchor="start" x="824.5" y="-174.8" font-family="Times,serif" font-size="14.00">∅</text>
<polygon fill="none" stroke="black" points="623.5,-141 623.5,-166 709.5,-166 709.5,-141 623.5,-141"/>
<text text-anchor="start" x="654.5" y="-150.8" font-family="Times,serif" font-weight="bold" font-size="14.00">q</text>
<text text-anchor="start" x="662.5" y="-150.8" font-family="Times,serif" font-weight="bold" baseline-shift="sub" font-size="9.00">0</text>
<text text-anchor="start" x="666.5" y="-150.8" font-family="Times,serif" font-weight="bold" font-size="14.00">q</text>
<text text-anchor="start" x="674.5" y="-150.8" font-family="Times,serif" font-weight="bold" baseline-shift="sub" font-size="9.00">2</text>
<polygon fill="none" stroke="black" points="709.5,-141 709.5,-166 772.5,-166 772.5,-141 709.5,-141"/>
<text text-anchor="start" x="730" y="-150.8" font-family="Times,serif" font-size="14.00">q</text>
<text text-anchor="start" x="737" y="-150.8" font-family="Times,serif" baseline-shift="sub" font-size="9.00">1</text>
<text text-anchor="start" x="741" y="-150.8" font-family="Times,serif" font-size="14.00">q</text>
<text text-anchor="start" x="748" y="-150.8" font-family="Times,serif" baseline-shift="sub" font-size="9.00">2</text>
<polygon fill="none" stroke="black" points="772.5,-141 772.5,-166 814.5,-166 814.5,-141 772.5,-141"/>
<text text-anchor="start" x="782.5" y="-150.8" font-family="Times,serif" font-size="14.00">q</text>
<text text-anchor="start" x="789.5" y="-150.8" font-family="Times,serif" baseline-shift="sub" font-size="9.00">1</text>
<text text-anchor="start" x="793.5" y="-150.8" font-family="Times,serif" font-size="14.00">q</text>
<text text-anchor="start" x="800.5" y="-150.8" font-family="Times,serif" baseline-shift="sub" font-size="9.00">2</text>
<polygon fill="none" stroke="black" points="814.5,-141 814.5,-166 846.5,-166 846.5,-141 814.5,-141"/>
<text text-anchor="start" x="824.5" y="-149.8" font-family="Times,serif" font-size="14.00">∅</text>
<polygon fill="none" stroke="black" points="623.5,-116 623.5,-141 709.5,-141 709.5,-116 623.5,-116"/>
<text text-anchor="start" x="654.5" y="-125.8" font-family="Times,serif" font-weight="bold" font-size="14.00">q</text>
<text text-anchor="start" x="662.5" y="-125.8" font-family="Times,serif" font-weight="bold" baseline-shift="sub" font-size="9.00">1</text>
<text text-anchor="start" x="666.5" y="-125.8" font-family="Times,serif" font-weight="bold" font-size="14.00">q</text>
<text text-anchor="start" x="674.5" y="-125.8" font-family="Times,serif" font-weight="bold" baseline-shift="sub" font-size="9.00">2</text>
<polygon fill="none" stroke="black" points="709.5,-116 709.5,-141 772.5,-141 772.5,-116 709.5,-116"/>
<text text-anchor="start" x="730" y="-125.8" font-family="Times,serif" font-size="14.00">q</text>
<text text-anchor="start" x="737" y="-125.8" font-family="Times,serif" baseline-shift="sub" font-size="9.00">0</text>
<text text-anchor="start" x="741" y="-125.8" font-family="Times,serif" font-size="14.00">q</text>
<text text-anchor="start" x="748" y="-125.8" font-family="Times,serif" baseline-shift="sub" font-size="9.00">1</text>
<polygon fill="none" stroke="black" points="772.5,-116 772.5,-141 814.5,-141 814.5,-116 772.5,-116"/>
<text text-anchor="start" x="782.5" y="-125.8" font-family="Times,serif" font-size="14.00">q</text>
<text text-anchor="start" x="789.5" y="-125.8" font-family="Times,serif" baseline-shift="sub" font-size="9.00">1</text>
<text text-anchor="start" x="793.5" y="-125.8" font-family="Times,serif" font-size="14.00">q</text>
<text text-anchor="start" x="800.5" y="-125.8" font-family="Times,serif" baseline-shift="sub" font-size="9.00">2</text>
<polygon fill="none" stroke="black" points="814.5,-116 814.5,-141 846.5,-141 846.5,-116 814.5,-116"/>
<text text-anchor="start" x="824.5" y="-124.8" font-family="Times,serif" font-size="14.00">∅</text>
<polygon fill="none" stroke="black" points="623.5,-91 623.5,-116 709.5,-116 709.5,-91 623.5,-91"/>
<text text-anchor="start" x="648.5" y="-100.8" font-family="Times,serif" font-weight="bold" font-size="14.00">q</text>
<text text-anchor="start" x="656.5" y="-100.8" font-family="Times,serif" font-weight="bold" baseline-shift="sub" font-size="9.00">0</text>
<text text-anchor="start" x="660.5" y="-100.8" font-family="Times,serif" font-weight="bold" font-size="14.00">q</text>
<text text-anchor="start" x="668.5" y="-100.8" font-family="Times,serif" font-weight="bold" baseline-shift="sub" font-size="9.00">1</text>
<text text-anchor="start" x="672.5" y="-100.8" font-family="Times,serif" font-weight="bold" font-size="14.00">q</text>
<text text-anchor="start" x="680.5" y="-100.8" font-family="Times,serif" font-weight="bold" baseline-shift="sub" font-size="9.00">2</text>
<polygon fill="none" stroke="black" points="709.5,-91 709.5,-116 772.5,-116 772.5,-91 709.5,-91"/>
<text text-anchor="start" x="724.5" y="-100.8" font-family="Times,serif" font-size="14.00">q</text>
<text text-anchor="start" x="731.5" y="-100.8" font-family="Times,serif" baseline-shift="sub" font-size="9.00">0</text>
<text text-anchor="start" x="735.5" y="-100.8" font-family="Times,serif" font-size="14.00">q</text>
<text text-anchor="start" x="742.5" y="-100.8" font-family="Times,serif" baseline-shift="sub" font-size="9.00">1</text>
<text text-anchor="start" x="746.5" y="-100.8" font-family="Times,serif" font-size="14.00">q</text>
<text text-anchor="start" x="753.5" y="-100.8" font-family="Times,serif" baseline-shift="sub" font-size="9.00">2</text>
<polygon fill="none" stroke="black" points="772.5,-91 772.5,-116 814.5,-116 814.5,-91 772.5,-91"/>
<text text-anchor="start" x="782.5" y="-100.8" font-family="Times,serif" font-size="14.00">q</text>
<text text-anchor="start" x="789.5" y="-100.8" font-family="Times,serif" baseline-shift="sub" font-size="9.00">1</text>
<text text-anchor="start" x="793.5" y="-100.8" font-family="Times,serif" font-size="14.00">q</text>
<text text-anchor="start" x="800.5" y="-100.8" font-family="Times,serif" baseline-shift="sub" font-size="9.00">2</text>
<polygon fill="none" stroke="black" points="814.5,-91 814.5,-116 846.5,-116 846.5,-91 814.5,-91"/>
<text text-anchor="start" x="824.5" y="-99.8" font-family="Times,serif" font-size="14.00">∅</text>
<polygon fill="none" stroke="black" points="623.5,-66 623.5,-91 846.5,-91 846.5,-66 623.5,-66"/>
<text text-anchor="start" x="691.5" y="-75.8" font-family="Times,serif" font-weight="bold" font-style="italic" font-size="14.00">Start state: </text>
<text text-anchor="start" x="756.5" y="-75.8" font-family="Times,serif" font-size="14.00">q</text>
<text text-anchor="start" x="763.5" y="-75.8" font-family="Times,serif" baseline-shift="sub" font-size="9.00">0</text>
<text text-anchor="start" x="767.5" y="-75.8" font-family="Times,serif" font-size="14.00">q</text>
<text text-anchor="start" x="774.5" y="-75.8" font-family="Times,serif" baseline-shift="sub" font-size="9.00">1</text>
<polygon fill="none" stroke="black" points="623.5,-41 623.5,-66 846.5,-66 846.5,-41 623.5,-41"/>
<text text-anchor="start" x="631.5" y="-50.8" font-family="Times,serif" font-weight="bold" font-style="italic" font-size="14.00">Accept states: </text>
<text text-anchor="start" x="712.5" y="-50.8" font-family="Times,serif" font-size="14.00">{q</text>
<text text-anchor="start" x="726.5" y="-50.8" font-family="Times,serif" baseline-shift="sub" font-size="9.00">1</text>
<text text-anchor="start" x="730.5" y="-50.8" font-family="Times,serif" font-size="14.00">, q</text>
<text text-anchor="start" x="745.5" y="-50.8" font-family="Times,serif" baseline-shift="sub" font-size="9.00">0</text>
<text text-anchor="start" x="749.5" y="-50.8" font-family="Times,serif" font-size="14.00">q</text>
<text text-anchor="start" x="756.5" y="-50.8" font-family="Times,serif" baseline-shift="sub" font-size="9.00">1</text>
<text text-anchor="start" x="760.5" y="-50.8" font-family="Times,serif" font-size="14.00">, q</text>
<text text-anchor="start" x="775.5" y="-50.8" font-family="Times,serif" baseline-shift="sub" font-size="9.00">1</text>
<text text-anchor="start" x="779.5" y="-50.8" font-family="Times,serif" font-size="14.00">q</text>
<text text-anchor="start" x="786.5" y="-50.8" font-family="Times,serif" baseline-shift="sub" font-size="9.00">2</text>
<text text-anchor="start" x="790.5" y="-50.8" font-family="Times,serif" font-size="14.00">, q</text>
<text text-anchor="start" x="805.5" y="-50.8" font-family="Times,serif" baseline-shift="sub" font-size="9.00">0</text>
<text text-anchor="start" x="809.5" y="-50.8" font-family="Times,serif" font-size="14.00">q</text>
<text text-anchor="start" x="816.5" y="-50.8" font-family="Times,serif" baseline-shift="sub" font-size="9.00">1</text>
<text text-anchor="start" x="820.5" y="-50.8" font-family="Times,serif" font-size="14.00">q</text>
<text text-anchor="start" x="827.5" y="-50.8" font-family="Times,serif" baseline-shift="sub" font-size="9.00">2</text>
<text text-anchor="start" x="831.5" y="-50.8" font-family="Times,serif" font-size="14.00">}</text>
</g>
</g>
</svg>
