<?xml version="1.0" encoding="UTF-8" standalone="no"?>
<!DOCTYPE svg PUBLIC "-//W3C//DTD SVG 1.1//EN"
 "http://www.w3.org/Graphics/SVG/1.1/DTD/svg11.dtd">
<!-- Generated by graphviz version 2.44.0 (20200408.0750)
 -->
<!-- Title: G Pages: 1 -->
<svg width="586pt" height="308pt"
 viewBox="0.00 0.00 586.00 308.00" xmlns="http://www.w3.org/2000/svg" xmlns:xlink="http://www.w3.org/1999/xlink">
<g id="graph0" class="graph" transform="scale(1 1) rotate(0) translate(4 304)">
<title>G</title>
<polygon fill="white" stroke="transparent" points="-4,4 -4,-304 582,-304 582,4 -4,4"/>
<!-- ∅ -->
<g id="node1" class="node">
<title>∅</title>
<ellipse fill="none" stroke="black" cx="47" cy="-33" rx="29" ry="29"/>
<text text-anchor="middle" x="47" y="-29.3" font-family="Times,serif" font-size="14.00">∅</text>
</g>
<!-- ∅&#45;&gt;∅ -->
<g id="edge1" class="edge">
<title>∅&#45;&gt;∅</title>
<path fill="none" stroke="black" d="M38.39,-60.99C38.11,-71.42 40.98,-80 47,-80 50.86,-80 53.42,-76.48 54.69,-71.2"/>
<polygon fill="black" stroke="black" points="58.2,-71.26 55.61,-60.99 51.23,-70.63 58.2,-71.26"/>
<text text-anchor="middle" x="47" y="-83.8" font-family="Times,serif" font-size="14.00">0,1</text>
</g>
<!-- q0 -->
<g id="node2" class="node">
<title>q0</title>
<ellipse fill="none" stroke="black" cx="127" cy="-110" rx="29" ry="29"/>
<text text-anchor="start" x="121.5" y="-107.3" font-family="Times,serif" font-size="14.00">q</text>
<text text-anchor="start" x="128.5" y="-107.3" font-family="Times,serif" baseline-shift="sub" font-size="9.00">0</text>
</g>
<!-- q1q2 -->
<g id="node4" class="node">
<title>q1q2</title>
<ellipse fill="none" stroke="black" cx="247" cy="-150" rx="29" ry="29"/>
<ellipse fill="none" stroke="black" cx="247" cy="-150" rx="33" ry="33"/>
<text text-anchor="start" x="236" y="-147.3" font-family="Times,serif" font-size="14.00">q</text>
<text text-anchor="start" x="243" y="-147.3" font-family="Times,serif" baseline-shift="sub" font-size="9.00">1</text>
<text text-anchor="start" x="247" y="-147.3" font-family="Times,serif" font-size="14.00">q</text>
<text text-anchor="start" x="254" y="-147.3" font-family="Times,serif" baseline-shift="sub" font-size="9.00">2</text>
</g>
<!-- q0&#45;&gt;q1q2 -->
<g id="edge2" class="edge">
<title>q0&#45;&gt;q1q2</title>
<path fill="none" stroke="black" d="M154.78,-119.08C169.9,-124.2 189.09,-130.71 205.97,-136.43"/>
<polygon fill="black" stroke="black" points="204.99,-139.79 215.59,-139.69 207.24,-133.16 204.99,-139.79"/>
<text text-anchor="middle" x="187" y="-135.8" font-family="Times,serif" font-size="14.00">0,1</text>
</g>
<!-- q0q2 -->
<g id="node3" class="node">
<title>q0q2</title>
<ellipse fill="none" stroke="black" cx="363" cy="-150" rx="29" ry="29"/>
<text text-anchor="start" x="352" y="-147.3" font-family="Times,serif" font-size="14.00">q</text>
<text text-anchor="start" x="359" y="-147.3" font-family="Times,serif" baseline-shift="sub" font-size="9.00">0</text>
<text text-anchor="start" x="363" y="-147.3" font-family="Times,serif" font-size="14.00">q</text>
<text text-anchor="start" x="370" y="-147.3" font-family="Times,serif" baseline-shift="sub" font-size="9.00">2</text>
</g>
<!-- q0q2&#45;&gt;q1q2 -->
<g id="edge3" class="edge">
<title>q0q2&#45;&gt;q1q2</title>
<path fill="none" stroke="black" d="M336.23,-137.98C329.76,-135.51 322.74,-133.27 316,-132 306.57,-130.22 296.52,-131.23 287.13,-133.48"/>
<polygon fill="black" stroke="black" points="285.88,-130.2 277.24,-136.34 287.82,-136.92 285.88,-130.2"/>
<text text-anchor="middle" x="307" y="-135.8" font-family="Times,serif" font-size="14.00">0,1</text>
</g>
<!-- q1q2&#45;&gt;q0q2 -->
<g id="edge4" class="edge">
<title>q1q2&#45;&gt;q0q2</title>
<path fill="none" stroke="black" d="M280.06,-150C293.49,-150 309.23,-150 323.3,-150"/>
<polygon fill="black" stroke="black" points="323.67,-153.5 333.67,-150 323.67,-146.5 323.67,-153.5"/>
<text text-anchor="middle" x="307" y="-153.8" font-family="Times,serif" font-size="14.00">0</text>
</g>
<!-- q1q2&#45;&gt;q1q2 -->
<g id="edge5" class="edge">
<title>q1q2&#45;&gt;q1q2</title>
<path fill="none" stroke="black" d="M235.76,-181.12C235.58,-192.1 239.32,-201 247,-201 252.04,-201 255.38,-197.17 257.04,-191.43"/>
<polygon fill="black" stroke="black" points="260.56,-191.46 258.24,-181.12 253.6,-190.65 260.56,-191.46"/>
<text text-anchor="middle" x="247" y="-204.8" font-family="Times,serif" font-size="14.00">1</text>
</g>
<!-- start -->
<g id="node5" class="node">
<title>start</title>
<ellipse fill="black" stroke="black" cx="0" cy="-110" rx="0" ry="0"/>
</g>
<!-- start&#45;&gt;q0 -->
<g id="edge6" class="edge">
<title>start&#45;&gt;q0</title>
<path fill="none" stroke="black" d="M1.09,-110C3.46,-110 51.77,-110 87.6,-110"/>
<polygon fill="black" stroke="black" points="87.79,-113.5 97.79,-110 87.79,-106.5 87.79,-113.5"/>
</g>
<!-- q0q1q2 -->
<g id="node6" class="node">
<title>q0q1q2</title>
<ellipse fill="none" stroke="black" cx="127" cy="-190" rx="29" ry="29"/>
<ellipse fill="none" stroke="black" cx="127" cy="-190" rx="33" ry="33"/>
<text text-anchor="start" x="110.5" y="-187.3" font-family="Times,serif" font-size="14.00">q</text>
<text text-anchor="start" x="117.5" y="-187.3" font-family="Times,serif" baseline-shift="sub" font-size="9.00">0</text>
<text text-anchor="start" x="121.5" y="-187.3" font-family="Times,serif" font-size="14.00">q</text>
<text text-anchor="start" x="128.5" y="-187.3" font-family="Times,serif" baseline-shift="sub" font-size="9.00">1</text>
<text text-anchor="start" x="132.5" y="-187.3" font-family="Times,serif" font-size="14.00">q</text>
<text text-anchor="start" x="139.5" y="-187.3" font-family="Times,serif" baseline-shift="sub" font-size="9.00">2</text>
</g>
<!-- q0q1q2&#45;&gt;q1q2 -->
<g id="edge7" class="edge">
<title>q0q1q2&#45;&gt;q1q2</title>
<path fill="none" stroke="black" d="M158.39,-179.7C172.73,-174.84 190.04,-168.97 205.48,-163.74"/>
<polygon fill="black" stroke="black" points="206.96,-166.93 215.3,-160.41 204.71,-160.3 206.96,-166.93"/>
<text text-anchor="middle" x="187" y="-175.8" font-family="Times,serif" font-size="14.00">1</text>
</g>
<!-- q0q1q2&#45;&gt;q0q1q2 -->
<g id="edge8" class="edge">
<title>q0q1q2&#45;&gt;q0q1q2</title>
<path fill="none" stroke="black" d="M115.76,-221.12C115.58,-232.1 119.32,-241 127,-241 132.04,-241 135.38,-237.17 137.04,-231.43"/>
<polygon fill="black" stroke="black" points="140.56,-231.46 138.24,-221.12 133.6,-230.65 140.56,-231.46"/>
<text text-anchor="middle" x="127" y="-244.8" font-family="Times,serif" font-size="14.00">0</text>
</g>
<!-- Legend -->
<g id="node7" class="node">
<title>Legend</title>
<polygon fill="none" stroke="black" points="410,-275 410,-300 578,-300 578,-275 410,-275"/>
<text text-anchor="start" x="445.5" y="-284.8" font-family="Times,serif" font-weight="bold" font-size="14.00">NFA3→DFA→S</text>
<polygon fill="none" stroke="black" points="410,-250 410,-275 578,-275 578,-250 410,-250"/>
<text text-anchor="start" x="477" y="-259.8" font-family="Times,serif" font-weight="bold" font-style="italic" font-size="14.00">States</text>
<polygon fill="none" stroke="black" points="410,-225 410,-250 578,-250 578,-225 410,-225"/>
<text text-anchor="start" x="421.5" y="-234.8" font-family="Times,serif" font-size="14.00">{∅, q</text>
<text text-anchor="start" x="454.5" y="-234.8" font-family="Times,serif" baseline-shift="sub" font-size="9.00">0</text>
<text text-anchor="start" x="458.5" y="-234.8" font-family="Times,serif" font-size="14.00">, q</text>
<text text-anchor="start" x="473.5" y="-234.8" font-family="Times,serif" baseline-shift="sub" font-size="9.00">0</text>
<text text-anchor="start" x="477.5" y="-234.8" font-family="Times,serif" font-size="14.00">q</text>
<text text-anchor="start" x="484.5" y="-234.8" font-family="Times,serif" baseline-shift="sub" font-size="9.00">2</text>
<text text-anchor="start" x="488.5" y="-234.8" font-family="Times,serif" font-size="14.00">, q</text>
<text text-anchor="start" x="503.5" y="-234.8" font-family="Times,serif" baseline-shift="sub" font-size="9.00">1</text>
<text text-anchor="start" x="507.5" y="-234.8" font-family="Times,serif" font-size="14.00">q</text>
<text text-anchor="start" x="514.5" y="-234.8" font-family="Times,serif" baseline-shift="sub" font-size="9.00">2</text>
<text text-anchor="start" x="518.5" y="-234.8" font-family="Times,serif" font-size="14.00">, q</text>
<text text-anchor="start" x="533.5" y="-234.8" font-family="Times,serif" baseline-shift="sub" font-size="9.00">0</text>
<text text-anchor="start" x="537.5" y="-234.8" font-family="Times,serif" font-size="14.00">q</text>
<text text-anchor="start" x="544.5" y="-234.8" font-family="Times,serif" baseline-shift="sub" font-size="9.00">1</text>
<text text-anchor="start" x="548.5" y="-234.8" font-family="Times,serif" font-size="14.00">q</text>
<text text-anchor="start" x="555.5" y="-234.8" font-family="Times,serif" baseline-shift="sub" font-size="9.00">2</text>
<text text-anchor="start" x="559.5" y="-234.8" font-family="Times,serif" font-size="14.00">}</text>
<polygon fill="none" stroke="black" points="410,-200 410,-225 578,-225 578,-200 410,-200"/>
<text text-anchor="start" x="439" y="-209.8" font-family="Times,serif" font-weight="bold" font-style="italic" font-size="14.00">Transition function</text>
<polygon fill="none" stroke="black" points="410,-175 410,-200 468,-200 468,-175 410,-175"/>
<text text-anchor="start" x="435" y="-183.8" font-family="Times,serif" font-size="14.00">δ</text>
<polygon fill="none" stroke="black" points="468,-175 468,-200 517,-200 517,-175 468,-175"/>
<text text-anchor="start" x="489" y="-184.8" font-family="Times,serif" font-weight="bold" font-size="14.00">0</text>
<polygon fill="none" stroke="black" points="517,-175 517,-200 552,-200 552,-175 517,-175"/>
<text text-anchor="start" x="531" y="-184.8" font-family="Times,serif" font-weight="bold" font-size="14.00">1</text>
<polygon fill="none" stroke="black" points="552,-175 552,-200 578,-200 578,-175 552,-175"/>
<text text-anchor="start" x="560" y="-184.8" font-family="Times,serif" font-weight="bold" font-size="14.00">ℇ</text>
<polygon fill="none" stroke="black" points="410,-150 410,-175 468,-175 468,-150 410,-150"/>
<text text-anchor="start" x="433" y="-159.8" font-family="Times,serif" font-weight="bold" font-size="14.00">∅</text>
<polygon fill="none" stroke="black" points="468,-150 468,-175 517,-175 517,-150 468,-150"/>
<text text-anchor="start" x="486.5" y="-158.8" font-family="Times,serif" font-size="14.00">∅</text>
<polygon fill="none" stroke="black" points="517,-150 517,-175 552,-175 552,-150 517,-150"/>
<text text-anchor="start" x="528.5" y="-158.8" font-family="Times,serif" font-size="14.00">∅</text>
<polygon fill="none" stroke="black" points="552,-150 552,-175 578,-175 578,-150 552,-150"/>
<text text-anchor="start" x="559" y="-158.8" font-family="Times,serif" font-size="14.00">∅</text>
<polygon fill="none" stroke="black" points="410,-125 410,-150 468,-150 468,-125 410,-125"/>
<text text-anchor="start" x="433" y="-134.8" font-family="Times,serif" font-weight="bold" font-size="14.00">q</text>
<text text-anchor="start" x="441" y="-134.8" font-family="Times,serif" font-weight="bold" baseline-shift="sub" font-size="9.00">0</text>
<polygon fill="none" stroke="black" points="468,-125 468,-150 517,-150 517,-125 468,-125"/>
<text text-anchor="start" x="481.5" y="-134.8" font-family="Times,serif" font-size="14.00">q</text>
<text text-anchor="start" x="488.5" y="-134.8" font-family="Times,serif" baseline-shift="sub" font-size="9.00">1</text>
<text text-anchor="start" x="492.5" y="-134.8" font-family="Times,serif" font-size="14.00">q</text>
<text text-anchor="start" x="499.5" y="-134.8" font-family="Times,serif" baseline-shift="sub" font-size="9.00">2</text>
<polygon fill="none" stroke="black" points="517,-125 517,-150 552,-150 552,-125 517,-125"/>
<text text-anchor="start" x="523.5" y="-134.8" font-family="Times,serif" font-size="14.00">q</text>
<text text-anchor="start" x="530.5" y="-134.8" font-family="Times,serif" baseline-shift="sub" font-size="9.00">1</text>
<text text-anchor="start" x="534.5" y="-134.8" font-family="Times,serif" font-size="14.00">q</text>
<text text-anchor="start" x="541.5" y="-134.8" font-family="Times,serif" baseline-shift="sub" font-size="9.00">2</text>
<polygon fill="none" stroke="black" points="552,-125 552,-150 578,-150 578,-125 552,-125"/>
<text text-anchor="start" x="559" y="-133.8" font-family="Times,serif" font-size="14.00">∅</text>
<polygon fill="none" stroke="black" points="410,-100 410,-125 468,-125 468,-100 410,-100"/>
<text text-anchor="start" x="427" y="-109.8" font-family="Times,serif" font-weight="bold" font-size="14.00">q</text>
<text text-anchor="start" x="435" y="-109.8" font-family="Times,serif" font-weight="bold" baseline-shift="sub" font-size="9.00">0</text>
<text text-anchor="start" x="439" y="-109.8" font-family="Times,serif" font-weight="bold" font-size="14.00">q</text>
<text text-anchor="start" x="447" y="-109.8" font-family="Times,serif" font-weight="bold" baseline-shift="sub" font-size="9.00">2</text>
<polygon fill="none" stroke="black" points="468,-100 468,-125 517,-125 517,-100 468,-100"/>
<text text-anchor="start" x="481.5" y="-109.8" font-family="Times,serif" font-size="14.00">q</text>
<text text-anchor="start" x="488.5" y="-109.8" font-family="Times,serif" baseline-shift="sub" font-size="9.00">1</text>
<text text-anchor="start" x="492.5" y="-109.8" font-family="Times,serif" font-size="14.00">q</text>
<text text-anchor="start" x="499.5" y="-109.8" font-family="Times,serif" baseline-shift="sub" font-size="9.00">2</text>
<polygon fill="none" stroke="black" points="517,-100 517,-125 552,-125 552,-100 517,-100"/>
<text text-anchor="start" x="523.5" y="-109.8" font-family="Times,serif" font-size="14.00">q</text>
<text text-anchor="start" x="530.5" y="-109.8" font-family="Times,serif" baseline-shift="sub" font-size="9.00">1</text>
<text text-anchor="start" x="534.5" y="-109.8" font-family="Times,serif" font-size="14.00">q</text>
<text text-anchor="start" x="541.5" y="-109.8" font-family="Times,serif" baseline-shift="sub" font-size="9.00">2</text>
<polygon fill="none" stroke="black" points="552,-100 552,-125 578,-125 578,-100 552,-100"/>
<text text-anchor="start" x="559" y="-108.8" font-family="Times,serif" font-size="14.00">∅</text>
<polygon fill="none" stroke="black" points="410,-75 410,-100 468,-100 468,-75 410,-75"/>
<text text-anchor="start" x="427" y="-84.8" font-family="Times,serif" font-weight="bold" font-size="14.00">q</text>
<text text-anchor="start" x="435" y="-84.8" font-family="Times,serif" font-weight="bold" baseline-shift="sub" font-size="9.00">1</text>
<text text-anchor="start" x="439" y="-84.8" font-family="Times,serif" font-weight="bold" font-size="14.00">q</text>
<text text-anchor="start" x="447" y="-84.8" font-family="Times,serif" font-weight="bold" baseline-shift="sub" font-size="9.00">2</text>
<polygon fill="none" stroke="black" points="468,-75 468,-100 517,-100 517,-75 468,-75"/>
<text text-anchor="start" x="481.5" y="-84.8" font-family="Times,serif" font-size="14.00">q</text>
<text text-anchor="start" x="488.5" y="-84.8" font-family="Times,serif" baseline-shift="sub" font-size="9.00">0</text>
<text text-anchor="start" x="492.5" y="-84.8" font-family="Times,serif" font-size="14.00">q</text>
<text text-anchor="start" x="499.5" y="-84.8" font-family="Times,serif" baseline-shift="sub" font-size="9.00">2</text>
<polygon fill="none" stroke="black" points="517,-75 517,-100 552,-100 552,-75 517,-75"/>
<text text-anchor="start" x="523.5" y="-84.8" font-family="Times,serif" font-size="14.00">q</text>
<text text-anchor="start" x="530.5" y="-84.8" font-family="Times,serif" baseline-shift="sub" font-size="9.00">1</text>
<text text-anchor="start" x="534.5" y="-84.8" font-family="Times,serif" font-size="14.00">q</text>
<text text-anchor="start" x="541.5" y="-84.8" font-family="Times,serif" baseline-shift="sub" font-size="9.00">2</text>
<polygon fill="none" stroke="black" points="552,-75 552,-100 578,-100 578,-75 552,-75"/>
<text text-anchor="start" x="559" y="-83.8" font-family="Times,serif" font-size="14.00">∅</text>
<polygon fill="none" stroke="black" points="410,-50 410,-75 468,-75 468,-50 410,-50"/>
<text text-anchor="start" x="421" y="-59.8" font-family="Times,serif" font-weight="bold" font-size="14.00">q</text>
<text text-anchor="start" x="429" y="-59.8" font-family="Times,serif" font-weight="bold" baseline-shift="sub" font-size="9.00">0</text>
<text text-anchor="start" x="433" y="-59.8" font-family="Times,serif" font-weight="bold" font-size="14.00">q</text>
<text text-anchor="start" x="441" y="-59.8" font-family="Times,serif" font-weight="bold" baseline-shift="sub" font-size="9.00">1</text>
<text text-anchor="start" x="445" y="-59.8" font-family="Times,serif" font-weight="bold" font-size="14.00">q</text>
<text text-anchor="start" x="453" y="-59.8" font-family="Times,serif" font-weight="bold" baseline-shift="sub" font-size="9.00">2</text>
<polygon fill="none" stroke="black" points="468,-50 468,-75 517,-75 517,-50 468,-50"/>
<text text-anchor="start" x="476" y="-59.8" font-family="Times,serif" font-size="14.00">q</text>
<text text-anchor="start" x="483" y="-59.8" font-family="Times,serif" baseline-shift="sub" font-size="9.00">0</text>
<text text-anchor="start" x="487" y="-59.8" font-family="Times,serif" font-size="14.00">q</text>
<text text-anchor="start" x="494" y="-59.8" font-family="Times,serif" baseline-shift="sub" font-size="9.00">1</text>
<text text-anchor="start" x="498" y="-59.8" font-family="Times,serif" font-size="14.00">q</text>
<text text-anchor="start" x="505" y="-59.8" font-family="Times,serif" baseline-shift="sub" font-size="9.00">2</text>
<polygon fill="none" stroke="black" points="517,-50 517,-75 552,-75 552,-50 517,-50"/>
<text text-anchor="start" x="523.5" y="-59.8" font-family="Times,serif" font-size="14.00">q</text>
<text text-anchor="start" x="530.5" y="-59.8" font-family="Times,serif" baseline-shift="sub" font-size="9.00">1</text>
<text text-anchor="start" x="534.5" y="-59.8" font-family="Times,serif" font-size="14.00">q</text>
<text text-anchor="start" x="541.5" y="-59.8" font-family="Times,serif" baseline-shift="sub" font-size="9.00">2</text>
<polygon fill="none" stroke="black" points="552,-50 552,-75 578,-75 578,-50 552,-50"/>
<text text-anchor="start" x="559" y="-58.8" font-family="Times,serif" font-size="14.00">∅</text>
<polygon fill="none" stroke="black" points="410,-25 410,-50 578,-50 578,-25 410,-25"/>
<text text-anchor="start" x="456" y="-34.8" font-family="Times,serif" font-weight="bold" font-style="italic" font-size="14.00">Start state: </text>
<text text-anchor="start" x="521" y="-34.8" font-family="Times,serif" font-size="14.00">q</text>
<text text-anchor="start" x="528" y="-34.8" font-family="Times,serif" baseline-shift="sub" font-size="9.00">0</text>
<polygon fill="none" stroke="black" points="410,0 410,-25 578,-25 578,0 410,0"/>
<text text-anchor="start" x="415" y="-9.8" font-family="Times,serif" font-weight="bold" font-style="italic" font-size="14.00">Accept states: </text>
<text text-anchor="start" x="496" y="-9.8" font-family="Times,serif" font-size="14.00">{q</text>
<text text-anchor="start" x="510" y="-9.8" font-family="Times,serif" baseline-shift="sub" font-size="9.00">1</text>
<text text-anchor="start" x="514" y="-9.8" font-family="Times,serif" font-size="14.00">q</text>
<text text-anchor="start" x="521" y="-9.8" font-family="Times,serif" baseline-shift="sub" font-size="9.00">2</text>
<text text-anchor="start" x="525" y="-9.8" font-family="Times,serif" font-size="14.00">, q</text>
<text text-anchor="start" x="540" y="-9.8" font-family="Times,serif" baseline-shift="sub" font-size="9.00">0</text>
<text text-anchor="start" x="544" y="-9.8" font-family="Times,serif" font-size="14.00">q</text>
<text text-anchor="start" x="551" y="-9.8" font-family="Times,serif" baseline-shift="sub" font-size="9.00">1</text>
<text text-anchor="start" x="555" y="-9.8" font-family="Times,serif" font-size="14.00">q</text>
<text text-anchor="start" x="562" y="-9.8" font-family="Times,serif" baseline-shift="sub" font-size="9.00">2</text>
<text text-anchor="start" x="566" y="-9.8" font-family="Times,serif" font-size="14.00">}</text>
</g>
</g>
</svg>
