<?xml version="1.0" encoding="UTF-8" standalone="no"?>
<!DOCTYPE svg PUBLIC "-//W3C//DTD SVG 1.1//EN"
 "http://www.w3.org/Graphics/SVG/1.1/DTD/svg11.dtd">
<!-- Generated by graphviz version 2.44.0 (20200408.0750)
 -->
<!-- Title: G Pages: 1 -->
<svg width="481pt" height="258pt"
 viewBox="0.00 0.00 481.00 258.00" xmlns="http://www.w3.org/2000/svg" xmlns:xlink="http://www.w3.org/1999/xlink">
<g id="graph0" class="graph" transform="scale(1 1) rotate(0) translate(4 254)">
<title>G</title>
<polygon fill="white" stroke="transparent" points="-4,4 -4,-254 477,-254 477,4 -4,4"/>
<!-- q0 -->
<g id="node1" class="node">
<title>q0</title>
<ellipse fill="none" stroke="black" cx="66" cy="-125" rx="29" ry="29"/>
<text text-anchor="start" x="60.5" y="-122.3" font-family="Times,serif" font-size="14.00">q</text>
<text text-anchor="start" x="67.5" y="-122.3" font-family="Times,serif" baseline-shift="sub" font-size="9.00">0</text>
</g>
<!-- q1q2 -->
<g id="node3" class="node">
<title>q1q2</title>
<ellipse fill="none" stroke="black" cx="182" cy="-125" rx="29" ry="29"/>
<ellipse fill="none" stroke="black" cx="182" cy="-125" rx="33" ry="33"/>
<text text-anchor="start" x="171" y="-122.3" font-family="Times,serif" font-size="14.00">q</text>
<text text-anchor="start" x="178" y="-122.3" font-family="Times,serif" baseline-shift="sub" font-size="9.00">1</text>
<text text-anchor="start" x="182" y="-122.3" font-family="Times,serif" font-size="14.00">q</text>
<text text-anchor="start" x="189" y="-122.3" font-family="Times,serif" baseline-shift="sub" font-size="9.00">2</text>
</g>
<!-- q0&#45;&gt;q1q2 -->
<g id="edge1" class="edge">
<title>q0&#45;&gt;q1q2</title>
<path fill="none" stroke="black" d="M95.18,-125C108.23,-125 124.02,-125 138.48,-125"/>
<polygon fill="black" stroke="black" points="138.71,-128.5 148.71,-125 138.71,-121.5 138.71,-128.5"/>
<text text-anchor="middle" x="122" y="-128.8" font-family="Times,serif" font-size="14.00">0,1</text>
</g>
<!-- q0q2 -->
<g id="node2" class="node">
<title>q0q2</title>
<ellipse fill="none" stroke="black" cx="298" cy="-125" rx="29" ry="29"/>
<text text-anchor="start" x="287" y="-122.3" font-family="Times,serif" font-size="14.00">q</text>
<text text-anchor="start" x="294" y="-122.3" font-family="Times,serif" baseline-shift="sub" font-size="9.00">0</text>
<text text-anchor="start" x="298" y="-122.3" font-family="Times,serif" font-size="14.00">q</text>
<text text-anchor="start" x="305" y="-122.3" font-family="Times,serif" baseline-shift="sub" font-size="9.00">2</text>
</g>
<!-- q0q2&#45;&gt;q1q2 -->
<g id="edge2" class="edge">
<title>q0q2&#45;&gt;q1q2</title>
<path fill="none" stroke="black" d="M271.23,-112.98C264.76,-110.51 257.74,-108.27 251,-107 241.57,-105.22 231.52,-106.23 222.13,-108.48"/>
<polygon fill="black" stroke="black" points="220.88,-105.2 212.24,-111.34 222.82,-111.92 220.88,-105.2"/>
<text text-anchor="middle" x="242" y="-110.8" font-family="Times,serif" font-size="14.00">0,1</text>
</g>
<!-- q1q2&#45;&gt;q0q2 -->
<g id="edge3" class="edge">
<title>q1q2&#45;&gt;q0q2</title>
<path fill="none" stroke="black" d="M215.06,-125C228.49,-125 244.23,-125 258.3,-125"/>
<polygon fill="black" stroke="black" points="258.67,-128.5 268.67,-125 258.67,-121.5 258.67,-128.5"/>
<text text-anchor="middle" x="242" y="-128.8" font-family="Times,serif" font-size="14.00">0</text>
</g>
<!-- q1q2&#45;&gt;q1q2 -->
<g id="edge4" class="edge">
<title>q1q2&#45;&gt;q1q2</title>
<path fill="none" stroke="black" d="M170.76,-156.12C170.58,-167.1 174.32,-176 182,-176 187.04,-176 190.38,-172.17 192.04,-166.43"/>
<polygon fill="black" stroke="black" points="195.56,-166.46 193.24,-156.12 188.6,-165.65 195.56,-166.46"/>
<text text-anchor="middle" x="182" y="-179.8" font-family="Times,serif" font-size="14.00">1</text>
</g>
<!-- start -->
<g id="node4" class="node">
<title>start</title>
<ellipse fill="black" stroke="black" cx="0" cy="-125" rx="0" ry="0"/>
</g>
<!-- start&#45;&gt;q0 -->
<g id="edge5" class="edge">
<title>start&#45;&gt;q0</title>
<path fill="none" stroke="black" d="M1.05,-125C1.87,-125 13.45,-125 26.55,-125"/>
<polygon fill="black" stroke="black" points="26.7,-128.5 36.7,-125 26.7,-121.5 26.7,-128.5"/>
</g>
<!-- Legend -->
<g id="node5" class="node">
<title>Legend</title>
<polygon fill="none" stroke="black" points="345,-225 345,-250 473,-250 473,-225 345,-225"/>
<text text-anchor="start" x="350" y="-234.8" font-family="Times,serif" font-weight="bold" font-size="14.00">NFA3→DFA→S→S</text>
<polygon fill="none" stroke="black" points="345,-200 345,-225 473,-225 473,-200 345,-200"/>
<text text-anchor="start" x="392" y="-209.8" font-family="Times,serif" font-weight="bold" font-style="italic" font-size="14.00">States</text>
<polygon fill="none" stroke="black" points="345,-175 345,-200 473,-200 473,-175 345,-175"/>
<text text-anchor="start" x="366.5" y="-184.8" font-family="Times,serif" font-size="14.00">{q</text>
<text text-anchor="start" x="380.5" y="-184.8" font-family="Times,serif" baseline-shift="sub" font-size="9.00">0</text>
<text text-anchor="start" x="384.5" y="-184.8" font-family="Times,serif" font-size="14.00">, q</text>
<text text-anchor="start" x="399.5" y="-184.8" font-family="Times,serif" baseline-shift="sub" font-size="9.00">0</text>
<text text-anchor="start" x="403.5" y="-184.8" font-family="Times,serif" font-size="14.00">q</text>
<text text-anchor="start" x="410.5" y="-184.8" font-family="Times,serif" baseline-shift="sub" font-size="9.00">2</text>
<text text-anchor="start" x="414.5" y="-184.8" font-family="Times,serif" font-size="14.00">, q</text>
<text text-anchor="start" x="429.5" y="-184.8" font-family="Times,serif" baseline-shift="sub" font-size="9.00">1</text>
<text text-anchor="start" x="433.5" y="-184.8" font-family="Times,serif" font-size="14.00">q</text>
<text text-anchor="start" x="440.5" y="-184.8" font-family="Times,serif" baseline-shift="sub" font-size="9.00">2</text>
<text text-anchor="start" x="444.5" y="-184.8" font-family="Times,serif" font-size="14.00">}</text>
<polygon fill="none" stroke="black" points="345,-150 345,-175 473,-175 473,-150 345,-150"/>
<text text-anchor="start" x="354" y="-159.8" font-family="Times,serif" font-weight="bold" font-style="italic" font-size="14.00">Transition function</text>
<polygon fill="none" stroke="black" points="345,-125 345,-150 383,-150 383,-125 345,-125"/>
<text text-anchor="start" x="360" y="-133.8" font-family="Times,serif" font-size="14.00">δ</text>
<polygon fill="none" stroke="black" points="383,-125 383,-150 417,-150 417,-125 383,-125"/>
<text text-anchor="start" x="396.5" y="-134.8" font-family="Times,serif" font-weight="bold" font-size="14.00">0</text>
<polygon fill="none" stroke="black" points="417,-125 417,-150 450,-150 450,-125 417,-125"/>
<text text-anchor="start" x="430" y="-134.8" font-family="Times,serif" font-weight="bold" font-size="14.00">1</text>
<polygon fill="none" stroke="black" points="450,-125 450,-150 473,-150 473,-125 450,-125"/>
<text text-anchor="start" x="456.5" y="-134.8" font-family="Times,serif" font-weight="bold" font-size="14.00">ℇ</text>
<polygon fill="none" stroke="black" points="345,-100 345,-125 383,-125 383,-100 345,-100"/>
<text text-anchor="start" x="358" y="-109.8" font-family="Times,serif" font-weight="bold" font-size="14.00">q</text>
<text text-anchor="start" x="366" y="-109.8" font-family="Times,serif" font-weight="bold" baseline-shift="sub" font-size="9.00">0</text>
<polygon fill="none" stroke="black" points="383,-100 383,-125 417,-125 417,-100 383,-100"/>
<text text-anchor="start" x="389" y="-109.8" font-family="Times,serif" font-size="14.00">q</text>
<text text-anchor="start" x="396" y="-109.8" font-family="Times,serif" baseline-shift="sub" font-size="9.00">1</text>
<text text-anchor="start" x="400" y="-109.8" font-family="Times,serif" font-size="14.00">q</text>
<text text-anchor="start" x="407" y="-109.8" font-family="Times,serif" baseline-shift="sub" font-size="9.00">2</text>
<polygon fill="none" stroke="black" points="417,-100 417,-125 450,-125 450,-100 417,-100"/>
<text text-anchor="start" x="422.5" y="-109.8" font-family="Times,serif" font-size="14.00">q</text>
<text text-anchor="start" x="429.5" y="-109.8" font-family="Times,serif" baseline-shift="sub" font-size="9.00">1</text>
<text text-anchor="start" x="433.5" y="-109.8" font-family="Times,serif" font-size="14.00">q</text>
<text text-anchor="start" x="440.5" y="-109.8" font-family="Times,serif" baseline-shift="sub" font-size="9.00">2</text>
<polygon fill="none" stroke="black" points="450,-100 450,-125 473,-125 473,-100 450,-100"/>
<text text-anchor="start" x="455.5" y="-108.8" font-family="Times,serif" font-size="14.00">∅</text>
<polygon fill="none" stroke="black" points="345,-75 345,-100 383,-100 383,-75 345,-75"/>
<text text-anchor="start" x="352" y="-84.8" font-family="Times,serif" font-weight="bold" font-size="14.00">q</text>
<text text-anchor="start" x="360" y="-84.8" font-family="Times,serif" font-weight="bold" baseline-shift="sub" font-size="9.00">0</text>
<text text-anchor="start" x="364" y="-84.8" font-family="Times,serif" font-weight="bold" font-size="14.00">q</text>
<text text-anchor="start" x="372" y="-84.8" font-family="Times,serif" font-weight="bold" baseline-shift="sub" font-size="9.00">2</text>
<polygon fill="none" stroke="black" points="383,-75 383,-100 417,-100 417,-75 383,-75"/>
<text text-anchor="start" x="389" y="-84.8" font-family="Times,serif" font-size="14.00">q</text>
<text text-anchor="start" x="396" y="-84.8" font-family="Times,serif" baseline-shift="sub" font-size="9.00">1</text>
<text text-anchor="start" x="400" y="-84.8" font-family="Times,serif" font-size="14.00">q</text>
<text text-anchor="start" x="407" y="-84.8" font-family="Times,serif" baseline-shift="sub" font-size="9.00">2</text>
<polygon fill="none" stroke="black" points="417,-75 417,-100 450,-100 450,-75 417,-75"/>
<text text-anchor="start" x="422.5" y="-84.8" font-family="Times,serif" font-size="14.00">q</text>
<text text-anchor="start" x="429.5" y="-84.8" font-family="Times,serif" baseline-shift="sub" font-size="9.00">1</text>
<text text-anchor="start" x="433.5" y="-84.8" font-family="Times,serif" font-size="14.00">q</text>
<text text-anchor="start" x="440.5" y="-84.8" font-family="Times,serif" baseline-shift="sub" font-size="9.00">2</text>
<polygon fill="none" stroke="black" points="450,-75 450,-100 473,-100 473,-75 450,-75"/>
<text text-anchor="start" x="455.5" y="-83.8" font-family="Times,serif" font-size="14.00">∅</text>
<polygon fill="none" stroke="black" points="345,-50 345,-75 383,-75 383,-50 345,-50"/>
<text text-anchor="start" x="352" y="-59.8" font-family="Times,serif" font-weight="bold" font-size="14.00">q</text>
<text text-anchor="start" x="360" y="-59.8" font-family="Times,serif" font-weight="bold" baseline-shift="sub" font-size="9.00">1</text>
<text text-anchor="start" x="364" y="-59.8" font-family="Times,serif" font-weight="bold" font-size="14.00">q</text>
<text text-anchor="start" x="372" y="-59.8" font-family="Times,serif" font-weight="bold" baseline-shift="sub" font-size="9.00">2</text>
<polygon fill="none" stroke="black" points="383,-50 383,-75 417,-75 417,-50 383,-50"/>
<text text-anchor="start" x="389" y="-59.8" font-family="Times,serif" font-size="14.00">q</text>
<text text-anchor="start" x="396" y="-59.8" font-family="Times,serif" baseline-shift="sub" font-size="9.00">0</text>
<text text-anchor="start" x="400" y="-59.8" font-family="Times,serif" font-size="14.00">q</text>
<text text-anchor="start" x="407" y="-59.8" font-family="Times,serif" baseline-shift="sub" font-size="9.00">2</text>
<polygon fill="none" stroke="black" points="417,-50 417,-75 450,-75 450,-50 417,-50"/>
<text text-anchor="start" x="422.5" y="-59.8" font-family="Times,serif" font-size="14.00">q</text>
<text text-anchor="start" x="429.5" y="-59.8" font-family="Times,serif" baseline-shift="sub" font-size="9.00">1</text>
<text text-anchor="start" x="433.5" y="-59.8" font-family="Times,serif" font-size="14.00">q</text>
<text text-anchor="start" x="440.5" y="-59.8" font-family="Times,serif" baseline-shift="sub" font-size="9.00">2</text>
<polygon fill="none" stroke="black" points="450,-50 450,-75 473,-75 473,-50 450,-50"/>
<text text-anchor="start" x="455.5" y="-58.8" font-family="Times,serif" font-size="14.00">∅</text>
<polygon fill="none" stroke="black" points="345,-25 345,-50 473,-50 473,-25 345,-25"/>
<text text-anchor="start" x="371" y="-34.8" font-family="Times,serif" font-weight="bold" font-style="italic" font-size="14.00">Start state: </text>
<text text-anchor="start" x="436" y="-34.8" font-family="Times,serif" font-size="14.00">q</text>
<text text-anchor="start" x="443" y="-34.8" font-family="Times,serif" baseline-shift="sub" font-size="9.00">0</text>
<polygon fill="none" stroke="black" points="345,0 345,-25 473,-25 473,0 345,0"/>
<text text-anchor="start" x="357.5" y="-9.8" font-family="Times,serif" font-weight="bold" font-style="italic" font-size="14.00">Accept states: </text>
<text text-anchor="start" x="438.5" y="-9.8" font-family="Times,serif" font-size="14.00">q</text>
<text text-anchor="start" x="445.5" y="-9.8" font-family="Times,serif" baseline-shift="sub" font-size="9.00">1</text>
<text text-anchor="start" x="449.5" y="-9.8" font-family="Times,serif" font-size="14.00">q</text>
<text text-anchor="start" x="456.5" y="-9.8" font-family="Times,serif" baseline-shift="sub" font-size="9.00">2</text>
</g>
</g>
</svg>
