<?xml version="1.0" encoding="UTF-8" standalone="no"?>
<!DOCTYPE svg PUBLIC "-//W3C//DTD SVG 1.1//EN"
 "http://www.w3.org/Graphics/SVG/1.1/DTD/svg11.dtd">
<!-- Generated by graphviz version 2.44.0 (20200408.0750)
 -->
<!-- Title: G Pages: 1 -->
<svg width="474pt" height="258pt"
 viewBox="0.00 0.00 474.00 258.00" xmlns="http://www.w3.org/2000/svg" xmlns:xlink="http://www.w3.org/1999/xlink">
<g id="graph0" class="graph" transform="scale(1 1) rotate(0) translate(4 254)">
<title>G</title>
<polygon fill="white" stroke="transparent" points="-4,4 -4,-254 470,-254 470,4 -4,4"/>
<!-- q0 -->
<g id="node1" class="node">
<title>q0</title>
<ellipse fill="none" stroke="black" cx="66" cy="-125" rx="29" ry="29"/>
<text text-anchor="start" x="60.5" y="-122.3" font-family="Times,serif" font-size="14.00">q</text>
<text text-anchor="start" x="67.5" y="-122.3" font-family="Times,serif" baseline-shift="sub" font-size="9.00">0</text>
</g>
<!-- q1 -->
<g id="node2" class="node">
<title>q1</title>
<ellipse fill="none" stroke="black" cx="182" cy="-125" rx="29" ry="29"/>
<ellipse fill="none" stroke="black" cx="182" cy="-125" rx="33" ry="33"/>
<text text-anchor="start" x="176.5" y="-122.3" font-family="Times,serif" font-size="14.00">q</text>
<text text-anchor="start" x="183.5" y="-122.3" font-family="Times,serif" baseline-shift="sub" font-size="9.00">1</text>
</g>
<!-- q0&#45;&gt;q1 -->
<g id="edge1" class="edge">
<title>q0&#45;&gt;q1</title>
<path fill="none" stroke="black" d="M95.18,-125C108.23,-125 124.02,-125 138.48,-125"/>
<polygon fill="black" stroke="black" points="138.71,-128.5 148.71,-125 138.71,-121.5 138.71,-128.5"/>
<text text-anchor="middle" x="122" y="-128.8" font-family="Times,serif" font-size="14.00">0,1</text>
</g>
<!-- q1&#45;&gt;q0 -->
<g id="edge2" class="edge">
<title>q1&#45;&gt;q0</title>
<path fill="none" stroke="black" d="M152.12,-110.71C140.12,-106.4 125.99,-103.42 113,-106 109.31,-106.73 105.54,-107.77 101.83,-108.98"/>
<polygon fill="black" stroke="black" points="100.41,-105.77 92.23,-112.51 102.83,-112.34 100.41,-105.77"/>
<text text-anchor="middle" x="122" y="-109.8" font-family="Times,serif" font-size="14.00">0</text>
</g>
<!-- q1&#45;&gt;q1 -->
<g id="edge3" class="edge">
<title>q1&#45;&gt;q1</title>
<path fill="none" stroke="black" d="M170.76,-156.12C170.58,-167.1 174.32,-176 182,-176 187.04,-176 190.38,-172.17 192.04,-166.43"/>
<polygon fill="black" stroke="black" points="195.56,-166.46 193.24,-156.12 188.6,-165.65 195.56,-166.46"/>
<text text-anchor="middle" x="182" y="-179.8" font-family="Times,serif" font-size="14.00">1</text>
</g>
<!-- q2 -->
<g id="node3" class="node">
<title>q2</title>
<ellipse fill="none" stroke="black" cx="299" cy="-125" rx="29" ry="29"/>
<text text-anchor="start" x="293.5" y="-122.3" font-family="Times,serif" font-size="14.00">q</text>
<text text-anchor="start" x="300.5" y="-122.3" font-family="Times,serif" baseline-shift="sub" font-size="9.00">2</text>
</g>
<!-- q1&#45;&gt;q2 -->
<g id="edge4" class="edge">
<title>q1&#45;&gt;q2</title>
<path fill="none" stroke="black" d="M215.03,-125C228.83,-125 245.08,-125 259.53,-125"/>
<polygon fill="black" stroke="black" points="259.66,-128.5 269.66,-125 259.66,-121.5 259.66,-128.5"/>
<text text-anchor="middle" x="242.5" y="-128.8" font-family="Times,serif" font-size="14.00">0,ℇ</text>
</g>
<!-- q2&#45;&gt;q1 -->
<g id="edge5" class="edge">
<title>q2&#45;&gt;q1</title>
<path fill="none" stroke="black" d="M272.77,-112.51C266.17,-109.82 258.95,-107.38 252,-106 242.04,-104.02 231.4,-105.25 221.54,-107.83"/>
<polygon fill="black" stroke="black" points="220.5,-104.49 211.98,-110.79 222.57,-111.17 220.5,-104.49"/>
<text text-anchor="middle" x="242.5" y="-109.8" font-family="Times,serif" font-size="14.00">1</text>
</g>
<!-- start -->
<g id="node4" class="node">
<title>start</title>
<ellipse fill="black" stroke="black" cx="0" cy="-125" rx="0" ry="0"/>
</g>
<!-- start&#45;&gt;q0 -->
<g id="edge6" class="edge">
<title>start&#45;&gt;q0</title>
<path fill="none" stroke="black" d="M1.05,-125C1.87,-125 13.45,-125 26.55,-125"/>
<polygon fill="black" stroke="black" points="26.7,-128.5 36.7,-125 26.7,-121.5 26.7,-128.5"/>
</g>
<!-- Legend -->
<g id="node5" class="node">
<title>Legend</title>
<polygon fill="none" stroke="black" points="346,-225 346,-250 466,-250 466,-225 346,-225"/>
<text text-anchor="start" x="388.5" y="-234.8" font-family="Times,serif" font-weight="bold" font-size="14.00">NFA3</text>
<polygon fill="none" stroke="black" points="346,-200 346,-225 466,-225 466,-200 346,-200"/>
<text text-anchor="start" x="389" y="-209.8" font-family="Times,serif" font-weight="bold" font-style="italic" font-size="14.00">States</text>
<polygon fill="none" stroke="black" points="346,-175 346,-200 466,-200 466,-175 346,-175"/>
<text text-anchor="start" x="374.5" y="-184.8" font-family="Times,serif" font-size="14.00">{q</text>
<text text-anchor="start" x="388.5" y="-184.8" font-family="Times,serif" baseline-shift="sub" font-size="9.00">0</text>
<text text-anchor="start" x="392.5" y="-184.8" font-family="Times,serif" font-size="14.00">, q</text>
<text text-anchor="start" x="407.5" y="-184.8" font-family="Times,serif" baseline-shift="sub" font-size="9.00">1</text>
<text text-anchor="start" x="411.5" y="-184.8" font-family="Times,serif" font-size="14.00">, q</text>
<text text-anchor="start" x="426.5" y="-184.8" font-family="Times,serif" baseline-shift="sub" font-size="9.00">2</text>
<text text-anchor="start" x="430.5" y="-184.8" font-family="Times,serif" font-size="14.00">}</text>
<polygon fill="none" stroke="black" points="346,-150 346,-175 466,-175 466,-150 346,-150"/>
<text text-anchor="start" x="351" y="-159.8" font-family="Times,serif" font-weight="bold" font-style="italic" font-size="14.00">Transition function</text>
<polygon fill="none" stroke="black" points="346,-125 346,-150 368,-150 368,-125 346,-125"/>
<text text-anchor="start" x="353" y="-133.8" font-family="Times,serif" font-size="14.00">δ</text>
<polygon fill="none" stroke="black" points="368,-125 368,-150 422,-150 422,-125 368,-125"/>
<text text-anchor="start" x="391.5" y="-134.8" font-family="Times,serif" font-weight="bold" font-size="14.00">0</text>
<polygon fill="none" stroke="black" points="422,-125 422,-150 443,-150 443,-125 422,-125"/>
<text text-anchor="start" x="429" y="-134.8" font-family="Times,serif" font-weight="bold" font-size="14.00">1</text>
<polygon fill="none" stroke="black" points="443,-125 443,-150 466,-150 466,-125 443,-125"/>
<text text-anchor="start" x="449.5" y="-134.8" font-family="Times,serif" font-weight="bold" font-size="14.00">ℇ</text>
<polygon fill="none" stroke="black" points="346,-100 346,-125 368,-125 368,-100 346,-100"/>
<text text-anchor="start" x="351" y="-109.8" font-family="Times,serif" font-weight="bold" font-size="14.00">q</text>
<text text-anchor="start" x="359" y="-109.8" font-family="Times,serif" font-weight="bold" baseline-shift="sub" font-size="9.00">0</text>
<polygon fill="none" stroke="black" points="368,-100 368,-125 422,-125 422,-100 368,-100"/>
<text text-anchor="start" x="389.5" y="-109.8" font-family="Times,serif" font-size="14.00">q</text>
<text text-anchor="start" x="396.5" y="-109.8" font-family="Times,serif" baseline-shift="sub" font-size="9.00">1</text>
<polygon fill="none" stroke="black" points="422,-100 422,-125 443,-125 443,-100 422,-100"/>
<text text-anchor="start" x="427" y="-109.8" font-family="Times,serif" font-size="14.00">q</text>
<text text-anchor="start" x="434" y="-109.8" font-family="Times,serif" baseline-shift="sub" font-size="9.00">1</text>
<polygon fill="none" stroke="black" points="443,-100 443,-125 466,-125 466,-100 443,-100"/>
<text text-anchor="start" x="448.5" y="-108.8" font-family="Times,serif" font-size="14.00">∅</text>
<polygon fill="none" stroke="black" points="346,-75 346,-100 368,-100 368,-75 346,-75"/>
<text text-anchor="start" x="351" y="-84.8" font-family="Times,serif" font-weight="bold" font-size="14.00">q</text>
<text text-anchor="start" x="359" y="-84.8" font-family="Times,serif" font-weight="bold" baseline-shift="sub" font-size="9.00">1</text>
<polygon fill="none" stroke="black" points="368,-75 368,-100 422,-100 422,-75 368,-75"/>
<text text-anchor="start" x="373" y="-84.8" font-family="Times,serif" font-size="14.00">{q</text>
<text text-anchor="start" x="387" y="-84.8" font-family="Times,serif" baseline-shift="sub" font-size="9.00">0</text>
<text text-anchor="start" x="391" y="-84.8" font-family="Times,serif" font-size="14.00">, q</text>
<text text-anchor="start" x="406" y="-84.8" font-family="Times,serif" baseline-shift="sub" font-size="9.00">2</text>
<text text-anchor="start" x="410" y="-84.8" font-family="Times,serif" font-size="14.00">}</text>
<polygon fill="none" stroke="black" points="422,-75 422,-100 443,-100 443,-75 422,-75"/>
<text text-anchor="start" x="427" y="-84.8" font-family="Times,serif" font-size="14.00">q</text>
<text text-anchor="start" x="434" y="-84.8" font-family="Times,serif" baseline-shift="sub" font-size="9.00">1</text>
<polygon fill="none" stroke="black" points="443,-75 443,-100 466,-100 466,-75 443,-75"/>
<text text-anchor="start" x="449" y="-84.8" font-family="Times,serif" font-size="14.00">q</text>
<text text-anchor="start" x="456" y="-84.8" font-family="Times,serif" baseline-shift="sub" font-size="9.00">2</text>
<polygon fill="none" stroke="black" points="346,-50 346,-75 368,-75 368,-50 346,-50"/>
<text text-anchor="start" x="351" y="-59.8" font-family="Times,serif" font-weight="bold" font-size="14.00">q</text>
<text text-anchor="start" x="359" y="-59.8" font-family="Times,serif" font-weight="bold" baseline-shift="sub" font-size="9.00">2</text>
<polygon fill="none" stroke="black" points="368,-50 368,-75 422,-75 422,-50 368,-50"/>
<text text-anchor="start" x="389" y="-58.8" font-family="Times,serif" font-size="14.00">∅</text>
<polygon fill="none" stroke="black" points="422,-50 422,-75 443,-75 443,-50 422,-50"/>
<text text-anchor="start" x="427" y="-59.8" font-family="Times,serif" font-size="14.00">q</text>
<text text-anchor="start" x="434" y="-59.8" font-family="Times,serif" baseline-shift="sub" font-size="9.00">1</text>
<polygon fill="none" stroke="black" points="443,-50 443,-75 466,-75 466,-50 443,-50"/>
<text text-anchor="start" x="448.5" y="-58.8" font-family="Times,serif" font-size="14.00">∅</text>
<polygon fill="none" stroke="black" points="346,-25 346,-50 466,-50 466,-25 346,-25"/>
<text text-anchor="start" x="368" y="-34.8" font-family="Times,serif" font-weight="bold" font-style="italic" font-size="14.00">Start state: </text>
<text text-anchor="start" x="433" y="-34.8" font-family="Times,serif" font-size="14.00">q</text>
<text text-anchor="start" x="440" y="-34.8" font-family="Times,serif" baseline-shift="sub" font-size="9.00">0</text>
<polygon fill="none" stroke="black" points="346,0 346,-25 466,-25 466,0 346,0"/>
<text text-anchor="start" x="360" y="-9.8" font-family="Times,serif" font-weight="bold" font-style="italic" font-size="14.00">Accept states: </text>
<text text-anchor="start" x="441" y="-9.8" font-family="Times,serif" font-size="14.00">q</text>
<text text-anchor="start" x="448" y="-9.8" font-family="Times,serif" baseline-shift="sub" font-size="9.00">1</text>
</g>
</g>
</svg>
