<?xml version="1.0" encoding="UTF-8" standalone="no"?>
<!DOCTYPE svg PUBLIC "-//W3C//DTD SVG 1.1//EN"
 "http://www.w3.org/Graphics/SVG/1.1/DTD/svg11.dtd">
<!-- Generated by graphviz version 2.44.0 (20200408.0750)
 -->
<!-- Title: G Pages: 1 -->
<svg width="567pt" height="333pt"
 viewBox="0.00 0.00 567.00 333.00" xmlns="http://www.w3.org/2000/svg" xmlns:xlink="http://www.w3.org/1999/xlink">
<g id="graph0" class="graph" transform="scale(1 1) rotate(0) translate(4 329)">
<title>G</title>
<polygon fill="white" stroke="transparent" points="-4,4 -4,-329 563,-329 563,4 -4,4"/>
<!-- s -->
<g id="node1" class="node">
<title>s</title>
<ellipse fill="none" stroke="black" cx="66" cy="-232.5" rx="29" ry="29"/>
<text text-anchor="middle" x="66" y="-228.8" font-family="Times,serif" font-size="14.00">s</text>
</g>
<!-- q1 -->
<g id="node2" class="node">
<title>q1</title>
<ellipse fill="none" stroke="black" cx="173" cy="-274.5" rx="29" ry="29"/>
<ellipse fill="none" stroke="black" cx="173" cy="-274.5" rx="33" ry="33"/>
<text text-anchor="start" x="167.5" y="-271.8" font-family="Times,serif" font-size="14.00">q</text>
<text text-anchor="start" x="174.5" y="-271.8" font-family="Times,serif" baseline-shift="sub" font-size="9.00">1</text>
</g>
<!-- s&#45;&gt;q1 -->
<g id="edge1" class="edge">
<title>s&#45;&gt;q1</title>
<path fill="none" stroke="black" d="M93.23,-242.99C105.15,-247.76 119.52,-253.51 132.69,-258.78"/>
<polygon fill="black" stroke="black" points="131.44,-262.05 142.03,-262.51 134.04,-255.55 131.44,-262.05"/>
<text text-anchor="middle" x="117.5" y="-257.3" font-family="Times,serif" font-size="14.00">ℇ</text>
</g>
<!-- r1 -->
<g id="node4" class="node">
<title>r1</title>
<ellipse fill="none" stroke="black" cx="173" cy="-190.5" rx="29" ry="29"/>
<ellipse fill="none" stroke="black" cx="173" cy="-190.5" rx="33" ry="33"/>
<text text-anchor="start" x="168.5" y="-187.8" font-family="Times,serif" font-size="14.00">r</text>
<text text-anchor="start" x="173.5" y="-187.8" font-family="Times,serif" baseline-shift="sub" font-size="9.00">1</text>
</g>
<!-- s&#45;&gt;r1 -->
<g id="edge2" class="edge">
<title>s&#45;&gt;r1</title>
<path fill="none" stroke="black" d="M93.23,-222.01C105.15,-217.24 119.52,-211.49 132.69,-206.22"/>
<polygon fill="black" stroke="black" points="134.04,-209.45 142.03,-202.49 131.44,-202.95 134.04,-209.45"/>
<text text-anchor="middle" x="117.5" y="-217.3" font-family="Times,serif" font-size="14.00">ℇ</text>
</g>
<!-- q2 -->
<g id="node3" class="node">
<title>q2</title>
<ellipse fill="none" stroke="black" cx="278" cy="-287.5" rx="29" ry="29"/>
<text text-anchor="start" x="272.5" y="-284.8" font-family="Times,serif" font-size="14.00">q</text>
<text text-anchor="start" x="279.5" y="-284.8" font-family="Times,serif" baseline-shift="sub" font-size="9.00">2</text>
</g>
<!-- q1&#45;&gt;q2 -->
<g id="edge3" class="edge">
<title>q1&#45;&gt;q2</title>
<path fill="none" stroke="black" d="M206.03,-278.54C216.5,-279.86 228.23,-281.34 239.09,-282.72"/>
<polygon fill="black" stroke="black" points="238.81,-286.21 249.17,-283.99 239.69,-279.26 238.81,-286.21"/>
<text text-anchor="middle" x="227.5" y="-284.3" font-family="Times,serif" font-size="14.00">1</text>
</g>
<!-- q2&#45;&gt;q1 -->
<g id="edge4" class="edge">
<title>q2&#45;&gt;q1</title>
<path fill="none" stroke="black" d="M253.66,-271.26C246.68,-267.27 238.81,-263.55 231,-261.5 225.48,-260.05 219.63,-259.86 213.87,-260.45"/>
<polygon fill="black" stroke="black" points="212.91,-257.07 203.67,-262.26 214.13,-263.96 212.91,-257.07"/>
<text text-anchor="middle" x="227.5" y="-265.3" font-family="Times,serif" font-size="14.00">1</text>
</g>
<!-- r2 -->
<g id="node5" class="node">
<title>r2</title>
<ellipse fill="none" stroke="black" cx="278" cy="-208.5" rx="29" ry="29"/>
<text text-anchor="start" x="273.5" y="-205.8" font-family="Times,serif" font-size="14.00">r</text>
<text text-anchor="start" x="278.5" y="-205.8" font-family="Times,serif" baseline-shift="sub" font-size="9.00">2</text>
</g>
<!-- r1&#45;&gt;r2 -->
<g id="edge5" class="edge">
<title>r1&#45;&gt;r2</title>
<path fill="none" stroke="black" d="M205.74,-196.05C216.32,-197.89 228.2,-199.97 239.18,-201.89"/>
<polygon fill="black" stroke="black" points="238.91,-205.4 249.37,-203.67 240.12,-198.5 238.91,-205.4"/>
<text text-anchor="middle" x="227.5" y="-203.3" font-family="Times,serif" font-size="14.00">1</text>
</g>
<!-- r3 -->
<g id="node6" class="node">
<title>r3</title>
<ellipse fill="none" stroke="black" cx="379" cy="-162.5" rx="29" ry="29"/>
<text text-anchor="start" x="374.5" y="-159.8" font-family="Times,serif" font-size="14.00">r</text>
<text text-anchor="start" x="379.5" y="-159.8" font-family="Times,serif" baseline-shift="sub" font-size="9.00">3</text>
</g>
<!-- r2&#45;&gt;r3 -->
<g id="edge6" class="edge">
<title>r2&#45;&gt;r3</title>
<path fill="none" stroke="black" d="M304.49,-196.65C316.18,-191.22 330.23,-184.7 342.89,-178.81"/>
<polygon fill="black" stroke="black" points="344.65,-181.85 352.25,-174.47 341.7,-175.51 344.65,-181.85"/>
<text text-anchor="middle" x="328.5" y="-190.3" font-family="Times,serif" font-size="14.00">1</text>
</g>
<!-- r3&#45;&gt;r1 -->
<g id="edge7" class="edge">
<title>r3&#45;&gt;r1</title>
<path fill="none" stroke="black" d="M350.47,-156.75C324.11,-152.23 283.38,-147.87 249,-155.5 236.05,-158.37 222.69,-163.73 210.89,-169.4"/>
<polygon fill="black" stroke="black" points="209.16,-166.35 201.81,-173.97 212.31,-172.6 209.16,-166.35"/>
<text text-anchor="middle" x="278" y="-159.3" font-family="Times,serif" font-size="14.00">1</text>
</g>
<!-- start -->
<g id="node7" class="node">
<title>start</title>
<ellipse fill="black" stroke="black" cx="0" cy="-232.5" rx="0" ry="0"/>
</g>
<!-- start&#45;&gt;s -->
<g id="edge8" class="edge">
<title>start&#45;&gt;s</title>
<path fill="none" stroke="black" d="M1.05,-232.5C1.87,-232.5 13.45,-232.5 26.55,-232.5"/>
<polygon fill="black" stroke="black" points="26.7,-236 36.7,-232.5 26.7,-229 26.7,-236"/>
</g>
<!-- Legend -->
<g id="node8" class="node">
<title>Legend</title>
<polygon fill="none" stroke="black" points="426.5,-299.5 426.5,-324.5 559.5,-324.5 559.5,-299.5 426.5,-299.5"/>
<text text-anchor="start" x="475.5" y="-309.3" font-family="Times,serif" font-weight="bold" font-size="14.00">NFA4</text>
<polygon fill="none" stroke="black" points="426.5,-274.5 426.5,-299.5 559.5,-299.5 559.5,-274.5 426.5,-274.5"/>
<text text-anchor="start" x="476" y="-284.3" font-family="Times,serif" font-weight="bold" font-style="italic" font-size="14.00">States</text>
<polygon fill="none" stroke="black" points="426.5,-249.5 426.5,-274.5 559.5,-274.5 559.5,-249.5 426.5,-249.5"/>
<text text-anchor="start" x="439" y="-259.3" font-family="Times,serif" font-size="14.00">{s, q</text>
<text text-anchor="start" x="466" y="-259.3" font-family="Times,serif" baseline-shift="sub" font-size="9.00">1</text>
<text text-anchor="start" x="470" y="-259.3" font-family="Times,serif" font-size="14.00">, q</text>
<text text-anchor="start" x="485" y="-259.3" font-family="Times,serif" baseline-shift="sub" font-size="9.00">2</text>
<text text-anchor="start" x="489" y="-259.3" font-family="Times,serif" font-size="14.00">, r</text>
<text text-anchor="start" x="502" y="-259.3" font-family="Times,serif" baseline-shift="sub" font-size="9.00">1</text>
<text text-anchor="start" x="506" y="-259.3" font-family="Times,serif" font-size="14.00">, r</text>
<text text-anchor="start" x="519" y="-259.3" font-family="Times,serif" baseline-shift="sub" font-size="9.00">2</text>
<text text-anchor="start" x="523" y="-259.3" font-family="Times,serif" font-size="14.00">, r</text>
<text text-anchor="start" x="536" y="-259.3" font-family="Times,serif" baseline-shift="sub" font-size="9.00">3</text>
<text text-anchor="start" x="540" y="-259.3" font-family="Times,serif" font-size="14.00">}</text>
<polygon fill="none" stroke="black" points="426.5,-224.5 426.5,-249.5 559.5,-249.5 559.5,-224.5 426.5,-224.5"/>
<text text-anchor="start" x="438" y="-234.3" font-family="Times,serif" font-weight="bold" font-style="italic" font-size="14.00">Transition function</text>
<polygon fill="none" stroke="black" points="426.5,-199.5 426.5,-224.5 466.5,-224.5 466.5,-199.5 426.5,-199.5"/>
<text text-anchor="start" x="442.5" y="-208.3" font-family="Times,serif" font-size="14.00">δ</text>
<polygon fill="none" stroke="black" points="466.5,-199.5 466.5,-224.5 497.5,-224.5 497.5,-199.5 466.5,-199.5"/>
<text text-anchor="start" x="478.5" y="-209.3" font-family="Times,serif" font-weight="bold" font-size="14.00">1</text>
<polygon fill="none" stroke="black" points="497.5,-199.5 497.5,-224.5 559.5,-224.5 559.5,-199.5 497.5,-199.5"/>
<text text-anchor="start" x="523.5" y="-209.3" font-family="Times,serif" font-weight="bold" font-size="14.00">ℇ</text>
<polygon fill="none" stroke="black" points="426.5,-174.5 426.5,-199.5 466.5,-199.5 466.5,-174.5 426.5,-174.5"/>
<text text-anchor="start" x="443.5" y="-184.3" font-family="Times,serif" font-weight="bold" font-size="14.00">s</text>
<polygon fill="none" stroke="black" points="466.5,-174.5 466.5,-199.5 497.5,-199.5 497.5,-174.5 466.5,-174.5"/>
<text text-anchor="start" x="476" y="-183.3" font-family="Times,serif" font-size="14.00">∅</text>
<polygon fill="none" stroke="black" points="497.5,-174.5 497.5,-199.5 559.5,-199.5 559.5,-174.5 497.5,-174.5"/>
<text text-anchor="start" x="507.5" y="-184.3" font-family="Times,serif" font-size="14.00">{q</text>
<text text-anchor="start" x="521.5" y="-184.3" font-family="Times,serif" baseline-shift="sub" font-size="9.00">1</text>
<text text-anchor="start" x="525.5" y="-184.3" font-family="Times,serif" font-size="14.00">, r</text>
<text text-anchor="start" x="538.5" y="-184.3" font-family="Times,serif" baseline-shift="sub" font-size="9.00">1</text>
<text text-anchor="start" x="542.5" y="-184.3" font-family="Times,serif" font-size="14.00">}</text>
<polygon fill="none" stroke="black" points="426.5,-149.5 426.5,-174.5 466.5,-174.5 466.5,-149.5 426.5,-149.5"/>
<text text-anchor="start" x="440.5" y="-159.3" font-family="Times,serif" font-weight="bold" font-size="14.00">q</text>
<text text-anchor="start" x="448.5" y="-159.3" font-family="Times,serif" font-weight="bold" baseline-shift="sub" font-size="9.00">1</text>
<polygon fill="none" stroke="black" points="466.5,-149.5 466.5,-174.5 497.5,-174.5 497.5,-149.5 466.5,-149.5"/>
<text text-anchor="start" x="476.5" y="-159.3" font-family="Times,serif" font-size="14.00">q</text>
<text text-anchor="start" x="483.5" y="-159.3" font-family="Times,serif" baseline-shift="sub" font-size="9.00">2</text>
<polygon fill="none" stroke="black" points="497.5,-149.5 497.5,-174.5 559.5,-174.5 559.5,-149.5 497.5,-149.5"/>
<text text-anchor="start" x="522.5" y="-158.3" font-family="Times,serif" font-size="14.00">∅</text>
<polygon fill="none" stroke="black" points="426.5,-124.5 426.5,-149.5 466.5,-149.5 466.5,-124.5 426.5,-124.5"/>
<text text-anchor="start" x="440.5" y="-134.3" font-family="Times,serif" font-weight="bold" font-size="14.00">q</text>
<text text-anchor="start" x="448.5" y="-134.3" font-family="Times,serif" font-weight="bold" baseline-shift="sub" font-size="9.00">2</text>
<polygon fill="none" stroke="black" points="466.5,-124.5 466.5,-149.5 497.5,-149.5 497.5,-124.5 466.5,-124.5"/>
<text text-anchor="start" x="476.5" y="-134.3" font-family="Times,serif" font-size="14.00">q</text>
<text text-anchor="start" x="483.5" y="-134.3" font-family="Times,serif" baseline-shift="sub" font-size="9.00">1</text>
<polygon fill="none" stroke="black" points="497.5,-124.5 497.5,-149.5 559.5,-149.5 559.5,-124.5 497.5,-124.5"/>
<text text-anchor="start" x="522.5" y="-133.3" font-family="Times,serif" font-size="14.00">∅</text>
<polygon fill="none" stroke="black" points="426.5,-99.5 426.5,-124.5 466.5,-124.5 466.5,-99.5 426.5,-99.5"/>
<text text-anchor="start" x="441" y="-109.3" font-family="Times,serif" font-weight="bold" font-size="14.00">r</text>
<text text-anchor="start" x="448" y="-109.3" font-family="Times,serif" font-weight="bold" baseline-shift="sub" font-size="9.00">1</text>
<polygon fill="none" stroke="black" points="466.5,-99.5 466.5,-124.5 497.5,-124.5 497.5,-99.5 466.5,-99.5"/>
<text text-anchor="start" x="477.5" y="-109.3" font-family="Times,serif" font-size="14.00">r</text>
<text text-anchor="start" x="482.5" y="-109.3" font-family="Times,serif" baseline-shift="sub" font-size="9.00">2</text>
<polygon fill="none" stroke="black" points="497.5,-99.5 497.5,-124.5 559.5,-124.5 559.5,-99.5 497.5,-99.5"/>
<text text-anchor="start" x="522.5" y="-108.3" font-family="Times,serif" font-size="14.00">∅</text>
<polygon fill="none" stroke="black" points="426.5,-74.5 426.5,-99.5 466.5,-99.5 466.5,-74.5 426.5,-74.5"/>
<text text-anchor="start" x="441" y="-84.3" font-family="Times,serif" font-weight="bold" font-size="14.00">r</text>
<text text-anchor="start" x="448" y="-84.3" font-family="Times,serif" font-weight="bold" baseline-shift="sub" font-size="9.00">2</text>
<polygon fill="none" stroke="black" points="466.5,-74.5 466.5,-99.5 497.5,-99.5 497.5,-74.5 466.5,-74.5"/>
<text text-anchor="start" x="477.5" y="-84.3" font-family="Times,serif" font-size="14.00">r</text>
<text text-anchor="start" x="482.5" y="-84.3" font-family="Times,serif" baseline-shift="sub" font-size="9.00">3</text>
<polygon fill="none" stroke="black" points="497.5,-74.5 497.5,-99.5 559.5,-99.5 559.5,-74.5 497.5,-74.5"/>
<text text-anchor="start" x="522.5" y="-83.3" font-family="Times,serif" font-size="14.00">∅</text>
<polygon fill="none" stroke="black" points="426.5,-49.5 426.5,-74.5 466.5,-74.5 466.5,-49.5 426.5,-49.5"/>
<text text-anchor="start" x="441" y="-59.3" font-family="Times,serif" font-weight="bold" font-size="14.00">r</text>
<text text-anchor="start" x="448" y="-59.3" font-family="Times,serif" font-weight="bold" baseline-shift="sub" font-size="9.00">3</text>
<polygon fill="none" stroke="black" points="466.5,-49.5 466.5,-74.5 497.5,-74.5 497.5,-49.5 466.5,-49.5"/>
<text text-anchor="start" x="477.5" y="-59.3" font-family="Times,serif" font-size="14.00">r</text>
<text text-anchor="start" x="482.5" y="-59.3" font-family="Times,serif" baseline-shift="sub" font-size="9.00">1</text>
<polygon fill="none" stroke="black" points="497.5,-49.5 497.5,-74.5 559.5,-74.5 559.5,-49.5 497.5,-49.5"/>
<text text-anchor="start" x="522.5" y="-58.3" font-family="Times,serif" font-size="14.00">∅</text>
<polygon fill="none" stroke="black" points="426.5,-24.5 426.5,-49.5 559.5,-49.5 559.5,-24.5 426.5,-24.5"/>
<text text-anchor="start" x="457.5" y="-34.3" font-family="Times,serif" font-weight="bold" font-style="italic" font-size="14.00">Start state: </text>
<text text-anchor="start" x="522.5" y="-34.3" font-family="Times,serif" font-size="14.00">s</text>
<polygon fill="none" stroke="black" points="426.5,0.5 426.5,-24.5 559.5,-24.5 559.5,0.5 426.5,0.5"/>
<text text-anchor="start" x="431.5" y="-9.3" font-family="Times,serif" font-weight="bold" font-style="italic" font-size="14.00">Accept states: </text>
<text text-anchor="start" x="512.5" y="-9.3" font-family="Times,serif" font-size="14.00">{q</text>
<text text-anchor="start" x="526.5" y="-9.3" font-family="Times,serif" baseline-shift="sub" font-size="9.00">1</text>
<text text-anchor="start" x="530.5" y="-9.3" font-family="Times,serif" font-size="14.00">, r</text>
<text text-anchor="start" x="543.5" y="-9.3" font-family="Times,serif" baseline-shift="sub" font-size="9.00">1</text>
<text text-anchor="start" x="547.5" y="-9.3" font-family="Times,serif" font-size="14.00">}</text>
</g>
</g>
</svg>
