<?xml version="1.0" encoding="UTF-8" standalone="no"?>
<!DOCTYPE svg PUBLIC "-//W3C//DTD SVG 1.1//EN"
 "http://www.w3.org/Graphics/SVG/1.1/DTD/svg11.dtd">
<!-- Generated by graphviz version 2.44.0 (20200408.0750)
 -->
<!-- Title: G Pages: 1 -->
<svg width="483pt" height="137pt"
 viewBox="0.00 0.00 483.00 136.50" xmlns="http://www.w3.org/2000/svg" xmlns:xlink="http://www.w3.org/1999/xlink">
<g id="graph0" class="graph" transform="scale(1 1) rotate(0) translate(4 132.5)">
<title>G</title>
<polygon fill="white" stroke="transparent" points="-4,4 -4,-132.5 479,-132.5 479,4 -4,4"/>
<!-- q0 -->
<g id="node1" class="node">
<title>q0</title>
<ellipse fill="none" stroke="black" cx="66" cy="-62.5" rx="29" ry="29"/>
<text text-anchor="start" x="59" y="-59.8" font-family="Times,serif" font-size="14.00">q</text>
<text text-anchor="start" x="66" y="-59.8" font-family="Times,serif" baseline-shift="sub" font-size="14.00">0</text>
</g>
<!-- q1 -->
<g id="node2" class="node">
<title>q1</title>
<ellipse fill="none" stroke="black" cx="182" cy="-62.5" rx="29" ry="29"/>
<ellipse fill="none" stroke="black" cx="182" cy="-62.5" rx="33" ry="33"/>
<text text-anchor="start" x="175" y="-59.8" font-family="Times,serif" font-size="14.00">q</text>
<text text-anchor="start" x="182" y="-59.8" font-family="Times,serif" baseline-shift="sub" font-size="14.00">1</text>
</g>
<!-- q0&#45;&gt;q1 -->
<g id="edge1" class="edge">
<title>q0&#45;&gt;q1</title>
<path fill="none" stroke="black" d="M95.18,-62.5C108.23,-62.5 124.02,-62.5 138.48,-62.5"/>
<polygon fill="black" stroke="black" points="138.71,-66 148.71,-62.5 138.71,-59 138.71,-66"/>
<text text-anchor="middle" x="122" y="-66.3" font-family="Times,serif" font-size="14.00">0,1</text>
</g>
<!-- q1&#45;&gt;q0 -->
<g id="edge2" class="edge">
<title>q1&#45;&gt;q0</title>
<path fill="none" stroke="black" d="M152.12,-48.21C140.12,-43.9 125.99,-40.92 113,-43.5 109.31,-44.23 105.54,-45.27 101.83,-46.48"/>
<polygon fill="black" stroke="black" points="100.41,-43.27 92.23,-50.01 102.83,-49.84 100.41,-43.27"/>
<text text-anchor="middle" x="122" y="-47.3" font-family="Times,serif" font-size="14.00">0</text>
</g>
<!-- q1&#45;&gt;q1 -->
<g id="edge3" class="edge">
<title>q1&#45;&gt;q1</title>
<path fill="none" stroke="black" d="M170.76,-93.62C170.58,-104.6 174.32,-113.5 182,-113.5 187.04,-113.5 190.38,-109.67 192.04,-103.93"/>
<polygon fill="black" stroke="black" points="195.56,-103.96 193.24,-93.62 188.6,-103.15 195.56,-103.96"/>
<text text-anchor="middle" x="182" y="-117.3" font-family="Times,serif" font-size="14.00">1</text>
</g>
<!-- q2 -->
<g id="node3" class="node">
<title>q2</title>
<ellipse fill="none" stroke="black" cx="299" cy="-62.5" rx="29" ry="29"/>
<text text-anchor="start" x="292" y="-59.8" font-family="Times,serif" font-size="14.00">q</text>
<text text-anchor="start" x="299" y="-59.8" font-family="Times,serif" baseline-shift="sub" font-size="14.00">2</text>
</g>
<!-- q1&#45;&gt;q2 -->
<g id="edge4" class="edge">
<title>q1&#45;&gt;q2</title>
<path fill="none" stroke="black" d="M215.03,-62.5C228.83,-62.5 245.08,-62.5 259.53,-62.5"/>
<polygon fill="black" stroke="black" points="259.66,-66 269.66,-62.5 259.66,-59 259.66,-66"/>
<text text-anchor="middle" x="242.5" y="-66.3" font-family="Times,serif" font-size="14.00">0,ℇ</text>
</g>
<!-- q2&#45;&gt;q1 -->
<g id="edge5" class="edge">
<title>q2&#45;&gt;q1</title>
<path fill="none" stroke="black" d="M272.77,-50.01C266.17,-47.32 258.95,-44.88 252,-43.5 242.04,-41.52 231.4,-42.75 221.54,-45.33"/>
<polygon fill="black" stroke="black" points="220.5,-41.99 211.98,-48.29 222.57,-48.67 220.5,-41.99"/>
<text text-anchor="middle" x="242.5" y="-47.3" font-family="Times,serif" font-size="14.00">1</text>
</g>
<!-- start -->
<g id="node4" class="node">
<title>start</title>
<ellipse fill="black" stroke="black" cx="0" cy="-62.5" rx="0" ry="0"/>
</g>
<!-- start&#45;&gt;q0 -->
<g id="edge6" class="edge">
<title>start&#45;&gt;q0</title>
<path fill="none" stroke="black" d="M1.05,-62.5C1.87,-62.5 13.45,-62.5 26.55,-62.5"/>
<polygon fill="black" stroke="black" points="26.7,-66 36.7,-62.5 26.7,-59 26.7,-66"/>
</g>
<!-- Legend -->
<g id="node5" class="node">
<title>Legend</title>
<polygon fill="none" stroke="black" points="346.5,-99.5 346.5,-124.5 475.5,-124.5 475.5,-99.5 346.5,-99.5"/>
<text text-anchor="start" x="358.5" y="-109.3" font-family="Times,serif" font-style="italic" font-size="14.00">Transition function</text>
<polygon fill="none" stroke="black" points="346.5,-74.5 346.5,-99.5 371.5,-99.5 371.5,-74.5 346.5,-74.5"/>
<text text-anchor="start" x="355" y="-83.3" font-family="Times,serif" font-size="14.00">δ</text>
<polygon fill="none" stroke="black" points="371.5,-74.5 371.5,-99.5 427.5,-99.5 427.5,-74.5 371.5,-74.5"/>
<text text-anchor="start" x="396" y="-84.3" font-family="Times,serif" font-weight="bold" font-size="14.00">0</text>
<polygon fill="none" stroke="black" points="427.5,-74.5 427.5,-99.5 451.5,-99.5 451.5,-74.5 427.5,-74.5"/>
<text text-anchor="start" x="436" y="-84.3" font-family="Times,serif" font-weight="bold" font-size="14.00">1</text>
<polygon fill="none" stroke="black" points="451.5,-74.5 451.5,-99.5 475.5,-99.5 475.5,-74.5 451.5,-74.5"/>
<text text-anchor="start" x="458.5" y="-84.3" font-family="Times,serif" font-weight="bold" font-size="14.00">ℇ</text>
<polygon fill="none" stroke="black" points="346.5,-49.5 346.5,-74.5 371.5,-74.5 371.5,-49.5 346.5,-49.5"/>
<text text-anchor="start" x="351.5" y="-59.3" font-family="Times,serif" font-weight="bold" font-size="14.00">q</text>
<text text-anchor="start" x="359.5" y="-59.3" font-family="Times,serif" font-weight="bold" baseline-shift="sub" font-size="14.00">0</text>
<polygon fill="none" stroke="black" points="371.5,-49.5 371.5,-74.5 427.5,-74.5 427.5,-49.5 371.5,-49.5"/>
<text text-anchor="start" x="392.5" y="-59.3" font-family="Times,serif" font-size="14.00">q</text>
<text text-anchor="start" x="399.5" y="-59.3" font-family="Times,serif" baseline-shift="sub" font-size="14.00">1</text>
<polygon fill="none" stroke="black" points="427.5,-49.5 427.5,-74.5 451.5,-74.5 451.5,-49.5 427.5,-49.5"/>
<text text-anchor="start" x="432.5" y="-59.3" font-family="Times,serif" font-size="14.00">q</text>
<text text-anchor="start" x="439.5" y="-59.3" font-family="Times,serif" baseline-shift="sub" font-size="14.00">1</text>
<polygon fill="none" stroke="black" points="451.5,-49.5 451.5,-74.5 475.5,-74.5 475.5,-49.5 451.5,-49.5"/>
<text text-anchor="start" x="457.5" y="-58.3" font-family="Times,serif" font-size="14.00">∅</text>
<polygon fill="none" stroke="black" points="346.5,-24.5 346.5,-49.5 371.5,-49.5 371.5,-24.5 346.5,-24.5"/>
<text text-anchor="start" x="351.5" y="-34.3" font-family="Times,serif" font-weight="bold" font-size="14.00">q</text>
<text text-anchor="start" x="359.5" y="-34.3" font-family="Times,serif" font-weight="bold" baseline-shift="sub" font-size="14.00">1</text>
<polygon fill="none" stroke="black" points="371.5,-24.5 371.5,-49.5 427.5,-49.5 427.5,-24.5 371.5,-24.5"/>
<text text-anchor="start" x="376.5" y="-34.3" font-family="Times,serif" font-size="14.00">{q</text>
<text text-anchor="start" x="390.5" y="-34.3" font-family="Times,serif" baseline-shift="sub" font-size="14.00">0</text>
<text text-anchor="start" x="397.5" y="-34.3" font-family="Times,serif" font-size="14.00">,q</text>
<text text-anchor="start" x="408.5" y="-34.3" font-family="Times,serif" baseline-shift="sub" font-size="14.00">2</text>
<text text-anchor="start" x="415.5" y="-34.3" font-family="Times,serif" font-size="14.00">}</text>
<polygon fill="none" stroke="black" points="427.5,-24.5 427.5,-49.5 451.5,-49.5 451.5,-24.5 427.5,-24.5"/>
<text text-anchor="start" x="432.5" y="-34.3" font-family="Times,serif" font-size="14.00">q</text>
<text text-anchor="start" x="439.5" y="-34.3" font-family="Times,serif" baseline-shift="sub" font-size="14.00">1</text>
<polygon fill="none" stroke="black" points="451.5,-24.5 451.5,-49.5 475.5,-49.5 475.5,-24.5 451.5,-24.5"/>
<text text-anchor="start" x="456.5" y="-34.3" font-family="Times,serif" font-size="14.00">q</text>
<text text-anchor="start" x="463.5" y="-34.3" font-family="Times,serif" baseline-shift="sub" font-size="14.00">2</text>
<polygon fill="none" stroke="black" points="346.5,0.5 346.5,-24.5 371.5,-24.5 371.5,0.5 346.5,0.5"/>
<text text-anchor="start" x="351.5" y="-9.3" font-family="Times,serif" font-weight="bold" font-size="14.00">q</text>
<text text-anchor="start" x="359.5" y="-9.3" font-family="Times,serif" font-weight="bold" baseline-shift="sub" font-size="14.00">2</text>
<polygon fill="none" stroke="black" points="371.5,0.5 371.5,-24.5 427.5,-24.5 427.5,0.5 371.5,0.5"/>
<text text-anchor="start" x="393.5" y="-8.3" font-family="Times,serif" font-size="14.00">∅</text>
<polygon fill="none" stroke="black" points="427.5,0.5 427.5,-24.5 451.5,-24.5 451.5,0.5 427.5,0.5"/>
<text text-anchor="start" x="432.5" y="-9.3" font-family="Times,serif" font-size="14.00">q</text>
<text text-anchor="start" x="439.5" y="-9.3" font-family="Times,serif" baseline-shift="sub" font-size="14.00">1</text>
<polygon fill="none" stroke="black" points="451.5,0.5 451.5,-24.5 475.5,-24.5 475.5,0.5 451.5,0.5"/>
<text text-anchor="start" x="457.5" y="-8.3" font-family="Times,serif" font-size="14.00">∅</text>
</g>
</g>
</svg>
