<?xml version="1.0" encoding="UTF-8" standalone="no"?>
<!DOCTYPE svg PUBLIC "-//W3C//DTD SVG 1.1//EN"
 "http://www.w3.org/Graphics/SVG/1.1/DTD/svg11.dtd">
<!-- Generated by graphviz version 2.44.0 (20200408.0750)
 -->
<!-- Title: G Pages: 1 -->
<svg width="620pt" height="121pt"
 viewBox="0.00 0.00 620.00 121.00" xmlns="http://www.w3.org/2000/svg" xmlns:xlink="http://www.w3.org/1999/xlink">
<g id="graph0" class="graph" transform="scale(1 1) rotate(0) translate(4 117)">
<title>G</title>
<polygon fill="white" stroke="transparent" points="-4,4 -4,-117 616,-117 616,4 -4,4"/>
<!-- start -->
<g id="node1" class="node">
<title>start</title>
<ellipse fill="black" stroke="black" cx="0" cy="-29" rx="0" ry="0"/>
</g>
<!-- S -->
<g id="node2" class="node">
<title>S</title>
<ellipse fill="none" stroke="black" cx="66" cy="-29" rx="29" ry="29"/>
<text text-anchor="middle" x="66" y="-25.3" font-family="Times,serif" font-size="14.00">S</text>
</g>
<!-- start&#45;&gt;S -->
<g id="edge1" class="edge">
<title>start&#45;&gt;S</title>
<path fill="none" stroke="black" d="M1.05,-29C1.87,-29 13.45,-29 26.55,-29"/>
<polygon fill="black" stroke="black" points="26.7,-32.5 36.7,-29 26.7,-25.5 26.7,-32.5"/>
</g>
<!-- e0e1 -->
<g id="node4" class="node">
<title>e0e1</title>
<ellipse fill="none" stroke="black" cx="169" cy="-29" rx="29" ry="29"/>
<text text-anchor="start" x="158" y="-26.3" font-family="Times,serif" font-size="14.00">e</text>
<text text-anchor="start" x="165" y="-26.3" font-family="Times,serif" baseline-shift="sub" font-size="9.00">0</text>
<text text-anchor="start" x="169" y="-26.3" font-family="Times,serif" font-size="14.00">e</text>
<text text-anchor="start" x="176" y="-26.3" font-family="Times,serif" baseline-shift="sub" font-size="9.00">1</text>
</g>
<!-- S&#45;&gt;e0e1 -->
<g id="edge2" class="edge">
<title>S&#45;&gt;e0e1</title>
<path fill="none" stroke="black" d="M95.13,-29C105.77,-29 118.06,-29 129.49,-29"/>
<polygon fill="black" stroke="black" points="129.67,-32.5 139.67,-29 129.67,-25.5 129.67,-32.5"/>
<text text-anchor="middle" x="117.5" y="-32.8" font-family="Times,serif" font-size="14.00">ℇ</text>
</g>
<!-- a -->
<g id="node3" class="node">
<title>a</title>
<ellipse fill="none" stroke="black" cx="579" cy="-80" rx="29" ry="29"/>
<ellipse fill="none" stroke="black" cx="579" cy="-80" rx="33" ry="33"/>
<text text-anchor="middle" x="579" y="-76.3" font-family="Times,serif" font-size="14.00">a</text>
</g>
<!-- e0o1 -->
<g id="node5" class="node">
<title>e0o1</title>
<ellipse fill="none" stroke="black" cx="270" cy="-77" rx="29" ry="29"/>
<text text-anchor="start" x="259" y="-74.3" font-family="Times,serif" font-size="14.00">e</text>
<text text-anchor="start" x="266" y="-74.3" font-family="Times,serif" baseline-shift="sub" font-size="9.00">0</text>
<text text-anchor="start" x="270" y="-74.3" font-family="Times,serif" font-size="14.00">o</text>
<text text-anchor="start" x="277" y="-74.3" font-family="Times,serif" baseline-shift="sub" font-size="9.00">1</text>
</g>
<!-- e0e1&#45;&gt;e0o1 -->
<g id="edge3" class="edge">
<title>e0e1&#45;&gt;e0o1</title>
<path fill="none" stroke="black" d="M191.95,-47.1C199.26,-52.47 207.68,-57.99 216,-62 220.95,-64.39 226.36,-66.46 231.75,-68.24"/>
<polygon fill="black" stroke="black" points="230.79,-71.6 241.37,-71.12 232.8,-64.9 230.79,-71.6"/>
<text text-anchor="middle" x="219.5" y="-68.8" font-family="Times,serif" font-size="14.00">1</text>
</g>
<!-- o0e1 -->
<g id="node6" class="node">
<title>o0e1</title>
<ellipse fill="none" stroke="black" cx="472" cy="-46" rx="29" ry="29"/>
<text text-anchor="start" x="461" y="-43.3" font-family="Times,serif" font-size="14.00">o</text>
<text text-anchor="start" x="468" y="-43.3" font-family="Times,serif" baseline-shift="sub" font-size="9.00">0</text>
<text text-anchor="start" x="472" y="-43.3" font-family="Times,serif" font-size="14.00">e</text>
<text text-anchor="start" x="479" y="-43.3" font-family="Times,serif" baseline-shift="sub" font-size="9.00">1</text>
</g>
<!-- e0e1&#45;&gt;o0e1 -->
<g id="edge4" class="edge">
<title>e0e1&#45;&gt;o0e1</title>
<path fill="none" stroke="black" d="M198.01,-28.74C245.05,-28.58 342.83,-29.45 425,-38 427.7,-38.28 430.49,-38.63 433.29,-39.01"/>
<polygon fill="black" stroke="black" points="432.94,-42.5 443.36,-40.56 434,-35.58 432.94,-42.5"/>
<text text-anchor="middle" x="320.5" y="-33.8" font-family="Times,serif" font-size="14.00">0</text>
</g>
<!-- e0o1&#45;&gt;e0e1 -->
<g id="edge5" class="edge">
<title>e0o1&#45;&gt;e0e1</title>
<path fill="none" stroke="black" d="M247.16,-58.24C239.85,-52.7 231.42,-47.04 223,-43 218.19,-40.69 212.94,-38.72 207.69,-37.06"/>
<polygon fill="black" stroke="black" points="208.24,-33.58 197.67,-34.21 206.33,-40.31 208.24,-33.58"/>
<text text-anchor="middle" x="219.5" y="-46.8" font-family="Times,serif" font-size="14.00">1</text>
</g>
<!-- o0o1 -->
<g id="node7" class="node">
<title>o0o1</title>
<ellipse fill="none" stroke="black" cx="371" cy="-84" rx="29" ry="29"/>
<text text-anchor="start" x="360" y="-81.3" font-family="Times,serif" font-size="14.00">o</text>
<text text-anchor="start" x="367" y="-81.3" font-family="Times,serif" baseline-shift="sub" font-size="9.00">0</text>
<text text-anchor="start" x="371" y="-81.3" font-family="Times,serif" font-size="14.00">o</text>
<text text-anchor="start" x="378" y="-81.3" font-family="Times,serif" baseline-shift="sub" font-size="9.00">1</text>
</g>
<!-- e0o1&#45;&gt;o0o1 -->
<g id="edge6" class="edge">
<title>e0o1&#45;&gt;o0o1</title>
<path fill="none" stroke="black" d="M299.1,-78.99C309.24,-79.7 320.86,-80.53 331.72,-81.29"/>
<polygon fill="black" stroke="black" points="331.6,-84.79 341.83,-82.01 332.1,-77.81 331.6,-84.79"/>
<text text-anchor="middle" x="320.5" y="-83.8" font-family="Times,serif" font-size="14.00">0</text>
</g>
<!-- o0e1&#45;&gt;a -->
<g id="edge7" class="edge">
<title>o0e1&#45;&gt;a</title>
<path fill="none" stroke="black" d="M499.77,-54.67C511.18,-58.36 524.74,-62.75 537.35,-66.84"/>
<polygon fill="black" stroke="black" points="536.6,-70.27 547.19,-70.02 538.75,-63.61 536.6,-70.27"/>
<text text-anchor="middle" x="523.5" y="-66.8" font-family="Times,serif" font-size="14.00">ℇ</text>
</g>
<!-- o0e1&#45;&gt;e0e1 -->
<g id="edge8" class="edge">
<title>o0e1&#45;&gt;e0e1</title>
<path fill="none" stroke="black" d="M443.81,-38.12C437.64,-36.39 431.1,-34.59 425,-33 413.94,-30.11 411.15,-29.51 400,-27 366.33,-19.42 358.33,-14.57 324,-11 284.07,-6.84 238.4,-13.64 207.23,-20.04"/>
<polygon fill="black" stroke="black" points="206.28,-16.66 197.24,-22.17 207.75,-23.5 206.28,-16.66"/>
<text text-anchor="middle" x="320.5" y="-14.8" font-family="Times,serif" font-size="14.00">0</text>
</g>
<!-- o0e1&#45;&gt;o0o1 -->
<g id="edge9" class="edge">
<title>o0e1&#45;&gt;o0o1</title>
<path fill="none" stroke="black" d="M444.61,-56.13C433.29,-60.47 419.9,-65.61 407.72,-70.29"/>
<polygon fill="black" stroke="black" points="406.35,-67.07 398.27,-73.92 408.86,-73.6 406.35,-67.07"/>
<text text-anchor="middle" x="421.5" y="-69.8" font-family="Times,serif" font-size="14.00">1</text>
</g>
<!-- o0o1&#45;&gt;a -->
<g id="edge10" class="edge">
<title>o0o1&#45;&gt;a</title>
<path fill="none" stroke="black" d="M400.22,-84.71C406.09,-84.83 412.25,-84.94 418,-85 454.89,-85.4 464.13,-85.2 501,-84 512.27,-83.63 524.46,-83.08 535.74,-82.49"/>
<polygon fill="black" stroke="black" points="535.99,-85.98 545.79,-81.95 535.62,-78.99 535.99,-85.98"/>
<text text-anchor="middle" x="472" y="-88.8" font-family="Times,serif" font-size="14.00">ℇ</text>
</g>
<!-- o0o1&#45;&gt;e0o1 -->
<g id="edge11" class="edge">
<title>o0o1&#45;&gt;e0o1</title>
<path fill="none" stroke="black" d="M345.49,-69.14C338.76,-65.79 331.3,-62.72 324,-61 318.07,-59.6 311.82,-59.87 305.78,-61.08"/>
<polygon fill="black" stroke="black" points="304.58,-57.78 295.9,-63.86 306.48,-64.52 304.58,-57.78"/>
<text text-anchor="middle" x="320.5" y="-64.8" font-family="Times,serif" font-size="14.00">0</text>
</g>
<!-- o0o1&#45;&gt;o0e1 -->
<g id="edge12" class="edge">
<title>o0o1&#45;&gt;o0e1</title>
<path fill="none" stroke="black" d="M390.49,-62.52C398.17,-55.18 407.69,-47.86 418,-44 422.84,-42.19 428.09,-41.27 433.36,-40.94"/>
<polygon fill="black" stroke="black" points="433.38,-44.44 443.38,-40.94 433.38,-37.44 433.38,-44.44"/>
<text text-anchor="middle" x="421.5" y="-47.8" font-family="Times,serif" font-size="14.00">1</text>
</g>
</g>
</svg>
