<?xml version="1.0" encoding="UTF-8" standalone="no"?>
<!DOCTYPE svg PUBLIC "-//W3C//DTD SVG 1.1//EN"
 "http://www.w3.org/Graphics/SVG/1.1/DTD/svg11.dtd">
<!-- Generated by graphviz version 2.44.0 (20200408.0750)
 -->
<!-- Title: G Pages: 1 -->
<svg width="422pt" height="124pt"
 viewBox="0.00 0.00 422.00 124.00" xmlns="http://www.w3.org/2000/svg" xmlns:xlink="http://www.w3.org/1999/xlink">
<g id="graph0" class="graph" transform="scale(1 1) rotate(0) translate(4 120)">
<title>G</title>
<polygon fill="white" stroke="transparent" points="-4,4 -4,-120 418,-120 418,4 -4,4"/>
<!-- start -->
<g id="node1" class="node">
<title>start</title>
<ellipse fill="black" stroke="black" cx="0" cy="-33" rx="0" ry="0"/>
</g>
<!-- e0e1 -->
<g id="node2" class="node">
<title>e0e1</title>
<ellipse fill="none" stroke="black" cx="66" cy="-33" rx="29" ry="29"/>
<text text-anchor="start" x="55" y="-30.3" font-family="Times,serif" font-size="14.00">e</text>
<text text-anchor="start" x="62" y="-30.3" font-family="Times,serif" baseline-shift="sub" font-size="9.00">0</text>
<text text-anchor="start" x="66" y="-30.3" font-family="Times,serif" font-size="14.00">e</text>
<text text-anchor="start" x="73" y="-30.3" font-family="Times,serif" baseline-shift="sub" font-size="9.00">1</text>
</g>
<!-- start&#45;&gt;e0e1 -->
<g id="edge1" class="edge">
<title>start&#45;&gt;e0e1</title>
<path fill="none" stroke="black" d="M1.05,-33C1.87,-33 13.45,-33 26.55,-33"/>
<polygon fill="black" stroke="black" points="26.7,-36.5 36.7,-33 26.7,-29.5 26.7,-36.5"/>
</g>
<!-- e0o1 -->
<g id="node3" class="node">
<title>e0o1</title>
<ellipse fill="none" stroke="black" cx="167" cy="-81" rx="29" ry="29"/>
<text text-anchor="start" x="156" y="-78.3" font-family="Times,serif" font-size="14.00">e</text>
<text text-anchor="start" x="163" y="-78.3" font-family="Times,serif" baseline-shift="sub" font-size="9.00">0</text>
<text text-anchor="start" x="167" y="-78.3" font-family="Times,serif" font-size="14.00">o</text>
<text text-anchor="start" x="174" y="-78.3" font-family="Times,serif" baseline-shift="sub" font-size="9.00">1</text>
</g>
<!-- e0e1&#45;&gt;e0o1 -->
<g id="edge2" class="edge">
<title>e0e1&#45;&gt;e0o1</title>
<path fill="none" stroke="black" d="M88.95,-51.1C96.26,-56.47 104.68,-61.99 113,-66 117.95,-68.39 123.36,-70.46 128.75,-72.24"/>
<polygon fill="black" stroke="black" points="127.79,-75.6 138.37,-75.12 129.8,-68.9 127.79,-75.6"/>
<text text-anchor="middle" x="116.5" y="-72.8" font-family="Times,serif" font-size="14.00">1</text>
</g>
<!-- o0e1 -->
<g id="node4" class="node">
<title>o0e1</title>
<ellipse fill="none" stroke="black" cx="381" cy="-33" rx="29" ry="29"/>
<ellipse fill="none" stroke="black" cx="381" cy="-33" rx="33" ry="33"/>
<text text-anchor="start" x="370" y="-30.3" font-family="Times,serif" font-size="14.00">o</text>
<text text-anchor="start" x="377" y="-30.3" font-family="Times,serif" baseline-shift="sub" font-size="9.00">0</text>
<text text-anchor="start" x="381" y="-30.3" font-family="Times,serif" font-size="14.00">e</text>
<text text-anchor="start" x="388" y="-30.3" font-family="Times,serif" baseline-shift="sub" font-size="9.00">1</text>
</g>
<!-- e0e1&#45;&gt;o0e1 -->
<g id="edge3" class="edge">
<title>e0e1&#45;&gt;o0e1</title>
<path fill="none" stroke="black" d="M95.05,-33C150.06,-33 272.38,-33 337.42,-33"/>
<polygon fill="black" stroke="black" points="337.72,-36.5 347.72,-33 337.72,-29.5 337.72,-36.5"/>
<text text-anchor="middle" x="217.5" y="-36.8" font-family="Times,serif" font-size="14.00">0</text>
</g>
<!-- e0o1&#45;&gt;e0e1 -->
<g id="edge4" class="edge">
<title>e0o1&#45;&gt;e0e1</title>
<path fill="none" stroke="black" d="M144.16,-62.24C136.85,-56.7 128.42,-51.04 120,-47 115.19,-44.69 109.94,-42.72 104.69,-41.06"/>
<polygon fill="black" stroke="black" points="105.24,-37.58 94.67,-38.21 103.33,-44.31 105.24,-37.58"/>
<text text-anchor="middle" x="116.5" y="-50.8" font-family="Times,serif" font-size="14.00">1</text>
</g>
<!-- o0o1 -->
<g id="node5" class="node">
<title>o0o1</title>
<ellipse fill="none" stroke="black" cx="272" cy="-83" rx="29" ry="29"/>
<ellipse fill="none" stroke="black" cx="272" cy="-83" rx="33" ry="33"/>
<text text-anchor="start" x="261" y="-80.3" font-family="Times,serif" font-size="14.00">o</text>
<text text-anchor="start" x="268" y="-80.3" font-family="Times,serif" baseline-shift="sub" font-size="9.00">0</text>
<text text-anchor="start" x="272" y="-80.3" font-family="Times,serif" font-size="14.00">o</text>
<text text-anchor="start" x="279" y="-80.3" font-family="Times,serif" baseline-shift="sub" font-size="9.00">1</text>
</g>
<!-- e0o1&#45;&gt;o0o1 -->
<g id="edge5" class="edge">
<title>e0o1&#45;&gt;o0o1</title>
<path fill="none" stroke="black" d="M196.22,-81.63C202.1,-81.76 208.25,-81.89 214,-82 218.76,-82.09 223.74,-82.19 228.7,-82.28"/>
<polygon fill="black" stroke="black" points="228.68,-85.78 238.74,-82.46 228.81,-78.78 228.68,-85.78"/>
<text text-anchor="middle" x="217.5" y="-85.8" font-family="Times,serif" font-size="14.00">0</text>
</g>
<!-- o0e1&#45;&gt;e0e1 -->
<g id="edge6" class="edge">
<title>o0e1&#45;&gt;e0e1</title>
<path fill="none" stroke="black" d="M348.57,-26.04C315.25,-19.44 261.04,-10.97 214,-14 176.67,-16.4 134.34,-22.2 104.72,-26.77"/>
<polygon fill="black" stroke="black" points="104.14,-23.32 94.8,-28.32 105.23,-30.23 104.14,-23.32"/>
<text text-anchor="middle" x="217.5" y="-17.8" font-family="Times,serif" font-size="14.00">0</text>
</g>
<!-- o0e1&#45;&gt;o0o1 -->
<g id="edge7" class="edge">
<title>o0e1&#45;&gt;o0o1</title>
<path fill="none" stroke="black" d="M348.97,-41.17C340.38,-43.87 331.18,-47.17 323,-51 318.04,-53.32 312.99,-56.06 308.09,-58.93"/>
<polygon fill="black" stroke="black" points="306.19,-55.99 299.5,-64.21 309.86,-61.96 306.19,-55.99"/>
<text text-anchor="middle" x="326.5" y="-54.8" font-family="Times,serif" font-size="14.00">1</text>
</g>
<!-- o0o1&#45;&gt;e0o1 -->
<g id="edge8" class="edge">
<title>o0o1&#45;&gt;e0o1</title>
<path fill="none" stroke="black" d="M241.95,-69.23C235.22,-66.65 227.98,-64.34 221,-63 214.74,-61.79 208.2,-62.39 201.95,-63.94"/>
<polygon fill="black" stroke="black" points="200.85,-60.62 192.43,-67.05 203.02,-67.27 200.85,-60.62"/>
<text text-anchor="middle" x="217.5" y="-66.8" font-family="Times,serif" font-size="14.00">0</text>
</g>
<!-- o0o1&#45;&gt;o0e1 -->
<g id="edge9" class="edge">
<title>o0o1&#45;&gt;o0e1</title>
<path fill="none" stroke="black" d="M304.38,-75.43C312.88,-72.91 321.95,-69.76 330,-66 335.12,-63.61 340.33,-60.74 345.35,-57.72"/>
<polygon fill="black" stroke="black" points="347.55,-60.46 354.12,-52.15 343.8,-54.55 347.55,-60.46"/>
<text text-anchor="middle" x="326.5" y="-71.8" font-family="Times,serif" font-size="14.00">1</text>
</g>
</g>
</svg>
