<?xml version="1.0" encoding="UTF-8" standalone="no"?>
<!DOCTYPE svg PUBLIC "-//W3C//DTD SVG 1.1//EN"
 "http://www.w3.org/Graphics/SVG/1.1/DTD/svg11.dtd">
<!-- Generated by graphviz version 2.44.0 (20200408.0750)
 -->
<!-- Title: G Pages: 1 -->
<svg width="466pt" height="137pt"
 viewBox="0.00 0.00 466.00 137.00" xmlns="http://www.w3.org/2000/svg" xmlns:xlink="http://www.w3.org/1999/xlink">
<g id="graph0" class="graph" transform="scale(1 1) rotate(0) translate(4 133)">
<title>G</title>
<polygon fill="white" stroke="transparent" points="-4,4 -4,-133 462,-133 462,4 -4,4"/>
<!-- start -->
<g id="node1" class="node">
<title>start</title>
<ellipse fill="black" stroke="black" cx="0" cy="-67" rx="0" ry="0"/>
</g>
<!-- S -->
<g id="node2" class="node">
<title>S</title>
<ellipse fill="none" stroke="black" cx="66" cy="-67" rx="29" ry="29"/>
<text text-anchor="middle" x="66" y="-63.3" font-family="Times,serif" font-size="14.00">S</text>
</g>
<!-- start&#45;&gt;S -->
<g id="edge1" class="edge">
<title>start&#45;&gt;S</title>
<path fill="none" stroke="black" d="M1.05,-67C1.87,-67 13.45,-67 26.55,-67"/>
<polygon fill="black" stroke="black" points="26.7,-70.5 36.7,-67 26.7,-63.5 26.7,-70.5"/>
</g>
<!-- e0e1 -->
<g id="node4" class="node">
<title>e0e1</title>
<ellipse fill="none" stroke="black" cx="169" cy="-67" rx="29" ry="29"/>
<text text-anchor="start" x="158" y="-64.3" font-family="Times,serif" font-size="14.00">e</text>
<text text-anchor="start" x="165" y="-64.3" font-family="Times,serif" baseline-shift="sub" font-size="9.00">0</text>
<text text-anchor="start" x="169" y="-64.3" font-family="Times,serif" font-size="14.00">e</text>
<text text-anchor="start" x="176" y="-64.3" font-family="Times,serif" baseline-shift="sub" font-size="9.00">1</text>
</g>
<!-- S&#45;&gt;e0e1 -->
<g id="edge2" class="edge">
<title>S&#45;&gt;e0e1</title>
<path fill="none" stroke="black" d="M95.13,-67C105.77,-67 118.06,-67 129.49,-67"/>
<polygon fill="black" stroke="black" points="129.67,-70.5 139.67,-67 129.67,-63.5 129.67,-70.5"/>
<text text-anchor="middle" x="117.5" y="-70.8" font-family="Times,serif" font-size="14.00">ℇ</text>
</g>
<!-- a -->
<g id="node3" class="node">
<title>a</title>
<ellipse fill="none" stroke="black" cx="425" cy="-78" rx="29" ry="29"/>
<ellipse fill="none" stroke="black" cx="425" cy="-78" rx="33" ry="33"/>
<text text-anchor="middle" x="425" y="-74.3" font-family="Times,serif" font-size="14.00">a</text>
</g>
<!-- e0e1&#45;&gt;a -->
<g id="edge3" class="edge">
<title>e0e1&#45;&gt;a</title>
<path fill="none" stroke="black" d="M196.29,-78.02C216.56,-85.9 245.53,-95.82 272,-100 309.74,-105.95 352.86,-98.35 383.51,-90.5"/>
<polygon fill="black" stroke="black" points="384.64,-93.82 393.4,-87.85 382.83,-87.06 384.64,-93.82"/>
<text text-anchor="middle" x="301" y="-105.8" font-family="Times,serif" font-size="14.00">0</text>
</g>
<!-- e0e1&#45;&gt;e0e1 -->
<g id="edge4" class="edge">
<title>e0e1&#45;&gt;e0e1</title>
<path fill="none" stroke="black" d="M159.66,-94.52C159.25,-105.16 162.36,-114 169,-114 173.36,-114 176.2,-110.19 177.52,-104.57"/>
<polygon fill="black" stroke="black" points="181.01,-104.77 178.34,-94.52 174.03,-104.2 181.01,-104.77"/>
<text text-anchor="middle" x="169" y="-117.8" font-family="Times,serif" font-size="14.00">11∪00</text>
</g>
<!-- o0o1 -->
<g id="node5" class="node">
<title>o0o1</title>
<ellipse fill="none" stroke="black" cx="301" cy="-29" rx="29" ry="29"/>
<text text-anchor="start" x="290" y="-26.3" font-family="Times,serif" font-size="14.00">o</text>
<text text-anchor="start" x="297" y="-26.3" font-family="Times,serif" baseline-shift="sub" font-size="9.00">0</text>
<text text-anchor="start" x="301" y="-26.3" font-family="Times,serif" font-size="14.00">o</text>
<text text-anchor="start" x="308" y="-26.3" font-family="Times,serif" baseline-shift="sub" font-size="9.00">1</text>
</g>
<!-- e0e1&#45;&gt;o0o1 -->
<g id="edge5" class="edge">
<title>e0e1&#45;&gt;o0o1</title>
<path fill="none" stroke="black" d="M197.39,-60.4C213.88,-56.29 235.25,-50.71 254,-45 257.15,-44.04 260.42,-43 263.68,-41.93"/>
<polygon fill="black" stroke="black" points="265,-45.18 273.36,-38.66 262.77,-38.54 265,-45.18"/>
<text text-anchor="middle" x="235" y="-58.8" font-family="Times,serif" font-size="14.00">10∪01</text>
</g>
<!-- o0o1&#45;&gt;a -->
<g id="edge6" class="edge">
<title>o0o1&#45;&gt;a</title>
<path fill="none" stroke="black" d="M328.17,-39.51C344.63,-46.12 366.17,-54.77 384.66,-62.2"/>
<polygon fill="black" stroke="black" points="383.42,-65.47 394.01,-65.95 386.03,-58.98 383.42,-65.47"/>
<text text-anchor="middle" x="361" y="-60.8" font-family="Times,serif" font-size="14.00">1∪ℇ</text>
</g>
<!-- o0o1&#45;&gt;e0e1 -->
<g id="edge7" class="edge">
<title>o0o1&#45;&gt;e0e1</title>
<path fill="none" stroke="black" d="M272.64,-22.74C255.77,-20.15 234,-19.14 216,-26 208.85,-28.72 202.11,-33.12 196.1,-38.05"/>
<polygon fill="black" stroke="black" points="193.48,-35.7 188.4,-44.99 198.17,-40.9 193.48,-35.7"/>
<text text-anchor="middle" x="235" y="-29.8" font-family="Times,serif" font-size="14.00">01∪10</text>
</g>
<!-- o0o1&#45;&gt;o0o1 -->
<g id="edge8" class="edge">
<title>o0o1&#45;&gt;o0o1</title>
<path fill="none" stroke="black" d="M289.82,-56.05C289.19,-66.89 292.91,-76 301,-76 306.31,-76 309.74,-72.08 311.29,-66.32"/>
<polygon fill="black" stroke="black" points="314.8,-66.31 312.18,-56.05 307.83,-65.71 314.8,-66.31"/>
<text text-anchor="middle" x="301" y="-79.8" font-family="Times,serif" font-size="14.00">00∪11</text>
</g>
</g>
</svg>
