<?xml version="1.0" encoding="UTF-8" standalone="no"?>
<!DOCTYPE svg PUBLIC "-//W3C//DTD SVG 1.1//EN"
 "http://www.w3.org/Graphics/SVG/1.1/DTD/svg11.dtd">
<!-- Generated by graphviz version 2.44.0 (20200408.0750)
 -->
<!-- Title: G Pages: 1 -->
<svg width="536pt" height="154pt"
 viewBox="0.00 0.00 536.00 154.35" xmlns="http://www.w3.org/2000/svg" xmlns:xlink="http://www.w3.org/1999/xlink">
<g id="graph0" class="graph" transform="scale(1 1) rotate(0) translate(4 150.35)">
<title>G</title>
<polygon fill="white" stroke="transparent" points="-4,4 -4,-150.35 532,-150.35 532,4 -4,4"/>
<!-- start -->
<g id="node1" class="node">
<title>start</title>
<ellipse fill="black" stroke="black" cx="0" cy="-51.35" rx="0" ry="0"/>
</g>
<!-- S -->
<g id="node2" class="node">
<title>S</title>
<ellipse fill="none" stroke="black" cx="66" cy="-51.35" rx="29" ry="29"/>
<text text-anchor="middle" x="66" y="-47.65" font-family="Times,serif" font-size="14.00">S</text>
</g>
<!-- start&#45;&gt;S -->
<g id="edge1" class="edge">
<title>start&#45;&gt;S</title>
<path fill="none" stroke="black" d="M1.05,-51.35C1.87,-51.35 13.45,-51.35 26.55,-51.35"/>
<polygon fill="black" stroke="black" points="26.7,-54.85 36.7,-51.35 26.7,-47.85 26.7,-54.85"/>
</g>
<!-- e0e1 -->
<g id="node4" class="node">
<title>e0e1</title>
<ellipse fill="none" stroke="black" cx="169" cy="-51.35" rx="29" ry="29"/>
<text text-anchor="start" x="158" y="-48.65" font-family="Times,serif" font-size="14.00">e</text>
<text text-anchor="start" x="165" y="-48.65" font-family="Times,serif" baseline-shift="sub" font-size="9.00">0</text>
<text text-anchor="start" x="169" y="-48.65" font-family="Times,serif" font-size="14.00">e</text>
<text text-anchor="start" x="176" y="-48.65" font-family="Times,serif" baseline-shift="sub" font-size="9.00">1</text>
</g>
<!-- S&#45;&gt;e0e1 -->
<g id="edge2" class="edge">
<title>S&#45;&gt;e0e1</title>
<path fill="none" stroke="black" d="M95.13,-51.35C105.77,-51.35 118.06,-51.35 129.49,-51.35"/>
<polygon fill="black" stroke="black" points="129.67,-54.85 139.67,-51.35 129.67,-47.85 129.67,-54.85"/>
<text text-anchor="middle" x="117.5" y="-55.15" font-family="Times,serif" font-size="14.00">ℇ</text>
</g>
<!-- a -->
<g id="node3" class="node">
<title>a</title>
<ellipse fill="none" stroke="black" cx="495" cy="-92.35" rx="29" ry="29"/>
<ellipse fill="none" stroke="black" cx="495" cy="-92.35" rx="33" ry="33"/>
<text text-anchor="middle" x="495" y="-88.65" font-family="Times,serif" font-size="14.00">a</text>
</g>
<!-- e0e1&#45;&gt;a -->
<g id="edge3" class="edge">
<title>e0e1&#45;&gt;a</title>
<path fill="none" stroke="black" d="M186.67,-74.43C199.51,-90.1 218.79,-109.53 241,-118.35 312.17,-146.63 403.03,-124.66 454.24,-107.55"/>
<polygon fill="black" stroke="black" points="455.62,-110.77 463.93,-104.21 453.34,-104.16 455.62,-110.77"/>
<text text-anchor="middle" x="320.5" y="-135.15" font-family="Times,serif" font-size="14.00">0</text>
</g>
<!-- e0e1&#45;&gt;e0e1 -->
<g id="edge4" class="edge">
<title>e0e1&#45;&gt;e0e1</title>
<path fill="none" stroke="black" d="M159.66,-78.87C159.25,-89.51 162.36,-98.35 169,-98.35 173.36,-98.35 176.2,-94.55 177.52,-88.92"/>
<polygon fill="black" stroke="black" points="181.01,-89.12 178.34,-78.87 174.03,-88.55 181.01,-89.12"/>
<text text-anchor="middle" x="169" y="-102.15" font-family="Times,serif" font-size="14.00">00</text>
</g>
<!-- e0o1 -->
<g id="node5" class="node">
<title>e0o1</title>
<ellipse fill="none" stroke="black" cx="270" cy="-80.35" rx="29" ry="29"/>
<text text-anchor="start" x="259" y="-77.65" font-family="Times,serif" font-size="14.00">e</text>
<text text-anchor="start" x="266" y="-77.65" font-family="Times,serif" baseline-shift="sub" font-size="9.00">0</text>
<text text-anchor="start" x="270" y="-77.65" font-family="Times,serif" font-size="14.00">o</text>
<text text-anchor="start" x="277" y="-77.65" font-family="Times,serif" baseline-shift="sub" font-size="9.00">1</text>
</g>
<!-- e0e1&#45;&gt;e0o1 -->
<g id="edge5" class="edge">
<title>e0e1&#45;&gt;e0o1</title>
<path fill="none" stroke="black" d="M196.62,-61.09C202.93,-63.27 209.68,-65.48 216,-67.35 221.04,-68.85 226.38,-70.3 231.66,-71.66"/>
<polygon fill="black" stroke="black" points="231.08,-75.13 241.63,-74.16 232.78,-68.34 231.08,-75.13"/>
<text text-anchor="middle" x="219.5" y="-72.15" font-family="Times,serif" font-size="14.00">1</text>
</g>
<!-- o0o1 -->
<g id="node6" class="node">
<title>o0o1</title>
<ellipse fill="none" stroke="black" cx="371" cy="-47.35" rx="29" ry="29"/>
<text text-anchor="start" x="360" y="-44.65" font-family="Times,serif" font-size="14.00">o</text>
<text text-anchor="start" x="367" y="-44.65" font-family="Times,serif" baseline-shift="sub" font-size="9.00">0</text>
<text text-anchor="start" x="371" y="-44.65" font-family="Times,serif" font-size="14.00">o</text>
<text text-anchor="start" x="378" y="-44.65" font-family="Times,serif" baseline-shift="sub" font-size="9.00">1</text>
</g>
<!-- e0e1&#45;&gt;o0o1 -->
<g id="edge6" class="edge">
<title>e0e1&#45;&gt;o0o1</title>
<path fill="none" stroke="black" d="M196.11,-40.25C209.31,-35.23 225.72,-29.87 241,-27.35 266.44,-23.17 273.46,-23.83 299,-27.35 310.46,-28.94 322.67,-31.89 333.68,-35.06"/>
<polygon fill="black" stroke="black" points="332.81,-38.45 343.4,-37.99 334.83,-31.75 332.81,-38.45"/>
<text text-anchor="middle" x="270" y="-31.15" font-family="Times,serif" font-size="14.00">01</text>
</g>
<!-- e0o1&#45;&gt;e0e1 -->
<g id="edge7" class="edge">
<title>e0o1&#45;&gt;e0e1</title>
<path fill="none" stroke="black" d="M247.53,-61.42C240.25,-56.13 231.73,-51.09 223,-48.35 218.25,-46.86 213.14,-46.14 208.04,-45.92"/>
<polygon fill="black" stroke="black" points="207.64,-42.42 197.7,-46.09 207.76,-49.42 207.64,-42.42"/>
<text text-anchor="middle" x="219.5" y="-52.15" font-family="Times,serif" font-size="14.00">1</text>
</g>
<!-- e0o1&#45;&gt;o0o1 -->
<g id="edge8" class="edge">
<title>e0o1&#45;&gt;o0o1</title>
<path fill="none" stroke="black" d="M298.49,-74.55C306.77,-72.55 315.83,-70.11 324,-67.35 327.59,-66.14 331.3,-64.76 334.97,-63.31"/>
<polygon fill="black" stroke="black" points="336.62,-66.42 344.51,-59.35 333.93,-59.95 336.62,-66.42"/>
<text text-anchor="middle" x="320.5" y="-72.15" font-family="Times,serif" font-size="14.00">0</text>
</g>
<!-- o0o1&#45;&gt;a -->
<g id="edge9" class="edge">
<title>o0o1&#45;&gt;a</title>
<path fill="none" stroke="black" d="M398.47,-57.12C414.75,-63.12 435.92,-70.93 454.19,-77.67"/>
<polygon fill="black" stroke="black" points="453.12,-81.01 463.71,-81.18 455.54,-74.44 453.12,-81.01"/>
<text text-anchor="middle" x="431" y="-77.15" font-family="Times,serif" font-size="14.00">1∪ℇ</text>
</g>
<!-- o0o1&#45;&gt;e0e1 -->
<g id="edge10" class="edge">
<title>o0o1&#45;&gt;e0e1</title>
<path fill="none" stroke="black" d="M347.76,-29.98C334.43,-20.69 316.68,-10.19 299,-5.35 274.14,1.45 265.72,1.95 241,-5.35 226.27,-9.71 211.72,-18.19 199.66,-26.69"/>
<polygon fill="black" stroke="black" points="197.32,-24.07 191.36,-32.83 201.48,-29.7 197.32,-24.07"/>
<text text-anchor="middle" x="270" y="-9.15" font-family="Times,serif" font-size="14.00">10</text>
</g>
<!-- o0o1&#45;&gt;e0o1 -->
<g id="edge11" class="edge">
<title>o0o1&#45;&gt;e0o1</title>
<path fill="none" stroke="black" d="M341.99,-44.85C333.77,-44.92 324.88,-45.8 317,-48.35 311.56,-50.12 306.2,-52.76 301.16,-55.77"/>
<polygon fill="black" stroke="black" points="298.9,-53.07 292.5,-61.52 302.77,-58.91 298.9,-53.07"/>
<text text-anchor="middle" x="320.5" y="-52.15" font-family="Times,serif" font-size="14.00">0</text>
</g>
<!-- o0o1&#45;&gt;o0o1 -->
<g id="edge12" class="edge">
<title>o0o1&#45;&gt;o0o1</title>
<path fill="none" stroke="black" d="M361.66,-74.87C361.25,-85.51 364.36,-94.35 371,-94.35 375.36,-94.35 378.2,-90.55 379.52,-84.92"/>
<polygon fill="black" stroke="black" points="383.01,-85.12 380.34,-74.87 376.03,-84.55 383.01,-85.12"/>
<text text-anchor="middle" x="371" y="-98.15" font-family="Times,serif" font-size="14.00">11</text>
</g>
</g>
</svg>
