<?xml version="1.0" encoding="UTF-8" standalone="no"?>
<!DOCTYPE svg PUBLIC "-//W3C//DTD SVG 1.1//EN"
 "http://www.w3.org/Graphics/SVG/1.1/DTD/svg11.dtd">
<!-- Generated by graphviz version 2.44.0 (20200408.0750)
 -->
<!-- Title: G Pages: 1 -->
<svg width="465pt" height="137pt"
 viewBox="0.00 0.00 465.00 137.00" xmlns="http://www.w3.org/2000/svg" xmlns:xlink="http://www.w3.org/1999/xlink">
<g id="graph0" class="graph" transform="scale(1 1) rotate(0) translate(4 133)">
<title>G</title>
<polygon fill="white" stroke="transparent" points="-4,4 -4,-133 461,-133 461,4 -4,4"/>
<!-- start -->
<g id="node1" class="node">
<title>start</title>
<ellipse fill="black" stroke="black" cx="0" cy="-67" rx="0" ry="0"/>
</g>
<!-- S -->
<g id="node2" class="node">
<title>S</title>
<ellipse fill="none" stroke="black" cx="66" cy="-67" rx="29" ry="29"/>
<text text-anchor="middle" x="66" y="-63.3" font-family="Times,serif" font-size="14.00">S</text>
</g>
<!-- start&#45;&gt;S -->
<g id="edge1" class="edge">
<title>start&#45;&gt;S</title>
<path fill="none" stroke="black" d="M1.05,-67C1.87,-67 13.45,-67 26.55,-67"/>
<polygon fill="black" stroke="black" points="26.7,-70.5 36.7,-67 26.7,-63.5 26.7,-70.5"/>
</g>
<!-- q1 -->
<g id="node4" class="node">
<title>q1</title>
<ellipse fill="none" stroke="black" cx="169" cy="-67" rx="29" ry="29"/>
<text text-anchor="start" x="163.5" y="-64.3" font-family="Times,serif" font-size="14.00">q</text>
<text text-anchor="start" x="170.5" y="-64.3" font-family="Times,serif" baseline-shift="sub" font-size="9.00">1</text>
</g>
<!-- S&#45;&gt;q1 -->
<g id="edge2" class="edge">
<title>S&#45;&gt;q1</title>
<path fill="none" stroke="black" d="M95.13,-67C105.77,-67 118.06,-67 129.49,-67"/>
<polygon fill="black" stroke="black" points="129.67,-70.5 139.67,-67 129.67,-63.5 129.67,-70.5"/>
<text text-anchor="middle" x="117.5" y="-70.8" font-family="Times,serif" font-size="14.00">ℇ</text>
</g>
<!-- a -->
<g id="node3" class="node">
<title>a</title>
<ellipse fill="none" stroke="black" cx="424" cy="-78" rx="29" ry="29"/>
<ellipse fill="none" stroke="black" cx="424" cy="-78" rx="33" ry="33"/>
<text text-anchor="middle" x="424" y="-74.3" font-family="Times,serif" font-size="14.00">a</text>
</g>
<!-- q1&#45;&gt;a -->
<g id="edge3" class="edge">
<title>q1&#45;&gt;a</title>
<path fill="none" stroke="black" d="M196.13,-77.86C216.63,-85.77 246.1,-95.8 273,-100 310.03,-105.79 352.28,-98.33 382.48,-90.57"/>
<polygon fill="black" stroke="black" points="383.49,-93.92 392.24,-87.95 381.67,-87.16 383.49,-93.92"/>
<text text-anchor="middle" x="302" y="-105.8" font-family="Times,serif" font-size="14.00">ℇ</text>
</g>
<!-- q1&#45;&gt;q1 -->
<g id="edge4" class="edge">
<title>q1&#45;&gt;q1</title>
<path fill="none" stroke="black" d="M159.66,-94.52C159.25,-105.16 162.36,-114 169,-114 173.36,-114 176.2,-110.19 177.52,-104.57"/>
<polygon fill="black" stroke="black" points="181.01,-104.77 178.34,-94.52 174.03,-104.2 181.01,-104.77"/>
<text text-anchor="middle" x="169" y="-117.8" font-family="Times,serif" font-size="14.00">a</text>
</g>
<!-- q3 -->
<g id="node5" class="node">
<title>q3</title>
<ellipse fill="none" stroke="black" cx="302" cy="-29" rx="29" ry="29"/>
<text text-anchor="start" x="296.5" y="-26.3" font-family="Times,serif" font-size="14.00">q</text>
<text text-anchor="start" x="303.5" y="-26.3" font-family="Times,serif" baseline-shift="sub" font-size="9.00">3</text>
</g>
<!-- q1&#45;&gt;q3 -->
<g id="edge5" class="edge">
<title>q1&#45;&gt;q3</title>
<path fill="none" stroke="black" d="M197.34,-60.53C214.08,-56.41 235.89,-50.79 255,-45 258.16,-44.04 261.42,-43.01 264.68,-41.94"/>
<polygon fill="black" stroke="black" points="266,-45.19 274.36,-38.68 263.77,-38.55 266,-45.19"/>
<text text-anchor="middle" x="235.5" y="-58.8" font-family="Times,serif" font-size="14.00">a</text>
</g>
<!-- q3&#45;&gt;a -->
<g id="edge6" class="edge">
<title>q3&#45;&gt;a</title>
<path fill="none" stroke="black" d="M329.04,-39.63C344.97,-46.14 365.68,-54.59 383.59,-61.91"/>
<polygon fill="black" stroke="black" points="382.63,-65.3 393.21,-65.84 385.27,-58.81 382.63,-65.3"/>
<text text-anchor="middle" x="361" y="-59.8" font-family="Times,serif" font-size="14.00">a∪b</text>
</g>
<!-- q3&#45;&gt;q1 -->
<g id="edge7" class="edge">
<title>q3&#45;&gt;q1</title>
<path fill="none" stroke="black" d="M273.31,-22.69C256.24,-20.08 234.21,-19.06 216,-26 208.85,-28.72 202.11,-33.12 196.1,-38.05"/>
<polygon fill="black" stroke="black" points="193.48,-35.7 188.4,-44.99 198.17,-40.9 193.48,-35.7"/>
<text text-anchor="middle" x="235.5" y="-29.8" font-family="Times,serif" font-size="14.00">(a∪b)a</text>
</g>
<!-- q3&#45;&gt;q3 -->
<g id="edge8" class="edge">
<title>q3&#45;&gt;q3</title>
<path fill="none" stroke="black" d="M291.19,-56.05C290.58,-66.89 294.18,-76 302,-76 307.13,-76 310.44,-72.08 311.94,-66.32"/>
<polygon fill="black" stroke="black" points="315.46,-66.31 312.81,-56.05 308.48,-65.72 315.46,-66.31"/>
<text text-anchor="middle" x="302" y="-79.8" font-family="Times,serif" font-size="14.00">b</text>
</g>
</g>
</svg>
