<?xml version="1.0" encoding="UTF-8" standalone="no"?>
<!DOCTYPE svg PUBLIC "-//W3C//DTD SVG 1.1//EN"
 "http://www.w3.org/Graphics/SVG/1.1/DTD/svg11.dtd">
<!-- Generated by graphviz version 2.44.0 (20200408.0750)
 -->
<!-- Title: G Pages: 1 -->
<svg width="536pt" height="159pt"
 viewBox="0.00 0.00 536.00 158.79" xmlns="http://www.w3.org/2000/svg" xmlns:xlink="http://www.w3.org/1999/xlink">
<g id="graph0" class="graph" transform="scale(1 1) rotate(0) translate(4 154.79)">
<title>G</title>
<polygon fill="white" stroke="transparent" points="-4,4 -4,-154.79 532,-154.79 532,4 -4,4"/>
<!-- start -->
<g id="node1" class="node">
<title>start</title>
<ellipse fill="black" stroke="black" cx="0" cy="-58.79" rx="0" ry="0"/>
</g>
<!-- S -->
<g id="node2" class="node">
<title>S</title>
<ellipse fill="none" stroke="black" cx="66" cy="-58.79" rx="29" ry="29"/>
<text text-anchor="middle" x="66" y="-55.09" font-family="Times,serif" font-size="14.00">S</text>
</g>
<!-- start&#45;&gt;S -->
<g id="edge1" class="edge">
<title>start&#45;&gt;S</title>
<path fill="none" stroke="black" d="M1.05,-58.79C1.87,-58.79 13.45,-58.79 26.55,-58.79"/>
<polygon fill="black" stroke="black" points="26.7,-62.29 36.7,-58.79 26.7,-55.29 26.7,-62.29"/>
</g>
<!-- q1 -->
<g id="node4" class="node">
<title>q1</title>
<ellipse fill="none" stroke="black" cx="169" cy="-58.79" rx="29" ry="29"/>
<text text-anchor="start" x="163.5" y="-56.09" font-family="Times,serif" font-size="14.00">q</text>
<text text-anchor="start" x="170.5" y="-56.09" font-family="Times,serif" baseline-shift="sub" font-size="9.00">1</text>
</g>
<!-- S&#45;&gt;q1 -->
<g id="edge2" class="edge">
<title>S&#45;&gt;q1</title>
<path fill="none" stroke="black" d="M95.13,-58.79C105.77,-58.79 118.06,-58.79 129.49,-58.79"/>
<polygon fill="black" stroke="black" points="129.67,-62.29 139.67,-58.79 129.67,-55.29 129.67,-62.29"/>
<text text-anchor="middle" x="117.5" y="-62.59" font-family="Times,serif" font-size="14.00">ℇ</text>
</g>
<!-- a -->
<g id="node3" class="node">
<title>a</title>
<ellipse fill="none" stroke="black" cx="495" cy="-58.79" rx="29" ry="29"/>
<ellipse fill="none" stroke="black" cx="495" cy="-58.79" rx="33" ry="33"/>
<text text-anchor="middle" x="495" y="-55.09" font-family="Times,serif" font-size="14.00">a</text>
</g>
<!-- q2 -->
<g id="node5" class="node">
<title>q2</title>
<ellipse fill="none" stroke="black" cx="388" cy="-58.79" rx="29" ry="29"/>
<text text-anchor="start" x="382.5" y="-56.09" font-family="Times,serif" font-size="14.00">q</text>
<text text-anchor="start" x="389.5" y="-56.09" font-family="Times,serif" baseline-shift="sub" font-size="9.00">2</text>
</g>
<!-- q1&#45;&gt;q2 -->
<g id="edge3" class="edge">
<title>q1&#45;&gt;q2</title>
<path fill="none" stroke="black" d="M185.83,-82.5C198.51,-99.21 217.97,-120.25 241,-129.79 264.82,-139.65 274.69,-138.37 299,-129.79 322.7,-121.42 344.71,-103.66 360.79,-88"/>
<polygon fill="black" stroke="black" points="363.64,-90.09 368.19,-80.53 358.66,-85.17 363.64,-90.09"/>
<text text-anchor="middle" x="270" y="-139.59" font-family="Times,serif" font-size="14.00">ℇ</text>
</g>
<!-- q3 -->
<g id="node6" class="node">
<title>q3</title>
<ellipse fill="none" stroke="black" cx="270" cy="-58.79" rx="29" ry="29"/>
<text text-anchor="start" x="264.5" y="-56.09" font-family="Times,serif" font-size="14.00">q</text>
<text text-anchor="start" x="271.5" y="-56.09" font-family="Times,serif" baseline-shift="sub" font-size="9.00">3</text>
</g>
<!-- q1&#45;&gt;q3 -->
<g id="edge4" class="edge">
<title>q1&#45;&gt;q3</title>
<path fill="none" stroke="black" d="M198.1,-58.79C208.24,-58.79 219.86,-58.79 230.72,-58.79"/>
<polygon fill="black" stroke="black" points="230.83,-62.29 240.83,-58.79 230.83,-55.29 230.83,-62.29"/>
<text text-anchor="middle" x="219.5" y="-62.59" font-family="Times,serif" font-size="14.00">a</text>
</g>
<!-- q2&#45;&gt;a -->
<g id="edge5" class="edge">
<title>q2&#45;&gt;a</title>
<path fill="none" stroke="black" d="M417.14,-58.79C427.65,-58.79 439.83,-58.79 451.36,-58.79"/>
<polygon fill="black" stroke="black" points="451.7,-62.29 461.7,-58.79 451.7,-55.29 451.7,-62.29"/>
<text text-anchor="middle" x="439.5" y="-62.59" font-family="Times,serif" font-size="14.00">ℇ</text>
</g>
<!-- q2&#45;&gt;q1 -->
<g id="edge6" class="edge">
<title>q2&#45;&gt;q1</title>
<path fill="none" stroke="black" d="M365.06,-40.92C348.15,-28.35 323.57,-12.62 299,-5.79 274.16,1.11 265.46,2.34 241,-5.79 225.07,-11.08 209.83,-21.48 197.57,-31.69"/>
<polygon fill="black" stroke="black" points="195.22,-29.1 189.97,-38.3 199.81,-34.37 195.22,-29.1"/>
<text text-anchor="middle" x="270" y="-9.59" font-family="Times,serif" font-size="14.00">a</text>
</g>
<!-- q3&#45;&gt;q2 -->
<g id="edge7" class="edge">
<title>q3&#45;&gt;q2</title>
<path fill="none" stroke="black" d="M299.08,-58.79C313.93,-58.79 332.39,-58.79 348.55,-58.79"/>
<polygon fill="black" stroke="black" points="348.78,-62.29 358.78,-58.79 348.78,-55.29 348.78,-62.29"/>
<text text-anchor="middle" x="329" y="-62.59" font-family="Times,serif" font-size="14.00">a∪b</text>
</g>
<!-- q3&#45;&gt;q3 -->
<g id="edge8" class="edge">
<title>q3&#45;&gt;q3</title>
<path fill="none" stroke="black" d="M260.66,-86.3C260.25,-96.94 263.36,-105.79 270,-105.79 274.36,-105.79 277.2,-101.98 278.52,-96.35"/>
<polygon fill="black" stroke="black" points="282.01,-96.56 279.34,-86.3 275.03,-95.99 282.01,-96.56"/>
<text text-anchor="middle" x="270" y="-109.59" font-family="Times,serif" font-size="14.00">b</text>
</g>
</g>
</svg>
