<?xml version="1.0" encoding="UTF-8" standalone="no"?>
<!DOCTYPE svg PUBLIC "-//W3C//DTD SVG 1.1//EN"
 "http://www.w3.org/Graphics/SVG/1.1/DTD/svg11.dtd">
<!-- Generated by graphviz version 2.44.0 (20200408.0750)
 -->
<!-- Title: G Pages: 1 -->
<svg width="323pt" height="160pt"
 viewBox="0.00 0.00 323.00 159.84" xmlns="http://www.w3.org/2000/svg" xmlns:xlink="http://www.w3.org/1999/xlink">
<g id="graph0" class="graph" transform="scale(1 1) rotate(0) translate(4 155.84)">
<title>G</title>
<polygon fill="white" stroke="transparent" points="-4,4 -4,-155.84 319,-155.84 319,4 -4,4"/>
<!-- start -->
<g id="node1" class="node">
<title>start</title>
<ellipse fill="black" stroke="black" cx="0" cy="-58.84" rx="0" ry="0"/>
</g>
<!-- q1 -->
<g id="node2" class="node">
<title>q1</title>
<ellipse fill="none" stroke="black" cx="66" cy="-58.84" rx="29" ry="29"/>
<text text-anchor="start" x="60.5" y="-56.14" font-family="Times,serif" font-size="14.00">q</text>
<text text-anchor="start" x="67.5" y="-56.14" font-family="Times,serif" baseline-shift="sub" font-size="9.00">1</text>
</g>
<!-- start&#45;&gt;q1 -->
<g id="edge1" class="edge">
<title>start&#45;&gt;q1</title>
<path fill="none" stroke="black" d="M1.05,-58.84C1.87,-58.84 13.45,-58.84 26.55,-58.84"/>
<polygon fill="black" stroke="black" points="26.7,-62.34 36.7,-58.84 26.7,-55.34 26.7,-62.34"/>
</g>
<!-- q2 -->
<g id="node3" class="node">
<title>q2</title>
<ellipse fill="none" stroke="black" cx="282" cy="-58.84" rx="29" ry="29"/>
<ellipse fill="none" stroke="black" cx="282" cy="-58.84" rx="33" ry="33"/>
<text text-anchor="start" x="276.5" y="-56.14" font-family="Times,serif" font-size="14.00">q</text>
<text text-anchor="start" x="283.5" y="-56.14" font-family="Times,serif" baseline-shift="sub" font-size="9.00">2</text>
</g>
<!-- q1&#45;&gt;q2 -->
<g id="edge2" class="edge">
<title>q1&#45;&gt;q2</title>
<path fill="none" stroke="black" d="M82.83,-82.55C95.51,-99.26 114.97,-120.3 138,-129.84 161.82,-139.7 171.77,-138.62 196,-129.84 217.75,-121.95 237.83,-105.79 253,-90.88"/>
<polygon fill="black" stroke="black" points="255.54,-93.29 260.05,-83.7 250.54,-88.39 255.54,-93.29"/>
<text text-anchor="middle" x="167" y="-140.64" font-family="Times,serif" font-size="14.00">ℇ</text>
</g>
<!-- q3 -->
<g id="node4" class="node">
<title>q3</title>
<ellipse fill="none" stroke="black" cx="167" cy="-58.84" rx="29" ry="29"/>
<text text-anchor="start" x="161.5" y="-56.14" font-family="Times,serif" font-size="14.00">q</text>
<text text-anchor="start" x="168.5" y="-56.14" font-family="Times,serif" baseline-shift="sub" font-size="9.00">3</text>
</g>
<!-- q1&#45;&gt;q3 -->
<g id="edge3" class="edge">
<title>q1&#45;&gt;q3</title>
<path fill="none" stroke="black" d="M95.1,-58.84C105.24,-58.84 116.86,-58.84 127.72,-58.84"/>
<polygon fill="black" stroke="black" points="127.83,-62.34 137.83,-58.84 127.83,-55.34 127.83,-62.34"/>
<text text-anchor="middle" x="116.5" y="-62.64" font-family="Times,serif" font-size="14.00">a</text>
</g>
<!-- q2&#45;&gt;q1 -->
<g id="edge4" class="edge">
<title>q2&#45;&gt;q1</title>
<path fill="none" stroke="black" d="M256.03,-38.02C239.98,-26.05 218.07,-12.15 196,-5.84 171.22,1.26 162.46,2.29 138,-5.84 122.07,-11.12 106.83,-21.53 94.57,-31.73"/>
<polygon fill="black" stroke="black" points="92.22,-29.14 86.97,-38.35 96.81,-34.42 92.22,-29.14"/>
<text text-anchor="middle" x="167" y="-9.64" font-family="Times,serif" font-size="14.00">a</text>
</g>
<!-- q3&#45;&gt;q2 -->
<g id="edge5" class="edge">
<title>q3&#45;&gt;q2</title>
<path fill="none" stroke="black" d="M196.22,-58.84C209.06,-58.84 224.52,-58.84 238.7,-58.84"/>
<polygon fill="black" stroke="black" points="238.74,-62.34 248.74,-58.84 238.74,-55.34 238.74,-62.34"/>
<text text-anchor="middle" x="222.5" y="-62.64" font-family="Times,serif" font-size="14.00">a,b</text>
</g>
<!-- q3&#45;&gt;q3 -->
<g id="edge6" class="edge">
<title>q3&#45;&gt;q3</title>
<path fill="none" stroke="black" d="M157.66,-86.35C157.25,-96.99 160.36,-105.84 167,-105.84 171.36,-105.84 174.2,-102.03 175.52,-96.4"/>
<polygon fill="black" stroke="black" points="179.01,-96.61 176.34,-86.35 172.03,-96.03 179.01,-96.61"/>
<text text-anchor="middle" x="167" y="-109.64" font-family="Times,serif" font-size="14.00">b</text>
</g>
</g>
</svg>
