<?xml version="1.0" encoding="UTF-8" standalone="no"?>
<!DOCTYPE svg PUBLIC "-//W3C//DTD SVG 1.1//EN"
 "http://www.w3.org/Graphics/SVG/1.1/DTD/svg11.dtd">
<!-- Generated by graphviz version 2.44.0 (20200408.0750)
 -->
<!-- Title: G Pages: 1 -->
<svg width="375pt" height="74pt"
 viewBox="0.00 0.00 375.00 74.00" xmlns="http://www.w3.org/2000/svg" xmlns:xlink="http://www.w3.org/1999/xlink">
<g id="graph0" class="graph" transform="scale(1 1) rotate(0) translate(4 70)">
<title>G</title>
<polygon fill="white" stroke="transparent" points="-4,4 -4,-70 371,-70 371,4 -4,4"/>
<!-- start -->
<g id="node1" class="node">
<title>start</title>
<ellipse fill="black" stroke="black" cx="0" cy="-33" rx="0" ry="0"/>
</g>
<!-- S -->
<g id="node2" class="node">
<title>S</title>
<ellipse fill="none" stroke="black" cx="66" cy="-33" rx="29" ry="29"/>
<text text-anchor="middle" x="66" y="-29.3" font-family="Times,serif" font-size="14.00">S</text>
</g>
<!-- start&#45;&gt;S -->
<g id="edge1" class="edge">
<title>start&#45;&gt;S</title>
<path fill="none" stroke="black" d="M1.05,-33C1.87,-33 13.45,-33 26.55,-33"/>
<polygon fill="black" stroke="black" points="26.7,-36.5 36.7,-33 26.7,-29.5 26.7,-36.5"/>
</g>
<!-- a -->
<g id="node3" class="node">
<title>a</title>
<ellipse fill="none" stroke="black" cx="334" cy="-33" rx="29" ry="29"/>
<ellipse fill="none" stroke="black" cx="334" cy="-33" rx="33" ry="33"/>
<text text-anchor="middle" x="334" y="-29.3" font-family="Times,serif" font-size="14.00">a</text>
</g>
<!-- S&#45;&gt;a -->
<g id="edge2" class="edge">
<title>S&#45;&gt;a</title>
<path fill="none" stroke="black" d="M95.47,-33C142.31,-33 235.87,-33 290.55,-33"/>
<polygon fill="black" stroke="black" points="290.62,-36.5 300.62,-33 290.62,-29.5 290.62,-36.5"/>
<text text-anchor="middle" x="198" y="-36.8" font-family="Times,serif" font-size="14.00">(ab*(a∪b)a∪a)*(ab*(a∪b)∪ℇ)</text>
</g>
</g>
</svg>
